M48
;Layer_Color=9474304
;FILE_FORMAT=4:4
METRIC,LZ
;TYPE=PLATED
T01F00S00C0.8000
T02F00S00C2.0000
%
T01
X007Y-0045
X006
X0055
X0045
X0035
X0025
X002
X001
X00075Y-004
X00125
X00175
X00225
X002Y-0035
X0015
X001
X00075Y-003
X00025
Y-004
X00125Y-003
X00175
X00225
X002Y-0025
X0015
X001
X00075Y-002
X00025
X00125
X00175
X00225
X002Y-0015
X0015
X001
X00125Y-001
X00175
X00225
X002Y-0005
X001
X00075Y-001
X00025
X00275
X00325
X00375
X00425
X00475
X00525
X00575
X00625
X006Y-0015
X0055
X005
X0045
X004
X0035
X003
X0025
X00275Y-002
X00325
X00375
X00425
X00475
X00525
X00575
X00625
X006Y-0025
X0055
X005
X0045
X004
X0035
X003
X0025
X00275Y-003
X00325
X00375
X00425
X00475
X00525
X00575
X00625
X006Y-0035
X0055
X005
X0045
X004
X0035
X003
X0025
X00275Y-004
X00325
X00375
X00425
X00475
X00525
X00575
X00625
X006Y-0005
X0055
X0045
X0035
X0025
X007
X00725Y-001
X00675
X0065Y-0015
X007
X00725Y-002
X00675
X0065Y-0025
X007
X0075
X00725Y-003
X00675
X007Y-0035
X0065
X00675Y-004
X00725
X00775
Y-001
T02
X0065Y-00475
X0077Y-0045
X005Y-00475
X004
X003
X0015
X0003Y-0045
X0003Y-0035
Y-0025
Y-0015
X0003Y-0005
X0015Y-00025
X003
X004
X005
X0065
X0077Y-0005
X0077Y-0015
Y-0035
M30
