G04*
G04 #@! TF.GenerationSoftware,Altium Limited,Altium Designer,25.8.1 (18)*
G04*
G04 Layer_Color=8388736*
%FSLAX44Y44*%
%MOMM*%
G71*
G04*
G04 #@! TF.SameCoordinates,5E0B8585-324C-45EE-8C63-8C8DE18584A6*
G04*
G04*
G04 #@! TF.FilePolarity,Positive*
G04*
G01*
G75*
%ADD20C,0.0500*%
G36*
X29250Y7750D02*
X15000D01*
Y11750D01*
X29250D01*
Y7750D01*
D02*
G37*
%LPC*%
G36*
X21856Y11032D02*
X21654D01*
Y8468D01*
X21967D01*
Y10464D01*
X21973Y10459D01*
X21986Y10445D01*
X22011Y10425D01*
X22048Y10398D01*
X22089Y10365D01*
X22142Y10329D01*
X22200Y10290D01*
X22266Y10248D01*
X22269D01*
X22274Y10243D01*
X22283Y10237D01*
X22297Y10232D01*
X22313Y10221D01*
X22333Y10212D01*
X22377Y10187D01*
X22427Y10163D01*
X22482Y10135D01*
X22540Y10110D01*
X22596Y10088D01*
Y8468D01*
X21990D01*
X22596D01*
Y10395D01*
Y10389D01*
X22593Y10392D01*
X22585Y10395D01*
X22571Y10403D01*
X22551Y10412D01*
X22529Y10423D01*
X22501Y10439D01*
X22471Y10456D01*
X22441Y10473D01*
X22369Y10517D01*
X22291Y10569D01*
X22211Y10625D01*
X22136Y10689D01*
X22133Y10691D01*
X22128Y10697D01*
X22117Y10705D01*
X22103Y10719D01*
X22089Y10736D01*
X22070Y10752D01*
X22028Y10799D01*
X21981Y10849D01*
X21934Y10907D01*
X21892Y10968D01*
X21856Y11032D01*
D02*
G37*
%LPD*%
D20*
X15000Y-15000D02*
Y15000D01*
X-15000Y-15000D02*
Y15000D01*
X15000D01*
X-15000Y-15000D02*
X15000D01*
X15000Y11750D02*
X29250Y11750D01*
X15000Y11750D02*
X15000Y7750D01*
X29250Y7750D01*
X29250Y11750D01*
X15000Y5250D02*
X29250D01*
X15000Y1250D02*
X15000Y5250D01*
X15000Y1250D02*
X29250Y1250D01*
X29250Y5250D01*
X15000Y-1250D02*
X29250Y-1250D01*
X15000Y-5250D02*
Y-1250D01*
Y-5250D02*
X29250Y-5250D01*
X29250Y-1250D01*
X15000Y-7750D02*
X29250Y-7750D01*
X15000Y-7750D02*
X15000Y-11750D01*
X29250D01*
X29250Y-7750D01*
X-29000Y11750D02*
X-14750Y11750D01*
X-29000Y7750D02*
Y11750D01*
Y7750D02*
X-14750Y7750D01*
X-14750Y11750D01*
X-29000Y5250D02*
X-14750Y5250D01*
X-29000Y5250D02*
X-29000Y1250D01*
X-14750Y1250D01*
X-14750Y5250D02*
X-14750Y1250D01*
X-29000Y-1250D02*
X-14750Y-1250D01*
X-29000Y-5250D02*
X-29000Y-1250D01*
X-29000Y-5250D02*
X-14750D01*
X-14750Y-1250D02*
X-14750Y-5250D01*
X-29000Y-7750D02*
X-14750Y-7750D01*
X-29000Y-11750D02*
X-29000Y-7750D01*
X-29000Y-11750D02*
X-14750D01*
X-14750Y-7750D02*
X-14750Y-11750D01*
X34500Y3350D02*
Y9250D01*
X34500Y16000D02*
Y21900D01*
X34500Y-9350D02*
Y-3450D01*
Y-22050D02*
Y-16150D01*
X-34500Y-22050D02*
Y-16150D01*
Y-9350D02*
Y-3450D01*
Y3350D02*
Y9250D01*
Y16050D02*
Y21950D01*
M02*
