G04*
G04 #@! TF.GenerationSoftware,Altium Limited,Altium Designer,24.6.1 (21)*
G04*
G04 Layer_Physical_Order=1*
G04 Layer_Color=255*
%FSLAX44Y44*%
%MOMM*%
G71*
G04*
G04 #@! TF.SameCoordinates,58C917F4-F435-4438-9918-92646441EF77*
G04*
G04*
G04 #@! TF.FilePolarity,Positive*
G04*
G01*
G75*
%ADD10C,0.2500*%
G04:AMPARAMS|DCode=19|XSize=0.6mm|YSize=1.5mm|CornerRadius=0.075mm|HoleSize=0mm|Usage=FLASHONLY|Rotation=90.000|XOffset=0mm|YOffset=0mm|HoleType=Round|Shape=RoundedRectangle|*
%AMROUNDEDRECTD19*
21,1,0.6000,1.3500,0,0,90.0*
21,1,0.4500,1.5000,0,0,90.0*
1,1,0.1500,0.6750,0.2250*
1,1,0.1500,0.6750,-0.2250*
1,1,0.1500,-0.6750,-0.2250*
1,1,0.1500,-0.6750,0.2250*
%
%ADD19ROUNDEDRECTD19*%
%ADD20C,0.4500*%
%ADD21C,1.5000*%
G04:AMPARAMS|DCode=22|XSize=4mm|YSize=4mm|CornerRadius=0.5mm|HoleSize=0mm|Usage=FLASHONLY|Rotation=0.000|XOffset=0mm|YOffset=0mm|HoleType=Round|Shape=RoundedRectangle|*
%AMROUNDEDRECTD22*
21,1,4.0000,3.0000,0,0,0.0*
21,1,3.0000,4.0000,0,0,0.0*
1,1,1.0000,1.5000,-1.5000*
1,1,1.0000,-1.5000,-1.5000*
1,1,1.0000,-1.5000,1.5000*
1,1,1.0000,1.5000,1.5000*
%
%ADD22ROUNDEDRECTD22*%
%ADD23C,4.0000*%
D10*
X437775Y-312775D02*
X475000Y-350000D01*
X437775Y-312775D02*
Y-302250D01*
X375000Y-350000D02*
Y-316500D01*
X325000Y-350000D02*
X361900Y-313100D01*
Y-288100D01*
X438100Y-186900D02*
X475000Y-150000D01*
X438100Y-211900D02*
Y-186900D01*
X425000Y-183500D02*
Y-150000D01*
X325000D02*
X361900Y-186900D01*
X400000Y-218500D02*
Y-204500D01*
X361900Y-211900D02*
Y-186900D01*
X373000Y-269050D02*
X383500Y-269050D01*
X373000Y-256350D02*
X390850Y-256350D01*
X373000Y-269050D02*
X373000Y-269050D01*
X363050Y-230950D02*
X373000Y-230950D01*
X361900Y-313100D02*
Y-288100D01*
X412700Y-288100D02*
X412700Y-288100D01*
X351500Y-277700D02*
X361900Y-288100D01*
X351500Y-277700D02*
Y-237000D01*
X357550Y-230950D01*
X363050D01*
X361350Y-243650D02*
X373000D01*
X358250Y-246750D02*
X361350Y-243650D01*
X358250Y-272750D02*
Y-246750D01*
Y-272750D02*
X362000Y-276500D01*
X375700D01*
X387300Y-288100D01*
X387300Y-288100D01*
X390850Y-256350D02*
X399100D01*
X412700Y-269950D01*
Y-288100D02*
Y-269950D01*
X387550Y-269050D02*
X400000Y-281500D01*
X383500Y-269050D02*
X387550D01*
X400000Y-295500D02*
X406750Y-302250D01*
X400000Y-295500D02*
Y-281500D01*
X437850Y-302250D02*
X438100Y-302500D01*
X406750Y-302250D02*
X437850D01*
X438100Y-313100D02*
Y-302500D01*
Y-288100D01*
X387300Y-230050D02*
Y-211900D01*
Y-230050D02*
X400900Y-243650D01*
X409150D01*
X387300Y-211900D02*
X387300Y-211900D01*
X409150Y-243650D02*
X427000Y-243650D01*
X362150Y-197750D02*
X393250D01*
X361900Y-197500D02*
X362150Y-197750D01*
X393250D02*
X400000Y-204500D01*
X412450Y-230950D02*
X416500D01*
X400000Y-218500D02*
X412450Y-230950D01*
X427000Y-230950D02*
X427000Y-230950D01*
X416500Y-230950D02*
X427000Y-230950D01*
X412700Y-211900D02*
X424300Y-223500D01*
X438000D01*
X441750Y-227250D01*
Y-253250D02*
Y-227250D01*
X438650Y-256350D02*
X441750Y-253250D01*
X427000Y-256350D02*
X438650D01*
X436950Y-269050D02*
X442450D01*
X448500Y-263000D01*
Y-222300D01*
X438100Y-211900D02*
X448500Y-222300D01*
X427000Y-269050D02*
X436950Y-269050D01*
X412700Y-211900D02*
Y-195800D01*
X425000Y-183500D01*
X375000Y-316500D02*
X387300Y-304200D01*
Y-288100D01*
D19*
X373000Y-230950D02*
D03*
Y-269050D02*
D03*
Y-256350D02*
D03*
X373000Y-243650D02*
D03*
X427000Y-230950D02*
D03*
Y-243650D02*
D03*
X427000Y-256350D02*
D03*
X427000Y-269050D02*
D03*
D20*
X600000Y-450000D02*
X625000Y-425000D01*
X575000D02*
X600000Y-450000D01*
X250000D02*
X275000Y-425000D01*
X225000D02*
X250000Y-450000D01*
X125000Y-425000D02*
X225000D01*
X100000Y-450000D02*
X125000Y-425000D01*
X450000Y-450000D02*
X475000Y-425000D01*
X725000D02*
X750000Y-450000D01*
X625000Y-425000D02*
X725000D01*
X475000D02*
X575000D01*
X425000D02*
X450000Y-450000D01*
X275000Y-425000D02*
X425000D01*
X375000Y-75000D02*
X525000D01*
X350000Y-50000D02*
X375000Y-75000D01*
X225000D02*
X325000D01*
X75000D02*
X175000D01*
X50000Y-50000D02*
X75000Y-75000D01*
X325000D02*
X350000Y-50000D01*
X675000Y-75000D02*
X700000Y-50000D01*
X575000Y-75000D02*
X675000D01*
X550000Y-50000D02*
X575000Y-75000D01*
X525000D02*
X550000Y-50000D01*
X200000D02*
X225000Y-75000D01*
X175000D02*
X200000Y-50000D01*
D21*
X438100Y-211900D02*
D03*
X412700Y-211900D02*
D03*
X387300Y-211900D02*
D03*
X361900D02*
D03*
X438100Y-288100D02*
D03*
X412700D02*
D03*
X387300Y-288100D02*
D03*
X361900Y-288100D02*
D03*
D22*
X475000Y-350000D02*
D03*
X425000D02*
D03*
X375000D02*
D03*
X475000Y-250000D02*
D03*
X325000Y-150000D02*
D03*
X375000D02*
D03*
X425000D02*
D03*
X475000D02*
D03*
X325000Y-250000D02*
D03*
Y-350000D02*
D03*
X50000Y-450000D02*
D03*
X100000D02*
D03*
X150000D02*
D03*
X200000D02*
D03*
X250000D02*
D03*
X300000D02*
D03*
X400000D02*
D03*
X500000D02*
D03*
X550000D02*
D03*
X600000D02*
D03*
X650000D02*
D03*
X700000D02*
D03*
X750000D02*
D03*
X450000D02*
D03*
X350000D02*
D03*
X450000Y-50000D02*
D03*
X350000D02*
D03*
X775000Y-400000D02*
D03*
X725000D02*
D03*
X525000D02*
D03*
X675000D02*
D03*
X475000D02*
D03*
X425000D02*
D03*
X375000D02*
D03*
X325000D02*
D03*
X275000D02*
D03*
X225000D02*
D03*
X175000D02*
D03*
X125000D02*
D03*
X75000D02*
D03*
X25000D02*
D03*
X625000D02*
D03*
X575000D02*
D03*
X775000Y-350000D02*
D03*
X725000D02*
D03*
X525000D02*
D03*
X675000D02*
D03*
X275000D02*
D03*
X225000D02*
D03*
X175000D02*
D03*
X125000D02*
D03*
X75000D02*
D03*
X25000D02*
D03*
X625000D02*
D03*
X575000D02*
D03*
X50000Y-50000D02*
D03*
X625000Y-150000D02*
D03*
X575000D02*
D03*
X625000Y-200000D02*
D03*
X575000D02*
D03*
X625000Y-250000D02*
D03*
X575000D02*
D03*
X225000Y-150000D02*
D03*
X175000D02*
D03*
X225000Y-200000D02*
D03*
X175000D02*
D03*
X225000Y-250000D02*
D03*
X175000D02*
D03*
X575000Y-300000D02*
D03*
X625000D02*
D03*
X25000D02*
D03*
X75000D02*
D03*
X125000D02*
D03*
X25000Y-250000D02*
D03*
X75000D02*
D03*
X125000D02*
D03*
X25000Y-200000D02*
D03*
X75000D02*
D03*
X125000D02*
D03*
X25000Y-150000D02*
D03*
X75000D02*
D03*
X125000D02*
D03*
X100000Y-50000D02*
D03*
X150000D02*
D03*
X200000D02*
D03*
X250000D02*
D03*
X300000D02*
D03*
X400000D02*
D03*
X500000D02*
D03*
X550000D02*
D03*
X600000D02*
D03*
X650000D02*
D03*
X700000D02*
D03*
X750000D02*
D03*
X475000Y-100000D02*
D03*
X425000D02*
D03*
X375000D02*
D03*
X325000D02*
D03*
X275000D02*
D03*
X225000D02*
D03*
X175000D02*
D03*
X125000D02*
D03*
X75000D02*
D03*
X25000D02*
D03*
X275000Y-250000D02*
D03*
Y-200000D02*
D03*
Y-150000D02*
D03*
X175000Y-300000D02*
D03*
X225000D02*
D03*
X275000D02*
D03*
X675000D02*
D03*
X525000D02*
D03*
Y-250000D02*
D03*
Y-200000D02*
D03*
Y-150000D02*
D03*
X675000Y-100000D02*
D03*
X625000D02*
D03*
X575000D02*
D03*
X525000D02*
D03*
X675000Y-150000D02*
D03*
Y-200000D02*
D03*
Y-250000D02*
D03*
X725000Y-200000D02*
D03*
Y-150000D02*
D03*
X775000D02*
D03*
X725000Y-100000D02*
D03*
X775000D02*
D03*
X725000Y-250000D02*
D03*
Y-300000D02*
D03*
D23*
X30000Y-450000D02*
D03*
X650000Y-475000D02*
D03*
X150000D02*
D03*
X300000D02*
D03*
X500000D02*
D03*
X400000D02*
D03*
X770000Y-450000D02*
D03*
X30000Y-50000D02*
D03*
X400000Y-25000D02*
D03*
X300000D02*
D03*
X500000D02*
D03*
X650000D02*
D03*
X150000D02*
D03*
X770000Y-50000D02*
D03*
M02*
