G04*
G04 #@! TF.GenerationSoftware,Altium Limited,Altium Designer,24.6.1 (21)*
G04*
G04 Layer_Color=65535*
%FSLAX44Y44*%
%MOMM*%
G71*
G04*
G04 #@! TF.SameCoordinates,58C917F4-F435-4438-9918-92646441EF77*
G04*
G04*
G04 #@! TF.FilePolarity,Positive*
G04*
G01*
G75*
%ADD10C,0.2500*%
%ADD11C,0.2000*%
%ADD12C,0.2000*%
%ADD13C,0.2500*%
%ADD14R,0.7475X0.5975*%
G36*
X760206Y-10206D02*
X760450D01*
X760731Y-10225D01*
X761012Y-10243D01*
X761275Y-10262D01*
X761396Y-10281D01*
X761509Y-10300D01*
X761537D01*
X761565Y-10309D01*
X761603Y-10318D01*
X761706Y-10346D01*
X761846Y-10384D01*
X762006Y-10440D01*
X762165Y-10506D01*
X762343Y-10590D01*
X762512Y-10693D01*
X762521D01*
X762531Y-10703D01*
X762587Y-10749D01*
X762671Y-10815D01*
X762774Y-10909D01*
X762887Y-11021D01*
X763018Y-11162D01*
X763140Y-11321D01*
X763252Y-11499D01*
Y-11509D01*
X763262Y-11518D01*
X763280Y-11546D01*
X763299Y-11584D01*
X763318Y-11631D01*
X763346Y-11687D01*
X763402Y-11827D01*
X763458Y-11996D01*
X763505Y-12184D01*
X763543Y-12399D01*
X763552Y-12624D01*
Y-12633D01*
Y-12652D01*
Y-12690D01*
X763543Y-12737D01*
Y-12793D01*
X763533Y-12868D01*
X763505Y-13027D01*
X763468Y-13224D01*
X763402Y-13430D01*
X763309Y-13646D01*
X763187Y-13861D01*
Y-13871D01*
X763168Y-13889D01*
X763149Y-13917D01*
X763121Y-13955D01*
X763037Y-14058D01*
X762924Y-14180D01*
X762784Y-14311D01*
X762615Y-14452D01*
X762418Y-14583D01*
X762203Y-14705D01*
X762212D01*
X762240Y-14714D01*
X762287Y-14733D01*
X762343Y-14752D01*
X762418Y-14780D01*
X762503Y-14817D01*
X762699Y-14911D01*
X762915Y-15033D01*
X763140Y-15183D01*
X763355Y-15370D01*
X763449Y-15473D01*
X763543Y-15586D01*
X763552Y-15595D01*
X763562Y-15614D01*
X763590Y-15651D01*
X763618Y-15698D01*
X763655Y-15754D01*
X763693Y-15820D01*
X763740Y-15904D01*
X763787Y-15998D01*
X763824Y-16092D01*
X763871Y-16204D01*
X763946Y-16448D01*
X764002Y-16729D01*
X764012Y-16879D01*
X764021Y-17029D01*
Y-17039D01*
Y-17057D01*
Y-17095D01*
Y-17142D01*
X764012Y-17198D01*
X764002Y-17263D01*
X763983Y-17432D01*
X763946Y-17620D01*
X763890Y-17835D01*
X763815Y-18069D01*
X763712Y-18304D01*
Y-18313D01*
X763702Y-18332D01*
X763683Y-18360D01*
X763655Y-18407D01*
X763627Y-18454D01*
X763590Y-18519D01*
X763496Y-18660D01*
X763374Y-18819D01*
X763234Y-18979D01*
X763065Y-19138D01*
X762877Y-19288D01*
X762868D01*
X762849Y-19307D01*
X762821Y-19325D01*
X762784Y-19344D01*
X762737Y-19372D01*
X762671Y-19410D01*
X762596Y-19447D01*
X762521Y-19485D01*
X762334Y-19560D01*
X762109Y-19635D01*
X761865Y-19700D01*
X761584Y-19747D01*
X761528D01*
X761481Y-19757D01*
X761415D01*
X761331Y-19766D01*
X761228D01*
X761106Y-19775D01*
X760965D01*
X760797Y-19785D01*
X760609D01*
X760394Y-19794D01*
X759878D01*
X759569Y-19803D01*
X755979D01*
Y-10196D01*
X760094D01*
X760206Y-10206D01*
D02*
G37*
G36*
X600206D02*
X600450D01*
X600731Y-10225D01*
X601012Y-10243D01*
X601275Y-10262D01*
X601397Y-10281D01*
X601509Y-10300D01*
X601537D01*
X601565Y-10309D01*
X601603Y-10318D01*
X601706Y-10346D01*
X601846Y-10384D01*
X602006Y-10440D01*
X602165Y-10506D01*
X602343Y-10590D01*
X602512Y-10693D01*
X602521D01*
X602531Y-10703D01*
X602587Y-10749D01*
X602671Y-10815D01*
X602774Y-10909D01*
X602887Y-11021D01*
X603018Y-11162D01*
X603140Y-11321D01*
X603252Y-11499D01*
Y-11509D01*
X603262Y-11518D01*
X603280Y-11546D01*
X603299Y-11584D01*
X603318Y-11631D01*
X603346Y-11687D01*
X603402Y-11827D01*
X603459Y-11996D01*
X603505Y-12184D01*
X603543Y-12399D01*
X603552Y-12624D01*
Y-12633D01*
Y-12652D01*
Y-12690D01*
X603543Y-12737D01*
Y-12793D01*
X603534Y-12868D01*
X603505Y-13027D01*
X603468Y-13224D01*
X603402Y-13430D01*
X603309Y-13646D01*
X603187Y-13861D01*
Y-13871D01*
X603168Y-13889D01*
X603149Y-13917D01*
X603121Y-13955D01*
X603037Y-14058D01*
X602924Y-14180D01*
X602784Y-14311D01*
X602615Y-14452D01*
X602418Y-14583D01*
X602203Y-14705D01*
X602212D01*
X602240Y-14714D01*
X602287Y-14733D01*
X602343Y-14752D01*
X602418Y-14780D01*
X602503Y-14817D01*
X602699Y-14911D01*
X602915Y-15033D01*
X603140Y-15183D01*
X603355Y-15370D01*
X603449Y-15473D01*
X603543Y-15586D01*
X603552Y-15595D01*
X603562Y-15614D01*
X603590Y-15651D01*
X603618Y-15698D01*
X603655Y-15754D01*
X603693Y-15820D01*
X603740Y-15904D01*
X603787Y-15998D01*
X603824Y-16092D01*
X603871Y-16204D01*
X603946Y-16448D01*
X604002Y-16729D01*
X604011Y-16879D01*
X604021Y-17029D01*
Y-17039D01*
Y-17057D01*
Y-17095D01*
Y-17142D01*
X604011Y-17198D01*
X604002Y-17263D01*
X603983Y-17432D01*
X603946Y-17620D01*
X603890Y-17835D01*
X603815Y-18069D01*
X603712Y-18304D01*
Y-18313D01*
X603702Y-18332D01*
X603684Y-18360D01*
X603655Y-18407D01*
X603627Y-18454D01*
X603590Y-18519D01*
X603496Y-18660D01*
X603374Y-18819D01*
X603234Y-18979D01*
X603065Y-19138D01*
X602877Y-19288D01*
X602868D01*
X602849Y-19307D01*
X602821Y-19325D01*
X602784Y-19344D01*
X602737Y-19372D01*
X602671Y-19410D01*
X602596Y-19447D01*
X602521Y-19485D01*
X602334Y-19560D01*
X602109Y-19635D01*
X601865Y-19700D01*
X601584Y-19747D01*
X601528D01*
X601481Y-19757D01*
X601415D01*
X601331Y-19766D01*
X601228D01*
X601106Y-19775D01*
X600965D01*
X600797Y-19785D01*
X600609D01*
X600394Y-19794D01*
X599878D01*
X599569Y-19803D01*
X595979D01*
Y-10196D01*
X600094D01*
X600206Y-10206D01*
D02*
G37*
G36*
X450206D02*
X450450D01*
X450731Y-10225D01*
X451012Y-10243D01*
X451275Y-10262D01*
X451397Y-10281D01*
X451509Y-10300D01*
X451537D01*
X451565Y-10309D01*
X451603Y-10318D01*
X451706Y-10346D01*
X451846Y-10384D01*
X452006Y-10440D01*
X452165Y-10506D01*
X452343Y-10590D01*
X452512Y-10693D01*
X452521D01*
X452531Y-10703D01*
X452587Y-10749D01*
X452671Y-10815D01*
X452774Y-10909D01*
X452887Y-11021D01*
X453018Y-11162D01*
X453140Y-11321D01*
X453252Y-11499D01*
Y-11509D01*
X453262Y-11518D01*
X453280Y-11546D01*
X453299Y-11584D01*
X453318Y-11631D01*
X453346Y-11687D01*
X453402Y-11827D01*
X453459Y-11996D01*
X453505Y-12184D01*
X453543Y-12399D01*
X453552Y-12624D01*
Y-12633D01*
Y-12652D01*
Y-12690D01*
X453543Y-12737D01*
Y-12793D01*
X453534Y-12868D01*
X453505Y-13027D01*
X453468Y-13224D01*
X453402Y-13430D01*
X453309Y-13646D01*
X453187Y-13861D01*
Y-13871D01*
X453168Y-13889D01*
X453149Y-13917D01*
X453121Y-13955D01*
X453037Y-14058D01*
X452924Y-14180D01*
X452784Y-14311D01*
X452615Y-14452D01*
X452418Y-14583D01*
X452203Y-14705D01*
X452212D01*
X452240Y-14714D01*
X452287Y-14733D01*
X452343Y-14752D01*
X452418Y-14780D01*
X452503Y-14817D01*
X452699Y-14911D01*
X452915Y-15033D01*
X453140Y-15183D01*
X453355Y-15370D01*
X453449Y-15473D01*
X453543Y-15586D01*
X453552Y-15595D01*
X453562Y-15614D01*
X453590Y-15651D01*
X453618Y-15698D01*
X453655Y-15754D01*
X453693Y-15820D01*
X453740Y-15904D01*
X453787Y-15998D01*
X453824Y-16092D01*
X453871Y-16204D01*
X453946Y-16448D01*
X454002Y-16729D01*
X454011Y-16879D01*
X454021Y-17029D01*
Y-17039D01*
Y-17057D01*
Y-17095D01*
Y-17142D01*
X454011Y-17198D01*
X454002Y-17263D01*
X453983Y-17432D01*
X453946Y-17620D01*
X453890Y-17835D01*
X453815Y-18069D01*
X453712Y-18304D01*
Y-18313D01*
X453702Y-18332D01*
X453684Y-18360D01*
X453655Y-18407D01*
X453627Y-18454D01*
X453590Y-18519D01*
X453496Y-18660D01*
X453374Y-18819D01*
X453234Y-18979D01*
X453065Y-19138D01*
X452877Y-19288D01*
X452868D01*
X452849Y-19307D01*
X452821Y-19325D01*
X452784Y-19344D01*
X452737Y-19372D01*
X452671Y-19410D01*
X452596Y-19447D01*
X452521Y-19485D01*
X452334Y-19560D01*
X452109Y-19635D01*
X451865Y-19700D01*
X451584Y-19747D01*
X451528D01*
X451481Y-19757D01*
X451415D01*
X451331Y-19766D01*
X451228D01*
X451106Y-19775D01*
X450965D01*
X450797Y-19785D01*
X450609D01*
X450394Y-19794D01*
X449878D01*
X449569Y-19803D01*
X445979D01*
Y-10196D01*
X450094D01*
X450206Y-10206D01*
D02*
G37*
G36*
X250206D02*
X250450D01*
X250731Y-10225D01*
X251012Y-10243D01*
X251275Y-10262D01*
X251397Y-10281D01*
X251509Y-10300D01*
X251537D01*
X251565Y-10309D01*
X251603Y-10318D01*
X251706Y-10346D01*
X251846Y-10384D01*
X252006Y-10440D01*
X252165Y-10506D01*
X252343Y-10590D01*
X252512Y-10693D01*
X252521D01*
X252531Y-10703D01*
X252587Y-10749D01*
X252671Y-10815D01*
X252774Y-10909D01*
X252887Y-11021D01*
X253018Y-11162D01*
X253140Y-11321D01*
X253252Y-11499D01*
Y-11509D01*
X253262Y-11518D01*
X253280Y-11546D01*
X253299Y-11584D01*
X253318Y-11631D01*
X253346Y-11687D01*
X253402Y-11827D01*
X253458Y-11996D01*
X253505Y-12184D01*
X253543Y-12399D01*
X253552Y-12624D01*
Y-12633D01*
Y-12652D01*
Y-12690D01*
X253543Y-12737D01*
Y-12793D01*
X253533Y-12868D01*
X253505Y-13027D01*
X253468Y-13224D01*
X253402Y-13430D01*
X253309Y-13646D01*
X253187Y-13861D01*
Y-13871D01*
X253168Y-13889D01*
X253149Y-13917D01*
X253121Y-13955D01*
X253037Y-14058D01*
X252924Y-14180D01*
X252784Y-14311D01*
X252615Y-14452D01*
X252418Y-14583D01*
X252203Y-14705D01*
X252212D01*
X252240Y-14714D01*
X252287Y-14733D01*
X252343Y-14752D01*
X252418Y-14780D01*
X252502Y-14817D01*
X252699Y-14911D01*
X252915Y-15033D01*
X253140Y-15183D01*
X253355Y-15370D01*
X253449Y-15473D01*
X253543Y-15586D01*
X253552Y-15595D01*
X253562Y-15614D01*
X253590Y-15651D01*
X253618Y-15698D01*
X253655Y-15754D01*
X253693Y-15820D01*
X253740Y-15904D01*
X253787Y-15998D01*
X253824Y-16092D01*
X253871Y-16204D01*
X253946Y-16448D01*
X254002Y-16729D01*
X254011Y-16879D01*
X254021Y-17029D01*
Y-17039D01*
Y-17057D01*
Y-17095D01*
Y-17142D01*
X254011Y-17198D01*
X254002Y-17263D01*
X253983Y-17432D01*
X253946Y-17620D01*
X253890Y-17835D01*
X253815Y-18069D01*
X253712Y-18304D01*
Y-18313D01*
X253702Y-18332D01*
X253683Y-18360D01*
X253655Y-18407D01*
X253627Y-18454D01*
X253590Y-18519D01*
X253496Y-18660D01*
X253374Y-18819D01*
X253234Y-18979D01*
X253065Y-19138D01*
X252877Y-19288D01*
X252868D01*
X252849Y-19307D01*
X252821Y-19325D01*
X252784Y-19344D01*
X252737Y-19372D01*
X252671Y-19410D01*
X252596Y-19447D01*
X252521Y-19485D01*
X252334Y-19560D01*
X252109Y-19635D01*
X251865Y-19700D01*
X251584Y-19747D01*
X251528D01*
X251481Y-19757D01*
X251415D01*
X251331Y-19766D01*
X251228D01*
X251106Y-19775D01*
X250965D01*
X250797Y-19785D01*
X250609D01*
X250394Y-19794D01*
X249878D01*
X249569Y-19803D01*
X245979D01*
Y-10196D01*
X250094D01*
X250206Y-10206D01*
D02*
G37*
G36*
X100206D02*
X100450D01*
X100731Y-10225D01*
X101012Y-10243D01*
X101275Y-10262D01*
X101397Y-10281D01*
X101509Y-10300D01*
X101537D01*
X101565Y-10309D01*
X101603Y-10318D01*
X101706Y-10346D01*
X101846Y-10384D01*
X102006Y-10440D01*
X102165Y-10506D01*
X102343Y-10590D01*
X102512Y-10693D01*
X102521D01*
X102531Y-10703D01*
X102587Y-10749D01*
X102671Y-10815D01*
X102774Y-10909D01*
X102887Y-11021D01*
X103018Y-11162D01*
X103140Y-11321D01*
X103252Y-11499D01*
Y-11509D01*
X103262Y-11518D01*
X103280Y-11546D01*
X103299Y-11584D01*
X103318Y-11631D01*
X103346Y-11687D01*
X103402Y-11827D01*
X103458Y-11996D01*
X103505Y-12184D01*
X103543Y-12399D01*
X103552Y-12624D01*
Y-12633D01*
Y-12652D01*
Y-12690D01*
X103543Y-12737D01*
Y-12793D01*
X103533Y-12868D01*
X103505Y-13027D01*
X103468Y-13224D01*
X103402Y-13430D01*
X103308Y-13646D01*
X103187Y-13861D01*
Y-13871D01*
X103168Y-13889D01*
X103149Y-13917D01*
X103121Y-13955D01*
X103037Y-14058D01*
X102924Y-14180D01*
X102784Y-14311D01*
X102615Y-14452D01*
X102418Y-14583D01*
X102203Y-14705D01*
X102212D01*
X102240Y-14714D01*
X102287Y-14733D01*
X102343Y-14752D01*
X102418Y-14780D01*
X102502Y-14817D01*
X102699Y-14911D01*
X102915Y-15033D01*
X103140Y-15183D01*
X103355Y-15370D01*
X103449Y-15473D01*
X103543Y-15586D01*
X103552Y-15595D01*
X103562Y-15614D01*
X103590Y-15651D01*
X103618Y-15698D01*
X103655Y-15754D01*
X103693Y-15820D01*
X103740Y-15904D01*
X103786Y-15998D01*
X103824Y-16092D01*
X103871Y-16204D01*
X103946Y-16448D01*
X104002Y-16729D01*
X104011Y-16879D01*
X104021Y-17029D01*
Y-17039D01*
Y-17057D01*
Y-17095D01*
Y-17142D01*
X104011Y-17198D01*
X104002Y-17263D01*
X103983Y-17432D01*
X103946Y-17620D01*
X103890Y-17835D01*
X103815Y-18069D01*
X103712Y-18304D01*
Y-18313D01*
X103702Y-18332D01*
X103683Y-18360D01*
X103655Y-18407D01*
X103627Y-18454D01*
X103590Y-18519D01*
X103496Y-18660D01*
X103374Y-18819D01*
X103234Y-18979D01*
X103065Y-19138D01*
X102877Y-19288D01*
X102868D01*
X102849Y-19307D01*
X102821Y-19325D01*
X102784Y-19344D01*
X102737Y-19372D01*
X102671Y-19410D01*
X102596Y-19447D01*
X102521Y-19485D01*
X102334Y-19560D01*
X102109Y-19635D01*
X101865Y-19700D01*
X101584Y-19747D01*
X101528D01*
X101481Y-19757D01*
X101415D01*
X101331Y-19766D01*
X101228D01*
X101106Y-19775D01*
X100965D01*
X100797Y-19785D01*
X100609D01*
X100394Y-19794D01*
X99878D01*
X99569Y-19803D01*
X95979D01*
Y-10196D01*
X100094D01*
X100206Y-10206D01*
D02*
G37*
G36*
X575000Y-25000D02*
X525000D01*
Y-5000D01*
X575000D01*
Y-25000D01*
D02*
G37*
G36*
X375000D02*
X325000D01*
Y-5000D01*
X375000D01*
Y-25000D01*
D02*
G37*
G36*
X400000Y-209000D02*
X397000Y-204000D01*
X392000Y-200000D01*
X387300Y-199200D01*
X380011Y-201500D01*
X376000Y-206000D01*
X374600Y-211900D01*
X373000Y-204000D01*
X368000Y-200000D01*
X363941Y-198336D01*
X363921Y-199802D01*
X356500Y-198500D01*
X351500Y-193500D01*
X349500Y-186800D01*
Y-175000D01*
X350000D01*
Y-169000D01*
X356335Y-175000D01*
X364259D01*
X364250Y-175677D01*
X386036D01*
X386000Y-175000D01*
X390000D01*
X396000Y-173000D01*
X400000Y-168000D01*
Y-209000D01*
D02*
G37*
G36*
X325241Y-180454D02*
X325407Y-180473D01*
X325574Y-180491D01*
X325778Y-180510D01*
X325981Y-180547D01*
X326444Y-180658D01*
X326926Y-180825D01*
X327148Y-180936D01*
X327389Y-181065D01*
X327592Y-181214D01*
X327796Y-181380D01*
X327814Y-181399D01*
X327833Y-181417D01*
X327889Y-181473D01*
X327963Y-181547D01*
X328037Y-181639D01*
X328111Y-181751D01*
X328315Y-182028D01*
X328500Y-182380D01*
X328648Y-182769D01*
X328777Y-183232D01*
X328796Y-183491D01*
X328814Y-183750D01*
Y-183769D01*
Y-183787D01*
Y-183899D01*
X328796Y-184065D01*
X328759Y-184287D01*
X328703Y-184528D01*
X328611Y-184787D01*
X328500Y-185065D01*
X328333Y-185343D01*
X328315Y-185380D01*
X328240Y-185454D01*
X328148Y-185583D01*
X328000Y-185732D01*
X327814Y-185917D01*
X327592Y-186083D01*
X327333Y-186250D01*
X327037Y-186398D01*
X327055D01*
X327092Y-186417D01*
X327148Y-186435D01*
X327222Y-186472D01*
X327407Y-186583D01*
X327648Y-186731D01*
X327907Y-186898D01*
X328185Y-187120D01*
X328444Y-187380D01*
X328666Y-187676D01*
X328685Y-187713D01*
X328759Y-187824D01*
X328852Y-187991D01*
X328944Y-188213D01*
X329055Y-188491D01*
X329129Y-188824D01*
X329203Y-189176D01*
X329222Y-189564D01*
Y-189583D01*
Y-189639D01*
Y-189731D01*
X329203Y-189861D01*
X329185Y-190009D01*
X329166Y-190194D01*
X329129Y-190379D01*
X329074Y-190583D01*
X328944Y-191046D01*
X328852Y-191287D01*
X328740Y-191527D01*
X328611Y-191768D01*
X328444Y-192009D01*
X328277Y-192231D01*
X328074Y-192453D01*
X328055Y-192472D01*
X328018Y-192509D01*
X327963Y-192564D01*
X327870Y-192620D01*
X327759Y-192712D01*
X327611Y-192805D01*
X327463Y-192897D01*
X327278Y-193009D01*
X327074Y-193120D01*
X326833Y-193212D01*
X326592Y-193305D01*
X326333Y-193398D01*
X326037Y-193453D01*
X325722Y-193509D01*
X325407Y-193546D01*
X325056Y-193564D01*
X324889D01*
X324759Y-193546D01*
X324611Y-193527D01*
X324445Y-193509D01*
X324259Y-193490D01*
X324037Y-193453D01*
X323574Y-193342D01*
X323093Y-193175D01*
X322852Y-193083D01*
X322611Y-192953D01*
X322371Y-192824D01*
X322149Y-192657D01*
X322130Y-192638D01*
X322093Y-192601D01*
X322019Y-192546D01*
X321926Y-192453D01*
X321834Y-192342D01*
X321723Y-192212D01*
X321593Y-192046D01*
X321463Y-191879D01*
X321334Y-191675D01*
X321204Y-191453D01*
X321093Y-191213D01*
X321000Y-190935D01*
X320908Y-190657D01*
X320834Y-190342D01*
X320797Y-190028D01*
X320778Y-189676D01*
Y-189657D01*
Y-189620D01*
Y-189564D01*
Y-189491D01*
X320797Y-189287D01*
X320834Y-189046D01*
X320908Y-188750D01*
X320982Y-188417D01*
X321111Y-188083D01*
X321278Y-187750D01*
Y-187731D01*
X321297Y-187713D01*
X321371Y-187602D01*
X321500Y-187454D01*
X321685Y-187250D01*
X321908Y-187028D01*
X322186Y-186806D01*
X322519Y-186602D01*
X322908Y-186398D01*
X322889D01*
X322871Y-186380D01*
X322760Y-186324D01*
X322593Y-186232D01*
X322389Y-186120D01*
X322149Y-185954D01*
X321926Y-185769D01*
X321704Y-185546D01*
X321519Y-185306D01*
X321500Y-185269D01*
X321445Y-185176D01*
X321389Y-185047D01*
X321315Y-184843D01*
X321223Y-184621D01*
X321167Y-184343D01*
X321111Y-184065D01*
X321093Y-183750D01*
Y-183732D01*
Y-183695D01*
Y-183621D01*
X321111Y-183510D01*
X321130Y-183398D01*
X321149Y-183250D01*
X321223Y-182917D01*
X321334Y-182547D01*
X321519Y-182139D01*
X321630Y-181954D01*
X321760Y-181751D01*
X321926Y-181565D01*
X322093Y-181380D01*
X322111Y-181362D01*
X322149Y-181343D01*
X322204Y-181288D01*
X322278Y-181232D01*
X322389Y-181158D01*
X322500Y-181084D01*
X322648Y-180991D01*
X322834Y-180899D01*
X323019Y-180825D01*
X323222Y-180732D01*
X323463Y-180658D01*
X323722Y-180584D01*
X324000Y-180528D01*
X324296Y-180473D01*
X324611Y-180454D01*
X324944Y-180436D01*
X325130D01*
X325241Y-180454D01*
D02*
G37*
G36*
X450000Y-165000D02*
X450048Y-165980D01*
X450431Y-167903D01*
X451181Y-169714D01*
X452270Y-171344D01*
X453656Y-172730D01*
X455286Y-173819D01*
X457097Y-174569D01*
X459020Y-174952D01*
X460000Y-175000D01*
X467000D01*
Y-175556D01*
X483000D01*
Y-175000D01*
X492150D01*
X492150Y-175000D01*
X492919Y-174962D01*
X494429Y-174662D01*
X495850Y-174073D01*
X497130Y-173218D01*
X498218Y-172130D01*
X499073Y-170851D01*
X499662Y-169429D01*
X499962Y-167920D01*
X500000Y-167150D01*
X500000Y-199300D01*
Y-200551D01*
X499512Y-203004D01*
X498555Y-205316D01*
X497165Y-207396D01*
X495396Y-209165D01*
X493316Y-210555D01*
X491004Y-211512D01*
X488551Y-212000D01*
X459512D01*
X450600Y-217360D01*
X450496D01*
Y-209434D01*
X450253Y-208213D01*
X449300Y-205913D01*
X447917Y-203843D01*
X446157Y-202083D01*
X444087Y-200700D01*
X441787Y-199747D01*
X439345Y-199261D01*
X438100Y-199200D01*
Y-199200D01*
X439266Y-199143D01*
X441554Y-198688D01*
X443710Y-197795D01*
X445649Y-196499D01*
X447299Y-194849D01*
X448595Y-192910D01*
X449487Y-190755D01*
X449943Y-188466D01*
X450000Y-187300D01*
X450000Y-165000D01*
Y-165000D01*
D02*
G37*
G36*
X427000Y-296000D02*
X432000Y-300000D01*
X435504Y-301436D01*
X436062D01*
X436079Y-300198D01*
X443500Y-301500D01*
X448500Y-306500D01*
X450500Y-313200D01*
Y-325000D01*
X450000D01*
Y-331000D01*
X443665Y-325000D01*
X435741D01*
X435747Y-324564D01*
X413977D01*
X414000Y-325000D01*
X410000D01*
X404000Y-327000D01*
X400000Y-332000D01*
Y-291000D01*
X403000Y-296000D01*
X408000Y-300000D01*
X412700Y-300800D01*
X419989Y-298500D01*
X424000Y-294000D01*
X425400Y-288100D01*
X427000Y-296000D01*
D02*
G37*
G36*
X478018Y-314713D02*
X479611D01*
Y-316861D01*
X478018D01*
Y-319435D01*
X475648D01*
Y-316861D01*
X470389D01*
Y-314731D01*
X475944Y-306565D01*
X478018D01*
Y-314713D01*
D02*
G37*
G36*
X349261Y-289345D02*
X349747Y-291787D01*
X350700Y-294087D01*
X352083Y-296157D01*
X353843Y-297917D01*
X355913Y-299300D01*
X358213Y-300253D01*
X360655Y-300739D01*
X361900Y-300800D01*
Y-300800D01*
X360734Y-300857D01*
X358446Y-301312D01*
X356290Y-302205D01*
X354351Y-303501D01*
X352701Y-305151D01*
X351405Y-307090D01*
X350513Y-309246D01*
X350057Y-311534D01*
X350000Y-312700D01*
X350000Y-335000D01*
X350000D01*
X349952Y-334020D01*
X349570Y-332097D01*
X348819Y-330286D01*
X347730Y-328656D01*
X346344Y-327270D01*
X344714Y-326181D01*
X342903Y-325431D01*
X340980Y-325048D01*
X340000Y-325000D01*
X333000Y-325000D01*
Y-324444D01*
X317000D01*
Y-325000D01*
X307850D01*
Y-325000D01*
X307081Y-325038D01*
X305571Y-325338D01*
X304150Y-325927D01*
X302870Y-326782D01*
X301782Y-327870D01*
X300927Y-329150D01*
X300338Y-330571D01*
X300038Y-332081D01*
X300000Y-332850D01*
X300000Y-300700D01*
Y-299449D01*
X300488Y-296996D01*
X301445Y-294684D01*
X302835Y-292604D01*
X304604Y-290835D01*
X306684Y-289445D01*
X308996Y-288488D01*
X311449Y-288000D01*
X345294D01*
X349500Y-282500D01*
X349261Y-289345D01*
D02*
G37*
G36*
X40596Y-480042D02*
X40749Y-480056D01*
X40915Y-480084D01*
X41109Y-480111D01*
X41318Y-480153D01*
X41539Y-480208D01*
X41775Y-480278D01*
X42011Y-480361D01*
X42260Y-480472D01*
X42496Y-480583D01*
X42718Y-480722D01*
X42954Y-480888D01*
X43162Y-481068D01*
X43176D01*
X43190Y-481096D01*
X43231Y-481138D01*
X43273Y-481179D01*
X43328Y-481249D01*
X43384Y-481332D01*
X43536Y-481526D01*
X43689Y-481776D01*
X43855Y-482081D01*
X44008Y-482427D01*
X44147Y-482830D01*
X42233Y-483287D01*
Y-483273D01*
X42219Y-483260D01*
Y-483218D01*
X42191Y-483162D01*
X42150Y-483038D01*
X42080Y-482871D01*
X41983Y-482677D01*
X41858Y-482483D01*
X41692Y-482289D01*
X41512Y-482122D01*
X41484Y-482108D01*
X41414Y-482053D01*
X41304Y-481984D01*
X41151Y-481900D01*
X40957Y-481817D01*
X40735Y-481748D01*
X40485Y-481692D01*
X40208Y-481679D01*
X40111D01*
X40028Y-481692D01*
X39945Y-481706D01*
X39834Y-481720D01*
X39598Y-481776D01*
X39320Y-481873D01*
X39029Y-482011D01*
X38877Y-482094D01*
X38738Y-482192D01*
X38599Y-482316D01*
X38474Y-482455D01*
Y-482469D01*
X38447Y-482497D01*
X38419Y-482538D01*
X38377Y-482608D01*
X38322Y-482691D01*
X38266Y-482788D01*
X38211Y-482913D01*
X38156Y-483051D01*
X38086Y-483218D01*
X38031Y-483398D01*
X37975Y-483606D01*
X37920Y-483828D01*
X37878Y-484078D01*
X37850Y-484341D01*
X37836Y-484632D01*
X37823Y-484951D01*
Y-484965D01*
Y-485035D01*
Y-485132D01*
X37836Y-485243D01*
Y-485395D01*
X37864Y-485575D01*
X37878Y-485756D01*
X37906Y-485964D01*
X37989Y-486394D01*
X38100Y-486824D01*
X38169Y-487032D01*
X38266Y-487226D01*
X38363Y-487406D01*
X38474Y-487559D01*
X38488Y-487573D01*
X38502Y-487586D01*
X38544Y-487628D01*
X38599Y-487683D01*
X38738Y-487794D01*
X38932Y-487933D01*
X39168Y-488086D01*
X39459Y-488197D01*
X39792Y-488294D01*
X39972Y-488308D01*
X40166Y-488321D01*
X40236D01*
X40291Y-488308D01*
X40444Y-488294D01*
X40624Y-488266D01*
X40818Y-488197D01*
X41040Y-488113D01*
X41262Y-488003D01*
X41484Y-487836D01*
X41512Y-487808D01*
X41581Y-487739D01*
X41678Y-487628D01*
X41789Y-487462D01*
X41928Y-487240D01*
X42052Y-486976D01*
X42177Y-486657D01*
X42288Y-486283D01*
X44174Y-486865D01*
Y-486879D01*
X44160Y-486935D01*
X44133Y-487018D01*
X44091Y-487129D01*
X44036Y-487254D01*
X43980Y-487406D01*
X43911Y-487573D01*
X43828Y-487753D01*
X43633Y-488127D01*
X43384Y-488516D01*
X43079Y-488890D01*
X42912Y-489057D01*
X42732Y-489209D01*
X42718Y-489223D01*
X42690Y-489237D01*
X42635Y-489278D01*
X42552Y-489334D01*
X42455Y-489389D01*
X42330Y-489445D01*
X42191Y-489514D01*
X42039Y-489584D01*
X41858Y-489667D01*
X41664Y-489736D01*
X41456Y-489791D01*
X41234Y-489847D01*
X40999Y-489902D01*
X40735Y-489944D01*
X40472Y-489958D01*
X40180Y-489972D01*
X40097D01*
X40000Y-489958D01*
X39861Y-489944D01*
X39709Y-489930D01*
X39515Y-489902D01*
X39307Y-489861D01*
X39071Y-489805D01*
X38835Y-489736D01*
X38585Y-489653D01*
X38322Y-489542D01*
X38058Y-489417D01*
X37795Y-489278D01*
X37531Y-489098D01*
X37282Y-488904D01*
X37046Y-488668D01*
X37032Y-488654D01*
X36990Y-488613D01*
X36935Y-488530D01*
X36852Y-488432D01*
X36769Y-488294D01*
X36658Y-488141D01*
X36547Y-487947D01*
X36436Y-487725D01*
X36325Y-487489D01*
X36214Y-487226D01*
X36103Y-486921D01*
X36020Y-486602D01*
X35937Y-486269D01*
X35881Y-485895D01*
X35840Y-485506D01*
X35826Y-485090D01*
Y-485076D01*
Y-485062D01*
Y-484979D01*
X35840Y-484854D01*
Y-484688D01*
X35867Y-484494D01*
X35895Y-484258D01*
X35923Y-484008D01*
X35978Y-483717D01*
X36047Y-483426D01*
X36131Y-483121D01*
X36228Y-482816D01*
X36353Y-482497D01*
X36491Y-482192D01*
X36658Y-481900D01*
X36838Y-481623D01*
X37060Y-481359D01*
X37074Y-481346D01*
X37115Y-481304D01*
X37185Y-481235D01*
X37282Y-481152D01*
X37407Y-481054D01*
X37559Y-480943D01*
X37726Y-480819D01*
X37934Y-480694D01*
X38156Y-480569D01*
X38391Y-480444D01*
X38669Y-480333D01*
X38946Y-480236D01*
X39265Y-480153D01*
X39584Y-480084D01*
X39945Y-480042D01*
X40305Y-480028D01*
X40472D01*
X40596Y-480042D01*
D02*
G37*
G36*
X700596D02*
X700749Y-480056D01*
X700915Y-480084D01*
X701109Y-480111D01*
X701318Y-480153D01*
X701539Y-480208D01*
X701775Y-480278D01*
X702011Y-480361D01*
X702261Y-480472D01*
X702496Y-480583D01*
X702718Y-480722D01*
X702954Y-480888D01*
X703162Y-481068D01*
X703176D01*
X703190Y-481096D01*
X703231Y-481138D01*
X703273Y-481179D01*
X703328Y-481249D01*
X703384Y-481332D01*
X703536Y-481526D01*
X703689Y-481776D01*
X703855Y-482081D01*
X704008Y-482427D01*
X704147Y-482830D01*
X702233Y-483287D01*
Y-483273D01*
X702219Y-483260D01*
Y-483218D01*
X702191Y-483162D01*
X702150Y-483038D01*
X702080Y-482871D01*
X701983Y-482677D01*
X701858Y-482483D01*
X701692Y-482289D01*
X701512Y-482122D01*
X701484Y-482108D01*
X701415Y-482053D01*
X701304Y-481984D01*
X701151Y-481900D01*
X700957Y-481817D01*
X700735Y-481748D01*
X700485Y-481692D01*
X700208Y-481679D01*
X700111D01*
X700028Y-481692D01*
X699945Y-481706D01*
X699834Y-481720D01*
X699598Y-481776D01*
X699320Y-481873D01*
X699029Y-482011D01*
X698877Y-482094D01*
X698738Y-482192D01*
X698599Y-482316D01*
X698475Y-482455D01*
Y-482469D01*
X698447Y-482497D01*
X698419Y-482538D01*
X698377Y-482608D01*
X698322Y-482691D01*
X698266Y-482788D01*
X698211Y-482913D01*
X698156Y-483051D01*
X698086Y-483218D01*
X698031Y-483398D01*
X697975Y-483606D01*
X697920Y-483828D01*
X697878Y-484078D01*
X697850Y-484341D01*
X697837Y-484632D01*
X697823Y-484951D01*
Y-484965D01*
Y-485035D01*
Y-485132D01*
X697837Y-485243D01*
Y-485395D01*
X697864Y-485575D01*
X697878Y-485756D01*
X697906Y-485964D01*
X697989Y-486394D01*
X698100Y-486824D01*
X698169Y-487032D01*
X698266Y-487226D01*
X698363Y-487406D01*
X698475Y-487559D01*
X698488Y-487573D01*
X698502Y-487586D01*
X698544Y-487628D01*
X698599Y-487683D01*
X698738Y-487794D01*
X698932Y-487933D01*
X699168Y-488086D01*
X699459Y-488197D01*
X699792Y-488294D01*
X699972Y-488308D01*
X700166Y-488321D01*
X700236D01*
X700291Y-488308D01*
X700444Y-488294D01*
X700624Y-488266D01*
X700818Y-488197D01*
X701040Y-488113D01*
X701262Y-488003D01*
X701484Y-487836D01*
X701512Y-487808D01*
X701581Y-487739D01*
X701678Y-487628D01*
X701789Y-487462D01*
X701928Y-487240D01*
X702053Y-486976D01*
X702177Y-486657D01*
X702288Y-486283D01*
X704174Y-486865D01*
Y-486879D01*
X704161Y-486935D01*
X704133Y-487018D01*
X704091Y-487129D01*
X704036Y-487254D01*
X703980Y-487406D01*
X703911Y-487573D01*
X703828Y-487753D01*
X703633Y-488127D01*
X703384Y-488516D01*
X703079Y-488890D01*
X702912Y-489057D01*
X702732Y-489209D01*
X702718Y-489223D01*
X702691Y-489237D01*
X702635Y-489278D01*
X702552Y-489334D01*
X702455Y-489389D01*
X702330Y-489445D01*
X702191Y-489514D01*
X702039Y-489584D01*
X701858Y-489667D01*
X701664Y-489736D01*
X701456Y-489791D01*
X701234Y-489847D01*
X700999Y-489902D01*
X700735Y-489944D01*
X700471Y-489958D01*
X700180Y-489972D01*
X700097D01*
X700000Y-489958D01*
X699861Y-489944D01*
X699709Y-489930D01*
X699515Y-489902D01*
X699307Y-489861D01*
X699071Y-489805D01*
X698835Y-489736D01*
X698585Y-489653D01*
X698322Y-489542D01*
X698058Y-489417D01*
X697795Y-489278D01*
X697531Y-489098D01*
X697282Y-488904D01*
X697046Y-488668D01*
X697032Y-488654D01*
X696991Y-488613D01*
X696935Y-488530D01*
X696852Y-488432D01*
X696769Y-488294D01*
X696658Y-488141D01*
X696547Y-487947D01*
X696436Y-487725D01*
X696325Y-487489D01*
X696214Y-487226D01*
X696103Y-486921D01*
X696020Y-486602D01*
X695937Y-486269D01*
X695881Y-485895D01*
X695839Y-485506D01*
X695826Y-485090D01*
Y-485076D01*
Y-485062D01*
Y-484979D01*
X695839Y-484854D01*
Y-484688D01*
X695867Y-484494D01*
X695895Y-484258D01*
X695923Y-484008D01*
X695978Y-483717D01*
X696048Y-483426D01*
X696131Y-483121D01*
X696228Y-482816D01*
X696353Y-482497D01*
X696491Y-482192D01*
X696658Y-481900D01*
X696838Y-481623D01*
X697060Y-481359D01*
X697074Y-481346D01*
X697115Y-481304D01*
X697185Y-481235D01*
X697282Y-481152D01*
X697407Y-481054D01*
X697559Y-480943D01*
X697726Y-480819D01*
X697934Y-480694D01*
X698156Y-480569D01*
X698391Y-480444D01*
X698669Y-480333D01*
X698946Y-480236D01*
X699265Y-480153D01*
X699584Y-480084D01*
X699945Y-480042D01*
X700305Y-480028D01*
X700471D01*
X700596Y-480042D01*
D02*
G37*
G36*
X350596D02*
X350749Y-480056D01*
X350915Y-480084D01*
X351109Y-480111D01*
X351317Y-480153D01*
X351539Y-480208D01*
X351775Y-480278D01*
X352011Y-480361D01*
X352261Y-480472D01*
X352496Y-480583D01*
X352718Y-480722D01*
X352954Y-480888D01*
X353162Y-481068D01*
X353176D01*
X353190Y-481096D01*
X353231Y-481138D01*
X353273Y-481179D01*
X353328Y-481249D01*
X353384Y-481332D01*
X353536Y-481526D01*
X353689Y-481776D01*
X353855Y-482081D01*
X354008Y-482427D01*
X354147Y-482830D01*
X352233Y-483287D01*
Y-483273D01*
X352219Y-483260D01*
Y-483218D01*
X352191Y-483162D01*
X352150Y-483038D01*
X352080Y-482871D01*
X351983Y-482677D01*
X351858Y-482483D01*
X351692Y-482289D01*
X351512Y-482122D01*
X351484Y-482108D01*
X351414Y-482053D01*
X351304Y-481984D01*
X351151Y-481900D01*
X350957Y-481817D01*
X350735Y-481748D01*
X350485Y-481692D01*
X350208Y-481679D01*
X350111D01*
X350028Y-481692D01*
X349944Y-481706D01*
X349833Y-481720D01*
X349598Y-481776D01*
X349320Y-481873D01*
X349029Y-482011D01*
X348877Y-482094D01*
X348738Y-482192D01*
X348599Y-482316D01*
X348474Y-482455D01*
Y-482469D01*
X348447Y-482497D01*
X348419Y-482538D01*
X348377Y-482608D01*
X348322Y-482691D01*
X348266Y-482788D01*
X348211Y-482913D01*
X348156Y-483051D01*
X348086Y-483218D01*
X348031Y-483398D01*
X347975Y-483606D01*
X347920Y-483828D01*
X347878Y-484078D01*
X347850Y-484341D01*
X347836Y-484632D01*
X347823Y-484951D01*
Y-484965D01*
Y-485035D01*
Y-485132D01*
X347836Y-485243D01*
Y-485395D01*
X347864Y-485575D01*
X347878Y-485756D01*
X347906Y-485964D01*
X347989Y-486394D01*
X348100Y-486824D01*
X348169Y-487032D01*
X348266Y-487226D01*
X348363Y-487406D01*
X348474Y-487559D01*
X348488Y-487573D01*
X348502Y-487586D01*
X348544Y-487628D01*
X348599Y-487683D01*
X348738Y-487794D01*
X348932Y-487933D01*
X349168Y-488086D01*
X349459Y-488197D01*
X349792Y-488294D01*
X349972Y-488308D01*
X350166Y-488321D01*
X350236D01*
X350291Y-488308D01*
X350444Y-488294D01*
X350624Y-488266D01*
X350818Y-488197D01*
X351040Y-488113D01*
X351262Y-488003D01*
X351484Y-487836D01*
X351512Y-487808D01*
X351581Y-487739D01*
X351678Y-487628D01*
X351789Y-487462D01*
X351928Y-487240D01*
X352052Y-486976D01*
X352177Y-486657D01*
X352288Y-486283D01*
X354174Y-486865D01*
Y-486879D01*
X354160Y-486935D01*
X354133Y-487018D01*
X354091Y-487129D01*
X354036Y-487254D01*
X353980Y-487406D01*
X353911Y-487573D01*
X353828Y-487753D01*
X353633Y-488127D01*
X353384Y-488516D01*
X353079Y-488890D01*
X352912Y-489057D01*
X352732Y-489209D01*
X352718Y-489223D01*
X352690Y-489237D01*
X352635Y-489278D01*
X352552Y-489334D01*
X352455Y-489389D01*
X352330Y-489445D01*
X352191Y-489514D01*
X352039Y-489584D01*
X351858Y-489667D01*
X351664Y-489736D01*
X351456Y-489791D01*
X351234Y-489847D01*
X350998Y-489902D01*
X350735Y-489944D01*
X350471Y-489958D01*
X350180Y-489972D01*
X350097D01*
X350000Y-489958D01*
X349861Y-489944D01*
X349709Y-489930D01*
X349515Y-489902D01*
X349306Y-489861D01*
X349071Y-489805D01*
X348835Y-489736D01*
X348585Y-489653D01*
X348322Y-489542D01*
X348058Y-489417D01*
X347795Y-489278D01*
X347531Y-489098D01*
X347282Y-488904D01*
X347046Y-488668D01*
X347032Y-488654D01*
X346991Y-488613D01*
X346935Y-488530D01*
X346852Y-488432D01*
X346769Y-488294D01*
X346658Y-488141D01*
X346547Y-487947D01*
X346436Y-487725D01*
X346325Y-487489D01*
X346214Y-487226D01*
X346103Y-486921D01*
X346020Y-486602D01*
X345937Y-486269D01*
X345881Y-485895D01*
X345839Y-485506D01*
X345826Y-485090D01*
Y-485076D01*
Y-485062D01*
Y-484979D01*
X345839Y-484854D01*
Y-484688D01*
X345867Y-484494D01*
X345895Y-484258D01*
X345923Y-484008D01*
X345978Y-483717D01*
X346048Y-483426D01*
X346131Y-483121D01*
X346228Y-482816D01*
X346353Y-482497D01*
X346491Y-482192D01*
X346658Y-481900D01*
X346838Y-481623D01*
X347060Y-481359D01*
X347074Y-481346D01*
X347115Y-481304D01*
X347185Y-481235D01*
X347282Y-481152D01*
X347407Y-481054D01*
X347559Y-480943D01*
X347725Y-480819D01*
X347934Y-480694D01*
X348156Y-480569D01*
X348391Y-480444D01*
X348669Y-480333D01*
X348946Y-480236D01*
X349265Y-480153D01*
X349584Y-480084D01*
X349944Y-480042D01*
X350305Y-480028D01*
X350471D01*
X350596Y-480042D01*
D02*
G37*
G36*
X795000Y-495000D02*
X725000D01*
Y-475000D01*
X795000D01*
Y-495000D01*
D02*
G37*
G36*
X625000D02*
X575000D01*
Y-475000D01*
X625000D01*
Y-495000D01*
D02*
G37*
G36*
X475000D02*
X425000D01*
Y-475000D01*
X475000D01*
Y-495000D01*
D02*
G37*
G36*
X275000D02*
X225000D01*
Y-475000D01*
X275000D01*
Y-495000D01*
D02*
G37*
G36*
X125000D02*
X75000D01*
Y-475000D01*
X125000D01*
Y-495000D01*
D02*
G37*
G36*
X225000Y-25000D02*
X175000D01*
Y-5000D01*
X225000D01*
Y-25000D01*
D02*
G37*
G36*
X375546Y-306575D02*
X375713Y-306593D01*
X375898Y-306612D01*
X376102Y-306649D01*
X376324Y-306686D01*
X376805Y-306815D01*
X377287Y-307001D01*
X377546Y-307112D01*
X377768Y-307241D01*
X378009Y-307408D01*
X378213Y-307593D01*
X378231Y-307612D01*
X378268Y-307630D01*
X378305Y-307704D01*
X378379Y-307778D01*
X378472Y-307871D01*
X378564Y-308001D01*
X378657Y-308130D01*
X378768Y-308297D01*
X378953Y-308667D01*
X379138Y-309093D01*
X379213Y-309334D01*
X379250Y-309593D01*
X379287Y-309871D01*
X379305Y-310148D01*
Y-310186D01*
Y-310297D01*
X379287Y-310463D01*
X379268Y-310667D01*
X379231Y-310926D01*
X379176Y-311204D01*
X379101Y-311500D01*
X378990Y-311796D01*
X378972Y-311833D01*
X378935Y-311926D01*
X378861Y-312093D01*
X378750Y-312296D01*
X378620Y-312537D01*
X378453Y-312815D01*
X378250Y-313111D01*
X378009Y-313426D01*
X377990Y-313444D01*
X377916Y-313537D01*
X377805Y-313667D01*
X377639Y-313852D01*
X377416Y-314074D01*
X377139Y-314370D01*
X376805Y-314685D01*
X376398Y-315074D01*
X376380Y-315092D01*
X376343Y-315111D01*
X376287Y-315166D01*
X376213Y-315240D01*
X376009Y-315426D01*
X375769Y-315648D01*
X375528Y-315889D01*
X375287Y-316129D01*
X375065Y-316333D01*
X374991Y-316426D01*
X374917Y-316500D01*
X374898Y-316518D01*
X374861Y-316555D01*
X374806Y-316629D01*
X374732Y-316722D01*
X374565Y-316926D01*
X374417Y-317166D01*
X379305D01*
Y-319444D01*
X370695D01*
Y-319425D01*
Y-319388D01*
X370714Y-319314D01*
X370732Y-319222D01*
X370751Y-319111D01*
X370769Y-318981D01*
X370843Y-318647D01*
X370954Y-318277D01*
X371102Y-317870D01*
X371287Y-317425D01*
X371528Y-317000D01*
Y-316981D01*
X371565Y-316944D01*
X371602Y-316870D01*
X371676Y-316796D01*
X371750Y-316666D01*
X371861Y-316537D01*
X371991Y-316370D01*
X372139Y-316185D01*
X372306Y-315963D01*
X372510Y-315740D01*
X372732Y-315481D01*
X372991Y-315203D01*
X373269Y-314926D01*
X373584Y-314611D01*
X373917Y-314278D01*
X374287Y-313926D01*
X374306Y-313907D01*
X374361Y-313852D01*
X374435Y-313778D01*
X374546Y-313667D01*
X374695Y-313556D01*
X374843Y-313407D01*
X375176Y-313074D01*
X375509Y-312722D01*
X375843Y-312370D01*
X375991Y-312222D01*
X376139Y-312056D01*
X376250Y-311926D01*
X376324Y-311815D01*
X376343Y-311778D01*
X376398Y-311685D01*
X376491Y-311537D01*
X376583Y-311334D01*
X376676Y-311111D01*
X376768Y-310852D01*
X376824Y-310593D01*
X376842Y-310315D01*
Y-310297D01*
Y-310278D01*
Y-310186D01*
X376824Y-310019D01*
X376787Y-309834D01*
X376731Y-309630D01*
X376657Y-309426D01*
X376546Y-309223D01*
X376398Y-309037D01*
X376380Y-309019D01*
X376324Y-308963D01*
X376213Y-308889D01*
X376083Y-308815D01*
X375898Y-308741D01*
X375694Y-308667D01*
X375454Y-308612D01*
X375176Y-308593D01*
X375046D01*
X374898Y-308612D01*
X374732Y-308649D01*
X374528Y-308704D01*
X374324Y-308797D01*
X374120Y-308908D01*
X373935Y-309056D01*
X373917Y-309074D01*
X373861Y-309149D01*
X373787Y-309260D01*
X373713Y-309426D01*
X373621Y-309630D01*
X373546Y-309908D01*
X373473Y-310222D01*
X373435Y-310593D01*
X370991Y-310352D01*
Y-310334D01*
X371010Y-310259D01*
Y-310167D01*
X371047Y-310019D01*
X371065Y-309852D01*
X371121Y-309667D01*
X371176Y-309463D01*
X371232Y-309223D01*
X371417Y-308760D01*
X371639Y-308278D01*
X371787Y-308037D01*
X371954Y-307815D01*
X372139Y-307630D01*
X372343Y-307445D01*
X372361Y-307426D01*
X372398Y-307408D01*
X372454Y-307371D01*
X372547Y-307297D01*
X372658Y-307241D01*
X372806Y-307167D01*
X372954Y-307075D01*
X373139Y-307001D01*
X373343Y-306908D01*
X373565Y-306834D01*
X374047Y-306686D01*
X374621Y-306593D01*
X374917Y-306575D01*
X375232Y-306556D01*
X375417D01*
X375546Y-306575D01*
D02*
G37*
G36*
X550596Y-480042D02*
X550749Y-480056D01*
X550915Y-480084D01*
X551110Y-480111D01*
X551317Y-480153D01*
X551539Y-480208D01*
X551775Y-480278D01*
X552011Y-480361D01*
X552261Y-480472D01*
X552496Y-480583D01*
X552718Y-480722D01*
X552954Y-480888D01*
X553162Y-481068D01*
X553176D01*
X553190Y-481096D01*
X553231Y-481138D01*
X553273Y-481179D01*
X553328Y-481249D01*
X553384Y-481332D01*
X553536Y-481526D01*
X553689Y-481776D01*
X553855Y-482081D01*
X554008Y-482427D01*
X554147Y-482830D01*
X552233Y-483287D01*
Y-483273D01*
X552219Y-483260D01*
Y-483218D01*
X552191Y-483162D01*
X552150Y-483038D01*
X552080Y-482871D01*
X551983Y-482677D01*
X551858Y-482483D01*
X551692Y-482289D01*
X551512Y-482122D01*
X551484Y-482108D01*
X551415Y-482053D01*
X551304Y-481984D01*
X551151Y-481900D01*
X550957Y-481817D01*
X550735Y-481748D01*
X550485Y-481692D01*
X550208Y-481679D01*
X550111D01*
X550028Y-481692D01*
X549944Y-481706D01*
X549834Y-481720D01*
X549598Y-481776D01*
X549320Y-481873D01*
X549029Y-482011D01*
X548877Y-482094D01*
X548738Y-482192D01*
X548599Y-482316D01*
X548475Y-482455D01*
Y-482469D01*
X548447Y-482497D01*
X548419Y-482538D01*
X548377Y-482608D01*
X548322Y-482691D01*
X548266Y-482788D01*
X548211Y-482913D01*
X548156Y-483051D01*
X548086Y-483218D01*
X548031Y-483398D01*
X547975Y-483606D01*
X547920Y-483828D01*
X547878Y-484078D01*
X547850Y-484341D01*
X547836Y-484632D01*
X547823Y-484951D01*
Y-484965D01*
Y-485035D01*
Y-485132D01*
X547836Y-485243D01*
Y-485395D01*
X547864Y-485575D01*
X547878Y-485756D01*
X547906Y-485964D01*
X547989Y-486394D01*
X548100Y-486824D01*
X548169Y-487032D01*
X548266Y-487226D01*
X548363Y-487406D01*
X548475Y-487559D01*
X548488Y-487573D01*
X548502Y-487586D01*
X548544Y-487628D01*
X548599Y-487683D01*
X548738Y-487794D01*
X548932Y-487933D01*
X549168Y-488086D01*
X549459Y-488197D01*
X549792Y-488294D01*
X549972Y-488308D01*
X550166Y-488321D01*
X550236D01*
X550291Y-488308D01*
X550444Y-488294D01*
X550624Y-488266D01*
X550818Y-488197D01*
X551040Y-488113D01*
X551262Y-488003D01*
X551484Y-487836D01*
X551512Y-487808D01*
X551581Y-487739D01*
X551678Y-487628D01*
X551789Y-487462D01*
X551928Y-487240D01*
X552052Y-486976D01*
X552177Y-486657D01*
X552288Y-486283D01*
X554174Y-486865D01*
Y-486879D01*
X554160Y-486935D01*
X554133Y-487018D01*
X554091Y-487129D01*
X554036Y-487254D01*
X553980Y-487406D01*
X553911Y-487573D01*
X553828Y-487753D01*
X553633Y-488127D01*
X553384Y-488516D01*
X553079Y-488890D01*
X552912Y-489057D01*
X552732Y-489209D01*
X552718Y-489223D01*
X552691Y-489237D01*
X552635Y-489278D01*
X552552Y-489334D01*
X552455Y-489389D01*
X552330Y-489445D01*
X552191Y-489514D01*
X552039Y-489584D01*
X551858Y-489667D01*
X551664Y-489736D01*
X551456Y-489791D01*
X551234Y-489847D01*
X550998Y-489902D01*
X550735Y-489944D01*
X550471Y-489958D01*
X550180Y-489972D01*
X550097D01*
X550000Y-489958D01*
X549861Y-489944D01*
X549709Y-489930D01*
X549515Y-489902D01*
X549307Y-489861D01*
X549071Y-489805D01*
X548835Y-489736D01*
X548585Y-489653D01*
X548322Y-489542D01*
X548058Y-489417D01*
X547795Y-489278D01*
X547531Y-489098D01*
X547282Y-488904D01*
X547046Y-488668D01*
X547032Y-488654D01*
X546991Y-488613D01*
X546935Y-488530D01*
X546852Y-488432D01*
X546769Y-488294D01*
X546658Y-488141D01*
X546547Y-487947D01*
X546436Y-487725D01*
X546325Y-487489D01*
X546214Y-487226D01*
X546103Y-486921D01*
X546020Y-486602D01*
X545937Y-486269D01*
X545881Y-485895D01*
X545840Y-485506D01*
X545826Y-485090D01*
Y-485076D01*
Y-485062D01*
Y-484979D01*
X545840Y-484854D01*
Y-484688D01*
X545867Y-484494D01*
X545895Y-484258D01*
X545923Y-484008D01*
X545978Y-483717D01*
X546048Y-483426D01*
X546131Y-483121D01*
X546228Y-482816D01*
X546353Y-482497D01*
X546491Y-482192D01*
X546658Y-481900D01*
X546838Y-481623D01*
X547060Y-481359D01*
X547074Y-481346D01*
X547115Y-481304D01*
X547185Y-481235D01*
X547282Y-481152D01*
X547407Y-481054D01*
X547559Y-480943D01*
X547726Y-480819D01*
X547934Y-480694D01*
X548156Y-480569D01*
X548391Y-480444D01*
X548669Y-480333D01*
X548946Y-480236D01*
X549265Y-480153D01*
X549584Y-480084D01*
X549944Y-480042D01*
X550305Y-480028D01*
X550471D01*
X550596Y-480042D01*
D02*
G37*
G36*
X725000Y-25000D02*
X675000D01*
Y-5000D01*
X725000D01*
Y-25000D01*
D02*
G37*
G36*
X75000D02*
X5000D01*
Y-5000D01*
X75000D01*
Y-25000D01*
D02*
G37*
G36*
X425639Y-180454D02*
X425768D01*
X425917Y-180473D01*
X426250Y-180547D01*
X426620Y-180639D01*
X427028Y-180788D01*
X427435Y-180991D01*
X427620Y-181121D01*
X427805Y-181269D01*
X427824D01*
X427842Y-181306D01*
X427898Y-181362D01*
X427953Y-181417D01*
X428046Y-181510D01*
X428120Y-181602D01*
X428324Y-181862D01*
X428527Y-182213D01*
X428731Y-182621D01*
X428916Y-183084D01*
X429046Y-183639D01*
X426676Y-183899D01*
Y-183861D01*
X426657Y-183787D01*
X426620Y-183658D01*
X426583Y-183491D01*
X426528Y-183324D01*
X426435Y-183139D01*
X426343Y-182973D01*
X426213Y-182824D01*
X426194Y-182806D01*
X426139Y-182769D01*
X426065Y-182713D01*
X425954Y-182639D01*
X425824Y-182584D01*
X425657Y-182528D01*
X425454Y-182491D01*
X425250Y-182473D01*
X425213D01*
X425120Y-182491D01*
X424972Y-182510D01*
X424787Y-182565D01*
X424583Y-182639D01*
X424361Y-182769D01*
X424139Y-182936D01*
X423935Y-183176D01*
X423917Y-183213D01*
X423880Y-183250D01*
X423843Y-183324D01*
X423806Y-183398D01*
X423750Y-183510D01*
X423713Y-183639D01*
X423657Y-183806D01*
X423583Y-183991D01*
X423528Y-184195D01*
X423472Y-184435D01*
X423417Y-184695D01*
X423361Y-184991D01*
X423324Y-185324D01*
X423287Y-185695D01*
X423250Y-186083D01*
X423269Y-186065D01*
X423287Y-186028D01*
X423343Y-185991D01*
X423417Y-185917D01*
X423509Y-185824D01*
X423620Y-185732D01*
X423880Y-185528D01*
X424213Y-185343D01*
X424602Y-185158D01*
X424824Y-185084D01*
X425046Y-185047D01*
X425287Y-185009D01*
X425546Y-184991D01*
X425694D01*
X425806Y-185009D01*
X425935Y-185028D01*
X426083Y-185047D01*
X426268Y-185084D01*
X426454Y-185139D01*
X426861Y-185287D01*
X427083Y-185380D01*
X427305Y-185491D01*
X427528Y-185620D01*
X427750Y-185787D01*
X427972Y-185972D01*
X428176Y-186176D01*
X428194Y-186194D01*
X428231Y-186232D01*
X428287Y-186287D01*
X428342Y-186380D01*
X428435Y-186509D01*
X428527Y-186639D01*
X428620Y-186806D01*
X428731Y-186991D01*
X428842Y-187194D01*
X428935Y-187435D01*
X429027Y-187676D01*
X429120Y-187954D01*
X429175Y-188231D01*
X429231Y-188546D01*
X429268Y-188861D01*
X429287Y-189213D01*
Y-189231D01*
Y-189305D01*
Y-189398D01*
X429268Y-189546D01*
X429250Y-189713D01*
X429231Y-189898D01*
X429194Y-190120D01*
X429138Y-190342D01*
X429009Y-190861D01*
X428916Y-191120D01*
X428787Y-191379D01*
X428657Y-191638D01*
X428509Y-191898D01*
X428324Y-192157D01*
X428120Y-192379D01*
X428102Y-192398D01*
X428064Y-192435D01*
X428009Y-192490D01*
X427916Y-192564D01*
X427805Y-192657D01*
X427657Y-192749D01*
X427509Y-192861D01*
X427324Y-192972D01*
X427120Y-193083D01*
X426898Y-193194D01*
X426657Y-193286D01*
X426380Y-193379D01*
X426102Y-193453D01*
X425806Y-193509D01*
X425491Y-193546D01*
X425157Y-193564D01*
X425065D01*
X424972Y-193546D01*
X424843D01*
X424676Y-193509D01*
X424472Y-193490D01*
X424269Y-193435D01*
X424028Y-193379D01*
X423787Y-193305D01*
X423528Y-193194D01*
X423250Y-193083D01*
X422991Y-192935D01*
X422713Y-192768D01*
X422454Y-192564D01*
X422195Y-192323D01*
X421954Y-192064D01*
X421936Y-192046D01*
X421898Y-191990D01*
X421843Y-191898D01*
X421769Y-191768D01*
X421658Y-191601D01*
X421565Y-191398D01*
X421454Y-191157D01*
X421343Y-190879D01*
X421213Y-190546D01*
X421102Y-190194D01*
X421010Y-189787D01*
X420917Y-189324D01*
X420825Y-188842D01*
X420769Y-188305D01*
X420732Y-187731D01*
X420713Y-187102D01*
Y-187083D01*
Y-187065D01*
Y-187009D01*
Y-186954D01*
Y-186768D01*
X420732Y-186528D01*
X420750Y-186232D01*
X420788Y-185898D01*
X420825Y-185528D01*
X420880Y-185139D01*
X420936Y-184732D01*
X421028Y-184306D01*
X421139Y-183880D01*
X421269Y-183454D01*
X421417Y-183065D01*
X421584Y-182676D01*
X421787Y-182325D01*
X422010Y-182010D01*
X422028Y-181991D01*
X422065Y-181936D01*
X422139Y-181862D01*
X422250Y-181769D01*
X422380Y-181639D01*
X422528Y-181510D01*
X422713Y-181362D01*
X422917Y-181214D01*
X423158Y-181084D01*
X423398Y-180936D01*
X423695Y-180806D01*
X423991Y-180677D01*
X424306Y-180584D01*
X424657Y-180510D01*
X425009Y-180454D01*
X425398Y-180436D01*
X425546D01*
X425639Y-180454D01*
D02*
G37*
G36*
X200596Y-480042D02*
X200749Y-480056D01*
X200915Y-480084D01*
X201109Y-480111D01*
X201318Y-480153D01*
X201539Y-480208D01*
X201775Y-480278D01*
X202011Y-480361D01*
X202260Y-480472D01*
X202496Y-480583D01*
X202718Y-480722D01*
X202954Y-480888D01*
X203162Y-481068D01*
X203176D01*
X203190Y-481096D01*
X203231Y-481138D01*
X203273Y-481179D01*
X203328Y-481249D01*
X203384Y-481332D01*
X203536Y-481526D01*
X203689Y-481776D01*
X203855Y-482081D01*
X204008Y-482427D01*
X204147Y-482830D01*
X202233Y-483287D01*
Y-483273D01*
X202219Y-483260D01*
Y-483218D01*
X202191Y-483162D01*
X202150Y-483038D01*
X202080Y-482871D01*
X201983Y-482677D01*
X201858Y-482483D01*
X201692Y-482289D01*
X201512Y-482122D01*
X201484Y-482108D01*
X201415Y-482053D01*
X201304Y-481984D01*
X201151Y-481900D01*
X200957Y-481817D01*
X200735Y-481748D01*
X200485Y-481692D01*
X200208Y-481679D01*
X200111D01*
X200028Y-481692D01*
X199944Y-481706D01*
X199834Y-481720D01*
X199598Y-481776D01*
X199320Y-481873D01*
X199029Y-482011D01*
X198877Y-482094D01*
X198738Y-482192D01*
X198599Y-482316D01*
X198474Y-482455D01*
Y-482469D01*
X198447Y-482497D01*
X198419Y-482538D01*
X198377Y-482608D01*
X198322Y-482691D01*
X198266Y-482788D01*
X198211Y-482913D01*
X198155Y-483051D01*
X198086Y-483218D01*
X198031Y-483398D01*
X197975Y-483606D01*
X197920Y-483828D01*
X197878Y-484078D01*
X197850Y-484341D01*
X197836Y-484632D01*
X197823Y-484951D01*
Y-484965D01*
Y-485035D01*
Y-485132D01*
X197836Y-485243D01*
Y-485395D01*
X197864Y-485575D01*
X197878Y-485756D01*
X197906Y-485964D01*
X197989Y-486394D01*
X198100Y-486824D01*
X198169Y-487032D01*
X198266Y-487226D01*
X198363Y-487406D01*
X198474Y-487559D01*
X198488Y-487573D01*
X198502Y-487586D01*
X198544Y-487628D01*
X198599Y-487683D01*
X198738Y-487794D01*
X198932Y-487933D01*
X199168Y-488086D01*
X199459Y-488197D01*
X199792Y-488294D01*
X199972Y-488308D01*
X200166Y-488321D01*
X200236D01*
X200291Y-488308D01*
X200444Y-488294D01*
X200624Y-488266D01*
X200818Y-488197D01*
X201040Y-488113D01*
X201262Y-488003D01*
X201484Y-487836D01*
X201512Y-487808D01*
X201581Y-487739D01*
X201678Y-487628D01*
X201789Y-487462D01*
X201928Y-487240D01*
X202052Y-486976D01*
X202177Y-486657D01*
X202288Y-486283D01*
X204174Y-486865D01*
Y-486879D01*
X204160Y-486935D01*
X204133Y-487018D01*
X204091Y-487129D01*
X204036Y-487254D01*
X203980Y-487406D01*
X203911Y-487573D01*
X203828Y-487753D01*
X203633Y-488127D01*
X203384Y-488516D01*
X203079Y-488890D01*
X202912Y-489057D01*
X202732Y-489209D01*
X202718Y-489223D01*
X202690Y-489237D01*
X202635Y-489278D01*
X202552Y-489334D01*
X202455Y-489389D01*
X202330Y-489445D01*
X202191Y-489514D01*
X202039Y-489584D01*
X201858Y-489667D01*
X201664Y-489736D01*
X201456Y-489791D01*
X201234Y-489847D01*
X200998Y-489902D01*
X200735Y-489944D01*
X200471Y-489958D01*
X200180Y-489972D01*
X200097D01*
X200000Y-489958D01*
X199861Y-489944D01*
X199709Y-489930D01*
X199515Y-489902D01*
X199307Y-489861D01*
X199071Y-489805D01*
X198835Y-489736D01*
X198585Y-489653D01*
X198322Y-489542D01*
X198058Y-489417D01*
X197795Y-489278D01*
X197531Y-489098D01*
X197282Y-488904D01*
X197046Y-488668D01*
X197032Y-488654D01*
X196991Y-488613D01*
X196935Y-488530D01*
X196852Y-488432D01*
X196769Y-488294D01*
X196658Y-488141D01*
X196547Y-487947D01*
X196436Y-487725D01*
X196325Y-487489D01*
X196214Y-487226D01*
X196103Y-486921D01*
X196020Y-486602D01*
X195937Y-486269D01*
X195881Y-485895D01*
X195839Y-485506D01*
X195826Y-485090D01*
Y-485076D01*
Y-485062D01*
Y-484979D01*
X195839Y-484854D01*
Y-484688D01*
X195867Y-484494D01*
X195895Y-484258D01*
X195923Y-484008D01*
X195978Y-483717D01*
X196047Y-483426D01*
X196131Y-483121D01*
X196228Y-482816D01*
X196353Y-482497D01*
X196491Y-482192D01*
X196658Y-481900D01*
X196838Y-481623D01*
X197060Y-481359D01*
X197074Y-481346D01*
X197115Y-481304D01*
X197185Y-481235D01*
X197282Y-481152D01*
X197407Y-481054D01*
X197559Y-480943D01*
X197726Y-480819D01*
X197934Y-480694D01*
X198155Y-480569D01*
X198391Y-480444D01*
X198669Y-480333D01*
X198946Y-480236D01*
X199265Y-480153D01*
X199584Y-480084D01*
X199944Y-480042D01*
X200305Y-480028D01*
X200471D01*
X200596Y-480042D01*
D02*
G37*
G36*
X757111Y-184019D02*
X757222D01*
X757352Y-184037D01*
X757648Y-184074D01*
X757981Y-184148D01*
X758314Y-184259D01*
X758666Y-184426D01*
X758999Y-184630D01*
X759018D01*
X759036Y-184667D01*
X759129Y-184741D01*
X759277Y-184889D01*
X759462Y-185093D01*
X759648Y-185352D01*
X759851Y-185667D01*
X760018Y-186018D01*
X760147Y-186444D01*
Y-186426D01*
X760166Y-186407D01*
X760184Y-186352D01*
X760222Y-186278D01*
X760296Y-186111D01*
X760407Y-185889D01*
X760555Y-185648D01*
X760740Y-185407D01*
X760944Y-185185D01*
X761166Y-184981D01*
X761203Y-184963D01*
X761277Y-184907D01*
X761425Y-184833D01*
X761610Y-184759D01*
X761851Y-184667D01*
X762129Y-184593D01*
X762444Y-184537D01*
X762777Y-184519D01*
X762795D01*
X762832D01*
X762906D01*
X763018Y-184537D01*
X763129Y-184556D01*
X763277Y-184574D01*
X763592Y-184648D01*
X763962Y-184759D01*
X764351Y-184944D01*
X764555Y-185056D01*
X764758Y-185185D01*
X764943Y-185352D01*
X765128Y-185518D01*
X765147Y-185537D01*
X765165Y-185574D01*
X765221Y-185630D01*
X765277Y-185704D01*
X765351Y-185796D01*
X765425Y-185926D01*
X765517Y-186074D01*
X765610Y-186222D01*
X765703Y-186407D01*
X765795Y-186611D01*
X765869Y-186833D01*
X765943Y-187074D01*
X766054Y-187592D01*
X766073Y-187889D01*
X766091Y-188185D01*
Y-188351D01*
X766073Y-188463D01*
X766054Y-188611D01*
X766036Y-188777D01*
X766017Y-188962D01*
X765962Y-189148D01*
X765851Y-189592D01*
X765684Y-190037D01*
X765573Y-190259D01*
X765443Y-190481D01*
X765277Y-190685D01*
X765110Y-190888D01*
X765091Y-190907D01*
X765073Y-190925D01*
X765017Y-190981D01*
X764943Y-191055D01*
X764832Y-191129D01*
X764721Y-191222D01*
X764443Y-191407D01*
X764091Y-191592D01*
X763684Y-191758D01*
X763221Y-191888D01*
X762980Y-191907D01*
X762721Y-191925D01*
X762703D01*
X762684D01*
X762573D01*
X762406Y-191907D01*
X762203Y-191870D01*
X761944Y-191814D01*
X761684Y-191721D01*
X761425Y-191610D01*
X761166Y-191444D01*
X761129Y-191425D01*
X761055Y-191351D01*
X760944Y-191240D01*
X760796Y-191092D01*
X760629Y-190888D01*
X760462Y-190648D01*
X760296Y-190370D01*
X760147Y-190037D01*
Y-190055D01*
X760129Y-190092D01*
X760110Y-190148D01*
X760073Y-190222D01*
X759981Y-190444D01*
X759851Y-190703D01*
X759666Y-190981D01*
X759462Y-191277D01*
X759203Y-191555D01*
X758907Y-191814D01*
X758888D01*
X758870Y-191833D01*
X758759Y-191907D01*
X758574Y-192018D01*
X758333Y-192129D01*
X758037Y-192240D01*
X757685Y-192351D01*
X757296Y-192425D01*
X756870Y-192444D01*
X756852D01*
X756796D01*
X756703D01*
X756592Y-192425D01*
X756463Y-192407D01*
X756296Y-192388D01*
X756111Y-192351D01*
X755907Y-192295D01*
X755481Y-192166D01*
X755241Y-192073D01*
X755018Y-191944D01*
X754778Y-191814D01*
X754556Y-191666D01*
X754333Y-191481D01*
X754111Y-191277D01*
X754093Y-191259D01*
X754055Y-191222D01*
X754000Y-191166D01*
X753944Y-191073D01*
X753852Y-190944D01*
X753759Y-190814D01*
X753667Y-190648D01*
X753556Y-190462D01*
X753445Y-190259D01*
X753352Y-190018D01*
X753259Y-189759D01*
X753167Y-189499D01*
X753111Y-189203D01*
X753056Y-188888D01*
X753019Y-188574D01*
X753000Y-188222D01*
Y-188037D01*
X753019Y-187907D01*
X753037Y-187740D01*
X753056Y-187555D01*
X753093Y-187352D01*
X753148Y-187129D01*
X753278Y-186629D01*
X753370Y-186370D01*
X753463Y-186129D01*
X753593Y-185870D01*
X753741Y-185611D01*
X753907Y-185370D01*
X754111Y-185148D01*
X754130Y-185130D01*
X754167Y-185093D01*
X754222Y-185037D01*
X754315Y-184963D01*
X754426Y-184889D01*
X754556Y-184778D01*
X754704Y-184685D01*
X754889Y-184574D01*
X755074Y-184463D01*
X755296Y-184370D01*
X755759Y-184185D01*
X756037Y-184111D01*
X756315Y-184056D01*
X756611Y-184019D01*
X756907Y-184000D01*
X756926D01*
X756963D01*
X757037D01*
X757111Y-184019D01*
D02*
G37*
G36*
X756703Y-195629D02*
X756685D01*
X756648D01*
X756592Y-195647D01*
X756500Y-195665D01*
X756296Y-195721D01*
X756018Y-195795D01*
X755741Y-195906D01*
X755426Y-196054D01*
X755148Y-196239D01*
X754889Y-196462D01*
X754870Y-196499D01*
X754796Y-196573D01*
X754704Y-196721D01*
X754593Y-196925D01*
X754481Y-197147D01*
X754389Y-197425D01*
X754315Y-197739D01*
X754296Y-198091D01*
Y-198202D01*
X754315Y-198276D01*
X754333Y-198499D01*
X754407Y-198758D01*
X754500Y-199073D01*
X754648Y-199387D01*
X754870Y-199721D01*
X755000Y-199869D01*
X755148Y-200017D01*
X755166Y-200035D01*
X755185Y-200054D01*
X755241Y-200091D01*
X755296Y-200147D01*
X755500Y-200276D01*
X755759Y-200424D01*
X756074Y-200554D01*
X756463Y-200683D01*
X756926Y-200776D01*
X757166Y-200813D01*
X757426D01*
X757444D01*
X757481D01*
X757555D01*
X757648Y-200795D01*
X757759D01*
X757888Y-200776D01*
X758185Y-200721D01*
X758537Y-200628D01*
X758888Y-200498D01*
X759222Y-200313D01*
X759537Y-200054D01*
X759555D01*
X759574Y-200017D01*
X759666Y-199924D01*
X759796Y-199758D01*
X759944Y-199536D01*
X760073Y-199239D01*
X760203Y-198906D01*
X760296Y-198517D01*
X760333Y-198295D01*
Y-197943D01*
X760314Y-197795D01*
X760296Y-197610D01*
X760240Y-197388D01*
X760184Y-197165D01*
X760092Y-196925D01*
X759981Y-196684D01*
X759962Y-196665D01*
X759925Y-196591D01*
X759833Y-196480D01*
X759740Y-196332D01*
X759611Y-196184D01*
X759444Y-196036D01*
X759277Y-195869D01*
X759073Y-195740D01*
X759277Y-194258D01*
X765869Y-195499D01*
Y-201869D01*
X764369D01*
Y-196740D01*
X760907Y-196054D01*
X760925Y-196073D01*
X760944Y-196110D01*
X760981Y-196166D01*
X761036Y-196258D01*
X761092Y-196369D01*
X761166Y-196499D01*
X761314Y-196795D01*
X761462Y-197165D01*
X761592Y-197573D01*
X761684Y-198017D01*
X761721Y-198239D01*
Y-198647D01*
X761703Y-198758D01*
X761684Y-198906D01*
X761666Y-199073D01*
X761629Y-199258D01*
X761573Y-199461D01*
X761444Y-199906D01*
X761351Y-200147D01*
X761221Y-200387D01*
X761092Y-200628D01*
X760944Y-200869D01*
X760759Y-201091D01*
X760555Y-201313D01*
X760536Y-201332D01*
X760499Y-201369D01*
X760444Y-201424D01*
X760351Y-201498D01*
X760222Y-201591D01*
X760092Y-201683D01*
X759925Y-201794D01*
X759740Y-201906D01*
X759537Y-201998D01*
X759314Y-202109D01*
X759055Y-202202D01*
X758796Y-202295D01*
X758518Y-202369D01*
X758203Y-202424D01*
X757888Y-202461D01*
X757555Y-202480D01*
X757537D01*
X757481D01*
X757389D01*
X757259Y-202461D01*
X757111Y-202443D01*
X756944Y-202424D01*
X756740Y-202387D01*
X756537Y-202350D01*
X756055Y-202239D01*
X755555Y-202054D01*
X755296Y-201943D01*
X755055Y-201794D01*
X754796Y-201646D01*
X754556Y-201461D01*
X754537Y-201443D01*
X754481Y-201406D01*
X754407Y-201332D01*
X754315Y-201239D01*
X754204Y-201109D01*
X754055Y-200961D01*
X753926Y-200776D01*
X753778Y-200572D01*
X753630Y-200350D01*
X753500Y-200091D01*
X753370Y-199813D01*
X753241Y-199517D01*
X753148Y-199202D01*
X753074Y-198850D01*
X753019Y-198480D01*
X753000Y-198091D01*
Y-197924D01*
X753019Y-197795D01*
X753037Y-197647D01*
X753056Y-197480D01*
X753074Y-197276D01*
X753130Y-197073D01*
X753241Y-196610D01*
X753408Y-196147D01*
X753519Y-195906D01*
X753648Y-195665D01*
X753796Y-195443D01*
X753963Y-195221D01*
X753981Y-195203D01*
X754000Y-195166D01*
X754074Y-195128D01*
X754148Y-195054D01*
X754241Y-194962D01*
X754352Y-194869D01*
X754500Y-194758D01*
X754667Y-194666D01*
X754833Y-194555D01*
X755037Y-194443D01*
X755481Y-194240D01*
X756000Y-194073D01*
X756277Y-194018D01*
X756574Y-193981D01*
X756703Y-195629D01*
D02*
G37*
G36*
X758648Y-208627D02*
X757074D01*
Y-203757D01*
X758648D01*
Y-208627D01*
D02*
G37*
G36*
X757111Y-209905D02*
X757222D01*
X757352Y-209923D01*
X757648Y-209960D01*
X757981Y-210034D01*
X758314Y-210145D01*
X758666Y-210312D01*
X758999Y-210516D01*
X759018D01*
X759036Y-210553D01*
X759129Y-210627D01*
X759277Y-210775D01*
X759462Y-210979D01*
X759648Y-211238D01*
X759851Y-211553D01*
X760018Y-211905D01*
X760147Y-212330D01*
Y-212312D01*
X760166Y-212293D01*
X760184Y-212238D01*
X760222Y-212164D01*
X760296Y-211997D01*
X760407Y-211775D01*
X760555Y-211534D01*
X760740Y-211294D01*
X760944Y-211071D01*
X761166Y-210868D01*
X761203Y-210849D01*
X761277Y-210794D01*
X761425Y-210720D01*
X761610Y-210646D01*
X761851Y-210553D01*
X762129Y-210479D01*
X762444Y-210423D01*
X762777Y-210405D01*
X762795D01*
X762832D01*
X762906D01*
X763018Y-210423D01*
X763129Y-210442D01*
X763277Y-210460D01*
X763592Y-210534D01*
X763962Y-210646D01*
X764351Y-210831D01*
X764555Y-210942D01*
X764758Y-211071D01*
X764943Y-211238D01*
X765128Y-211405D01*
X765147Y-211423D01*
X765165Y-211460D01*
X765221Y-211516D01*
X765277Y-211590D01*
X765351Y-211682D01*
X765425Y-211812D01*
X765517Y-211960D01*
X765610Y-212108D01*
X765703Y-212293D01*
X765795Y-212497D01*
X765869Y-212719D01*
X765943Y-212960D01*
X766054Y-213479D01*
X766073Y-213775D01*
X766091Y-214071D01*
Y-214238D01*
X766073Y-214349D01*
X766054Y-214497D01*
X766036Y-214664D01*
X766017Y-214849D01*
X765962Y-215034D01*
X765851Y-215478D01*
X765684Y-215923D01*
X765573Y-216145D01*
X765443Y-216367D01*
X765277Y-216571D01*
X765110Y-216774D01*
X765091Y-216793D01*
X765073Y-216812D01*
X765017Y-216867D01*
X764943Y-216941D01*
X764832Y-217015D01*
X764721Y-217108D01*
X764443Y-217293D01*
X764091Y-217478D01*
X763684Y-217645D01*
X763221Y-217774D01*
X762980Y-217793D01*
X762721Y-217811D01*
X762703D01*
X762684D01*
X762573D01*
X762406Y-217793D01*
X762203Y-217756D01*
X761944Y-217700D01*
X761684Y-217608D01*
X761425Y-217497D01*
X761166Y-217330D01*
X761129Y-217311D01*
X761055Y-217237D01*
X760944Y-217126D01*
X760796Y-216978D01*
X760629Y-216774D01*
X760462Y-216534D01*
X760296Y-216256D01*
X760147Y-215923D01*
Y-215941D01*
X760129Y-215978D01*
X760110Y-216034D01*
X760073Y-216108D01*
X759981Y-216330D01*
X759851Y-216589D01*
X759666Y-216867D01*
X759462Y-217163D01*
X759203Y-217441D01*
X758907Y-217700D01*
X758888D01*
X758870Y-217719D01*
X758759Y-217793D01*
X758574Y-217904D01*
X758333Y-218015D01*
X758037Y-218126D01*
X757685Y-218237D01*
X757296Y-218311D01*
X756870Y-218330D01*
X756852D01*
X756796D01*
X756703D01*
X756592Y-218311D01*
X756463Y-218293D01*
X756296Y-218274D01*
X756111Y-218237D01*
X755907Y-218182D01*
X755481Y-218052D01*
X755241Y-217959D01*
X755018Y-217830D01*
X754778Y-217700D01*
X754556Y-217552D01*
X754333Y-217367D01*
X754111Y-217163D01*
X754093Y-217145D01*
X754055Y-217108D01*
X754000Y-217052D01*
X753944Y-216960D01*
X753852Y-216830D01*
X753759Y-216700D01*
X753667Y-216534D01*
X753556Y-216349D01*
X753445Y-216145D01*
X753352Y-215904D01*
X753259Y-215645D01*
X753167Y-215386D01*
X753111Y-215089D01*
X753056Y-214775D01*
X753019Y-214460D01*
X753000Y-214108D01*
Y-213923D01*
X753019Y-213793D01*
X753037Y-213627D01*
X753056Y-213442D01*
X753093Y-213238D01*
X753148Y-213016D01*
X753278Y-212516D01*
X753370Y-212256D01*
X753463Y-212016D01*
X753593Y-211756D01*
X753741Y-211497D01*
X753907Y-211257D01*
X754111Y-211034D01*
X754130Y-211016D01*
X754167Y-210979D01*
X754222Y-210923D01*
X754315Y-210849D01*
X754426Y-210775D01*
X754556Y-210664D01*
X754704Y-210571D01*
X754889Y-210460D01*
X755074Y-210349D01*
X755296Y-210257D01*
X755759Y-210071D01*
X756037Y-209997D01*
X756315Y-209942D01*
X756611Y-209905D01*
X756907Y-209886D01*
X756926D01*
X756963D01*
X757037D01*
X757111Y-209905D01*
D02*
G37*
%LPC*%
G36*
X759691Y-11799D02*
X757919D01*
Y-14021D01*
X759784D01*
X760028Y-14011D01*
X760263D01*
X760366Y-14002D01*
X760459D01*
X760534Y-13992D01*
X760619D01*
X760647Y-13983D01*
X760684D01*
X760769Y-13955D01*
X760881Y-13927D01*
X761012Y-13889D01*
X761134Y-13824D01*
X761265Y-13749D01*
X761378Y-13655D01*
X761387Y-13646D01*
X761425Y-13599D01*
X761471Y-13542D01*
X761528Y-13449D01*
X761575Y-13346D01*
X761621Y-13214D01*
X761659Y-13065D01*
X761668Y-12896D01*
Y-12887D01*
Y-12877D01*
Y-12821D01*
X761659Y-12746D01*
X761640Y-12643D01*
X761603Y-12530D01*
X761565Y-12408D01*
X761500Y-12287D01*
X761415Y-12174D01*
X761406Y-12165D01*
X761368Y-12127D01*
X761312Y-12080D01*
X761237Y-12024D01*
X761134Y-11968D01*
X761003Y-11912D01*
X760853Y-11865D01*
X760684Y-11837D01*
X760647D01*
X760619Y-11827D01*
X760525D01*
X760459Y-11818D01*
X760272D01*
X760159Y-11809D01*
X759869D01*
X759691Y-11799D01*
D02*
G37*
G36*
X759719Y-15623D02*
X757919D01*
Y-18182D01*
X760056D01*
X760272Y-18173D01*
X760497D01*
X760712Y-18154D01*
X760815D01*
X760900Y-18145D01*
X760975Y-18135D01*
X761040Y-18126D01*
X761059D01*
X761115Y-18107D01*
X761190Y-18088D01*
X761293Y-18051D01*
X761406Y-18004D01*
X761518Y-17938D01*
X761631Y-17854D01*
X761743Y-17751D01*
X761753Y-17732D01*
X761790Y-17695D01*
X761837Y-17629D01*
X761884Y-17535D01*
X761940Y-17413D01*
X761978Y-17273D01*
X762015Y-17113D01*
X762025Y-16935D01*
Y-16926D01*
Y-16917D01*
Y-16860D01*
X762015Y-16786D01*
X761996Y-16682D01*
X761968Y-16570D01*
X761931Y-16448D01*
X761884Y-16326D01*
X761809Y-16204D01*
X761800Y-16195D01*
X761771Y-16157D01*
X761725Y-16101D01*
X761659Y-16036D01*
X761565Y-15961D01*
X761462Y-15895D01*
X761340Y-15820D01*
X761200Y-15764D01*
X761181Y-15754D01*
X761153D01*
X761115Y-15745D01*
X761068Y-15726D01*
X761003Y-15717D01*
X760928Y-15708D01*
X760834Y-15689D01*
X760731Y-15680D01*
X760609Y-15670D01*
X760469Y-15651D01*
X760309Y-15642D01*
X760131Y-15633D01*
X759934D01*
X759719Y-15623D01*
D02*
G37*
G36*
X599691Y-11799D02*
X597919D01*
Y-14021D01*
X599785D01*
X600028Y-14011D01*
X600262D01*
X600366Y-14002D01*
X600459D01*
X600534Y-13992D01*
X600619D01*
X600647Y-13983D01*
X600684D01*
X600769Y-13955D01*
X600881Y-13927D01*
X601012Y-13889D01*
X601134Y-13824D01*
X601265Y-13749D01*
X601378Y-13655D01*
X601387Y-13646D01*
X601425Y-13599D01*
X601471Y-13542D01*
X601528Y-13449D01*
X601575Y-13346D01*
X601622Y-13214D01*
X601659Y-13065D01*
X601668Y-12896D01*
Y-12887D01*
Y-12877D01*
Y-12821D01*
X601659Y-12746D01*
X601640Y-12643D01*
X601603Y-12530D01*
X601565Y-12408D01*
X601500Y-12287D01*
X601415Y-12174D01*
X601406Y-12165D01*
X601368Y-12127D01*
X601312Y-12080D01*
X601237Y-12024D01*
X601134Y-11968D01*
X601003Y-11912D01*
X600853Y-11865D01*
X600684Y-11837D01*
X600647D01*
X600619Y-11827D01*
X600525D01*
X600459Y-11818D01*
X600272D01*
X600159Y-11809D01*
X599869D01*
X599691Y-11799D01*
D02*
G37*
G36*
X599719Y-15623D02*
X597919D01*
Y-18182D01*
X600056D01*
X600272Y-18173D01*
X600497D01*
X600712Y-18154D01*
X600816D01*
X600900Y-18145D01*
X600975Y-18135D01*
X601040Y-18126D01*
X601059D01*
X601115Y-18107D01*
X601190Y-18088D01*
X601293Y-18051D01*
X601406Y-18004D01*
X601518Y-17938D01*
X601631Y-17854D01*
X601743Y-17751D01*
X601753Y-17732D01*
X601790Y-17695D01*
X601837Y-17629D01*
X601884Y-17535D01*
X601940Y-17413D01*
X601978Y-17273D01*
X602015Y-17113D01*
X602024Y-16935D01*
Y-16926D01*
Y-16917D01*
Y-16860D01*
X602015Y-16786D01*
X601996Y-16682D01*
X601968Y-16570D01*
X601931Y-16448D01*
X601884Y-16326D01*
X601809Y-16204D01*
X601800Y-16195D01*
X601772Y-16157D01*
X601725Y-16101D01*
X601659Y-16036D01*
X601565Y-15961D01*
X601462Y-15895D01*
X601340Y-15820D01*
X601200Y-15764D01*
X601181Y-15754D01*
X601153D01*
X601115Y-15745D01*
X601068Y-15726D01*
X601003Y-15717D01*
X600928Y-15708D01*
X600834Y-15689D01*
X600731Y-15680D01*
X600609Y-15670D01*
X600469Y-15651D01*
X600309Y-15642D01*
X600131Y-15633D01*
X599934D01*
X599719Y-15623D01*
D02*
G37*
G36*
X449691Y-11799D02*
X447919D01*
Y-14021D01*
X449785D01*
X450028Y-14011D01*
X450262D01*
X450366Y-14002D01*
X450459D01*
X450534Y-13992D01*
X450619D01*
X450647Y-13983D01*
X450684D01*
X450769Y-13955D01*
X450881Y-13927D01*
X451012Y-13889D01*
X451134Y-13824D01*
X451265Y-13749D01*
X451378Y-13655D01*
X451387Y-13646D01*
X451425Y-13599D01*
X451471Y-13542D01*
X451528Y-13449D01*
X451575Y-13346D01*
X451622Y-13214D01*
X451659Y-13065D01*
X451668Y-12896D01*
Y-12887D01*
Y-12877D01*
Y-12821D01*
X451659Y-12746D01*
X451640Y-12643D01*
X451603Y-12530D01*
X451565Y-12408D01*
X451500Y-12287D01*
X451415Y-12174D01*
X451406Y-12165D01*
X451368Y-12127D01*
X451312Y-12080D01*
X451237Y-12024D01*
X451134Y-11968D01*
X451003Y-11912D01*
X450853Y-11865D01*
X450684Y-11837D01*
X450647D01*
X450619Y-11827D01*
X450525D01*
X450459Y-11818D01*
X450272D01*
X450159Y-11809D01*
X449869D01*
X449691Y-11799D01*
D02*
G37*
G36*
X449719Y-15623D02*
X447919D01*
Y-18182D01*
X450056D01*
X450272Y-18173D01*
X450497D01*
X450712Y-18154D01*
X450816D01*
X450900Y-18145D01*
X450975Y-18135D01*
X451040Y-18126D01*
X451059D01*
X451115Y-18107D01*
X451190Y-18088D01*
X451293Y-18051D01*
X451406Y-18004D01*
X451518Y-17938D01*
X451631Y-17854D01*
X451743Y-17751D01*
X451753Y-17732D01*
X451790Y-17695D01*
X451837Y-17629D01*
X451884Y-17535D01*
X451940Y-17413D01*
X451978Y-17273D01*
X452015Y-17113D01*
X452024Y-16935D01*
Y-16926D01*
Y-16917D01*
Y-16860D01*
X452015Y-16786D01*
X451996Y-16682D01*
X451968Y-16570D01*
X451931Y-16448D01*
X451884Y-16326D01*
X451809Y-16204D01*
X451800Y-16195D01*
X451772Y-16157D01*
X451725Y-16101D01*
X451659Y-16036D01*
X451565Y-15961D01*
X451462Y-15895D01*
X451340Y-15820D01*
X451200Y-15764D01*
X451181Y-15754D01*
X451153D01*
X451115Y-15745D01*
X451068Y-15726D01*
X451003Y-15717D01*
X450928Y-15708D01*
X450834Y-15689D01*
X450731Y-15680D01*
X450609Y-15670D01*
X450469Y-15651D01*
X450309Y-15642D01*
X450131Y-15633D01*
X449934D01*
X449719Y-15623D01*
D02*
G37*
G36*
X249691Y-11799D02*
X247919D01*
Y-14021D01*
X249784D01*
X250028Y-14011D01*
X250262D01*
X250366Y-14002D01*
X250459D01*
X250534Y-13992D01*
X250619D01*
X250647Y-13983D01*
X250684D01*
X250769Y-13955D01*
X250881Y-13927D01*
X251012Y-13889D01*
X251134Y-13824D01*
X251265Y-13749D01*
X251378Y-13655D01*
X251387Y-13646D01*
X251425Y-13599D01*
X251472Y-13542D01*
X251528Y-13449D01*
X251575Y-13346D01*
X251621Y-13214D01*
X251659Y-13065D01*
X251668Y-12896D01*
Y-12887D01*
Y-12877D01*
Y-12821D01*
X251659Y-12746D01*
X251640Y-12643D01*
X251603Y-12530D01*
X251565Y-12408D01*
X251500Y-12287D01*
X251415Y-12174D01*
X251406Y-12165D01*
X251368Y-12127D01*
X251312Y-12080D01*
X251237Y-12024D01*
X251134Y-11968D01*
X251003Y-11912D01*
X250853Y-11865D01*
X250684Y-11837D01*
X250647D01*
X250619Y-11827D01*
X250525D01*
X250459Y-11818D01*
X250272D01*
X250159Y-11809D01*
X249869D01*
X249691Y-11799D01*
D02*
G37*
G36*
X249719Y-15623D02*
X247919D01*
Y-18182D01*
X250056D01*
X250272Y-18173D01*
X250497D01*
X250712Y-18154D01*
X250815D01*
X250900Y-18145D01*
X250975Y-18135D01*
X251040Y-18126D01*
X251059D01*
X251115Y-18107D01*
X251190Y-18088D01*
X251293Y-18051D01*
X251406Y-18004D01*
X251518Y-17938D01*
X251631Y-17854D01*
X251743Y-17751D01*
X251753Y-17732D01*
X251790Y-17695D01*
X251837Y-17629D01*
X251884Y-17535D01*
X251940Y-17413D01*
X251978Y-17273D01*
X252015Y-17113D01*
X252024Y-16935D01*
Y-16926D01*
Y-16917D01*
Y-16860D01*
X252015Y-16786D01*
X251996Y-16682D01*
X251968Y-16570D01*
X251931Y-16448D01*
X251884Y-16326D01*
X251809Y-16204D01*
X251800Y-16195D01*
X251771Y-16157D01*
X251725Y-16101D01*
X251659Y-16036D01*
X251565Y-15961D01*
X251462Y-15895D01*
X251340Y-15820D01*
X251200Y-15764D01*
X251181Y-15754D01*
X251153D01*
X251115Y-15745D01*
X251068Y-15726D01*
X251003Y-15717D01*
X250928Y-15708D01*
X250834Y-15689D01*
X250731Y-15680D01*
X250609Y-15670D01*
X250469Y-15651D01*
X250309Y-15642D01*
X250131Y-15633D01*
X249934D01*
X249719Y-15623D01*
D02*
G37*
G36*
X99691Y-11799D02*
X97919D01*
Y-14021D01*
X99784D01*
X100028Y-14011D01*
X100262D01*
X100365Y-14002D01*
X100459D01*
X100534Y-13992D01*
X100619D01*
X100647Y-13983D01*
X100684D01*
X100769Y-13955D01*
X100881Y-13927D01*
X101012Y-13889D01*
X101134Y-13824D01*
X101265Y-13749D01*
X101378Y-13655D01*
X101387Y-13646D01*
X101425Y-13599D01*
X101472Y-13542D01*
X101528Y-13449D01*
X101575Y-13346D01*
X101622Y-13214D01*
X101659Y-13065D01*
X101668Y-12896D01*
Y-12887D01*
Y-12877D01*
Y-12821D01*
X101659Y-12746D01*
X101640Y-12643D01*
X101603Y-12530D01*
X101565Y-12408D01*
X101500Y-12287D01*
X101415Y-12174D01*
X101406Y-12165D01*
X101368Y-12127D01*
X101312Y-12080D01*
X101237Y-12024D01*
X101134Y-11968D01*
X101003Y-11912D01*
X100853Y-11865D01*
X100684Y-11837D01*
X100647D01*
X100619Y-11827D01*
X100525D01*
X100459Y-11818D01*
X100272D01*
X100159Y-11809D01*
X99869D01*
X99691Y-11799D01*
D02*
G37*
G36*
X99719Y-15623D02*
X97919D01*
Y-18182D01*
X100056D01*
X100272Y-18173D01*
X100497D01*
X100712Y-18154D01*
X100815D01*
X100900Y-18145D01*
X100975Y-18135D01*
X101040Y-18126D01*
X101059D01*
X101115Y-18107D01*
X101190Y-18088D01*
X101293Y-18051D01*
X101406Y-18004D01*
X101518Y-17938D01*
X101631Y-17854D01*
X101743Y-17751D01*
X101753Y-17732D01*
X101790Y-17695D01*
X101837Y-17629D01*
X101884Y-17535D01*
X101940Y-17413D01*
X101978Y-17273D01*
X102015Y-17113D01*
X102024Y-16935D01*
Y-16926D01*
Y-16917D01*
Y-16860D01*
X102015Y-16786D01*
X101996Y-16682D01*
X101968Y-16570D01*
X101931Y-16448D01*
X101884Y-16326D01*
X101809Y-16204D01*
X101799Y-16195D01*
X101771Y-16157D01*
X101725Y-16101D01*
X101659Y-16036D01*
X101565Y-15961D01*
X101462Y-15895D01*
X101340Y-15820D01*
X101200Y-15764D01*
X101181Y-15754D01*
X101153D01*
X101115Y-15745D01*
X101068Y-15726D01*
X101003Y-15717D01*
X100928Y-15708D01*
X100834Y-15689D01*
X100731Y-15680D01*
X100609Y-15670D01*
X100469Y-15651D01*
X100309Y-15642D01*
X100131Y-15633D01*
X99934D01*
X99719Y-15623D01*
D02*
G37*
G36*
X550979Y-10196D02*
X548908D01*
X545178Y-19803D01*
X547230D01*
X548027Y-17620D01*
X551870D01*
X552704Y-19803D01*
X554822D01*
X550979Y-10196D01*
D02*
G37*
%LPD*%
G36*
X551251Y-15998D02*
X548618D01*
X549920Y-12437D01*
X551251Y-15998D01*
D02*
G37*
%LPC*%
G36*
X350979Y-10196D02*
X348908D01*
X345178Y-19803D01*
X347230D01*
X348027Y-17620D01*
X351870D01*
X352704Y-19803D01*
X354822D01*
X350979Y-10196D01*
D02*
G37*
%LPD*%
G36*
X351251Y-15998D02*
X348618D01*
X349920Y-12437D01*
X351251Y-15998D01*
D02*
G37*
%LPC*%
G36*
X379203Y-180677D02*
X370797D01*
Y-182954D01*
X376370D01*
X375759Y-183787D01*
X375222Y-184658D01*
X374963Y-185065D01*
X374741Y-185491D01*
X374537Y-185880D01*
X374352Y-186250D01*
X374185Y-186602D01*
X374037Y-186917D01*
X373908Y-187213D01*
X373796Y-187454D01*
X373722Y-187639D01*
X373667Y-187787D01*
X373630Y-187880D01*
X373611Y-187917D01*
X373426Y-188435D01*
X373260Y-188935D01*
X373130Y-189435D01*
X373000Y-189916D01*
X372908Y-190398D01*
X372815Y-190842D01*
X372741Y-191268D01*
X372685Y-191657D01*
X372630Y-192009D01*
X372593Y-192342D01*
X372556Y-192620D01*
X372537Y-192861D01*
Y-193064D01*
X372519Y-193212D01*
Y-193286D01*
Y-193323D01*
X374889D01*
X374907Y-192675D01*
X374963Y-192009D01*
X375056Y-191361D01*
X375093Y-191064D01*
X375148Y-190768D01*
X375204Y-190509D01*
X375259Y-190250D01*
X375296Y-190046D01*
X375333Y-189861D01*
X375370Y-189694D01*
X375407Y-189583D01*
X375426Y-189509D01*
Y-189491D01*
X375667Y-188694D01*
X375926Y-187935D01*
X376055Y-187583D01*
X376204Y-187250D01*
X376333Y-186935D01*
X376463Y-186639D01*
X376592Y-186380D01*
X376703Y-186139D01*
X376815Y-185917D01*
X376889Y-185750D01*
X376963Y-185602D01*
X377018Y-185509D01*
X377055Y-185435D01*
X377074Y-185417D01*
X377278Y-185065D01*
X377481Y-184732D01*
X377666Y-184435D01*
X377852Y-184139D01*
X378037Y-183880D01*
X378222Y-183639D01*
X378388Y-183417D01*
X378537Y-183213D01*
X378685Y-183028D01*
X378814Y-182880D01*
X378926Y-182750D01*
X379018Y-182639D01*
X379092Y-182565D01*
X379148Y-182510D01*
X379185Y-182473D01*
X379203Y-182454D01*
Y-180677D01*
D02*
G37*
G36*
X324963Y-182380D02*
X324852D01*
X324722Y-182399D01*
X324556Y-182436D01*
X324370Y-182491D01*
X324185Y-182565D01*
X324000Y-182658D01*
X323834Y-182806D01*
X323815Y-182824D01*
X323778Y-182880D01*
X323704Y-182973D01*
X323630Y-183102D01*
X323556Y-183269D01*
X323482Y-183454D01*
X323445Y-183676D01*
X323426Y-183936D01*
Y-183972D01*
Y-184065D01*
X323445Y-184195D01*
X323482Y-184361D01*
X323519Y-184547D01*
X323593Y-184732D01*
X323704Y-184917D01*
X323834Y-185084D01*
X323852Y-185102D01*
X323908Y-185139D01*
X324000Y-185213D01*
X324130Y-185287D01*
X324296Y-185361D01*
X324482Y-185435D01*
X324704Y-185472D01*
X324944Y-185491D01*
X325056D01*
X325185Y-185472D01*
X325352Y-185435D01*
X325537Y-185398D01*
X325722Y-185324D01*
X325907Y-185213D01*
X326074Y-185084D01*
X326092Y-185065D01*
X326148Y-185009D01*
X326204Y-184917D01*
X326296Y-184769D01*
X326370Y-184602D01*
X326426Y-184417D01*
X326481Y-184176D01*
X326500Y-183917D01*
Y-183880D01*
Y-183806D01*
X326481Y-183676D01*
X326444Y-183528D01*
X326389Y-183343D01*
X326315Y-183158D01*
X326222Y-182973D01*
X326074Y-182806D01*
X326055Y-182787D01*
X326000Y-182732D01*
X325907Y-182676D01*
X325778Y-182584D01*
X325611Y-182510D01*
X325426Y-182454D01*
X325204Y-182399D01*
X324963Y-182380D01*
D02*
G37*
G36*
X324981Y-187435D02*
X324833D01*
X324667Y-187472D01*
X324482Y-187509D01*
X324259Y-187583D01*
X324037Y-187694D01*
X323815Y-187861D01*
X323630Y-188065D01*
X323611Y-188102D01*
X323556Y-188176D01*
X323500Y-188305D01*
X323426Y-188472D01*
X323334Y-188676D01*
X323278Y-188898D01*
X323222Y-189157D01*
X323204Y-189416D01*
Y-189435D01*
Y-189453D01*
Y-189509D01*
Y-189583D01*
X323241Y-189768D01*
X323278Y-190009D01*
X323334Y-190268D01*
X323426Y-190527D01*
X323556Y-190787D01*
X323722Y-191027D01*
X323741Y-191046D01*
X323815Y-191120D01*
X323926Y-191194D01*
X324074Y-191305D01*
X324259Y-191398D01*
X324482Y-191490D01*
X324741Y-191564D01*
X325019Y-191583D01*
X325148D01*
X325278Y-191546D01*
X325463Y-191509D01*
X325667Y-191453D01*
X325870Y-191361D01*
X326074Y-191231D01*
X326278Y-191046D01*
X326296Y-191027D01*
X326352Y-190935D01*
X326444Y-190824D01*
X326537Y-190639D01*
X326629Y-190416D01*
X326722Y-190139D01*
X326778Y-189824D01*
X326796Y-189453D01*
Y-189435D01*
Y-189416D01*
Y-189305D01*
X326778Y-189139D01*
X326741Y-188935D01*
X326666Y-188694D01*
X326574Y-188454D01*
X326444Y-188213D01*
X326278Y-187991D01*
X326259Y-187972D01*
X326185Y-187898D01*
X326074Y-187806D01*
X325926Y-187713D01*
X325741Y-187602D01*
X325518Y-187528D01*
X325259Y-187454D01*
X324981Y-187435D01*
D02*
G37*
G36*
X478740Y-180556D02*
X472241D01*
X470982Y-187241D01*
X472963Y-187519D01*
X473130Y-187352D01*
X473297Y-187204D01*
X473463Y-187074D01*
X473630Y-186963D01*
X473945Y-186796D01*
X474241Y-186685D01*
X474500Y-186630D01*
X474685Y-186593D01*
X474759Y-186574D01*
X474870D01*
X475167Y-186593D01*
X475444Y-186667D01*
X475685Y-186759D01*
X475889Y-186870D01*
X476037Y-187000D01*
X476166Y-187093D01*
X476241Y-187167D01*
X476259Y-187185D01*
X476444Y-187426D01*
X476574Y-187704D01*
X476666Y-188000D01*
X476722Y-188296D01*
X476778Y-188555D01*
X476796Y-188759D01*
Y-188852D01*
Y-188907D01*
Y-188944D01*
Y-188963D01*
X476778Y-189407D01*
X476722Y-189796D01*
X476629Y-190111D01*
X476537Y-190370D01*
X476426Y-190592D01*
X476352Y-190740D01*
X476278Y-190814D01*
X476259Y-190851D01*
X476055Y-191055D01*
X475833Y-191222D01*
X475611Y-191333D01*
X475407Y-191407D01*
X475222Y-191444D01*
X475074Y-191462D01*
X474981Y-191481D01*
X474944D01*
X474704Y-191462D01*
X474463Y-191407D01*
X474259Y-191333D01*
X474093Y-191240D01*
X473945Y-191148D01*
X473833Y-191074D01*
X473759Y-191018D01*
X473741Y-191000D01*
X473574Y-190796D01*
X473426Y-190592D01*
X473315Y-190370D01*
X473241Y-190166D01*
X473185Y-189981D01*
X473148Y-189814D01*
X473130Y-189722D01*
Y-189685D01*
X470686Y-189944D01*
X470741Y-190240D01*
X470797Y-190518D01*
X470982Y-191018D01*
X471186Y-191462D01*
X471297Y-191648D01*
X471426Y-191833D01*
X471537Y-191981D01*
X471630Y-192111D01*
X471741Y-192222D01*
X471815Y-192333D01*
X471889Y-192407D01*
X471945Y-192462D01*
X471982Y-192481D01*
X472000Y-192499D01*
X472223Y-192666D01*
X472445Y-192814D01*
X472685Y-192944D01*
X472926Y-193036D01*
X473426Y-193222D01*
X473871Y-193333D01*
X474093Y-193370D01*
X474278Y-193388D01*
X474463Y-193407D01*
X474611Y-193425D01*
X474741Y-193444D01*
X474907D01*
X475315Y-193425D01*
X475704Y-193370D01*
X476055Y-193296D01*
X476389Y-193185D01*
X476703Y-193055D01*
X476981Y-192907D01*
X477240Y-192759D01*
X477481Y-192592D01*
X477685Y-192444D01*
X477870Y-192296D01*
X478037Y-192148D01*
X478166Y-192018D01*
X478259Y-191907D01*
X478333Y-191833D01*
X478370Y-191777D01*
X478388Y-191759D01*
X478555Y-191518D01*
X478703Y-191277D01*
X478814Y-191037D01*
X478926Y-190777D01*
X479092Y-190296D01*
X479203Y-189852D01*
X479240Y-189666D01*
X479259Y-189481D01*
X479296Y-189315D01*
Y-189166D01*
X479314Y-189055D01*
Y-188907D01*
X479296Y-188555D01*
X479259Y-188222D01*
X479203Y-187907D01*
X479129Y-187611D01*
X479055Y-187352D01*
X478944Y-187093D01*
X478851Y-186852D01*
X478740Y-186648D01*
X478629Y-186463D01*
X478537Y-186296D01*
X478426Y-186148D01*
X478352Y-186037D01*
X478277Y-185945D01*
X478222Y-185870D01*
X478185Y-185833D01*
X478166Y-185815D01*
X477944Y-185611D01*
X477722Y-185426D01*
X477481Y-185259D01*
X477240Y-185111D01*
X477018Y-185000D01*
X476778Y-184908D01*
X476352Y-184760D01*
X476148Y-184704D01*
X475963Y-184667D01*
X475796Y-184648D01*
X475667Y-184630D01*
X475555Y-184611D01*
X475389D01*
X475074Y-184630D01*
X474759Y-184685D01*
X474482Y-184741D01*
X474222Y-184815D01*
X474019Y-184908D01*
X473852Y-184963D01*
X473741Y-185019D01*
X473722Y-185037D01*
X473704D01*
X474093Y-182852D01*
X478740D01*
Y-180556D01*
D02*
G37*
G36*
X425037Y-306436D02*
X424870D01*
X424482Y-306454D01*
X424130Y-306491D01*
X423797Y-306565D01*
X423519Y-306639D01*
X423297Y-306714D01*
X423111Y-306788D01*
X423000Y-306825D01*
X422982Y-306843D01*
X422963D01*
X422667Y-307010D01*
X422389Y-307195D01*
X422167Y-307380D01*
X421982Y-307547D01*
X421834Y-307714D01*
X421723Y-307843D01*
X421648Y-307917D01*
X421630Y-307954D01*
X421463Y-308232D01*
X421315Y-308528D01*
X421204Y-308843D01*
X421093Y-309139D01*
X421019Y-309417D01*
X420963Y-309621D01*
X420945Y-309713D01*
Y-309769D01*
X420926Y-309806D01*
Y-309824D01*
X423185Y-310195D01*
X423241Y-309898D01*
X423315Y-309639D01*
X423389Y-309417D01*
X423482Y-309250D01*
X423574Y-309102D01*
X423648Y-308991D01*
X423704Y-308936D01*
X423722Y-308917D01*
X423889Y-308769D01*
X424074Y-308658D01*
X424259Y-308584D01*
X424426Y-308528D01*
X424574Y-308491D01*
X424685Y-308473D01*
X424796D01*
X425019Y-308491D01*
X425241Y-308528D01*
X425407Y-308602D01*
X425555Y-308658D01*
X425685Y-308732D01*
X425759Y-308806D01*
X425815Y-308843D01*
X425833Y-308862D01*
X425963Y-309010D01*
X426055Y-309195D01*
X426130Y-309361D01*
X426167Y-309528D01*
X426204Y-309676D01*
X426222Y-309787D01*
Y-309861D01*
Y-309898D01*
X426204Y-310176D01*
X426148Y-310417D01*
X426055Y-310621D01*
X425963Y-310787D01*
X425852Y-310935D01*
X425778Y-311028D01*
X425704Y-311102D01*
X425685Y-311120D01*
X425463Y-311269D01*
X425222Y-311380D01*
X424963Y-311454D01*
X424722Y-311509D01*
X424500Y-311528D01*
X424315Y-311546D01*
X424148D01*
X423889Y-313528D01*
X424130Y-313472D01*
X424333Y-313417D01*
X424537Y-313380D01*
X424704Y-313361D01*
X424833Y-313342D01*
X425019D01*
X425278Y-313361D01*
X425500Y-313435D01*
X425704Y-313509D01*
X425889Y-313620D01*
X426018Y-313713D01*
X426130Y-313805D01*
X426204Y-313880D01*
X426222Y-313898D01*
X426389Y-314120D01*
X426518Y-314361D01*
X426611Y-314602D01*
X426685Y-314842D01*
X426722Y-315065D01*
X426741Y-315231D01*
Y-315342D01*
Y-315361D01*
Y-315379D01*
X426722Y-315731D01*
X426666Y-316046D01*
X426574Y-316324D01*
X426481Y-316546D01*
X426370Y-316712D01*
X426296Y-316842D01*
X426222Y-316935D01*
X426204Y-316953D01*
X426000Y-317138D01*
X425778Y-317287D01*
X425574Y-317379D01*
X425370Y-317453D01*
X425185Y-317490D01*
X425056Y-317509D01*
X424963Y-317527D01*
X424926D01*
X424667Y-317509D01*
X424445Y-317453D01*
X424241Y-317379D01*
X424056Y-317287D01*
X423926Y-317213D01*
X423815Y-317138D01*
X423741Y-317083D01*
X423722Y-317064D01*
X423556Y-316861D01*
X423408Y-316639D01*
X423315Y-316398D01*
X423222Y-316176D01*
X423167Y-315972D01*
X423130Y-315805D01*
X423111Y-315694D01*
Y-315676D01*
Y-315657D01*
X420741Y-315953D01*
X420778Y-316250D01*
X420852Y-316527D01*
X421019Y-317046D01*
X421223Y-317490D01*
X421352Y-317675D01*
X421463Y-317861D01*
X421575Y-318027D01*
X421686Y-318157D01*
X421778Y-318286D01*
X421871Y-318379D01*
X421945Y-318453D01*
X422000Y-318509D01*
X422037Y-318546D01*
X422056Y-318564D01*
X422278Y-318731D01*
X422519Y-318897D01*
X422741Y-319027D01*
X423000Y-319138D01*
X423482Y-319323D01*
X423926Y-319435D01*
X424148Y-319471D01*
X424333Y-319509D01*
X424500Y-319527D01*
X424648Y-319546D01*
X424778Y-319564D01*
X424944D01*
X425278Y-319546D01*
X425611Y-319509D01*
X425907Y-319453D01*
X426204Y-319379D01*
X426463Y-319286D01*
X426722Y-319194D01*
X426963Y-319083D01*
X427166Y-318972D01*
X427352Y-318860D01*
X427537Y-318749D01*
X427666Y-318657D01*
X427796Y-318564D01*
X427889Y-318490D01*
X427963Y-318435D01*
X428000Y-318398D01*
X428018Y-318379D01*
X428240Y-318157D01*
X428426Y-317916D01*
X428592Y-317675D01*
X428740Y-317435D01*
X428852Y-317176D01*
X428963Y-316935D01*
X429111Y-316490D01*
X429148Y-316287D01*
X429185Y-316083D01*
X429222Y-315916D01*
X429240Y-315768D01*
X429259Y-315657D01*
Y-315490D01*
X429222Y-315065D01*
X429148Y-314694D01*
X429055Y-314342D01*
X428926Y-314065D01*
X428796Y-313824D01*
X428703Y-313657D01*
X428629Y-313546D01*
X428592Y-313509D01*
X428333Y-313231D01*
X428037Y-312991D01*
X427741Y-312806D01*
X427463Y-312657D01*
X427222Y-312546D01*
X427018Y-312491D01*
X426944Y-312454D01*
X426889D01*
X426852Y-312435D01*
X426833D01*
X427166Y-312232D01*
X427444Y-312028D01*
X427685Y-311806D01*
X427907Y-311583D01*
X428092Y-311361D01*
X428240Y-311139D01*
X428352Y-310917D01*
X428463Y-310713D01*
X428537Y-310509D01*
X428592Y-310324D01*
X428629Y-310158D01*
X428648Y-310009D01*
X428666Y-309898D01*
X428685Y-309806D01*
Y-309750D01*
Y-309732D01*
X428666Y-309510D01*
X428648Y-309306D01*
X428537Y-308899D01*
X428407Y-308528D01*
X428240Y-308213D01*
X428074Y-307954D01*
X427926Y-307769D01*
X427870Y-307695D01*
X427815Y-307639D01*
X427796Y-307621D01*
X427777Y-307602D01*
X427574Y-307399D01*
X427333Y-307213D01*
X427111Y-307065D01*
X426870Y-306936D01*
X426611Y-306806D01*
X426370Y-306714D01*
X425907Y-306584D01*
X425704Y-306528D01*
X425500Y-306491D01*
X425333Y-306473D01*
X425167Y-306454D01*
X425037Y-306436D01*
D02*
G37*
G36*
X475648Y-310306D02*
X472667Y-314713D01*
X475648D01*
Y-310306D01*
D02*
G37*
G36*
X327814Y-306556D02*
X325815D01*
X325630Y-306982D01*
X325389Y-307371D01*
X325130Y-307741D01*
X324870Y-308037D01*
X324648Y-308278D01*
X324445Y-308463D01*
X324370Y-308538D01*
X324315Y-308593D01*
X324278Y-308612D01*
X324259Y-308630D01*
X323852Y-308926D01*
X323463Y-309186D01*
X323111Y-309389D01*
X322797Y-309537D01*
X322537Y-309648D01*
X322352Y-309741D01*
X322278Y-309760D01*
X322223Y-309778D01*
X322204Y-309797D01*
X322185D01*
Y-312019D01*
X322852Y-311759D01*
X323445Y-311482D01*
X323722Y-311334D01*
X323982Y-311167D01*
X324222Y-311019D01*
X324445Y-310871D01*
X324648Y-310722D01*
X324833Y-310593D01*
X324981Y-310482D01*
X325111Y-310371D01*
X325222Y-310278D01*
X325296Y-310222D01*
X325333Y-310186D01*
X325352Y-310167D01*
Y-319444D01*
X327814D01*
Y-306556D01*
D02*
G37*
G36*
X759813Y-480201D02*
X755985D01*
Y-489798D01*
X764015D01*
X759619D01*
X759993Y-489785D01*
X760340Y-489771D01*
X760631Y-489743D01*
X760867Y-489701D01*
X761061Y-489660D01*
X761214Y-489632D01*
X761255Y-489618D01*
X761297D01*
X761311Y-489604D01*
X761324D01*
X761629Y-489493D01*
X761907Y-489369D01*
X762129Y-489244D01*
X762323Y-489119D01*
X762476Y-489008D01*
X762587Y-488925D01*
X762656Y-488869D01*
X762683Y-488842D01*
X762919Y-488578D01*
X763127Y-488301D01*
X763308Y-488009D01*
X763446Y-487746D01*
X763557Y-487496D01*
X763613Y-487399D01*
X763641Y-487316D01*
X763668Y-487233D01*
X763696Y-487177D01*
X763710Y-487150D01*
Y-487136D01*
X763807Y-486803D01*
X763890Y-486456D01*
X763946Y-486123D01*
X763973Y-485804D01*
X763987Y-485652D01*
X764001Y-485513D01*
Y-485402D01*
X764015Y-485291D01*
Y-485097D01*
X764001Y-484612D01*
X763959Y-484182D01*
X763946Y-483974D01*
X763918Y-483793D01*
X763890Y-483613D01*
X763862Y-483461D01*
X763821Y-483322D01*
X763793Y-483197D01*
X763765Y-483086D01*
X763751Y-483003D01*
X763724Y-482934D01*
X763710Y-482878D01*
X763696Y-482850D01*
Y-482836D01*
X763571Y-482504D01*
X763419Y-482199D01*
X763266Y-481935D01*
X763113Y-481713D01*
X762989Y-481533D01*
X762878Y-481394D01*
X762808Y-481311D01*
X762794Y-481283D01*
X762781D01*
X762545Y-481061D01*
X762309Y-480881D01*
X762059Y-480728D01*
X761838Y-480604D01*
X761643Y-480507D01*
X761477Y-480437D01*
X761422Y-480423D01*
X761380Y-480410D01*
X761352Y-480396D01*
X761338D01*
X761075Y-480326D01*
X760784Y-480285D01*
X760479Y-480243D01*
X760187Y-480229D01*
X759924Y-480215D01*
X759813Y-480201D01*
D02*
G37*
%LPD*%
G36*
X759369Y-481838D02*
X759535D01*
X759674Y-481852D01*
X759799D01*
X759924Y-481866D01*
X760021D01*
X760173Y-481893D01*
X760284Y-481907D01*
X760354Y-481921D01*
X760368D01*
X760562Y-481977D01*
X760728Y-482046D01*
X760881Y-482115D01*
X761019Y-482199D01*
X761116Y-482268D01*
X761200Y-482323D01*
X761241Y-482365D01*
X761255Y-482379D01*
X761380Y-482518D01*
X761491Y-482670D01*
X761588Y-482823D01*
X761671Y-482961D01*
X761727Y-483100D01*
X761768Y-483211D01*
X761796Y-483280D01*
X761810Y-483294D01*
Y-483308D01*
X761879Y-483558D01*
X761935Y-483821D01*
X761962Y-484112D01*
X761990Y-484390D01*
X762004Y-484626D01*
X762018Y-484737D01*
Y-484833D01*
Y-484903D01*
Y-484958D01*
Y-485000D01*
Y-485014D01*
X762004Y-485402D01*
X761990Y-485763D01*
X761948Y-486054D01*
X761921Y-486304D01*
X761879Y-486512D01*
X761865Y-486595D01*
X761838Y-486650D01*
X761824Y-486706D01*
Y-486747D01*
X761810Y-486761D01*
Y-486775D01*
X761727Y-486997D01*
X761657Y-487191D01*
X761560Y-487344D01*
X761491Y-487468D01*
X761422Y-487566D01*
X761366Y-487635D01*
X761324Y-487677D01*
X761311Y-487690D01*
X761186Y-487788D01*
X761061Y-487871D01*
X760936Y-487940D01*
X760811Y-487995D01*
X760700Y-488037D01*
X760617Y-488065D01*
X760562Y-488093D01*
X760534D01*
X760381Y-488120D01*
X760201Y-488134D01*
X760007Y-488162D01*
X759813D01*
X759632Y-488176D01*
X757927D01*
Y-481824D01*
X759189D01*
X759369Y-481838D01*
D02*
G37*
%LPC*%
G36*
X604015Y-480201D02*
X595985D01*
Y-489798D01*
X599619D01*
X599993Y-489785D01*
X600340Y-489771D01*
X600631Y-489743D01*
X600867Y-489701D01*
X601061Y-489660D01*
X601213Y-489632D01*
X601255Y-489618D01*
X601297D01*
X601311Y-489604D01*
X601324D01*
X601629Y-489493D01*
X601907Y-489369D01*
X602129Y-489244D01*
X602323Y-489119D01*
X602476Y-489008D01*
X602587Y-488925D01*
X602656Y-488869D01*
X602683Y-488842D01*
X602919Y-488578D01*
X603127Y-488301D01*
X603308Y-488009D01*
X603446Y-487746D01*
X603557Y-487496D01*
X603613Y-487399D01*
X603640Y-487316D01*
X603668Y-487233D01*
X603696Y-487177D01*
X603710Y-487150D01*
Y-487136D01*
X603807Y-486803D01*
X603890Y-486456D01*
X603946Y-486123D01*
X603973Y-485804D01*
X603987Y-485652D01*
X604001Y-485513D01*
Y-485402D01*
X604015Y-485291D01*
Y-485097D01*
X604001Y-484612D01*
X603959Y-484182D01*
X603946Y-483974D01*
X603918Y-483793D01*
X603890Y-483613D01*
X603862Y-483461D01*
X603821Y-483322D01*
X603793Y-483197D01*
X603765Y-483086D01*
X603751Y-483003D01*
X603724Y-482934D01*
X603710Y-482878D01*
X603696Y-482850D01*
Y-482836D01*
X603571Y-482504D01*
X603419Y-482199D01*
X603266Y-481935D01*
X603113Y-481713D01*
X602989Y-481533D01*
X602878Y-481394D01*
X602808Y-481311D01*
X602794Y-481283D01*
X602781D01*
X602545Y-481061D01*
X602309Y-480881D01*
X602060Y-480728D01*
X601838Y-480604D01*
X601643Y-480507D01*
X601477Y-480437D01*
X601422Y-480423D01*
X601380Y-480410D01*
X601352Y-480396D01*
X601338D01*
X601075Y-480326D01*
X600784Y-480285D01*
X600479Y-480243D01*
X600187Y-480229D01*
X599924Y-480215D01*
X599813Y-480201D01*
X604015D01*
D01*
D02*
G37*
%LPD*%
G36*
X599369Y-481838D02*
X599535D01*
X599674Y-481852D01*
X599799D01*
X599924Y-481866D01*
X600021D01*
X600173Y-481893D01*
X600284Y-481907D01*
X600354Y-481921D01*
X600368D01*
X600562Y-481977D01*
X600728Y-482046D01*
X600881Y-482115D01*
X601019Y-482199D01*
X601116Y-482268D01*
X601200Y-482323D01*
X601241Y-482365D01*
X601255Y-482379D01*
X601380Y-482518D01*
X601491Y-482670D01*
X601588Y-482823D01*
X601671Y-482961D01*
X601727Y-483100D01*
X601768Y-483211D01*
X601796Y-483280D01*
X601810Y-483294D01*
Y-483308D01*
X601879Y-483558D01*
X601935Y-483821D01*
X601962Y-484112D01*
X601990Y-484390D01*
X602004Y-484626D01*
X602018Y-484737D01*
Y-484833D01*
Y-484903D01*
Y-484958D01*
Y-485000D01*
Y-485014D01*
X602004Y-485402D01*
X601990Y-485763D01*
X601949Y-486054D01*
X601921Y-486304D01*
X601879Y-486512D01*
X601865Y-486595D01*
X601838Y-486650D01*
X601824Y-486706D01*
Y-486747D01*
X601810Y-486761D01*
Y-486775D01*
X601727Y-486997D01*
X601657Y-487191D01*
X601560Y-487344D01*
X601491Y-487468D01*
X601422Y-487566D01*
X601366Y-487635D01*
X601324Y-487677D01*
X601311Y-487690D01*
X601186Y-487788D01*
X601061Y-487871D01*
X600936Y-487940D01*
X600811Y-487995D01*
X600700Y-488037D01*
X600617Y-488065D01*
X600562Y-488093D01*
X600534D01*
X600381Y-488120D01*
X600201Y-488134D01*
X600007Y-488162D01*
X599813D01*
X599632Y-488176D01*
X597927D01*
Y-481824D01*
X599189D01*
X599369Y-481838D01*
D02*
G37*
%LPC*%
G36*
X449813Y-480201D02*
X445985D01*
Y-489798D01*
X454015D01*
X449619D01*
X449993Y-489785D01*
X450340Y-489771D01*
X450631Y-489743D01*
X450867Y-489701D01*
X451061Y-489660D01*
X451213Y-489632D01*
X451255Y-489618D01*
X451297D01*
X451311Y-489604D01*
X451324D01*
X451629Y-489493D01*
X451907Y-489369D01*
X452129Y-489244D01*
X452323Y-489119D01*
X452476Y-489008D01*
X452586Y-488925D01*
X452656Y-488869D01*
X452683Y-488842D01*
X452919Y-488578D01*
X453127Y-488301D01*
X453308Y-488009D01*
X453446Y-487746D01*
X453557Y-487496D01*
X453613Y-487399D01*
X453640Y-487316D01*
X453668Y-487233D01*
X453696Y-487177D01*
X453710Y-487150D01*
Y-487136D01*
X453807Y-486803D01*
X453890Y-486456D01*
X453946Y-486123D01*
X453973Y-485804D01*
X453987Y-485652D01*
X454001Y-485513D01*
Y-485402D01*
X454015Y-485291D01*
Y-485097D01*
X454001Y-484612D01*
X453959Y-484182D01*
X453946Y-483974D01*
X453918Y-483793D01*
X453890Y-483613D01*
X453862Y-483461D01*
X453821Y-483322D01*
X453793Y-483197D01*
X453765Y-483086D01*
X453751Y-483003D01*
X453724Y-482934D01*
X453710Y-482878D01*
X453696Y-482850D01*
Y-482836D01*
X453571Y-482504D01*
X453419Y-482199D01*
X453266Y-481935D01*
X453113Y-481713D01*
X452989Y-481533D01*
X452878Y-481394D01*
X452808Y-481311D01*
X452794Y-481283D01*
X452781D01*
X452545Y-481061D01*
X452309Y-480881D01*
X452059Y-480728D01*
X451838Y-480604D01*
X451643Y-480507D01*
X451477Y-480437D01*
X451422Y-480423D01*
X451380Y-480410D01*
X451352Y-480396D01*
X451338D01*
X451075Y-480326D01*
X450784Y-480285D01*
X450478Y-480243D01*
X450187Y-480229D01*
X449924Y-480215D01*
X449813Y-480201D01*
D02*
G37*
%LPD*%
G36*
X449369Y-481838D02*
X449535D01*
X449674Y-481852D01*
X449799D01*
X449924Y-481866D01*
X450021D01*
X450173Y-481893D01*
X450284Y-481907D01*
X450354Y-481921D01*
X450368D01*
X450562Y-481977D01*
X450728Y-482046D01*
X450881Y-482115D01*
X451019Y-482199D01*
X451116Y-482268D01*
X451200Y-482323D01*
X451241Y-482365D01*
X451255Y-482379D01*
X451380Y-482518D01*
X451491Y-482670D01*
X451588Y-482823D01*
X451671Y-482961D01*
X451727Y-483100D01*
X451768Y-483211D01*
X451796Y-483280D01*
X451810Y-483294D01*
Y-483308D01*
X451879Y-483558D01*
X451935Y-483821D01*
X451962Y-484112D01*
X451990Y-484390D01*
X452004Y-484626D01*
X452018Y-484737D01*
Y-484833D01*
Y-484903D01*
Y-484958D01*
Y-485000D01*
Y-485014D01*
X452004Y-485402D01*
X451990Y-485763D01*
X451949Y-486054D01*
X451921Y-486304D01*
X451879Y-486512D01*
X451865Y-486595D01*
X451838Y-486650D01*
X451824Y-486706D01*
Y-486747D01*
X451810Y-486761D01*
Y-486775D01*
X451727Y-486997D01*
X451657Y-487191D01*
X451560Y-487344D01*
X451491Y-487468D01*
X451422Y-487566D01*
X451366Y-487635D01*
X451324Y-487677D01*
X451311Y-487690D01*
X451186Y-487788D01*
X451061Y-487871D01*
X450936Y-487940D01*
X450811Y-487995D01*
X450700Y-488037D01*
X450617Y-488065D01*
X450562Y-488093D01*
X450534D01*
X450381Y-488120D01*
X450201Y-488134D01*
X450007Y-488162D01*
X449813D01*
X449632Y-488176D01*
X447927D01*
Y-481824D01*
X449189D01*
X449369Y-481838D01*
D02*
G37*
%LPC*%
G36*
X249813Y-480201D02*
X245985D01*
Y-489798D01*
X254015D01*
Y-485097D01*
X254001Y-484612D01*
X253959Y-484182D01*
X253946Y-483974D01*
X253918Y-483793D01*
X253890Y-483613D01*
X253862Y-483461D01*
X253821Y-483322D01*
X253793Y-483197D01*
X253765Y-483086D01*
X253751Y-483003D01*
X253724Y-482934D01*
X253710Y-482878D01*
X253696Y-482850D01*
Y-482836D01*
X253571Y-482504D01*
X253419Y-482199D01*
X253266Y-481935D01*
X253113Y-481713D01*
X252989Y-481533D01*
X252878Y-481394D01*
X252808Y-481311D01*
X252794Y-481283D01*
X252781D01*
X252545Y-481061D01*
X252309Y-480881D01*
X252059Y-480728D01*
X251838Y-480604D01*
X251643Y-480507D01*
X251477Y-480437D01*
X251422Y-480423D01*
X251380Y-480410D01*
X251352Y-480396D01*
X251338D01*
X251075Y-480326D01*
X250784Y-480285D01*
X250478Y-480243D01*
X250187Y-480229D01*
X249924Y-480215D01*
X249813Y-480201D01*
D02*
G37*
%LPD*%
G36*
X249369Y-481838D02*
X249535D01*
X249674Y-481852D01*
X249799D01*
X249924Y-481866D01*
X250021D01*
X250173Y-481893D01*
X250284Y-481907D01*
X250354Y-481921D01*
X250368D01*
X250562Y-481977D01*
X250728Y-482046D01*
X250881Y-482115D01*
X251019Y-482199D01*
X251116Y-482268D01*
X251200Y-482323D01*
X251241Y-482365D01*
X251255Y-482379D01*
X251380Y-482518D01*
X251491Y-482670D01*
X251588Y-482823D01*
X251671Y-482961D01*
X251727Y-483100D01*
X251768Y-483211D01*
X251796Y-483280D01*
X251810Y-483294D01*
Y-483308D01*
X251879Y-483558D01*
X251935Y-483821D01*
X251962Y-484112D01*
X251990Y-484390D01*
X252004Y-484626D01*
X252018Y-484737D01*
Y-484833D01*
Y-484903D01*
Y-484958D01*
Y-485000D01*
Y-485014D01*
X252004Y-485402D01*
X251990Y-485763D01*
X251949Y-486054D01*
X251921Y-486304D01*
X251879Y-486512D01*
X251865Y-486595D01*
X251838Y-486650D01*
X251824Y-486706D01*
Y-486747D01*
X251810Y-486761D01*
Y-486775D01*
X251727Y-486997D01*
X251657Y-487191D01*
X251560Y-487344D01*
X251491Y-487468D01*
X251422Y-487566D01*
X251366Y-487635D01*
X251324Y-487677D01*
X251311Y-487690D01*
X251186Y-487788D01*
X251061Y-487871D01*
X250936Y-487940D01*
X250811Y-487995D01*
X250700Y-488037D01*
X250617Y-488065D01*
X250562Y-488093D01*
X250534D01*
X250381Y-488120D01*
X250201Y-488134D01*
X250007Y-488162D01*
X249813D01*
X249632Y-488176D01*
X247927D01*
Y-481824D01*
X249189D01*
X249369Y-481838D01*
D02*
G37*
G36*
X254015Y-489798D02*
X249619D01*
X249993Y-489785D01*
X250340Y-489771D01*
X250631Y-489743D01*
X250867Y-489701D01*
X251061Y-489660D01*
X251213Y-489632D01*
X251255Y-489618D01*
X251297D01*
X251311Y-489604D01*
X251324D01*
X251630Y-489493D01*
X251907Y-489369D01*
X252129Y-489244D01*
X252323Y-489119D01*
X252475Y-489008D01*
X252586Y-488925D01*
X252656Y-488869D01*
X252684Y-488842D01*
X252919Y-488578D01*
X253127Y-488301D01*
X253308Y-488009D01*
X253446Y-487746D01*
X253557Y-487496D01*
X253613Y-487399D01*
X253640Y-487316D01*
X253668Y-487233D01*
X253696Y-487177D01*
X253710Y-487150D01*
Y-487136D01*
X253807Y-486803D01*
X253890Y-486456D01*
X253946Y-486123D01*
X253973Y-485804D01*
X253987Y-485652D01*
X254001Y-485513D01*
Y-485402D01*
X254015Y-485291D01*
Y-489798D01*
D02*
G37*
%LPC*%
G36*
X99813Y-480201D02*
X95985D01*
Y-489798D01*
X104015D01*
Y-485097D01*
X104001Y-484612D01*
X103959Y-484182D01*
X103946Y-483974D01*
X103918Y-483793D01*
X103890Y-483613D01*
X103862Y-483461D01*
X103821Y-483322D01*
X103793Y-483197D01*
X103765Y-483086D01*
X103751Y-483003D01*
X103724Y-482934D01*
X103710Y-482878D01*
X103696Y-482850D01*
Y-482836D01*
X103571Y-482504D01*
X103419Y-482199D01*
X103266Y-481935D01*
X103113Y-481713D01*
X102989Y-481533D01*
X102878Y-481394D01*
X102808Y-481311D01*
X102795Y-481283D01*
X102781D01*
X102545Y-481061D01*
X102309Y-480881D01*
X102059Y-480728D01*
X101838Y-480604D01*
X101643Y-480507D01*
X101477Y-480437D01*
X101421Y-480423D01*
X101380Y-480410D01*
X101352Y-480396D01*
X101338D01*
X101075Y-480326D01*
X100784Y-480285D01*
X100478Y-480243D01*
X100187Y-480229D01*
X99924Y-480215D01*
X99813Y-480201D01*
D02*
G37*
%LPD*%
G36*
X99369Y-481838D02*
X99535D01*
X99674Y-481852D01*
X99799D01*
X99924Y-481866D01*
X100021D01*
X100173Y-481893D01*
X100284Y-481907D01*
X100354Y-481921D01*
X100367D01*
X100562Y-481977D01*
X100728Y-482046D01*
X100881Y-482115D01*
X101019Y-482199D01*
X101116Y-482268D01*
X101200Y-482323D01*
X101241Y-482365D01*
X101255Y-482379D01*
X101380Y-482518D01*
X101491Y-482670D01*
X101588Y-482823D01*
X101671Y-482961D01*
X101727Y-483100D01*
X101768Y-483211D01*
X101796Y-483280D01*
X101810Y-483294D01*
Y-483308D01*
X101879Y-483558D01*
X101935Y-483821D01*
X101962Y-484112D01*
X101990Y-484390D01*
X102004Y-484626D01*
X102018Y-484737D01*
Y-484833D01*
Y-484903D01*
Y-484958D01*
Y-485000D01*
Y-485014D01*
X102004Y-485402D01*
X101990Y-485763D01*
X101948Y-486054D01*
X101921Y-486304D01*
X101879Y-486512D01*
X101865Y-486595D01*
X101838Y-486650D01*
X101824Y-486706D01*
Y-486747D01*
X101810Y-486761D01*
Y-486775D01*
X101727Y-486997D01*
X101657Y-487191D01*
X101560Y-487344D01*
X101491Y-487468D01*
X101421Y-487566D01*
X101366Y-487635D01*
X101324Y-487677D01*
X101311Y-487690D01*
X101186Y-487788D01*
X101061Y-487871D01*
X100936Y-487940D01*
X100811Y-487995D01*
X100700Y-488037D01*
X100617Y-488065D01*
X100562Y-488093D01*
X100534D01*
X100381Y-488120D01*
X100201Y-488134D01*
X100007Y-488162D01*
X99813D01*
X99633Y-488176D01*
X97927D01*
Y-481824D01*
X99189D01*
X99369Y-481838D01*
D02*
G37*
G36*
X104015Y-489798D02*
X99619D01*
X99993Y-489785D01*
X100340Y-489771D01*
X100631Y-489743D01*
X100867Y-489701D01*
X101061Y-489660D01*
X101214Y-489632D01*
X101255Y-489618D01*
X101297D01*
X101311Y-489604D01*
X101324D01*
X101629Y-489493D01*
X101907Y-489369D01*
X102129Y-489244D01*
X102323Y-489119D01*
X102476Y-489008D01*
X102586Y-488925D01*
X102656Y-488869D01*
X102683Y-488842D01*
X102919Y-488578D01*
X103127Y-488301D01*
X103308Y-488009D01*
X103446Y-487746D01*
X103557Y-487496D01*
X103613Y-487399D01*
X103640Y-487316D01*
X103668Y-487233D01*
X103696Y-487177D01*
X103710Y-487150D01*
Y-487136D01*
X103807Y-486803D01*
X103890Y-486456D01*
X103946Y-486123D01*
X103973Y-485804D01*
X103987Y-485652D01*
X104001Y-485513D01*
Y-485402D01*
X104015Y-485291D01*
Y-489798D01*
D02*
G37*
%LPC*%
G36*
X200979Y-10196D02*
X198908D01*
X195178Y-19803D01*
X197230D01*
X198027Y-17620D01*
X201870D01*
X202704Y-19803D01*
X204822D01*
X200979Y-10196D01*
D02*
G37*
%LPD*%
G36*
X201251Y-15998D02*
X198618D01*
X199920Y-12437D01*
X201251Y-15998D01*
D02*
G37*
%LPC*%
G36*
X700980Y-10196D02*
X698908D01*
X695178Y-19803D01*
X697230D01*
X698027Y-17620D01*
X701870D01*
X702704Y-19803D01*
X704822D01*
X700980Y-10196D01*
D02*
G37*
%LPD*%
G36*
X701251Y-15998D02*
X698618D01*
X699920Y-12437D01*
X701251Y-15998D01*
D02*
G37*
%LPC*%
G36*
X40979Y-10196D02*
X38908D01*
X35178Y-19803D01*
X37230D01*
X38027Y-17620D01*
X41870D01*
X42704Y-19803D01*
X44822D01*
X40979Y-10196D01*
D02*
G37*
%LPD*%
G36*
X41251Y-15998D02*
X38618D01*
X39920Y-12437D01*
X41251Y-15998D01*
D02*
G37*
%LPC*%
G36*
X425157Y-186806D02*
X425046D01*
X424898Y-186843D01*
X424731Y-186880D01*
X424546Y-186954D01*
X424343Y-187046D01*
X424139Y-187194D01*
X423954Y-187380D01*
X423935Y-187398D01*
X423880Y-187491D01*
X423806Y-187620D01*
X423713Y-187787D01*
X423620Y-188028D01*
X423546Y-188305D01*
X423491Y-188639D01*
X423472Y-189028D01*
Y-189046D01*
Y-189083D01*
Y-189139D01*
Y-189231D01*
X423509Y-189435D01*
X423546Y-189713D01*
X423602Y-190009D01*
X423695Y-190324D01*
X423824Y-190620D01*
X424009Y-190879D01*
X424028Y-190898D01*
X424102Y-190972D01*
X424232Y-191083D01*
X424380Y-191194D01*
X424565Y-191324D01*
X424768Y-191416D01*
X425009Y-191490D01*
X425269Y-191527D01*
X425380D01*
X425509Y-191490D01*
X425676Y-191453D01*
X425843Y-191398D01*
X426046Y-191305D01*
X426231Y-191175D01*
X426417Y-191009D01*
X426435Y-190990D01*
X426491Y-190898D01*
X426565Y-190768D01*
X426657Y-190583D01*
X426731Y-190342D01*
X426805Y-190046D01*
X426861Y-189676D01*
X426879Y-189250D01*
Y-189231D01*
Y-189194D01*
Y-189120D01*
Y-189046D01*
X426861Y-188824D01*
X426824Y-188546D01*
X426750Y-188250D01*
X426676Y-187935D01*
X426546Y-187639D01*
X426380Y-187398D01*
X426361Y-187380D01*
X426287Y-187306D01*
X426194Y-187213D01*
X426046Y-187102D01*
X425861Y-186991D01*
X425657Y-186898D01*
X425417Y-186824D01*
X425157Y-186806D01*
D02*
G37*
G36*
X762814Y-186129D02*
X762795D01*
X762777D01*
X762666Y-186148D01*
X762499Y-186166D01*
X762295Y-186203D01*
X762055Y-186278D01*
X761814Y-186370D01*
X761555Y-186518D01*
X761333Y-186703D01*
X761314Y-186722D01*
X761240Y-186815D01*
X761147Y-186944D01*
X761055Y-187111D01*
X760944Y-187333D01*
X760851Y-187592D01*
X760777Y-187889D01*
X760759Y-188222D01*
Y-188259D01*
X760777Y-188370D01*
X760796Y-188537D01*
X760833Y-188759D01*
X760907Y-189000D01*
X760999Y-189240D01*
X761147Y-189499D01*
X761333Y-189722D01*
X761351Y-189740D01*
X761444Y-189814D01*
X761555Y-189907D01*
X761721Y-190018D01*
X761925Y-190129D01*
X762166Y-190222D01*
X762444Y-190296D01*
X762740Y-190314D01*
X762758D01*
X762777D01*
X762888D01*
X763055Y-190277D01*
X763258Y-190240D01*
X763481Y-190166D01*
X763721Y-190055D01*
X763962Y-189907D01*
X764203Y-189703D01*
X764221Y-189685D01*
X764295Y-189592D01*
X764388Y-189463D01*
X764499Y-189296D01*
X764610Y-189074D01*
X764703Y-188833D01*
X764777Y-188537D01*
X764795Y-188222D01*
Y-188074D01*
X764758Y-187907D01*
X764721Y-187685D01*
X764647Y-187444D01*
X764555Y-187185D01*
X764406Y-186944D01*
X764203Y-186703D01*
X764184Y-186685D01*
X764110Y-186611D01*
X763980Y-186518D01*
X763814Y-186426D01*
X763610Y-186315D01*
X763369Y-186222D01*
X763110Y-186148D01*
X762814Y-186129D01*
D02*
G37*
G36*
X756907Y-185611D02*
X756870D01*
X756796D01*
X756666Y-185630D01*
X756500Y-185648D01*
X756296Y-185685D01*
X756074Y-185741D01*
X755852Y-185815D01*
X755611Y-185907D01*
X755592Y-185926D01*
X755500Y-185963D01*
X755389Y-186037D01*
X755259Y-186148D01*
X755092Y-186278D01*
X754926Y-186444D01*
X754778Y-186629D01*
X754630Y-186852D01*
X754611Y-186889D01*
X754574Y-186963D01*
X754519Y-187092D01*
X754463Y-187259D01*
X754407Y-187463D01*
X754352Y-187703D01*
X754315Y-187963D01*
X754296Y-188222D01*
Y-188333D01*
X754315Y-188407D01*
X754333Y-188629D01*
X754389Y-188888D01*
X754481Y-189185D01*
X754593Y-189499D01*
X754778Y-189796D01*
X755018Y-190092D01*
X755055Y-190129D01*
X755148Y-190203D01*
X755315Y-190333D01*
X755518Y-190462D01*
X755778Y-190592D01*
X756092Y-190722D01*
X756463Y-190796D01*
X756852Y-190833D01*
X756870D01*
X756907D01*
X756963D01*
X757037Y-190814D01*
X757240Y-190796D01*
X757518Y-190740D01*
X757796Y-190648D01*
X758111Y-190518D01*
X758426Y-190333D01*
X758722Y-190074D01*
X758759Y-190037D01*
X758833Y-189944D01*
X758962Y-189777D01*
X759111Y-189555D01*
X759240Y-189277D01*
X759370Y-188944D01*
X759444Y-188574D01*
X759481Y-188166D01*
Y-188055D01*
X759462Y-187981D01*
X759444Y-187778D01*
X759388Y-187518D01*
X759296Y-187222D01*
X759166Y-186926D01*
X758981Y-186611D01*
X758740Y-186333D01*
X758703Y-186296D01*
X758611Y-186222D01*
X758444Y-186111D01*
X758240Y-185981D01*
X757962Y-185833D01*
X757648Y-185722D01*
X757296Y-185648D01*
X756907Y-185611D01*
D02*
G37*
G36*
X762814Y-212016D02*
X762795D01*
X762777D01*
X762666Y-212034D01*
X762499Y-212053D01*
X762295Y-212090D01*
X762055Y-212164D01*
X761814Y-212256D01*
X761555Y-212404D01*
X761333Y-212590D01*
X761314Y-212608D01*
X761240Y-212701D01*
X761147Y-212830D01*
X761055Y-212997D01*
X760944Y-213219D01*
X760851Y-213479D01*
X760777Y-213775D01*
X760759Y-214108D01*
Y-214145D01*
X760777Y-214256D01*
X760796Y-214423D01*
X760833Y-214645D01*
X760907Y-214886D01*
X760999Y-215126D01*
X761147Y-215386D01*
X761333Y-215608D01*
X761351Y-215626D01*
X761444Y-215700D01*
X761555Y-215793D01*
X761721Y-215904D01*
X761925Y-216015D01*
X762166Y-216108D01*
X762444Y-216182D01*
X762740Y-216200D01*
X762758D01*
X762777D01*
X762888D01*
X763055Y-216163D01*
X763258Y-216126D01*
X763481Y-216052D01*
X763721Y-215941D01*
X763962Y-215793D01*
X764203Y-215589D01*
X764221Y-215571D01*
X764295Y-215478D01*
X764388Y-215349D01*
X764499Y-215182D01*
X764610Y-214960D01*
X764703Y-214719D01*
X764777Y-214423D01*
X764795Y-214108D01*
Y-213960D01*
X764758Y-213793D01*
X764721Y-213571D01*
X764647Y-213330D01*
X764555Y-213071D01*
X764406Y-212830D01*
X764203Y-212590D01*
X764184Y-212571D01*
X764110Y-212497D01*
X763980Y-212404D01*
X763814Y-212312D01*
X763610Y-212201D01*
X763369Y-212108D01*
X763110Y-212034D01*
X762814Y-212016D01*
D02*
G37*
G36*
X756907Y-211497D02*
X756870D01*
X756796D01*
X756666Y-211516D01*
X756500Y-211534D01*
X756296Y-211571D01*
X756074Y-211627D01*
X755852Y-211701D01*
X755611Y-211793D01*
X755592Y-211812D01*
X755500Y-211849D01*
X755389Y-211923D01*
X755259Y-212034D01*
X755092Y-212164D01*
X754926Y-212330D01*
X754778Y-212516D01*
X754630Y-212738D01*
X754611Y-212775D01*
X754574Y-212849D01*
X754519Y-212978D01*
X754463Y-213145D01*
X754407Y-213349D01*
X754352Y-213590D01*
X754315Y-213849D01*
X754296Y-214108D01*
Y-214219D01*
X754315Y-214293D01*
X754333Y-214515D01*
X754389Y-214775D01*
X754481Y-215071D01*
X754593Y-215386D01*
X754778Y-215682D01*
X755018Y-215978D01*
X755055Y-216015D01*
X755148Y-216089D01*
X755315Y-216219D01*
X755518Y-216349D01*
X755778Y-216478D01*
X756092Y-216608D01*
X756463Y-216682D01*
X756852Y-216719D01*
X756870D01*
X756907D01*
X756963D01*
X757037Y-216700D01*
X757240Y-216682D01*
X757518Y-216626D01*
X757796Y-216534D01*
X758111Y-216404D01*
X758426Y-216219D01*
X758722Y-215960D01*
X758759Y-215923D01*
X758833Y-215830D01*
X758962Y-215663D01*
X759111Y-215441D01*
X759240Y-215163D01*
X759370Y-214830D01*
X759444Y-214460D01*
X759481Y-214053D01*
Y-213941D01*
X759462Y-213867D01*
X759444Y-213664D01*
X759388Y-213404D01*
X759296Y-213108D01*
X759166Y-212812D01*
X758981Y-212497D01*
X758740Y-212219D01*
X758703Y-212182D01*
X758611Y-212108D01*
X758444Y-211997D01*
X758240Y-211868D01*
X757962Y-211719D01*
X757648Y-211608D01*
X757296Y-211534D01*
X756907Y-211497D01*
D02*
G37*
%LPD*%
D10*
X452127Y-284281D02*
G03*
X461108Y-288001I8980J8980D01*
G01*
X338900Y-288000D02*
G03*
X347880Y-284281I0J12700D01*
G01*
X461480Y-211772D02*
G03*
X452500Y-215491I0J-12700D01*
G01*
X347880Y-215719D02*
G03*
X338900Y-212000I-8980J-8980D01*
G01*
X353020Y-220780D02*
G03*
X362000Y-224500I8980J8980D01*
G01*
D02*
G03*
X374700Y-211800I0J12700D01*
G01*
X387300Y-224600D02*
G03*
X400000Y-211900I0J12700D01*
G01*
X374600Y-211900D02*
G03*
X387300Y-224600I12700J0D01*
G01*
X400000Y-211900D02*
G03*
X412700Y-224600I12700J0D01*
G01*
X412800Y-224500D02*
G03*
X425500Y-211800I0J12700D01*
G01*
X438100Y-224600D02*
G03*
X447080Y-220880I0J12700D01*
G01*
X425400Y-211900D02*
G03*
X438100Y-224600I12700J0D01*
G01*
X361900Y-275400D02*
G03*
X349200Y-288100I0J-12700D01*
G01*
X374600D02*
G03*
X361900Y-275400I-12700J0D01*
G01*
X447080Y-279120D02*
G03*
X438100Y-275400I-8980J-8980D01*
G01*
D02*
G03*
X425400Y-288100I0J-12700D01*
G01*
X412700Y-275400D02*
G03*
X400000Y-288100I0J-12700D01*
G01*
X425400D02*
G03*
X412700Y-275400I-12700J0D01*
G01*
X400000Y-288100D02*
G03*
X387300Y-275400I-12700J0D01*
G01*
D02*
G03*
X374600Y-288100I0J-12700D01*
G01*
X350000Y-262700D02*
G03*
X350000Y-237300I0J12700D01*
G01*
X450000Y-365000D02*
G03*
X460000Y-375000I10000J0D01*
G01*
X490000D02*
G03*
X500000Y-365000I0J10000D01*
G01*
Y-300700D02*
G03*
X487300Y-288000I-12700J0D01*
G01*
X340000Y-375000D02*
G03*
X350000Y-365000I0J10000D01*
G01*
X300000D02*
G03*
X310000Y-375000I10000J0D01*
G01*
X312700Y-288000D02*
G03*
X300000Y-300700I0J-12700D01*
G01*
X400000Y-365000D02*
G03*
X410000Y-375000I10000J0D01*
G01*
X440000D02*
G03*
X450000Y-365000I0J10000D01*
G01*
X390000Y-375000D02*
G03*
X400000Y-365000I0J10000D01*
G01*
X350000D02*
G03*
X360000Y-375000I10000J0D01*
G01*
X450000Y-335000D02*
G03*
X440000Y-325000I-10000J0D01*
G01*
X410000D02*
G03*
X400000Y-335000I0J-10000D01*
G01*
X450000Y-312947D02*
G03*
X437850Y-300797I-12150J0D01*
G01*
X400000Y-288100D02*
G03*
X425400Y-288100I12700J-0D01*
G01*
X361900Y-300800D02*
G03*
X374600Y-288100I0J12700D01*
G01*
X425400Y-288100D02*
G03*
X438100Y-300800I12700J-0D01*
G01*
X361900D02*
G03*
X350000Y-312700I0J-11900D01*
G01*
X349200Y-288100D02*
G03*
X374600Y-288100I12700J-0D01*
G01*
X350000Y-335000D02*
G03*
X340000Y-325000I-10000J0D01*
G01*
X307850D02*
G03*
X300000Y-332850I0J-7850D01*
G01*
X492150Y-175000D02*
G03*
X500000Y-167150I0J7850D01*
G01*
X450000Y-165000D02*
G03*
X460000Y-175000I10000J0D01*
G01*
X447080Y-220880D02*
G03*
X425400Y-211900I-8980J8980D01*
G01*
X438100Y-199200D02*
G03*
X450000Y-187300I0J11900D01*
G01*
X374600Y-211900D02*
G03*
X361900Y-199200I-12700J0D01*
G01*
X438100D02*
G03*
X425400Y-211900I0J-12700D01*
G01*
X400000D02*
G03*
X374600Y-211900I-12700J0D01*
G01*
X350000Y-187053D02*
G03*
X362150Y-199203I12150J0D01*
G01*
X390000Y-175000D02*
G03*
X400000Y-165000I0J10000D01*
G01*
X350000D02*
G03*
X360000Y-175000I10000J0D01*
G01*
X450000Y-135000D02*
G03*
X440000Y-125000I-10000J0D01*
G01*
X410000D02*
G03*
X400000Y-135000I0J-10000D01*
G01*
X360000Y-125000D02*
G03*
X350000Y-135000I0J-10000D01*
G01*
X400000D02*
G03*
X390000Y-125000I-10000J0D01*
G01*
X487300Y-212000D02*
G03*
X500000Y-199300I0J12700D01*
G01*
Y-135000D02*
G03*
X490000Y-125000I-10000J0D01*
G01*
X460000D02*
G03*
X450000Y-135000I0J-10000D01*
G01*
X300000Y-199300D02*
G03*
X312700Y-212000I12700J0D01*
G01*
X310000Y-125000D02*
G03*
X300000Y-135000I0J-10000D01*
G01*
X350000D02*
G03*
X340000Y-125000I-10000J0D01*
G01*
X5000Y-490000D02*
G03*
X10000Y-495000I5000J0D01*
G01*
X10000Y-425000D02*
G03*
X5000Y-430000I0J-5000D01*
G01*
X75000D02*
G03*
X70000Y-425000I-5000J0D01*
G01*
X80000D02*
G03*
X75000Y-430000I0J-5000D01*
G01*
X125000D02*
G03*
X120000Y-425000I-5000J0D01*
G01*
X130000D02*
G03*
X125000Y-430000I0J-5000D01*
G01*
X175000D02*
G03*
X170000Y-425000I-5000J0D01*
G01*
X180000D02*
G03*
X175000Y-430000I0J-5000D01*
G01*
X225000D02*
G03*
X220000Y-425000I-5000J0D01*
G01*
X230000D02*
G03*
X225000Y-430000I0J-5000D01*
G01*
X275000D02*
G03*
X270000Y-425000I-5000J0D01*
G01*
X280000D02*
G03*
X275000Y-430000I0J-5000D01*
G01*
X325000D02*
G03*
X320000Y-425000I-5000J0D01*
G01*
X375000Y-430000D02*
G03*
X370000Y-425000I-5000J0D01*
G01*
X380000D02*
G03*
X375000Y-430000I0J-5000D01*
G01*
X425000D02*
G03*
X420000Y-425000I-5000J0D01*
G01*
X480000D02*
G03*
X475000Y-430000I0J-5000D01*
G01*
X525000D02*
G03*
X520000Y-425000I-5000J0D01*
G01*
X530000D02*
G03*
X525000Y-430000I0J-5000D01*
G01*
X575000D02*
G03*
X570000Y-425000I-5000J0D01*
G01*
X580000D02*
G03*
X575000Y-430000I0J-5000D01*
G01*
X625000D02*
G03*
X620000Y-425000I-5000J0D01*
G01*
X630000D02*
G03*
X625000Y-430000I0J-5000D01*
G01*
X675000D02*
G03*
X670000Y-425000I-5000J0D01*
G01*
X680000D02*
G03*
X675000Y-430000I0J-5000D01*
G01*
X725000D02*
G03*
X720000Y-425000I-5000J0D01*
G01*
X680000D02*
G03*
X675000Y-430000I0J-5000D01*
G01*
D02*
G03*
X670000Y-425000I-5000J0D01*
G01*
X630000D02*
G03*
X625000Y-430000I0J-5000D01*
G01*
D02*
G03*
X620000Y-425000I-5000J0D01*
G01*
X580000D02*
G03*
X575000Y-430000I0J-5000D01*
G01*
D02*
G03*
X570000Y-425000I-5000J0D01*
G01*
X325000Y-430000D02*
G03*
X320000Y-425000I-5000J0D01*
G01*
X280000D02*
G03*
X275000Y-430000I0J-5000D01*
G01*
D02*
G03*
X270000Y-425000I-5000J0D01*
G01*
X230000D02*
G03*
X225000Y-430000I0J-5000D01*
G01*
D02*
G03*
X220000Y-425000I-5000J0D01*
G01*
X795000Y-430000D02*
G03*
X790000Y-425000I-5000J0D01*
G01*
X792500Y-495000D02*
G03*
X795000Y-492500I0J2500D01*
G01*
X730000Y-425000D02*
G03*
X725000Y-430000I0J-5000D01*
G01*
X430000Y-425000D02*
G03*
X425000Y-430000I0J-5000D01*
G01*
X475000D02*
G03*
X470000Y-425000I-5000J0D01*
G01*
X475000Y-430000D02*
G03*
X470000Y-425000I-5000J0D01*
G01*
X430000D02*
G03*
X425000Y-430000I0J-5000D01*
G01*
X375000D02*
G03*
X370000Y-425000I-5000J0D01*
G01*
X375000Y-430000D02*
G03*
X370000Y-425000I-5000J0D01*
G01*
X330000D02*
G03*
X325000Y-430000I0J-5000D01*
G01*
X470000Y-75000D02*
G03*
X475000Y-70000I0J5000D01*
G01*
X425000D02*
G03*
X430000Y-75000I5000J0D01*
G01*
X425000Y-70000D02*
G03*
X430000Y-75000I5000J0D01*
G01*
X370000D02*
G03*
X375000Y-70000I0J5000D01*
G01*
X325000D02*
G03*
X330000Y-75000I5000J0D01*
G01*
X325000Y-70000D02*
G03*
X330000Y-75000I5000J0D01*
G01*
X370000D02*
G03*
X375000Y-70000I0J5000D01*
G01*
X70000Y-75000D02*
G03*
X75000Y-70000I0J5000D01*
G01*
X7500Y-5000D02*
G03*
X5000Y-7500I0J-2500D01*
G01*
X5000Y-70000D02*
G03*
X10000Y-75000I5000J0D01*
G01*
X575000Y-70000D02*
G03*
X580000Y-75000I5000J0D01*
G01*
X570000D02*
G03*
X575000Y-70000I0J5000D01*
G01*
X525000D02*
G03*
X530000Y-75000I5000J0D01*
G01*
X520000D02*
G03*
X525000Y-70000I0J5000D01*
G01*
X475000D02*
G03*
X480000Y-75000I5000J0D01*
G01*
X225000Y-70000D02*
G03*
X230000Y-75000I5000J0D01*
G01*
X220000D02*
G03*
X225000Y-70000I0J5000D01*
G01*
X175000D02*
G03*
X180000Y-75000I5000J0D01*
G01*
X170000D02*
G03*
X175000Y-70000I0J5000D01*
G01*
X125000D02*
G03*
X130000Y-75000I5000J0D01*
G01*
X120000D02*
G03*
X125000Y-70000I0J5000D01*
G01*
X75000D02*
G03*
X80000Y-75000I5000J0D01*
G01*
X120000D02*
G03*
X125000Y-70000I0J5000D01*
G01*
D02*
G03*
X130000Y-75000I5000J0D01*
G01*
X170000D02*
G03*
X175000Y-70000I0J5000D01*
G01*
D02*
G03*
X180000Y-75000I5000J0D01*
G01*
X220000D02*
G03*
X225000Y-70000I0J5000D01*
G01*
D02*
G03*
X230000Y-75000I5000J0D01*
G01*
X270000D02*
G03*
X275000Y-70000I0J5000D01*
G01*
D02*
G03*
X280000Y-75000I5000J0D01*
G01*
X320000D02*
G03*
X325000Y-70000I0J5000D01*
G01*
X375000D02*
G03*
X380000Y-75000I5000J0D01*
G01*
X420000D02*
G03*
X425000Y-70000I0J5000D01*
G01*
D02*
G03*
X430000Y-75000I5000J0D01*
G01*
X475000Y-70000D02*
G03*
X480000Y-75000I5000J0D01*
G01*
X520000D02*
G03*
X525000Y-70000I0J5000D01*
G01*
D02*
G03*
X530000Y-75000I5000J0D01*
G01*
X570000D02*
G03*
X575000Y-70000I0J5000D01*
G01*
D02*
G03*
X580000Y-75000I5000J0D01*
G01*
X620000D02*
G03*
X625000Y-70000I0J5000D01*
G01*
D02*
G03*
X630000Y-75000I5000J0D01*
G01*
X670000D02*
G03*
X675000Y-70000I0J5000D01*
G01*
D02*
G03*
X680000Y-75000I5000J0D01*
G01*
X720000D02*
G03*
X725000Y-70000I0J5000D01*
G01*
D02*
G03*
X730000Y-75000I5000J0D01*
G01*
X790000D02*
G03*
X795000Y-70000I0J5000D01*
G01*
Y-10000D02*
G03*
X790000Y-5000I-5000J0D01*
G01*
X447080Y-279120D02*
X451960Y-284000D01*
X349600Y-217360D02*
X350089Y-217849D01*
Y-237389D02*
Y-217849D01*
Y-237389D02*
X351500D01*
X312700Y-288000D02*
X344000D01*
X349500Y-282500D01*
Y-262700D01*
X447080Y-220880D02*
X451960Y-216000D01*
X347594Y-215355D02*
X353020Y-220780D01*
X347500Y-215355D02*
X347594D01*
X347880Y-215719D02*
X347959D01*
X312700Y-212000D02*
X338900D01*
X450000Y-365000D02*
Y-355000D01*
X460000Y-375000D02*
X490000D01*
X500000Y-365000D02*
Y-300700D01*
X461108Y-288000D02*
X487300D01*
X450000Y-355000D02*
Y-316700D01*
X350000Y-365000D02*
Y-316050D01*
X310000Y-375000D02*
X340000D01*
X300000Y-365000D02*
Y-300700D01*
X410000Y-375000D02*
X440000D01*
X360000D02*
X390000D01*
X410000Y-325000D02*
X440000D01*
X450000Y-316700D02*
Y-312947D01*
X437700Y-302250D02*
X437850D01*
X400000Y-365000D02*
Y-288100D01*
X350000Y-316050D02*
Y-312700D01*
Y-340525D02*
Y-335000D01*
X307850Y-325000D02*
X340000D01*
X460000Y-175000D02*
X492150D01*
X450000Y-165000D02*
Y-159475D01*
X455000Y-212000D02*
X487300D01*
X450000Y-187300D02*
Y-183950D01*
X400000Y-211900D02*
Y-135000D01*
X362150Y-197750D02*
X362300D01*
X350000Y-187053D02*
Y-183300D01*
X360000Y-175000D02*
X390000D01*
X410000Y-125000D02*
X440000D01*
X360000D02*
X390000D01*
X500000Y-199300D02*
Y-135000D01*
X460000Y-125000D02*
X490000D01*
X450000Y-183950D02*
Y-135000D01*
X350000Y-183300D02*
Y-145000D01*
X300000Y-199300D02*
Y-135000D01*
X310000Y-125000D02*
X340000D01*
X350000Y-145000D02*
Y-135000D01*
X372000Y-200000D02*
X376500Y-200000D01*
X5000Y-475000D02*
X25000D01*
X10000Y-495000D02*
X25000D01*
X5000Y-490000D02*
Y-430000D01*
X10000Y-425000D02*
X70000D01*
X80000D02*
X120000D01*
X130000D02*
X170000D01*
X180000D02*
X220000D01*
X380000D02*
X420000D01*
X480000D02*
X520000D01*
X530000D02*
X570000D01*
X680000D02*
X720000D01*
X25000Y-495000D02*
X125000D01*
X75000D02*
Y-430000D01*
X125000Y-495000D02*
Y-485000D01*
Y-430000D01*
X25000Y-475000D02*
X125000D01*
X175000Y-495000D02*
Y-430000D01*
Y-495000D02*
X275000D01*
X225000D02*
Y-430000D01*
X275000Y-495000D02*
Y-485000D01*
X175000Y-495000D02*
Y-485000D01*
X275000D02*
Y-430000D01*
X175000Y-475000D02*
X275000D01*
X325000Y-495000D02*
Y-430000D01*
Y-495000D02*
Y-485000D01*
X375000D02*
Y-430000D01*
X475000Y-485000D02*
Y-430000D01*
X525000Y-475000D02*
X625000D01*
Y-485000D02*
Y-430000D01*
X125000Y-495000D02*
Y-485000D01*
X175000Y-495000D02*
Y-485000D01*
X275000Y-495000D02*
Y-485000D01*
X325000Y-495000D02*
Y-485000D01*
X375000Y-495000D02*
Y-485000D01*
Y-495000D02*
Y-485000D01*
X475000Y-495000D02*
Y-485000D01*
Y-495000D02*
Y-485000D01*
X525000Y-495000D02*
Y-485000D01*
X625000Y-495000D02*
Y-485000D01*
X675000Y-495000D02*
Y-485000D01*
X725000Y-495000D02*
Y-485000D01*
Y-495000D02*
Y-430000D01*
X575000Y-495000D02*
Y-430000D01*
X525000Y-495000D02*
X625000D01*
X525000D02*
Y-430000D01*
X675000Y-495000D02*
Y-430000D01*
Y-495000D02*
Y-430000D01*
X660500Y-425000D02*
X670000Y-425000D01*
X630000D02*
X639500Y-425000D01*
X580000Y-425000D02*
X590000Y-425000D01*
X610500D02*
X620000Y-425000D01*
X550000Y-425000D02*
X561500D01*
X200000D02*
X211500D01*
X230000Y-425000D02*
X240000Y-425000D01*
X260500D02*
X270000Y-425000D01*
X280000D02*
X289500Y-425000D01*
X310500Y-425000D02*
X320000Y-425000D01*
X580000D02*
X595000Y-425000D01*
Y-425000D02*
X620000Y-425000D01*
X630000D02*
X644750Y-425000D01*
Y-425000D02*
X670000Y-425000D01*
X230000D02*
X245000Y-425000D01*
Y-425000D02*
X270000Y-425000D01*
X280000D02*
X294750Y-425000D01*
Y-425000D02*
X320000Y-425000D01*
X795000Y-492500D02*
Y-430000D01*
X730000Y-425000D02*
X790000D01*
X725000Y-495000D02*
X792500D01*
X725000D02*
Y-430000D01*
X445000Y-425000D02*
X470000Y-425000D01*
X430000D02*
X445000Y-425000D01*
X460500D02*
X470000Y-425000D01*
X430000D02*
X440000Y-425000D01*
X425000Y-495000D02*
Y-430000D01*
X475000Y-495000D02*
Y-485000D01*
Y-430000D01*
X350000Y-425000D02*
X361500D01*
X325000Y-495000D02*
Y-430000D01*
X375000Y-495000D02*
Y-430000D01*
X325000Y-495000D02*
Y-485000D01*
X330000Y-425000D02*
X370000D01*
X425003Y-494613D02*
X475000Y-495000D01*
X675000D02*
X725000D01*
X325000D02*
X375000D01*
X425000D02*
X475000D01*
X325000Y-5000D02*
X375000D01*
X425000D02*
X475000D01*
X75000D02*
X125000D01*
X325000D02*
X374997Y-5387D01*
X430000Y-75000D02*
X470000D01*
X475000Y-15000D02*
Y-5000D01*
X425000Y-70000D02*
Y-5000D01*
X475000Y-70000D02*
Y-5000D01*
X438500Y-75000D02*
X450000D01*
X325000Y-70000D02*
Y-15000D01*
Y-5000D01*
X375000Y-70000D02*
Y-5000D01*
X360000Y-75000D02*
X370000Y-75000D01*
X330000D02*
X339500Y-75000D01*
X355000D02*
X370000Y-75000D01*
X330000D02*
X355000Y-75000D01*
X75000Y-70000D02*
Y-5000D01*
X7500D02*
X75000D01*
X10000Y-75000D02*
X70000D01*
X5000Y-70000D02*
Y-7500D01*
X480000Y-75000D02*
X505250Y-75000D01*
Y-75000D02*
X520000Y-75000D01*
X530000D02*
X555000Y-75000D01*
Y-75000D02*
X570000Y-75000D01*
X130000D02*
X155250Y-75000D01*
Y-75000D02*
X170000Y-75000D01*
X180000D02*
X205000Y-75000D01*
Y-75000D02*
X220000Y-75000D01*
X480000D02*
X489500Y-75000D01*
X510500Y-75000D02*
X520000Y-75000D01*
X530000D02*
X539500Y-75000D01*
X560000D02*
X570000Y-75000D01*
X588500Y-75000D02*
X600000D01*
X238500D02*
X250000D01*
X180000Y-75000D02*
X189500Y-75000D01*
X210000D02*
X220000Y-75000D01*
X160500Y-75000D02*
X170000Y-75000D01*
X130000D02*
X139500Y-75000D01*
X125000Y-70000D02*
Y-5000D01*
Y-70000D02*
Y-5000D01*
X275000Y-70000D02*
Y-5000D01*
X175000D02*
X275000D01*
X225000Y-70000D02*
Y-5000D01*
X75000Y-70000D02*
Y-5000D01*
Y-15000D02*
Y-5000D01*
X125000Y-15000D02*
Y-5000D01*
X175000Y-15000D02*
Y-5000D01*
X275000Y-15000D02*
Y-5000D01*
X325000Y-15000D02*
Y-5000D01*
Y-15000D02*
Y-5000D01*
X425000Y-15000D02*
Y-5000D01*
Y-15000D02*
Y-5000D01*
X475000Y-15000D02*
Y-5000D01*
X525000Y-15000D02*
Y-5000D01*
X625000Y-15000D02*
Y-5000D01*
X675000Y-15000D02*
Y-5000D01*
X175000Y-70000D02*
Y-15000D01*
Y-25000D02*
X275000D01*
X325000Y-70000D02*
Y-15000D01*
X425000Y-70000D02*
Y-15000D01*
X475000D02*
Y-5000D01*
Y-70000D02*
Y-5000D01*
X525000Y-25000D02*
X625000D01*
X525000Y-70000D02*
Y-15000D01*
X625000D02*
Y-5000D01*
X525000Y-15000D02*
Y-5000D01*
X575000Y-70000D02*
Y-5000D01*
X525000D02*
X625000D01*
Y-70000D02*
Y-5000D01*
X675000Y-25000D02*
X775000D01*
X675000Y-70000D02*
Y-15000D01*
Y-5000D01*
X725000Y-70000D02*
Y-5000D01*
X675000D02*
X775000D01*
X80000Y-75000D02*
X120000D01*
X230000D02*
X270000D01*
X280000D02*
X320000D01*
X380000D02*
X420000D01*
X580000D02*
X620000D01*
X630000D02*
X670000D01*
X680000D02*
X720000D01*
X730000D02*
X790000D01*
X795000Y-70000D02*
Y-10000D01*
X775000Y-5000D02*
X790000D01*
X775000Y-25000D02*
X795000D01*
D11*
X791000Y-269000D02*
G03*
X791000Y-269000I-5000J0D01*
G01*
Y-205000D02*
G03*
X791000Y-205000I-5000J0D01*
G01*
X790000Y-269000D02*
G03*
X790000Y-269000I-4000J0D01*
G01*
Y-205000D02*
G03*
X790000Y-205000I-4000J0D01*
G01*
X781000Y-307000D02*
G03*
X784000Y-310000I3000J0D01*
G01*
X788000Y-310000D02*
G03*
X791000Y-307000I0J3000D01*
G01*
X788000Y-286000D02*
G03*
X791000Y-283000I0J3000D01*
G01*
Y-281000D02*
G03*
X788000Y-278000I-3000J0D01*
G01*
X788000Y-223000D02*
G03*
X791000Y-220000I0J3000D01*
G01*
X781000Y-220000D02*
G03*
X784000Y-223000I3000J0D01*
G01*
X781000Y-193000D02*
G03*
X784000Y-196000I3000J0D01*
G01*
D02*
G03*
X787000Y-193000I0J3000D01*
G01*
X789000Y-196000D02*
G03*
X791000Y-194000I0J2000D01*
G01*
X787000Y-194000D02*
G03*
X789000Y-196000I2000J0D01*
G01*
X783000Y-259000D02*
G03*
X785000Y-257000I0J2000D01*
G01*
X781000Y-257000D02*
G03*
X783000Y-259000I2000J0D01*
G01*
X785000Y-256000D02*
G03*
X788000Y-259000I3000J0D01*
G01*
D02*
G03*
X791000Y-256000I0J3000D01*
G01*
X788000Y-298000D02*
G03*
X791000Y-295000I0J3000D01*
G01*
X785000D02*
G03*
X788000Y-298000I3000J0D01*
G01*
X786000Y-290000D02*
G03*
X785000Y-291000I0J-1000D01*
G01*
X782000Y-298000D02*
G03*
X785000Y-295000I0J3000D01*
G01*
X781000Y-232000D02*
G03*
X784000Y-235000I3000J0D01*
G01*
Y-227000D02*
G03*
X781000Y-230000I0J-3000D01*
G01*
X791000Y-230000D02*
G03*
X788000Y-227000I-3000J0D01*
G01*
X789000Y-235000D02*
G03*
X791000Y-233000I0J2000D01*
G01*
Y-242000D02*
G03*
X788000Y-239000I-3000J0D01*
G01*
X784000D02*
G03*
X781000Y-242000I0J-3000D01*
G01*
X786000Y-274000D02*
X791000D01*
Y-268984D01*
X781000Y-205000D02*
Y-200000D01*
X786000D01*
X795000Y-314000D02*
Y-278000D01*
X789000Y-272000D02*
X795000Y-278000D01*
X789000Y-272000D02*
X789000D01*
X777000Y-196000D02*
X783000Y-202000D01*
X777000Y-196000D02*
Y-184000D01*
X781000Y-302000D02*
X791000D01*
X781000Y-307000D02*
Y-302000D01*
X784000Y-310000D02*
X788012D01*
X788000Y-310000D02*
X788012D01*
X791000Y-307000D02*
Y-302000D01*
Y-247000D02*
Y-242000D01*
Y-283000D02*
Y-281000D01*
X781000Y-286000D02*
X788000D01*
X785000D02*
Y-278000D01*
X781000Y-290000D02*
X791000D01*
X781000Y-278000D02*
X788000D01*
X791000Y-220000D02*
Y-215000D01*
X788000Y-223000D02*
X788012D01*
X784000Y-223000D02*
X788012D01*
X781000Y-220000D02*
Y-215000D01*
X791000D01*
Y-194000D02*
Y-188000D01*
X781000D02*
X791000D01*
X781000Y-193000D02*
Y-188000D01*
X787000Y-193000D02*
Y-188000D01*
X785000Y-244000D02*
Y-239000D01*
X781000Y-257000D02*
Y-251000D01*
X785000Y-256000D02*
Y-251000D01*
X791000Y-256000D02*
Y-251000D01*
X781000D02*
X791000D01*
X785000Y-295000D02*
Y-291000D01*
X791000Y-295000D02*
Y-290000D01*
X781000Y-298000D02*
X782000D01*
X784000Y-227000D02*
X788000D01*
X781000Y-232000D02*
Y-230000D01*
X785000Y-235000D02*
Y-233000D01*
X784000Y-235000D02*
X785000D01*
X791000Y-233000D02*
Y-230000D01*
X784000Y-239000D02*
X788000D01*
X781000Y-247000D02*
Y-242000D01*
D12*
X788012Y-310000D02*
D03*
Y-223000D02*
D03*
D13*
X550000Y-425000D02*
D03*
X350000D02*
D03*
X450000Y-75000D02*
D03*
X250000D02*
D03*
D14*
X358262Y-230987D02*
D03*
M02*
