G04*
G04 #@! TF.GenerationSoftware,Altium Limited,Altium Designer,24.6.1 (21)*
G04*
G04 Layer_Color=32896*
%FSLAX44Y44*%
%MOMM*%
G71*
G04*
G04 #@! TF.SameCoordinates,58C917F4-F435-4438-9918-92646441EF77*
G04*
G04*
G04 #@! TF.FilePolarity,Positive*
G04*
G01*
G75*
%ADD10C,0.2500*%
%ADD11C,0.2000*%
%ADD12C,0.2000*%
%ADD14R,0.7475X0.5975*%
%ADD26R,0.4750X0.2500*%
%ADD27R,0.3000X0.2500*%
%ADD28R,0.6250X0.2500*%
%ADD29R,0.4000X1.5750*%
%ADD30R,0.3750X0.5500*%
G36*
X625000Y-25000D02*
X575000D01*
Y-5000D01*
X625000D01*
Y-25000D01*
D02*
G37*
G36*
X350000Y-187300D02*
X350057Y-188466D01*
X350513Y-190755D01*
X351405Y-192910D01*
X352701Y-194849D01*
X354351Y-196499D01*
X356290Y-197795D01*
X358446Y-198688D01*
X360734Y-199143D01*
X361900Y-199200D01*
Y-199200D01*
X360655Y-199261D01*
X358214Y-199747D01*
X355913Y-200700D01*
X353843Y-202083D01*
X352083Y-203843D01*
X350700Y-205913D01*
X349747Y-208214D01*
X349504Y-209434D01*
Y-217360D01*
X349400D01*
X340488Y-212000D01*
X311449D01*
X308996Y-211512D01*
X306684Y-210555D01*
X304604Y-209165D01*
X302835Y-207396D01*
X301446Y-205316D01*
X300488Y-203004D01*
X300000Y-200551D01*
Y-199300D01*
X300000Y-167150D01*
X300038Y-167920D01*
X300338Y-169429D01*
X300927Y-170851D01*
X301782Y-172130D01*
X302870Y-173218D01*
X304150Y-174073D01*
X305571Y-174662D01*
X307081Y-174962D01*
X307850Y-175000D01*
X307850Y-175000D01*
X317000D01*
Y-175556D01*
X333000D01*
Y-175000D01*
X340000D01*
X340980Y-174952D01*
X342903Y-174569D01*
X344714Y-173819D01*
X346344Y-172730D01*
X347730Y-171344D01*
X348819Y-169714D01*
X349570Y-167903D01*
X349952Y-165980D01*
X350000Y-165000D01*
Y-165000D01*
X350000Y-187300D01*
D02*
G37*
G36*
X404000Y-173000D02*
X410000Y-175000D01*
X414000D01*
X413964Y-175677D01*
X435750D01*
X435741Y-175000D01*
X443665D01*
X450000Y-169000D01*
Y-175000D01*
X450500D01*
Y-186800D01*
X448500Y-193500D01*
X443500Y-198500D01*
X436079Y-199802D01*
X436059Y-198337D01*
X432000Y-200000D01*
X427000Y-204000D01*
X425400Y-211900D01*
X424000Y-206000D01*
X419989Y-201500D01*
X412700Y-199200D01*
X408000Y-200000D01*
X403000Y-204000D01*
X400000Y-209000D01*
Y-168000D01*
X404000Y-173000D01*
D02*
G37*
G36*
X376000Y-294000D02*
X380011Y-298500D01*
X387300Y-300800D01*
X392000Y-300000D01*
X397000Y-296000D01*
X400000Y-291000D01*
Y-332000D01*
X396000Y-327000D01*
X390000Y-325000D01*
X386000D01*
X386023Y-324564D01*
X364253D01*
X364259Y-325000D01*
X356335D01*
X350000Y-331000D01*
Y-325000D01*
X349500D01*
Y-313200D01*
X351500Y-306500D01*
X356500Y-301500D01*
X363921Y-300198D01*
X363938Y-301436D01*
X364496D01*
X368000Y-300000D01*
X373000Y-296000D01*
X374600Y-288100D01*
X376000Y-294000D01*
D02*
G37*
G36*
X454706Y-288000D02*
X488551D01*
X491004Y-288488D01*
X493316Y-289445D01*
X495396Y-290835D01*
X497165Y-292604D01*
X498555Y-294684D01*
X499512Y-296996D01*
X500000Y-299449D01*
Y-300700D01*
X500000Y-332850D01*
X499962Y-332081D01*
X499662Y-330571D01*
X499073Y-329150D01*
X498218Y-327870D01*
X497130Y-326782D01*
X495850Y-325927D01*
X494429Y-325338D01*
X492919Y-325038D01*
X492150Y-325000D01*
Y-325000D01*
X483000D01*
Y-324444D01*
X467000D01*
Y-325000D01*
X460000Y-325000D01*
X459020Y-325048D01*
X457097Y-325431D01*
X455286Y-326181D01*
X453656Y-327270D01*
X452270Y-328656D01*
X451181Y-330286D01*
X450431Y-332097D01*
X450048Y-334020D01*
X450000Y-335000D01*
X450000D01*
X450000Y-312700D01*
X449943Y-311534D01*
X449488Y-309246D01*
X448595Y-307090D01*
X447299Y-305151D01*
X445649Y-303501D01*
X443710Y-302205D01*
X441554Y-301312D01*
X439266Y-300857D01*
X438100Y-300800D01*
Y-300800D01*
X439345Y-300739D01*
X441787Y-300253D01*
X444087Y-299300D01*
X446157Y-297917D01*
X447917Y-296157D01*
X449300Y-294087D01*
X450253Y-291787D01*
X450739Y-289345D01*
X450500Y-282500D01*
X454706Y-288000D01*
D02*
G37*
G36*
X600056Y-480042D02*
X600416Y-480084D01*
X600735Y-480153D01*
X601054Y-480236D01*
X601331Y-480333D01*
X601609Y-480444D01*
X601844Y-480569D01*
X602066Y-480694D01*
X602274Y-480819D01*
X602441Y-480943D01*
X602593Y-481054D01*
X602718Y-481152D01*
X602815Y-481235D01*
X602885Y-481304D01*
X602926Y-481346D01*
X602940Y-481359D01*
X603162Y-481623D01*
X603342Y-481900D01*
X603509Y-482192D01*
X603647Y-482497D01*
X603772Y-482816D01*
X603869Y-483121D01*
X603952Y-483426D01*
X604022Y-483717D01*
X604077Y-484008D01*
X604105Y-484258D01*
X604133Y-484494D01*
X604160Y-484688D01*
Y-484854D01*
X604174Y-484979D01*
Y-485062D01*
Y-485076D01*
Y-485090D01*
X604160Y-485506D01*
X604119Y-485895D01*
X604063Y-486269D01*
X603980Y-486602D01*
X603897Y-486921D01*
X603786Y-487226D01*
X603675Y-487489D01*
X603564Y-487725D01*
X603453Y-487947D01*
X603342Y-488141D01*
X603231Y-488294D01*
X603148Y-488432D01*
X603065Y-488530D01*
X603009Y-488613D01*
X602968Y-488654D01*
X602954Y-488668D01*
X602718Y-488904D01*
X602469Y-489098D01*
X602205Y-489278D01*
X601942Y-489417D01*
X601678Y-489542D01*
X601415Y-489653D01*
X601165Y-489736D01*
X600929Y-489805D01*
X600693Y-489861D01*
X600485Y-489902D01*
X600291Y-489930D01*
X600139Y-489944D01*
X600000Y-489958D01*
X599903Y-489972D01*
X599820D01*
X599529Y-489958D01*
X599265Y-489944D01*
X599002Y-489902D01*
X598766Y-489847D01*
X598544Y-489791D01*
X598336Y-489736D01*
X598142Y-489667D01*
X597961Y-489584D01*
X597809Y-489514D01*
X597670Y-489445D01*
X597545Y-489389D01*
X597448Y-489334D01*
X597365Y-489278D01*
X597309Y-489237D01*
X597282Y-489223D01*
X597268Y-489209D01*
X597088Y-489057D01*
X596921Y-488890D01*
X596616Y-488516D01*
X596367Y-488127D01*
X596172Y-487753D01*
X596089Y-487573D01*
X596020Y-487406D01*
X595964Y-487254D01*
X595909Y-487129D01*
X595867Y-487018D01*
X595840Y-486935D01*
X595826Y-486879D01*
Y-486865D01*
X597712Y-486283D01*
X597823Y-486657D01*
X597948Y-486976D01*
X598072Y-487240D01*
X598211Y-487462D01*
X598322Y-487628D01*
X598419Y-487739D01*
X598488Y-487808D01*
X598516Y-487836D01*
X598738Y-488003D01*
X598960Y-488113D01*
X599182Y-488197D01*
X599376Y-488266D01*
X599556Y-488294D01*
X599709Y-488308D01*
X599764Y-488321D01*
X599834D01*
X600028Y-488308D01*
X600208Y-488294D01*
X600541Y-488197D01*
X600832Y-488086D01*
X601068Y-487933D01*
X601262Y-487794D01*
X601401Y-487683D01*
X601456Y-487628D01*
X601498Y-487586D01*
X601512Y-487573D01*
X601525Y-487559D01*
X601637Y-487406D01*
X601734Y-487226D01*
X601831Y-487032D01*
X601900Y-486824D01*
X602011Y-486394D01*
X602094Y-485964D01*
X602122Y-485756D01*
X602136Y-485575D01*
X602164Y-485395D01*
Y-485243D01*
X602177Y-485132D01*
Y-485035D01*
Y-484965D01*
Y-484951D01*
X602164Y-484632D01*
X602150Y-484341D01*
X602122Y-484078D01*
X602080Y-483828D01*
X602025Y-483606D01*
X601969Y-483398D01*
X601914Y-483218D01*
X601844Y-483051D01*
X601789Y-482913D01*
X601734Y-482788D01*
X601678Y-482691D01*
X601623Y-482608D01*
X601581Y-482538D01*
X601553Y-482497D01*
X601525Y-482469D01*
Y-482455D01*
X601401Y-482316D01*
X601262Y-482192D01*
X601123Y-482094D01*
X600971Y-482011D01*
X600680Y-481873D01*
X600402Y-481776D01*
X600166Y-481720D01*
X600056Y-481706D01*
X599972Y-481692D01*
X599889Y-481679D01*
X599792D01*
X599515Y-481692D01*
X599265Y-481748D01*
X599043Y-481817D01*
X598849Y-481900D01*
X598696Y-481984D01*
X598585Y-482053D01*
X598516Y-482108D01*
X598488Y-482122D01*
X598308Y-482289D01*
X598142Y-482483D01*
X598017Y-482677D01*
X597920Y-482871D01*
X597850Y-483038D01*
X597809Y-483162D01*
X597781Y-483218D01*
Y-483260D01*
X597767Y-483273D01*
Y-483287D01*
X595853Y-482830D01*
X595992Y-482427D01*
X596145Y-482081D01*
X596311Y-481776D01*
X596464Y-481526D01*
X596616Y-481332D01*
X596672Y-481249D01*
X596727Y-481179D01*
X596769Y-481138D01*
X596810Y-481096D01*
X596824Y-481068D01*
X596838D01*
X597046Y-480888D01*
X597282Y-480722D01*
X597504Y-480583D01*
X597739Y-480472D01*
X597989Y-480361D01*
X598225Y-480278D01*
X598461Y-480208D01*
X598683Y-480153D01*
X598890Y-480111D01*
X599085Y-480084D01*
X599251Y-480056D01*
X599404Y-480042D01*
X599529Y-480028D01*
X599695D01*
X600056Y-480042D01*
D02*
G37*
G36*
X250055D02*
X250416Y-480084D01*
X250735Y-480153D01*
X251054Y-480236D01*
X251331Y-480333D01*
X251609Y-480444D01*
X251845Y-480569D01*
X252066Y-480694D01*
X252274Y-480819D01*
X252441Y-480943D01*
X252593Y-481054D01*
X252718Y-481152D01*
X252815Y-481235D01*
X252885Y-481304D01*
X252926Y-481346D01*
X252940Y-481359D01*
X253162Y-481623D01*
X253342Y-481900D01*
X253509Y-482192D01*
X253647Y-482497D01*
X253772Y-482816D01*
X253869Y-483121D01*
X253953Y-483426D01*
X254022Y-483717D01*
X254077Y-484008D01*
X254105Y-484258D01*
X254133Y-484494D01*
X254160Y-484688D01*
Y-484854D01*
X254174Y-484979D01*
Y-485062D01*
Y-485076D01*
Y-485090D01*
X254160Y-485506D01*
X254119Y-485895D01*
X254063Y-486269D01*
X253980Y-486602D01*
X253897Y-486921D01*
X253786Y-487226D01*
X253675Y-487489D01*
X253564Y-487725D01*
X253453Y-487947D01*
X253342Y-488141D01*
X253231Y-488294D01*
X253148Y-488432D01*
X253065Y-488530D01*
X253009Y-488613D01*
X252968Y-488654D01*
X252954Y-488668D01*
X252718Y-488904D01*
X252468Y-489098D01*
X252205Y-489278D01*
X251942Y-489417D01*
X251678Y-489542D01*
X251415Y-489653D01*
X251165Y-489736D01*
X250929Y-489805D01*
X250693Y-489861D01*
X250485Y-489902D01*
X250291Y-489930D01*
X250139Y-489944D01*
X250000Y-489958D01*
X249903Y-489972D01*
X249820D01*
X249528Y-489958D01*
X249265Y-489944D01*
X249001Y-489902D01*
X248766Y-489847D01*
X248544Y-489791D01*
X248336Y-489736D01*
X248142Y-489667D01*
X247961Y-489584D01*
X247809Y-489514D01*
X247670Y-489445D01*
X247545Y-489389D01*
X247448Y-489334D01*
X247365Y-489278D01*
X247309Y-489237D01*
X247282Y-489223D01*
X247268Y-489209D01*
X247088Y-489057D01*
X246921Y-488890D01*
X246616Y-488516D01*
X246366Y-488127D01*
X246172Y-487753D01*
X246089Y-487573D01*
X246020Y-487406D01*
X245964Y-487254D01*
X245909Y-487129D01*
X245867Y-487018D01*
X245839Y-486935D01*
X245826Y-486879D01*
Y-486865D01*
X247712Y-486283D01*
X247823Y-486657D01*
X247947Y-486976D01*
X248072Y-487240D01*
X248211Y-487462D01*
X248322Y-487628D01*
X248419Y-487739D01*
X248488Y-487808D01*
X248516Y-487836D01*
X248738Y-488003D01*
X248960Y-488113D01*
X249182Y-488197D01*
X249376Y-488266D01*
X249556Y-488294D01*
X249709Y-488308D01*
X249764Y-488321D01*
X249834D01*
X250028Y-488308D01*
X250208Y-488294D01*
X250541Y-488197D01*
X250832Y-488086D01*
X251068Y-487933D01*
X251262Y-487794D01*
X251401Y-487683D01*
X251456Y-487628D01*
X251498Y-487586D01*
X251512Y-487573D01*
X251525Y-487559D01*
X251636Y-487406D01*
X251733Y-487226D01*
X251831Y-487032D01*
X251900Y-486824D01*
X252011Y-486394D01*
X252094Y-485964D01*
X252122Y-485756D01*
X252136Y-485575D01*
X252163Y-485395D01*
Y-485243D01*
X252177Y-485132D01*
Y-485035D01*
Y-484965D01*
Y-484951D01*
X252163Y-484632D01*
X252150Y-484341D01*
X252122Y-484078D01*
X252080Y-483828D01*
X252025Y-483606D01*
X251969Y-483398D01*
X251914Y-483218D01*
X251845Y-483051D01*
X251789Y-482913D01*
X251733Y-482788D01*
X251678Y-482691D01*
X251623Y-482608D01*
X251581Y-482538D01*
X251553Y-482497D01*
X251525Y-482469D01*
Y-482455D01*
X251401Y-482316D01*
X251262Y-482192D01*
X251123Y-482094D01*
X250971Y-482011D01*
X250679Y-481873D01*
X250402Y-481776D01*
X250166Y-481720D01*
X250055Y-481706D01*
X249972Y-481692D01*
X249889Y-481679D01*
X249792D01*
X249515Y-481692D01*
X249265Y-481748D01*
X249043Y-481817D01*
X248849Y-481900D01*
X248696Y-481984D01*
X248585Y-482053D01*
X248516Y-482108D01*
X248488Y-482122D01*
X248308Y-482289D01*
X248142Y-482483D01*
X248017Y-482677D01*
X247920Y-482871D01*
X247850Y-483038D01*
X247809Y-483162D01*
X247781Y-483218D01*
Y-483260D01*
X247767Y-483273D01*
Y-483287D01*
X245853Y-482830D01*
X245992Y-482427D01*
X246145Y-482081D01*
X246311Y-481776D01*
X246464Y-481526D01*
X246616Y-481332D01*
X246672Y-481249D01*
X246727Y-481179D01*
X246769Y-481138D01*
X246810Y-481096D01*
X246824Y-481068D01*
X246838D01*
X247046Y-480888D01*
X247282Y-480722D01*
X247504Y-480583D01*
X247739Y-480472D01*
X247989Y-480361D01*
X248225Y-480278D01*
X248461Y-480208D01*
X248682Y-480153D01*
X248890Y-480111D01*
X249085Y-480084D01*
X249251Y-480056D01*
X249404Y-480042D01*
X249528Y-480028D01*
X249695D01*
X250055Y-480042D01*
D02*
G37*
G36*
X75000Y-475000D02*
Y-495000D01*
X9000D01*
Y-475000D01*
X75000D01*
D02*
G37*
G36*
X425083Y-306575D02*
X425380Y-306593D01*
X425954Y-306686D01*
X426435Y-306834D01*
X426657Y-306908D01*
X426861Y-307001D01*
X427046Y-307075D01*
X427194Y-307167D01*
X427342Y-307241D01*
X427453Y-307297D01*
X427546Y-307371D01*
X427602Y-307408D01*
X427639Y-307426D01*
X427657Y-307445D01*
X427861Y-307630D01*
X428046Y-307815D01*
X428213Y-308038D01*
X428361Y-308278D01*
X428583Y-308760D01*
X428768Y-309223D01*
X428824Y-309463D01*
X428879Y-309667D01*
X428935Y-309852D01*
X428953Y-310019D01*
X428990Y-310167D01*
Y-310260D01*
X429009Y-310334D01*
Y-310352D01*
X426565Y-310593D01*
X426528Y-310222D01*
X426454Y-309908D01*
X426380Y-309630D01*
X426287Y-309426D01*
X426213Y-309260D01*
X426139Y-309149D01*
X426083Y-309074D01*
X426065Y-309056D01*
X425880Y-308908D01*
X425676Y-308797D01*
X425472Y-308704D01*
X425269Y-308649D01*
X425102Y-308612D01*
X424954Y-308593D01*
X424824D01*
X424546Y-308612D01*
X424306Y-308667D01*
X424102Y-308741D01*
X423917Y-308815D01*
X423787Y-308889D01*
X423676Y-308963D01*
X423620Y-309019D01*
X423602Y-309037D01*
X423454Y-309223D01*
X423343Y-309426D01*
X423269Y-309630D01*
X423213Y-309834D01*
X423176Y-310019D01*
X423158Y-310186D01*
Y-310278D01*
Y-310297D01*
Y-310315D01*
X423176Y-310593D01*
X423232Y-310852D01*
X423324Y-311111D01*
X423417Y-311334D01*
X423509Y-311537D01*
X423602Y-311685D01*
X423657Y-311778D01*
X423676Y-311815D01*
X423750Y-311926D01*
X423861Y-312056D01*
X424009Y-312222D01*
X424157Y-312370D01*
X424491Y-312722D01*
X424824Y-313074D01*
X425157Y-313407D01*
X425305Y-313556D01*
X425454Y-313667D01*
X425565Y-313778D01*
X425639Y-313852D01*
X425694Y-313907D01*
X425713Y-313926D01*
X426083Y-314278D01*
X426417Y-314611D01*
X426731Y-314926D01*
X427009Y-315203D01*
X427268Y-315481D01*
X427491Y-315741D01*
X427694Y-315963D01*
X427861Y-316185D01*
X428009Y-316370D01*
X428139Y-316537D01*
X428250Y-316666D01*
X428324Y-316796D01*
X428398Y-316870D01*
X428435Y-316944D01*
X428472Y-316981D01*
Y-317000D01*
X428713Y-317425D01*
X428898Y-317870D01*
X429046Y-318277D01*
X429157Y-318648D01*
X429231Y-318981D01*
X429249Y-319111D01*
X429268Y-319222D01*
X429287Y-319314D01*
X429305Y-319388D01*
Y-319425D01*
Y-319444D01*
X420695D01*
Y-317166D01*
X425583D01*
X425435Y-316926D01*
X425269Y-316722D01*
X425194Y-316629D01*
X425139Y-316555D01*
X425102Y-316518D01*
X425083Y-316500D01*
X425009Y-316426D01*
X424935Y-316333D01*
X424713Y-316129D01*
X424472Y-315889D01*
X424231Y-315648D01*
X423991Y-315426D01*
X423787Y-315240D01*
X423713Y-315166D01*
X423657Y-315111D01*
X423620Y-315092D01*
X423602Y-315074D01*
X423195Y-314685D01*
X422861Y-314370D01*
X422584Y-314074D01*
X422361Y-313852D01*
X422195Y-313667D01*
X422084Y-313537D01*
X422010Y-313444D01*
X421991Y-313426D01*
X421750Y-313111D01*
X421547Y-312815D01*
X421380Y-312537D01*
X421250Y-312296D01*
X421139Y-312093D01*
X421065Y-311926D01*
X421028Y-311833D01*
X421010Y-311796D01*
X420899Y-311500D01*
X420825Y-311204D01*
X420769Y-310926D01*
X420732Y-310667D01*
X420713Y-310463D01*
X420695Y-310297D01*
Y-310186D01*
Y-310149D01*
X420713Y-309871D01*
X420750Y-309593D01*
X420787Y-309334D01*
X420862Y-309093D01*
X421047Y-308667D01*
X421232Y-308297D01*
X421343Y-308130D01*
X421436Y-308001D01*
X421528Y-307871D01*
X421621Y-307778D01*
X421695Y-307704D01*
X421732Y-307630D01*
X421769Y-307612D01*
X421787Y-307593D01*
X421991Y-307408D01*
X422232Y-307241D01*
X422454Y-307112D01*
X422713Y-307001D01*
X423195Y-306815D01*
X423676Y-306686D01*
X423898Y-306649D01*
X424102Y-306612D01*
X424287Y-306593D01*
X424454Y-306575D01*
X424583Y-306556D01*
X424768D01*
X425083Y-306575D01*
D02*
G37*
G36*
X100056Y-480042D02*
X100416Y-480084D01*
X100735Y-480153D01*
X101054Y-480236D01*
X101331Y-480333D01*
X101609Y-480444D01*
X101845Y-480569D01*
X102066Y-480694D01*
X102274Y-480819D01*
X102441Y-480943D01*
X102593Y-481054D01*
X102718Y-481152D01*
X102815Y-481235D01*
X102885Y-481304D01*
X102926Y-481346D01*
X102940Y-481359D01*
X103162Y-481623D01*
X103342Y-481900D01*
X103509Y-482192D01*
X103647Y-482497D01*
X103772Y-482816D01*
X103869Y-483121D01*
X103953Y-483426D01*
X104022Y-483717D01*
X104077Y-484008D01*
X104105Y-484258D01*
X104133Y-484494D01*
X104160Y-484688D01*
Y-484854D01*
X104174Y-484979D01*
Y-485062D01*
Y-485076D01*
Y-485090D01*
X104160Y-485506D01*
X104119Y-485895D01*
X104063Y-486269D01*
X103980Y-486602D01*
X103897Y-486921D01*
X103786Y-487226D01*
X103675Y-487489D01*
X103564Y-487725D01*
X103453Y-487947D01*
X103342Y-488141D01*
X103231Y-488294D01*
X103148Y-488432D01*
X103065Y-488530D01*
X103009Y-488613D01*
X102968Y-488654D01*
X102954Y-488668D01*
X102718Y-488904D01*
X102469Y-489098D01*
X102205Y-489278D01*
X101942Y-489417D01*
X101678Y-489542D01*
X101415Y-489653D01*
X101165Y-489736D01*
X100929Y-489805D01*
X100693Y-489861D01*
X100485Y-489902D01*
X100291Y-489930D01*
X100139Y-489944D01*
X100000Y-489958D01*
X99903Y-489972D01*
X99820D01*
X99529Y-489958D01*
X99265Y-489944D01*
X99002Y-489902D01*
X98766Y-489847D01*
X98544Y-489791D01*
X98336Y-489736D01*
X98142Y-489667D01*
X97961Y-489584D01*
X97809Y-489514D01*
X97670Y-489445D01*
X97545Y-489389D01*
X97448Y-489334D01*
X97365Y-489278D01*
X97310Y-489237D01*
X97282Y-489223D01*
X97268Y-489209D01*
X97088Y-489057D01*
X96921Y-488890D01*
X96616Y-488516D01*
X96367Y-488127D01*
X96172Y-487753D01*
X96089Y-487573D01*
X96020Y-487406D01*
X95964Y-487254D01*
X95909Y-487129D01*
X95867Y-487018D01*
X95840Y-486935D01*
X95826Y-486879D01*
Y-486865D01*
X97712Y-486283D01*
X97823Y-486657D01*
X97948Y-486976D01*
X98072Y-487240D01*
X98211Y-487462D01*
X98322Y-487628D01*
X98419Y-487739D01*
X98488Y-487808D01*
X98516Y-487836D01*
X98738Y-488003D01*
X98960Y-488113D01*
X99182Y-488197D01*
X99376Y-488266D01*
X99556Y-488294D01*
X99709Y-488308D01*
X99764Y-488321D01*
X99834D01*
X100028Y-488308D01*
X100208Y-488294D01*
X100541Y-488197D01*
X100832Y-488086D01*
X101068Y-487933D01*
X101262Y-487794D01*
X101401Y-487683D01*
X101456Y-487628D01*
X101498Y-487586D01*
X101512Y-487573D01*
X101525Y-487559D01*
X101636Y-487406D01*
X101734Y-487226D01*
X101831Y-487032D01*
X101900Y-486824D01*
X102011Y-486394D01*
X102094Y-485964D01*
X102122Y-485756D01*
X102136Y-485575D01*
X102163Y-485395D01*
Y-485243D01*
X102177Y-485132D01*
Y-485035D01*
Y-484965D01*
Y-484951D01*
X102163Y-484632D01*
X102150Y-484341D01*
X102122Y-484078D01*
X102080Y-483828D01*
X102025Y-483606D01*
X101969Y-483398D01*
X101914Y-483218D01*
X101845Y-483051D01*
X101789Y-482913D01*
X101734Y-482788D01*
X101678Y-482691D01*
X101623Y-482608D01*
X101581Y-482538D01*
X101553Y-482497D01*
X101525Y-482469D01*
Y-482455D01*
X101401Y-482316D01*
X101262Y-482192D01*
X101123Y-482094D01*
X100971Y-482011D01*
X100680Y-481873D01*
X100402Y-481776D01*
X100166Y-481720D01*
X100056Y-481706D01*
X99972Y-481692D01*
X99889Y-481679D01*
X99792D01*
X99515Y-481692D01*
X99265Y-481748D01*
X99043Y-481817D01*
X98849Y-481900D01*
X98696Y-481984D01*
X98585Y-482053D01*
X98516Y-482108D01*
X98488Y-482122D01*
X98308Y-482289D01*
X98142Y-482483D01*
X98017Y-482677D01*
X97920Y-482871D01*
X97850Y-483038D01*
X97809Y-483162D01*
X97781Y-483218D01*
Y-483260D01*
X97767Y-483273D01*
Y-483287D01*
X95853Y-482830D01*
X95992Y-482427D01*
X96145Y-482081D01*
X96311Y-481776D01*
X96464Y-481526D01*
X96616Y-481332D01*
X96672Y-481249D01*
X96727Y-481179D01*
X96769Y-481138D01*
X96810Y-481096D01*
X96824Y-481068D01*
X96838D01*
X97046Y-480888D01*
X97282Y-480722D01*
X97504Y-480583D01*
X97739Y-480472D01*
X97989Y-480361D01*
X98225Y-480278D01*
X98461Y-480208D01*
X98682Y-480153D01*
X98890Y-480111D01*
X99085Y-480084D01*
X99251Y-480056D01*
X99404Y-480042D01*
X99529Y-480028D01*
X99695D01*
X100056Y-480042D01*
D02*
G37*
G36*
X704021Y-19803D02*
X700431D01*
X700122Y-19794D01*
X699606D01*
X699391Y-19785D01*
X699203D01*
X699035Y-19775D01*
X698894D01*
X698772Y-19766D01*
X698669D01*
X698585Y-19757D01*
X698519D01*
X698472Y-19747D01*
X698416D01*
X698135Y-19700D01*
X697891Y-19635D01*
X697666Y-19560D01*
X697479Y-19485D01*
X697404Y-19447D01*
X697329Y-19410D01*
X697263Y-19372D01*
X697216Y-19344D01*
X697179Y-19325D01*
X697151Y-19307D01*
X697132Y-19288D01*
X697123D01*
X696935Y-19138D01*
X696767Y-18979D01*
X696626Y-18819D01*
X696504Y-18660D01*
X696410Y-18519D01*
X696373Y-18454D01*
X696345Y-18407D01*
X696317Y-18360D01*
X696298Y-18332D01*
X696289Y-18313D01*
Y-18304D01*
X696185Y-18069D01*
X696110Y-17835D01*
X696054Y-17620D01*
X696017Y-17432D01*
X695998Y-17263D01*
X695989Y-17198D01*
X695979Y-17142D01*
Y-17095D01*
Y-17057D01*
Y-17039D01*
Y-17029D01*
X695989Y-16879D01*
X695998Y-16729D01*
X696054Y-16448D01*
X696129Y-16204D01*
X696176Y-16092D01*
X696214Y-15998D01*
X696260Y-15904D01*
X696307Y-15820D01*
X696345Y-15754D01*
X696382Y-15698D01*
X696410Y-15651D01*
X696439Y-15614D01*
X696448Y-15595D01*
X696457Y-15586D01*
X696551Y-15473D01*
X696645Y-15370D01*
X696860Y-15183D01*
X697085Y-15033D01*
X697301Y-14911D01*
X697498Y-14817D01*
X697582Y-14780D01*
X697657Y-14752D01*
X697713Y-14733D01*
X697760Y-14714D01*
X697788Y-14705D01*
X697797D01*
X697582Y-14583D01*
X697385Y-14452D01*
X697216Y-14311D01*
X697076Y-14180D01*
X696963Y-14058D01*
X696879Y-13955D01*
X696851Y-13917D01*
X696832Y-13889D01*
X696813Y-13871D01*
Y-13861D01*
X696692Y-13646D01*
X696598Y-13430D01*
X696532Y-13224D01*
X696495Y-13027D01*
X696467Y-12868D01*
X696457Y-12793D01*
Y-12737D01*
X696448Y-12690D01*
Y-12652D01*
Y-12633D01*
Y-12624D01*
X696457Y-12399D01*
X696495Y-12184D01*
X696542Y-11996D01*
X696598Y-11827D01*
X696654Y-11687D01*
X696682Y-11631D01*
X696701Y-11584D01*
X696720Y-11546D01*
X696738Y-11518D01*
X696748Y-11509D01*
Y-11499D01*
X696860Y-11321D01*
X696982Y-11162D01*
X697113Y-11021D01*
X697226Y-10909D01*
X697329Y-10815D01*
X697413Y-10749D01*
X697469Y-10703D01*
X697479Y-10693D01*
X697488D01*
X697657Y-10590D01*
X697835Y-10506D01*
X697994Y-10440D01*
X698154Y-10384D01*
X698294Y-10346D01*
X698397Y-10318D01*
X698435Y-10309D01*
X698463Y-10300D01*
X698491D01*
X698604Y-10281D01*
X698725Y-10262D01*
X698988Y-10243D01*
X699269Y-10225D01*
X699550Y-10206D01*
X699794D01*
X699906Y-10196D01*
X704021D01*
Y-19803D01*
D02*
G37*
G36*
X44021D02*
X40431D01*
X40122Y-19794D01*
X39606D01*
X39391Y-19785D01*
X39203D01*
X39035Y-19775D01*
X38894D01*
X38772Y-19766D01*
X38669D01*
X38585Y-19757D01*
X38519D01*
X38472Y-19747D01*
X38416D01*
X38135Y-19700D01*
X37891Y-19635D01*
X37666Y-19560D01*
X37479Y-19485D01*
X37404Y-19447D01*
X37329Y-19410D01*
X37263Y-19372D01*
X37216Y-19344D01*
X37179Y-19325D01*
X37151Y-19307D01*
X37132Y-19288D01*
X37123D01*
X36935Y-19138D01*
X36767Y-18979D01*
X36626Y-18819D01*
X36504Y-18660D01*
X36410Y-18519D01*
X36373Y-18454D01*
X36345Y-18407D01*
X36317Y-18360D01*
X36298Y-18332D01*
X36288Y-18313D01*
Y-18304D01*
X36185Y-18069D01*
X36110Y-17835D01*
X36054Y-17620D01*
X36017Y-17432D01*
X35998Y-17263D01*
X35989Y-17198D01*
X35979Y-17142D01*
Y-17095D01*
Y-17057D01*
Y-17039D01*
Y-17029D01*
X35989Y-16879D01*
X35998Y-16729D01*
X36054Y-16448D01*
X36129Y-16204D01*
X36176Y-16092D01*
X36214Y-15998D01*
X36260Y-15904D01*
X36307Y-15820D01*
X36345Y-15754D01*
X36382Y-15698D01*
X36410Y-15651D01*
X36438Y-15614D01*
X36448Y-15595D01*
X36457Y-15586D01*
X36551Y-15473D01*
X36645Y-15370D01*
X36860Y-15183D01*
X37085Y-15033D01*
X37301Y-14911D01*
X37497Y-14817D01*
X37582Y-14780D01*
X37657Y-14752D01*
X37713Y-14733D01*
X37760Y-14714D01*
X37788Y-14705D01*
X37798D01*
X37582Y-14583D01*
X37385Y-14452D01*
X37216Y-14311D01*
X37076Y-14180D01*
X36963Y-14058D01*
X36879Y-13955D01*
X36851Y-13917D01*
X36832Y-13889D01*
X36813Y-13871D01*
Y-13861D01*
X36692Y-13646D01*
X36598Y-13430D01*
X36532Y-13224D01*
X36495Y-13027D01*
X36467Y-12868D01*
X36457Y-12793D01*
Y-12737D01*
X36448Y-12690D01*
Y-12652D01*
Y-12633D01*
Y-12624D01*
X36457Y-12399D01*
X36495Y-12184D01*
X36542Y-11996D01*
X36598Y-11827D01*
X36654Y-11687D01*
X36682Y-11631D01*
X36701Y-11584D01*
X36720Y-11546D01*
X36738Y-11518D01*
X36748Y-11509D01*
Y-11499D01*
X36860Y-11321D01*
X36982Y-11162D01*
X37113Y-11021D01*
X37226Y-10909D01*
X37329Y-10815D01*
X37413Y-10749D01*
X37469Y-10703D01*
X37479Y-10693D01*
X37488D01*
X37657Y-10590D01*
X37835Y-10506D01*
X37994Y-10440D01*
X38154Y-10384D01*
X38294Y-10346D01*
X38397Y-10318D01*
X38435Y-10309D01*
X38463Y-10300D01*
X38491D01*
X38603Y-10281D01*
X38725Y-10262D01*
X38988Y-10243D01*
X39269Y-10225D01*
X39550Y-10206D01*
X39794D01*
X39906Y-10196D01*
X44021D01*
Y-19803D01*
D02*
G37*
G36*
X760055Y-480042D02*
X760416Y-480084D01*
X760735Y-480153D01*
X761054Y-480236D01*
X761331Y-480333D01*
X761609Y-480444D01*
X761844Y-480569D01*
X762066Y-480694D01*
X762274Y-480819D01*
X762441Y-480943D01*
X762593Y-481054D01*
X762718Y-481152D01*
X762815Y-481235D01*
X762885Y-481304D01*
X762926Y-481346D01*
X762940Y-481359D01*
X763162Y-481623D01*
X763342Y-481900D01*
X763509Y-482192D01*
X763647Y-482497D01*
X763772Y-482816D01*
X763869Y-483121D01*
X763952Y-483426D01*
X764022Y-483717D01*
X764077Y-484008D01*
X764105Y-484258D01*
X764133Y-484494D01*
X764161Y-484688D01*
Y-484854D01*
X764174Y-484979D01*
Y-485062D01*
Y-485076D01*
Y-485090D01*
X764161Y-485506D01*
X764119Y-485895D01*
X764063Y-486269D01*
X763980Y-486602D01*
X763897Y-486921D01*
X763786Y-487226D01*
X763675Y-487489D01*
X763564Y-487725D01*
X763453Y-487947D01*
X763342Y-488141D01*
X763231Y-488294D01*
X763148Y-488432D01*
X763065Y-488530D01*
X763009Y-488613D01*
X762968Y-488654D01*
X762954Y-488668D01*
X762718Y-488904D01*
X762469Y-489098D01*
X762205Y-489278D01*
X761942Y-489417D01*
X761678Y-489542D01*
X761415Y-489653D01*
X761165Y-489736D01*
X760929Y-489805D01*
X760693Y-489861D01*
X760485Y-489902D01*
X760291Y-489930D01*
X760139Y-489944D01*
X760000Y-489958D01*
X759903Y-489972D01*
X759820D01*
X759529Y-489958D01*
X759265Y-489944D01*
X759001Y-489902D01*
X758766Y-489847D01*
X758544Y-489791D01*
X758336Y-489736D01*
X758142Y-489667D01*
X757961Y-489584D01*
X757809Y-489514D01*
X757670Y-489445D01*
X757545Y-489389D01*
X757448Y-489334D01*
X757365Y-489278D01*
X757309Y-489237D01*
X757282Y-489223D01*
X757268Y-489209D01*
X757088Y-489057D01*
X756921Y-488890D01*
X756616Y-488516D01*
X756367Y-488127D01*
X756172Y-487753D01*
X756089Y-487573D01*
X756020Y-487406D01*
X755964Y-487254D01*
X755909Y-487129D01*
X755867Y-487018D01*
X755839Y-486935D01*
X755826Y-486879D01*
Y-486865D01*
X757712Y-486283D01*
X757823Y-486657D01*
X757947Y-486976D01*
X758072Y-487240D01*
X758211Y-487462D01*
X758322Y-487628D01*
X758419Y-487739D01*
X758488Y-487808D01*
X758516Y-487836D01*
X758738Y-488003D01*
X758960Y-488113D01*
X759182Y-488197D01*
X759376Y-488266D01*
X759556Y-488294D01*
X759709Y-488308D01*
X759764Y-488321D01*
X759834D01*
X760028Y-488308D01*
X760208Y-488294D01*
X760541Y-488197D01*
X760832Y-488086D01*
X761068Y-487933D01*
X761262Y-487794D01*
X761401Y-487683D01*
X761456Y-487628D01*
X761498Y-487586D01*
X761512Y-487573D01*
X761525Y-487559D01*
X761636Y-487406D01*
X761733Y-487226D01*
X761831Y-487032D01*
X761900Y-486824D01*
X762011Y-486394D01*
X762094Y-485964D01*
X762122Y-485756D01*
X762136Y-485575D01*
X762163Y-485395D01*
Y-485243D01*
X762177Y-485132D01*
Y-485035D01*
Y-484965D01*
Y-484951D01*
X762163Y-484632D01*
X762150Y-484341D01*
X762122Y-484078D01*
X762080Y-483828D01*
X762025Y-483606D01*
X761969Y-483398D01*
X761914Y-483218D01*
X761844Y-483051D01*
X761789Y-482913D01*
X761733Y-482788D01*
X761678Y-482691D01*
X761623Y-482608D01*
X761581Y-482538D01*
X761553Y-482497D01*
X761525Y-482469D01*
Y-482455D01*
X761401Y-482316D01*
X761262Y-482192D01*
X761123Y-482094D01*
X760971Y-482011D01*
X760679Y-481873D01*
X760402Y-481776D01*
X760166Y-481720D01*
X760055Y-481706D01*
X759972Y-481692D01*
X759889Y-481679D01*
X759792D01*
X759515Y-481692D01*
X759265Y-481748D01*
X759043Y-481817D01*
X758849Y-481900D01*
X758696Y-481984D01*
X758585Y-482053D01*
X758516Y-482108D01*
X758488Y-482122D01*
X758308Y-482289D01*
X758142Y-482483D01*
X758017Y-482677D01*
X757920Y-482871D01*
X757850Y-483038D01*
X757809Y-483162D01*
X757781Y-483218D01*
Y-483260D01*
X757767Y-483273D01*
Y-483287D01*
X755853Y-482830D01*
X755992Y-482427D01*
X756145Y-482081D01*
X756311Y-481776D01*
X756463Y-481526D01*
X756616Y-481332D01*
X756672Y-481249D01*
X756727Y-481179D01*
X756769Y-481138D01*
X756810Y-481096D01*
X756824Y-481068D01*
X756838D01*
X757046Y-480888D01*
X757282Y-480722D01*
X757504Y-480583D01*
X757739Y-480472D01*
X757989Y-480361D01*
X758225Y-480278D01*
X758461Y-480208D01*
X758682Y-480153D01*
X758891Y-480111D01*
X759085Y-480084D01*
X759251Y-480056D01*
X759404Y-480042D01*
X759529Y-480028D01*
X759695D01*
X760055Y-480042D01*
D02*
G37*
G36*
X554021Y-19803D02*
X550431D01*
X550122Y-19794D01*
X549606D01*
X549391Y-19785D01*
X549203D01*
X549035Y-19775D01*
X548894D01*
X548772Y-19766D01*
X548669D01*
X548585Y-19757D01*
X548519D01*
X548472Y-19747D01*
X548416D01*
X548135Y-19700D01*
X547891Y-19635D01*
X547666Y-19560D01*
X547479Y-19485D01*
X547404Y-19447D01*
X547329Y-19410D01*
X547263Y-19372D01*
X547216Y-19344D01*
X547179Y-19325D01*
X547151Y-19307D01*
X547132Y-19288D01*
X547123D01*
X546935Y-19138D01*
X546767Y-18979D01*
X546626Y-18819D01*
X546504Y-18660D01*
X546410Y-18519D01*
X546373Y-18454D01*
X546345Y-18407D01*
X546317Y-18360D01*
X546298Y-18332D01*
X546288Y-18313D01*
Y-18304D01*
X546185Y-18069D01*
X546110Y-17835D01*
X546054Y-17620D01*
X546017Y-17432D01*
X545998Y-17263D01*
X545989Y-17198D01*
X545979Y-17142D01*
Y-17095D01*
Y-17057D01*
Y-17039D01*
Y-17029D01*
X545989Y-16879D01*
X545998Y-16729D01*
X546054Y-16448D01*
X546129Y-16204D01*
X546176Y-16092D01*
X546213Y-15998D01*
X546260Y-15904D01*
X546307Y-15820D01*
X546345Y-15754D01*
X546382Y-15698D01*
X546410Y-15651D01*
X546438Y-15614D01*
X546448Y-15595D01*
X546457Y-15586D01*
X546551Y-15473D01*
X546645Y-15370D01*
X546860Y-15183D01*
X547085Y-15033D01*
X547301Y-14911D01*
X547498Y-14817D01*
X547582Y-14780D01*
X547657Y-14752D01*
X547713Y-14733D01*
X547760Y-14714D01*
X547788Y-14705D01*
X547798D01*
X547582Y-14583D01*
X547385Y-14452D01*
X547216Y-14311D01*
X547076Y-14180D01*
X546963Y-14058D01*
X546879Y-13955D01*
X546851Y-13917D01*
X546832Y-13889D01*
X546813Y-13871D01*
Y-13861D01*
X546692Y-13646D01*
X546598Y-13430D01*
X546532Y-13224D01*
X546495Y-13027D01*
X546467Y-12868D01*
X546457Y-12793D01*
Y-12737D01*
X546448Y-12690D01*
Y-12652D01*
Y-12633D01*
Y-12624D01*
X546457Y-12399D01*
X546495Y-12184D01*
X546542Y-11996D01*
X546598Y-11827D01*
X546654Y-11687D01*
X546682Y-11631D01*
X546701Y-11584D01*
X546720Y-11546D01*
X546738Y-11518D01*
X546748Y-11509D01*
Y-11499D01*
X546860Y-11321D01*
X546982Y-11162D01*
X547113Y-11021D01*
X547226Y-10909D01*
X547329Y-10815D01*
X547413Y-10749D01*
X547469Y-10703D01*
X547479Y-10693D01*
X547488D01*
X547657Y-10590D01*
X547835Y-10506D01*
X547994Y-10440D01*
X548154Y-10384D01*
X548294Y-10346D01*
X548397Y-10318D01*
X548435Y-10309D01*
X548463Y-10300D01*
X548491D01*
X548604Y-10281D01*
X548725Y-10262D01*
X548988Y-10243D01*
X549269Y-10225D01*
X549550Y-10206D01*
X549794D01*
X549906Y-10196D01*
X554021D01*
Y-19803D01*
D02*
G37*
G36*
X475389Y-180454D02*
X475704Y-180473D01*
X476000Y-180529D01*
X476278Y-180584D01*
X476537Y-180658D01*
X476778Y-180732D01*
X476981Y-180825D01*
X477166Y-180899D01*
X477352Y-180991D01*
X477500Y-181084D01*
X477611Y-181158D01*
X477722Y-181232D01*
X477796Y-181288D01*
X477852Y-181343D01*
X477889Y-181362D01*
X477907Y-181380D01*
X478074Y-181565D01*
X478240Y-181751D01*
X478370Y-181954D01*
X478481Y-182139D01*
X478666Y-182547D01*
X478777Y-182917D01*
X478852Y-183250D01*
X478870Y-183398D01*
X478889Y-183510D01*
X478907Y-183621D01*
Y-183695D01*
Y-183732D01*
Y-183750D01*
X478889Y-184065D01*
X478833Y-184343D01*
X478777Y-184621D01*
X478685Y-184843D01*
X478611Y-185047D01*
X478555Y-185176D01*
X478500Y-185269D01*
X478481Y-185306D01*
X478296Y-185546D01*
X478074Y-185769D01*
X477852Y-185954D01*
X477611Y-186120D01*
X477407Y-186232D01*
X477240Y-186324D01*
X477129Y-186380D01*
X477111Y-186398D01*
X477092D01*
X477481Y-186602D01*
X477815Y-186806D01*
X478092Y-187028D01*
X478315Y-187250D01*
X478500Y-187454D01*
X478629Y-187602D01*
X478703Y-187713D01*
X478722Y-187731D01*
Y-187750D01*
X478889Y-188083D01*
X479018Y-188417D01*
X479092Y-188750D01*
X479166Y-189046D01*
X479203Y-189287D01*
X479222Y-189491D01*
Y-189565D01*
Y-189620D01*
Y-189657D01*
Y-189676D01*
X479203Y-190028D01*
X479166Y-190342D01*
X479092Y-190657D01*
X479000Y-190935D01*
X478907Y-191213D01*
X478796Y-191453D01*
X478666Y-191675D01*
X478537Y-191879D01*
X478407Y-192046D01*
X478278Y-192212D01*
X478166Y-192342D01*
X478074Y-192453D01*
X477981Y-192546D01*
X477907Y-192601D01*
X477870Y-192638D01*
X477852Y-192657D01*
X477629Y-192824D01*
X477389Y-192953D01*
X477148Y-193083D01*
X476907Y-193175D01*
X476426Y-193342D01*
X475963Y-193453D01*
X475741Y-193490D01*
X475555Y-193509D01*
X475389Y-193527D01*
X475241Y-193546D01*
X475111Y-193564D01*
X474944D01*
X474593Y-193546D01*
X474278Y-193509D01*
X473963Y-193453D01*
X473667Y-193398D01*
X473408Y-193305D01*
X473167Y-193212D01*
X472926Y-193120D01*
X472723Y-193009D01*
X472537Y-192898D01*
X472389Y-192805D01*
X472241Y-192712D01*
X472130Y-192620D01*
X472037Y-192564D01*
X471982Y-192509D01*
X471945Y-192472D01*
X471926Y-192453D01*
X471723Y-192231D01*
X471556Y-192009D01*
X471389Y-191768D01*
X471260Y-191527D01*
X471149Y-191287D01*
X471056Y-191046D01*
X470926Y-190583D01*
X470871Y-190379D01*
X470834Y-190194D01*
X470815Y-190009D01*
X470797Y-189861D01*
X470778Y-189731D01*
Y-189639D01*
Y-189583D01*
Y-189565D01*
X470797Y-189176D01*
X470871Y-188824D01*
X470945Y-188491D01*
X471056Y-188213D01*
X471149Y-187991D01*
X471241Y-187824D01*
X471315Y-187713D01*
X471334Y-187676D01*
X471556Y-187380D01*
X471815Y-187120D01*
X472093Y-186898D01*
X472352Y-186731D01*
X472593Y-186583D01*
X472778Y-186472D01*
X472852Y-186435D01*
X472908Y-186417D01*
X472945Y-186398D01*
X472963D01*
X472667Y-186250D01*
X472408Y-186083D01*
X472186Y-185917D01*
X472000Y-185732D01*
X471852Y-185583D01*
X471760Y-185454D01*
X471686Y-185380D01*
X471667Y-185343D01*
X471500Y-185065D01*
X471389Y-184787D01*
X471297Y-184528D01*
X471241Y-184287D01*
X471204Y-184065D01*
X471186Y-183899D01*
Y-183787D01*
Y-183769D01*
Y-183750D01*
X471204Y-183491D01*
X471223Y-183232D01*
X471352Y-182769D01*
X471500Y-182380D01*
X471686Y-182028D01*
X471889Y-181751D01*
X471963Y-181639D01*
X472037Y-181547D01*
X472112Y-181473D01*
X472167Y-181417D01*
X472186Y-181399D01*
X472204Y-181380D01*
X472408Y-181214D01*
X472611Y-181065D01*
X472852Y-180936D01*
X473074Y-180825D01*
X473556Y-180658D01*
X474019Y-180547D01*
X474222Y-180510D01*
X474426Y-180491D01*
X474593Y-180473D01*
X474759Y-180454D01*
X474870Y-180436D01*
X475056D01*
X475389Y-180454D01*
D02*
G37*
G36*
X204021Y-19803D02*
X200431D01*
X200122Y-19794D01*
X199606D01*
X199391Y-19785D01*
X199203D01*
X199035Y-19775D01*
X198894D01*
X198772Y-19766D01*
X198669D01*
X198585Y-19757D01*
X198519D01*
X198472Y-19747D01*
X198416D01*
X198135Y-19700D01*
X197891Y-19635D01*
X197666Y-19560D01*
X197479Y-19485D01*
X197404Y-19447D01*
X197329Y-19410D01*
X197263Y-19372D01*
X197216Y-19344D01*
X197179Y-19325D01*
X197151Y-19307D01*
X197132Y-19288D01*
X197123D01*
X196935Y-19138D01*
X196766Y-18979D01*
X196626Y-18819D01*
X196504Y-18660D01*
X196410Y-18519D01*
X196373Y-18454D01*
X196345Y-18407D01*
X196317Y-18360D01*
X196298Y-18332D01*
X196289Y-18313D01*
Y-18304D01*
X196185Y-18069D01*
X196110Y-17835D01*
X196054Y-17620D01*
X196017Y-17432D01*
X195998Y-17263D01*
X195989Y-17198D01*
X195979Y-17142D01*
Y-17095D01*
Y-17057D01*
Y-17039D01*
Y-17029D01*
X195989Y-16879D01*
X195998Y-16729D01*
X196054Y-16448D01*
X196129Y-16204D01*
X196176Y-16092D01*
X196213Y-15998D01*
X196260Y-15904D01*
X196307Y-15820D01*
X196345Y-15754D01*
X196382Y-15698D01*
X196410Y-15651D01*
X196438Y-15614D01*
X196448Y-15595D01*
X196457Y-15586D01*
X196551Y-15473D01*
X196645Y-15370D01*
X196860Y-15183D01*
X197085Y-15033D01*
X197301Y-14911D01*
X197498Y-14817D01*
X197582Y-14780D01*
X197657Y-14752D01*
X197713Y-14733D01*
X197760Y-14714D01*
X197788Y-14705D01*
X197797D01*
X197582Y-14583D01*
X197385Y-14452D01*
X197216Y-14311D01*
X197076Y-14180D01*
X196963Y-14058D01*
X196879Y-13955D01*
X196851Y-13917D01*
X196832Y-13889D01*
X196813Y-13871D01*
Y-13861D01*
X196691Y-13646D01*
X196598Y-13430D01*
X196532Y-13224D01*
X196495Y-13027D01*
X196467Y-12868D01*
X196457Y-12793D01*
Y-12737D01*
X196448Y-12690D01*
Y-12652D01*
Y-12633D01*
Y-12624D01*
X196457Y-12399D01*
X196495Y-12184D01*
X196542Y-11996D01*
X196598Y-11827D01*
X196654Y-11687D01*
X196682Y-11631D01*
X196701Y-11584D01*
X196720Y-11546D01*
X196738Y-11518D01*
X196748Y-11509D01*
Y-11499D01*
X196860Y-11321D01*
X196982Y-11162D01*
X197113Y-11021D01*
X197226Y-10909D01*
X197329Y-10815D01*
X197413Y-10749D01*
X197469Y-10703D01*
X197479Y-10693D01*
X197488D01*
X197657Y-10590D01*
X197835Y-10506D01*
X197994Y-10440D01*
X198154Y-10384D01*
X198294Y-10346D01*
X198397Y-10318D01*
X198435Y-10309D01*
X198463Y-10300D01*
X198491D01*
X198603Y-10281D01*
X198725Y-10262D01*
X198988Y-10243D01*
X199269Y-10225D01*
X199550Y-10206D01*
X199794D01*
X199906Y-10196D01*
X204021D01*
Y-19803D01*
D02*
G37*
G36*
X329611Y-314731D02*
Y-316861D01*
X324352D01*
Y-319435D01*
X321982D01*
Y-316861D01*
X320389D01*
Y-314713D01*
X321982D01*
Y-306565D01*
X324056D01*
X329611Y-314731D01*
D02*
G37*
G36*
X225000Y-475000D02*
Y-495000D01*
X175000D01*
Y-475000D01*
X225000D01*
D02*
G37*
G36*
X374991Y-180454D02*
X375343Y-180510D01*
X375694Y-180584D01*
X376009Y-180677D01*
X376306Y-180806D01*
X376602Y-180936D01*
X376842Y-181084D01*
X377083Y-181214D01*
X377287Y-181362D01*
X377472Y-181510D01*
X377620Y-181639D01*
X377750Y-181769D01*
X377861Y-181862D01*
X377935Y-181936D01*
X377972Y-181991D01*
X377990Y-182010D01*
X378213Y-182325D01*
X378416Y-182676D01*
X378583Y-183065D01*
X378731Y-183454D01*
X378861Y-183880D01*
X378972Y-184306D01*
X379064Y-184732D01*
X379120Y-185139D01*
X379175Y-185528D01*
X379213Y-185898D01*
X379250Y-186232D01*
X379268Y-186528D01*
X379287Y-186769D01*
Y-186954D01*
Y-187009D01*
Y-187065D01*
Y-187083D01*
Y-187102D01*
X379268Y-187731D01*
X379231Y-188305D01*
X379175Y-188842D01*
X379083Y-189324D01*
X378990Y-189787D01*
X378898Y-190194D01*
X378787Y-190546D01*
X378657Y-190879D01*
X378546Y-191157D01*
X378435Y-191398D01*
X378342Y-191601D01*
X378231Y-191768D01*
X378157Y-191898D01*
X378102Y-191990D01*
X378064Y-192046D01*
X378046Y-192064D01*
X377805Y-192323D01*
X377546Y-192564D01*
X377287Y-192768D01*
X377009Y-192935D01*
X376750Y-193083D01*
X376472Y-193194D01*
X376213Y-193305D01*
X375972Y-193379D01*
X375732Y-193435D01*
X375528Y-193490D01*
X375324Y-193509D01*
X375157Y-193546D01*
X375028D01*
X374935Y-193564D01*
X374843D01*
X374509Y-193546D01*
X374195Y-193509D01*
X373898Y-193453D01*
X373621Y-193379D01*
X373343Y-193286D01*
X373102Y-193194D01*
X372880Y-193083D01*
X372676Y-192972D01*
X372491Y-192861D01*
X372343Y-192749D01*
X372195Y-192657D01*
X372084Y-192564D01*
X371991Y-192490D01*
X371936Y-192435D01*
X371898Y-192398D01*
X371880Y-192379D01*
X371676Y-192157D01*
X371491Y-191898D01*
X371343Y-191638D01*
X371213Y-191379D01*
X371084Y-191120D01*
X370991Y-190861D01*
X370862Y-190342D01*
X370806Y-190120D01*
X370769Y-189898D01*
X370751Y-189713D01*
X370732Y-189546D01*
X370714Y-189398D01*
Y-189305D01*
Y-189231D01*
Y-189213D01*
X370732Y-188861D01*
X370769Y-188546D01*
X370825Y-188231D01*
X370880Y-187954D01*
X370973Y-187676D01*
X371065Y-187435D01*
X371158Y-187194D01*
X371269Y-186991D01*
X371380Y-186806D01*
X371473Y-186639D01*
X371565Y-186509D01*
X371658Y-186380D01*
X371713Y-186287D01*
X371769Y-186232D01*
X371806Y-186194D01*
X371824Y-186176D01*
X372028Y-185972D01*
X372250Y-185787D01*
X372472Y-185620D01*
X372695Y-185491D01*
X372917Y-185380D01*
X373139Y-185287D01*
X373546Y-185139D01*
X373732Y-185084D01*
X373917Y-185047D01*
X374065Y-185028D01*
X374195Y-185009D01*
X374306Y-184991D01*
X374454D01*
X374713Y-185009D01*
X374954Y-185047D01*
X375176Y-185084D01*
X375398Y-185158D01*
X375787Y-185343D01*
X376120Y-185528D01*
X376380Y-185732D01*
X376491Y-185824D01*
X376583Y-185917D01*
X376657Y-185991D01*
X376713Y-186028D01*
X376731Y-186065D01*
X376750Y-186083D01*
X376713Y-185695D01*
X376676Y-185324D01*
X376639Y-184991D01*
X376583Y-184695D01*
X376528Y-184436D01*
X376472Y-184195D01*
X376417Y-183991D01*
X376343Y-183806D01*
X376287Y-183639D01*
X376250Y-183510D01*
X376194Y-183398D01*
X376157Y-183325D01*
X376120Y-183250D01*
X376083Y-183213D01*
X376065Y-183176D01*
X375861Y-182936D01*
X375639Y-182769D01*
X375417Y-182639D01*
X375213Y-182565D01*
X375028Y-182510D01*
X374880Y-182491D01*
X374787Y-182473D01*
X374750D01*
X374546Y-182491D01*
X374343Y-182528D01*
X374176Y-182584D01*
X374046Y-182639D01*
X373935Y-182713D01*
X373861Y-182769D01*
X373806Y-182806D01*
X373787Y-182824D01*
X373658Y-182973D01*
X373565Y-183139D01*
X373472Y-183325D01*
X373417Y-183491D01*
X373380Y-183658D01*
X373343Y-183787D01*
X373324Y-183862D01*
Y-183899D01*
X370954Y-183639D01*
X371084Y-183084D01*
X371269Y-182621D01*
X371473Y-182213D01*
X371676Y-181862D01*
X371880Y-181602D01*
X371954Y-181510D01*
X372047Y-181417D01*
X372102Y-181362D01*
X372158Y-181306D01*
X372176Y-181269D01*
X372195D01*
X372380Y-181121D01*
X372565Y-180991D01*
X372972Y-180788D01*
X373380Y-180640D01*
X373750Y-180547D01*
X374084Y-180473D01*
X374232Y-180454D01*
X374361D01*
X374454Y-180436D01*
X374602D01*
X374991Y-180454D01*
D02*
G37*
G36*
X375000Y-495000D02*
X325000D01*
Y-475000D01*
X375000D01*
Y-495000D01*
D02*
G37*
G36*
X450056Y-480042D02*
X450416Y-480084D01*
X450735Y-480153D01*
X451054Y-480236D01*
X451331Y-480333D01*
X451609Y-480444D01*
X451844Y-480569D01*
X452066Y-480694D01*
X452274Y-480819D01*
X452441Y-480943D01*
X452593Y-481054D01*
X452718Y-481152D01*
X452815Y-481235D01*
X452885Y-481304D01*
X452926Y-481346D01*
X452940Y-481359D01*
X453162Y-481623D01*
X453342Y-481900D01*
X453509Y-482192D01*
X453647Y-482497D01*
X453772Y-482816D01*
X453869Y-483121D01*
X453952Y-483426D01*
X454022Y-483717D01*
X454077Y-484008D01*
X454105Y-484258D01*
X454133Y-484494D01*
X454160Y-484688D01*
Y-484854D01*
X454174Y-484979D01*
Y-485062D01*
Y-485076D01*
Y-485090D01*
X454160Y-485506D01*
X454119Y-485895D01*
X454063Y-486269D01*
X453980Y-486602D01*
X453897Y-486921D01*
X453786Y-487226D01*
X453675Y-487489D01*
X453564Y-487725D01*
X453453Y-487947D01*
X453342Y-488141D01*
X453231Y-488294D01*
X453148Y-488432D01*
X453065Y-488530D01*
X453009Y-488613D01*
X452968Y-488654D01*
X452954Y-488668D01*
X452718Y-488904D01*
X452469Y-489098D01*
X452205Y-489278D01*
X451942Y-489417D01*
X451678Y-489542D01*
X451415Y-489653D01*
X451165Y-489736D01*
X450929Y-489805D01*
X450693Y-489861D01*
X450485Y-489902D01*
X450291Y-489930D01*
X450139Y-489944D01*
X450000Y-489958D01*
X449903Y-489972D01*
X449820D01*
X449529Y-489958D01*
X449265Y-489944D01*
X449002Y-489902D01*
X448766Y-489847D01*
X448544Y-489791D01*
X448336Y-489736D01*
X448142Y-489667D01*
X447961Y-489584D01*
X447809Y-489514D01*
X447670Y-489445D01*
X447545Y-489389D01*
X447448Y-489334D01*
X447365Y-489278D01*
X447309Y-489237D01*
X447282Y-489223D01*
X447268Y-489209D01*
X447088Y-489057D01*
X446921Y-488890D01*
X446616Y-488516D01*
X446367Y-488127D01*
X446172Y-487753D01*
X446089Y-487573D01*
X446020Y-487406D01*
X445964Y-487254D01*
X445909Y-487129D01*
X445867Y-487018D01*
X445840Y-486935D01*
X445826Y-486879D01*
Y-486865D01*
X447712Y-486283D01*
X447823Y-486657D01*
X447948Y-486976D01*
X448072Y-487240D01*
X448211Y-487462D01*
X448322Y-487628D01*
X448419Y-487739D01*
X448488Y-487808D01*
X448516Y-487836D01*
X448738Y-488003D01*
X448960Y-488113D01*
X449182Y-488197D01*
X449376Y-488266D01*
X449556Y-488294D01*
X449709Y-488308D01*
X449764Y-488321D01*
X449834D01*
X450028Y-488308D01*
X450208Y-488294D01*
X450541Y-488197D01*
X450832Y-488086D01*
X451068Y-487933D01*
X451262Y-487794D01*
X451401Y-487683D01*
X451456Y-487628D01*
X451498Y-487586D01*
X451512Y-487573D01*
X451525Y-487559D01*
X451637Y-487406D01*
X451734Y-487226D01*
X451831Y-487032D01*
X451900Y-486824D01*
X452011Y-486394D01*
X452094Y-485964D01*
X452122Y-485756D01*
X452136Y-485575D01*
X452164Y-485395D01*
Y-485243D01*
X452177Y-485132D01*
Y-485035D01*
Y-484965D01*
Y-484951D01*
X452164Y-484632D01*
X452150Y-484341D01*
X452122Y-484078D01*
X452080Y-483828D01*
X452025Y-483606D01*
X451969Y-483398D01*
X451914Y-483218D01*
X451844Y-483051D01*
X451789Y-482913D01*
X451734Y-482788D01*
X451678Y-482691D01*
X451623Y-482608D01*
X451581Y-482538D01*
X451553Y-482497D01*
X451525Y-482469D01*
Y-482455D01*
X451401Y-482316D01*
X451262Y-482192D01*
X451123Y-482094D01*
X450971Y-482011D01*
X450680Y-481873D01*
X450402Y-481776D01*
X450166Y-481720D01*
X450056Y-481706D01*
X449972Y-481692D01*
X449889Y-481679D01*
X449792D01*
X449515Y-481692D01*
X449265Y-481748D01*
X449043Y-481817D01*
X448849Y-481900D01*
X448696Y-481984D01*
X448585Y-482053D01*
X448516Y-482108D01*
X448488Y-482122D01*
X448308Y-482289D01*
X448142Y-482483D01*
X448017Y-482677D01*
X447920Y-482871D01*
X447850Y-483038D01*
X447809Y-483162D01*
X447781Y-483218D01*
Y-483260D01*
X447767Y-483273D01*
Y-483287D01*
X445853Y-482830D01*
X445992Y-482427D01*
X446145Y-482081D01*
X446311Y-481776D01*
X446464Y-481526D01*
X446616Y-481332D01*
X446672Y-481249D01*
X446727Y-481179D01*
X446769Y-481138D01*
X446810Y-481096D01*
X446824Y-481068D01*
X446838D01*
X447046Y-480888D01*
X447282Y-480722D01*
X447504Y-480583D01*
X447739Y-480472D01*
X447989Y-480361D01*
X448225Y-480278D01*
X448461Y-480208D01*
X448683Y-480153D01*
X448890Y-480111D01*
X449085Y-480084D01*
X449251Y-480056D01*
X449404Y-480042D01*
X449529Y-480028D01*
X449695D01*
X450056Y-480042D01*
D02*
G37*
G36*
X791000Y-25000D02*
X725000D01*
Y-5000D01*
X791000D01*
Y-25000D01*
D02*
G37*
G36*
X275000Y-5000D02*
Y-25000D01*
X225000D01*
Y-5000D01*
X275000D01*
D02*
G37*
G36*
X475000Y-25000D02*
X425000D01*
Y-5000D01*
X475000D01*
Y-25000D01*
D02*
G37*
G36*
X354021Y-19803D02*
X350431D01*
X350122Y-19794D01*
X349606D01*
X349391Y-19785D01*
X349203D01*
X349035Y-19775D01*
X348894D01*
X348772Y-19766D01*
X348669D01*
X348585Y-19757D01*
X348519D01*
X348472Y-19747D01*
X348416D01*
X348135Y-19700D01*
X347891Y-19635D01*
X347666Y-19560D01*
X347479Y-19485D01*
X347404Y-19447D01*
X347329Y-19410D01*
X347263Y-19372D01*
X347216Y-19344D01*
X347179Y-19325D01*
X347151Y-19307D01*
X347132Y-19288D01*
X347123D01*
X346935Y-19138D01*
X346767Y-18979D01*
X346626Y-18819D01*
X346504Y-18660D01*
X346410Y-18519D01*
X346373Y-18454D01*
X346345Y-18407D01*
X346317Y-18360D01*
X346298Y-18332D01*
X346288Y-18313D01*
Y-18304D01*
X346185Y-18069D01*
X346110Y-17835D01*
X346054Y-17620D01*
X346017Y-17432D01*
X345998Y-17263D01*
X345989Y-17198D01*
X345979Y-17142D01*
Y-17095D01*
Y-17057D01*
Y-17039D01*
Y-17029D01*
X345989Y-16879D01*
X345998Y-16729D01*
X346054Y-16448D01*
X346129Y-16204D01*
X346176Y-16092D01*
X346213Y-15998D01*
X346260Y-15904D01*
X346307Y-15820D01*
X346345Y-15754D01*
X346382Y-15698D01*
X346410Y-15651D01*
X346438Y-15614D01*
X346448Y-15595D01*
X346457Y-15586D01*
X346551Y-15473D01*
X346645Y-15370D01*
X346860Y-15183D01*
X347085Y-15033D01*
X347301Y-14911D01*
X347497Y-14817D01*
X347582Y-14780D01*
X347657Y-14752D01*
X347713Y-14733D01*
X347760Y-14714D01*
X347788Y-14705D01*
X347798D01*
X347582Y-14583D01*
X347385Y-14452D01*
X347216Y-14311D01*
X347076Y-14180D01*
X346963Y-14058D01*
X346879Y-13955D01*
X346851Y-13917D01*
X346832Y-13889D01*
X346813Y-13871D01*
Y-13861D01*
X346692Y-13646D01*
X346598Y-13430D01*
X346532Y-13224D01*
X346495Y-13027D01*
X346466Y-12868D01*
X346457Y-12793D01*
Y-12737D01*
X346448Y-12690D01*
Y-12652D01*
Y-12633D01*
Y-12624D01*
X346457Y-12399D01*
X346495Y-12184D01*
X346541Y-11996D01*
X346598Y-11827D01*
X346654Y-11687D01*
X346682Y-11631D01*
X346701Y-11584D01*
X346720Y-11546D01*
X346738Y-11518D01*
X346748Y-11509D01*
Y-11499D01*
X346860Y-11321D01*
X346982Y-11162D01*
X347113Y-11021D01*
X347226Y-10909D01*
X347329Y-10815D01*
X347413Y-10749D01*
X347469Y-10703D01*
X347479Y-10693D01*
X347488D01*
X347657Y-10590D01*
X347835Y-10506D01*
X347994Y-10440D01*
X348154Y-10384D01*
X348294Y-10346D01*
X348397Y-10318D01*
X348435Y-10309D01*
X348463Y-10300D01*
X348491D01*
X348604Y-10281D01*
X348725Y-10262D01*
X348988Y-10243D01*
X349269Y-10225D01*
X349550Y-10206D01*
X349794D01*
X349906Y-10196D01*
X354021D01*
Y-19803D01*
D02*
G37*
G36*
X575000Y-475000D02*
Y-495000D01*
X525000D01*
Y-475000D01*
X575000D01*
D02*
G37*
G36*
X125000Y-5000D02*
Y-25000D01*
X75000D01*
Y-5000D01*
X125000D01*
D02*
G37*
G36*
X725000Y-475000D02*
Y-495000D01*
X675000D01*
Y-475000D01*
X725000D01*
D02*
G37*
G36*
X757296Y-279689D02*
X757685Y-279763D01*
X758037Y-279874D01*
X758333Y-279985D01*
X758574Y-280096D01*
X758759Y-280207D01*
X758870Y-280281D01*
X758888Y-280300D01*
X758907D01*
X759203Y-280559D01*
X759462Y-280837D01*
X759666Y-281133D01*
X759851Y-281411D01*
X759981Y-281670D01*
X760073Y-281892D01*
X760110Y-281966D01*
X760129Y-282022D01*
X760147Y-282059D01*
Y-282077D01*
X760296Y-281744D01*
X760462Y-281466D01*
X760629Y-281226D01*
X760796Y-281022D01*
X760944Y-280874D01*
X761055Y-280763D01*
X761129Y-280689D01*
X761166Y-280670D01*
X761425Y-280503D01*
X761684Y-280392D01*
X761944Y-280300D01*
X762203Y-280244D01*
X762406Y-280207D01*
X762573Y-280189D01*
X762684D01*
X762703D01*
X762721D01*
X762980Y-280207D01*
X763221Y-280226D01*
X763684Y-280355D01*
X764091Y-280522D01*
X764443Y-280707D01*
X764721Y-280892D01*
X764832Y-280985D01*
X764943Y-281059D01*
X765017Y-281133D01*
X765073Y-281189D01*
X765091Y-281207D01*
X765110Y-281226D01*
X765277Y-281429D01*
X765443Y-281633D01*
X765573Y-281855D01*
X765684Y-282077D01*
X765851Y-282522D01*
X765962Y-282966D01*
X766017Y-283151D01*
X766036Y-283337D01*
X766054Y-283503D01*
X766073Y-283651D01*
X766091Y-283762D01*
Y-283929D01*
X766073Y-284225D01*
X766054Y-284522D01*
X765943Y-285040D01*
X765869Y-285281D01*
X765795Y-285503D01*
X765703Y-285707D01*
X765610Y-285892D01*
X765517Y-286040D01*
X765425Y-286188D01*
X765351Y-286318D01*
X765277Y-286410D01*
X765221Y-286484D01*
X765165Y-286540D01*
X765147Y-286577D01*
X765128Y-286595D01*
X764943Y-286762D01*
X764758Y-286929D01*
X764555Y-287058D01*
X764351Y-287169D01*
X763962Y-287355D01*
X763592Y-287466D01*
X763277Y-287540D01*
X763129Y-287558D01*
X763018Y-287577D01*
X762906Y-287595D01*
X762832D01*
X762795D01*
X762777D01*
X762444Y-287577D01*
X762129Y-287521D01*
X761851Y-287447D01*
X761610Y-287355D01*
X761425Y-287281D01*
X761277Y-287206D01*
X761203Y-287151D01*
X761166Y-287132D01*
X760944Y-286929D01*
X760740Y-286707D01*
X760555Y-286466D01*
X760407Y-286225D01*
X760296Y-286003D01*
X760222Y-285836D01*
X760184Y-285762D01*
X760166Y-285707D01*
X760147Y-285688D01*
Y-285670D01*
X760018Y-286095D01*
X759851Y-286447D01*
X759648Y-286762D01*
X759462Y-287021D01*
X759277Y-287225D01*
X759129Y-287373D01*
X759036Y-287447D01*
X759018Y-287484D01*
X758999D01*
X758666Y-287688D01*
X758314Y-287854D01*
X757981Y-287966D01*
X757648Y-288040D01*
X757352Y-288077D01*
X757222Y-288095D01*
X757111D01*
X757037Y-288114D01*
X756963D01*
X756926D01*
X756907D01*
X756611Y-288095D01*
X756315Y-288058D01*
X756037Y-288003D01*
X755759Y-287929D01*
X755296Y-287743D01*
X755074Y-287651D01*
X754889Y-287540D01*
X754704Y-287429D01*
X754556Y-287336D01*
X754426Y-287225D01*
X754315Y-287151D01*
X754222Y-287077D01*
X754167Y-287021D01*
X754130Y-286984D01*
X754111Y-286966D01*
X753907Y-286744D01*
X753741Y-286503D01*
X753593Y-286244D01*
X753463Y-285984D01*
X753370Y-285744D01*
X753278Y-285484D01*
X753148Y-284984D01*
X753093Y-284762D01*
X753056Y-284559D01*
X753037Y-284373D01*
X753019Y-284207D01*
X753000Y-284077D01*
Y-283892D01*
X753019Y-283540D01*
X753056Y-283225D01*
X753111Y-282911D01*
X753167Y-282614D01*
X753259Y-282355D01*
X753352Y-282096D01*
X753445Y-281855D01*
X753556Y-281651D01*
X753667Y-281466D01*
X753759Y-281300D01*
X753852Y-281170D01*
X753944Y-281040D01*
X754000Y-280948D01*
X754055Y-280892D01*
X754093Y-280855D01*
X754111Y-280837D01*
X754333Y-280633D01*
X754556Y-280448D01*
X754778Y-280300D01*
X755018Y-280170D01*
X755241Y-280040D01*
X755481Y-279948D01*
X755907Y-279818D01*
X756111Y-279763D01*
X756296Y-279726D01*
X756463Y-279707D01*
X756592Y-279689D01*
X756703Y-279670D01*
X756796D01*
X756852D01*
X756870D01*
X757296Y-279689D01*
D02*
G37*
G36*
X758648Y-294243D02*
X757074D01*
Y-289373D01*
X758648D01*
Y-294243D01*
D02*
G37*
G36*
X757888Y-295539D02*
X758203Y-295576D01*
X758518Y-295632D01*
X758796Y-295706D01*
X759055Y-295798D01*
X759314Y-295891D01*
X759537Y-296002D01*
X759740Y-296094D01*
X759925Y-296206D01*
X760092Y-296317D01*
X760222Y-296409D01*
X760351Y-296502D01*
X760444Y-296576D01*
X760499Y-296631D01*
X760536Y-296668D01*
X760555Y-296687D01*
X760759Y-296909D01*
X760944Y-297131D01*
X761092Y-297372D01*
X761221Y-297613D01*
X761351Y-297854D01*
X761444Y-298094D01*
X761573Y-298539D01*
X761629Y-298742D01*
X761666Y-298927D01*
X761684Y-299094D01*
X761703Y-299242D01*
X761721Y-299353D01*
Y-299761D01*
X761684Y-299983D01*
X761592Y-300427D01*
X761462Y-300835D01*
X761314Y-301205D01*
X761166Y-301501D01*
X761092Y-301631D01*
X761036Y-301742D01*
X760981Y-301835D01*
X760944Y-301890D01*
X760925Y-301927D01*
X760907Y-301946D01*
X764369Y-301261D01*
Y-296131D01*
X765869D01*
Y-302501D01*
X759277Y-303742D01*
X759073Y-302260D01*
X759277Y-302131D01*
X759444Y-301964D01*
X759611Y-301816D01*
X759740Y-301668D01*
X759833Y-301520D01*
X759925Y-301409D01*
X759962Y-301335D01*
X759981Y-301316D01*
X760092Y-301075D01*
X760184Y-300835D01*
X760240Y-300613D01*
X760296Y-300390D01*
X760314Y-300205D01*
X760333Y-300057D01*
Y-299705D01*
X760296Y-299483D01*
X760203Y-299094D01*
X760073Y-298761D01*
X759944Y-298465D01*
X759796Y-298242D01*
X759666Y-298076D01*
X759574Y-297983D01*
X759555Y-297946D01*
X759537D01*
X759222Y-297687D01*
X758888Y-297502D01*
X758537Y-297372D01*
X758185Y-297279D01*
X757888Y-297224D01*
X757759Y-297205D01*
X757648D01*
X757555Y-297187D01*
X757481D01*
X757444D01*
X757426D01*
X757166D01*
X756926Y-297224D01*
X756463Y-297316D01*
X756074Y-297446D01*
X755759Y-297576D01*
X755500Y-297724D01*
X755296Y-297854D01*
X755241Y-297909D01*
X755185Y-297946D01*
X755166Y-297965D01*
X755148Y-297983D01*
X755000Y-298131D01*
X754870Y-298279D01*
X754648Y-298613D01*
X754500Y-298927D01*
X754407Y-299242D01*
X754333Y-299501D01*
X754315Y-299724D01*
X754296Y-299798D01*
Y-299909D01*
X754315Y-300261D01*
X754389Y-300575D01*
X754481Y-300853D01*
X754593Y-301075D01*
X754704Y-301279D01*
X754796Y-301427D01*
X754870Y-301501D01*
X754889Y-301538D01*
X755148Y-301761D01*
X755426Y-301946D01*
X755741Y-302094D01*
X756018Y-302205D01*
X756296Y-302279D01*
X756500Y-302334D01*
X756592Y-302353D01*
X756648Y-302372D01*
X756685D01*
X756703D01*
X756574Y-304020D01*
X756277Y-303983D01*
X756000Y-303927D01*
X755481Y-303760D01*
X755037Y-303557D01*
X754833Y-303445D01*
X754667Y-303334D01*
X754500Y-303242D01*
X754352Y-303131D01*
X754241Y-303038D01*
X754148Y-302945D01*
X754074Y-302871D01*
X754000Y-302834D01*
X753981Y-302797D01*
X753963Y-302779D01*
X753796Y-302557D01*
X753648Y-302334D01*
X753519Y-302094D01*
X753408Y-301853D01*
X753241Y-301390D01*
X753130Y-300927D01*
X753074Y-300724D01*
X753056Y-300520D01*
X753037Y-300353D01*
X753019Y-300205D01*
X753000Y-300075D01*
Y-299909D01*
X753019Y-299520D01*
X753074Y-299150D01*
X753148Y-298798D01*
X753241Y-298483D01*
X753370Y-298187D01*
X753500Y-297909D01*
X753630Y-297650D01*
X753778Y-297428D01*
X753926Y-297224D01*
X754055Y-297039D01*
X754204Y-296891D01*
X754315Y-296761D01*
X754407Y-296668D01*
X754481Y-296594D01*
X754537Y-296557D01*
X754556Y-296539D01*
X754796Y-296354D01*
X755055Y-296206D01*
X755296Y-296057D01*
X755555Y-295946D01*
X756055Y-295761D01*
X756537Y-295650D01*
X756740Y-295613D01*
X756944Y-295576D01*
X757111Y-295557D01*
X757259Y-295539D01*
X757389Y-295520D01*
X757481D01*
X757537D01*
X757555D01*
X757888Y-295539D01*
D02*
G37*
G36*
X757296Y-305575D02*
X757685Y-305649D01*
X758037Y-305760D01*
X758333Y-305871D01*
X758574Y-305982D01*
X758759Y-306093D01*
X758870Y-306167D01*
X758888Y-306186D01*
X758907D01*
X759203Y-306445D01*
X759462Y-306723D01*
X759666Y-307019D01*
X759851Y-307297D01*
X759981Y-307556D01*
X760073Y-307778D01*
X760110Y-307852D01*
X760129Y-307908D01*
X760147Y-307945D01*
Y-307964D01*
X760296Y-307630D01*
X760462Y-307353D01*
X760629Y-307112D01*
X760796Y-306908D01*
X760944Y-306760D01*
X761055Y-306649D01*
X761129Y-306575D01*
X761166Y-306556D01*
X761425Y-306390D01*
X761684Y-306278D01*
X761944Y-306186D01*
X762203Y-306130D01*
X762406Y-306093D01*
X762573Y-306075D01*
X762684D01*
X762703D01*
X762721D01*
X762980Y-306093D01*
X763221Y-306112D01*
X763684Y-306241D01*
X764091Y-306408D01*
X764443Y-306593D01*
X764721Y-306779D01*
X764832Y-306871D01*
X764943Y-306945D01*
X765017Y-307019D01*
X765073Y-307075D01*
X765091Y-307093D01*
X765110Y-307112D01*
X765277Y-307316D01*
X765443Y-307519D01*
X765573Y-307741D01*
X765684Y-307964D01*
X765851Y-308408D01*
X765962Y-308852D01*
X766017Y-309037D01*
X766036Y-309223D01*
X766054Y-309389D01*
X766073Y-309538D01*
X766091Y-309649D01*
Y-309815D01*
X766073Y-310112D01*
X766054Y-310408D01*
X765943Y-310926D01*
X765869Y-311167D01*
X765795Y-311389D01*
X765703Y-311593D01*
X765610Y-311778D01*
X765517Y-311926D01*
X765425Y-312074D01*
X765351Y-312204D01*
X765277Y-312296D01*
X765221Y-312370D01*
X765165Y-312426D01*
X765147Y-312463D01*
X765128Y-312482D01*
X764943Y-312648D01*
X764758Y-312815D01*
X764555Y-312945D01*
X764351Y-313056D01*
X763962Y-313241D01*
X763592Y-313352D01*
X763277Y-313426D01*
X763129Y-313444D01*
X763018Y-313463D01*
X762906Y-313482D01*
X762832D01*
X762795D01*
X762777D01*
X762444Y-313463D01*
X762129Y-313407D01*
X761851Y-313333D01*
X761610Y-313241D01*
X761425Y-313167D01*
X761277Y-313093D01*
X761203Y-313037D01*
X761166Y-313019D01*
X760944Y-312815D01*
X760740Y-312593D01*
X760555Y-312352D01*
X760407Y-312111D01*
X760296Y-311889D01*
X760222Y-311722D01*
X760184Y-311648D01*
X760166Y-311593D01*
X760147Y-311574D01*
Y-311556D01*
X760018Y-311982D01*
X759851Y-312334D01*
X759648Y-312648D01*
X759462Y-312908D01*
X759277Y-313111D01*
X759129Y-313259D01*
X759036Y-313333D01*
X759018Y-313370D01*
X758999D01*
X758666Y-313574D01*
X758314Y-313741D01*
X757981Y-313852D01*
X757648Y-313926D01*
X757352Y-313963D01*
X757222Y-313981D01*
X757111D01*
X757037Y-314000D01*
X756963D01*
X756926D01*
X756907D01*
X756611Y-313981D01*
X756315Y-313944D01*
X756037Y-313889D01*
X755759Y-313815D01*
X755296Y-313630D01*
X755074Y-313537D01*
X754889Y-313426D01*
X754704Y-313315D01*
X754556Y-313222D01*
X754426Y-313111D01*
X754315Y-313037D01*
X754222Y-312963D01*
X754167Y-312908D01*
X754130Y-312870D01*
X754111Y-312852D01*
X753907Y-312630D01*
X753741Y-312389D01*
X753593Y-312130D01*
X753463Y-311870D01*
X753370Y-311630D01*
X753278Y-311371D01*
X753148Y-310871D01*
X753093Y-310648D01*
X753056Y-310445D01*
X753037Y-310260D01*
X753019Y-310093D01*
X753000Y-309963D01*
Y-309778D01*
X753019Y-309426D01*
X753056Y-309112D01*
X753111Y-308797D01*
X753167Y-308500D01*
X753259Y-308241D01*
X753352Y-307982D01*
X753445Y-307741D01*
X753556Y-307538D01*
X753667Y-307353D01*
X753759Y-307186D01*
X753852Y-307056D01*
X753944Y-306927D01*
X754000Y-306834D01*
X754055Y-306779D01*
X754093Y-306741D01*
X754111Y-306723D01*
X754333Y-306519D01*
X754556Y-306334D01*
X754778Y-306186D01*
X755018Y-306056D01*
X755241Y-305927D01*
X755481Y-305834D01*
X755907Y-305704D01*
X756111Y-305649D01*
X756296Y-305612D01*
X756463Y-305593D01*
X756592Y-305575D01*
X756703Y-305556D01*
X756796D01*
X756852D01*
X756870D01*
X757296Y-305575D01*
D02*
G37*
%LPC*%
G36*
X604822Y-10196D02*
D01*
Y-19803D01*
X601092Y-10196D01*
X599021D01*
X595178Y-19803D01*
D01*
X597296D01*
X598130Y-17620D01*
X601973D01*
X602770Y-19803D01*
X604822D01*
Y-10196D01*
D02*
G37*
%LPD*%
G36*
X601382Y-15998D02*
X598749D01*
X600080Y-12437D01*
X601382Y-15998D01*
D02*
G37*
%LPC*%
G36*
X329314Y-180556D02*
X320686D01*
Y-193444D01*
Y-189055D01*
X320704Y-189167D01*
Y-189315D01*
X320741Y-189481D01*
X320760Y-189666D01*
X320797Y-189852D01*
X320908Y-190296D01*
X321074Y-190777D01*
X321186Y-191037D01*
X321297Y-191277D01*
X321445Y-191518D01*
X321612Y-191759D01*
X321630Y-191777D01*
X321667Y-191833D01*
X321741Y-191907D01*
X321834Y-192018D01*
X321963Y-192148D01*
X322130Y-192296D01*
X322315Y-192444D01*
X322519Y-192592D01*
X322760Y-192759D01*
X323019Y-192907D01*
X323297Y-193055D01*
X323611Y-193185D01*
X323945Y-193296D01*
X324296Y-193370D01*
X324685Y-193425D01*
X325093Y-193444D01*
X325259D01*
X325389Y-193425D01*
X325537Y-193407D01*
X325722Y-193388D01*
X325907Y-193370D01*
X326130Y-193333D01*
X326574Y-193222D01*
X327074Y-193036D01*
X327315Y-192944D01*
X327555Y-192814D01*
X327778Y-192666D01*
X328000Y-192500D01*
X328018Y-192481D01*
X328055Y-192462D01*
X328111Y-192407D01*
X328185Y-192333D01*
X328259Y-192222D01*
X328370Y-192111D01*
X328463Y-191981D01*
X328574Y-191833D01*
X328703Y-191648D01*
X328815Y-191462D01*
X329018Y-191018D01*
X329203Y-190518D01*
X329259Y-190240D01*
X329314Y-189944D01*
X326870Y-189685D01*
Y-189722D01*
X326852Y-189815D01*
X326815Y-189981D01*
X326759Y-190166D01*
X326685Y-190370D01*
X326574Y-190592D01*
X326426Y-190796D01*
X326259Y-191000D01*
X326241Y-191018D01*
X326167Y-191074D01*
X326055Y-191148D01*
X325907Y-191240D01*
X325741Y-191333D01*
X325537Y-191407D01*
X325296Y-191462D01*
X325056Y-191481D01*
X325019D01*
X324926Y-191462D01*
X324778Y-191444D01*
X324593Y-191407D01*
X324389Y-191333D01*
X324167Y-191222D01*
X323945Y-191055D01*
X323741Y-190851D01*
X323722Y-190814D01*
X323648Y-190740D01*
X323574Y-190592D01*
X323463Y-190370D01*
X323371Y-190111D01*
X323278Y-189796D01*
X323223Y-189407D01*
X323204Y-188963D01*
Y-188944D01*
Y-188907D01*
Y-188852D01*
Y-188759D01*
X323223Y-188555D01*
X323278Y-188296D01*
X323334Y-188000D01*
X323426Y-187704D01*
X323556Y-187426D01*
X323741Y-187185D01*
X323759Y-187167D01*
X323834Y-187093D01*
X323963Y-187000D01*
X324111Y-186870D01*
X324315Y-186759D01*
X324556Y-186667D01*
X324833Y-186593D01*
X325130Y-186574D01*
X325241D01*
X325315Y-186593D01*
X325500Y-186630D01*
X325759Y-186685D01*
X326055Y-186796D01*
X326370Y-186963D01*
X326537Y-187074D01*
X326704Y-187204D01*
X326870Y-187352D01*
X327037Y-187519D01*
X329018Y-187241D01*
X327759Y-180556D01*
X329314D01*
D01*
D02*
G37*
%LPD*%
G36*
X321260Y-182852D02*
X325907D01*
X326296Y-185037D01*
X326278D01*
X326259Y-185019D01*
X326148Y-184963D01*
X325981Y-184908D01*
X325778Y-184815D01*
X325518Y-184741D01*
X325241Y-184685D01*
X324926Y-184630D01*
X324611Y-184611D01*
X324445D01*
X324333Y-184630D01*
X324204Y-184648D01*
X324037Y-184667D01*
X323852Y-184704D01*
X323648Y-184760D01*
X323223Y-184908D01*
X322982Y-185000D01*
X322760Y-185111D01*
X322519Y-185259D01*
X322278Y-185426D01*
X322056Y-185611D01*
X321834Y-185815D01*
X321815Y-185833D01*
X321778Y-185870D01*
X321723Y-185945D01*
X321649Y-186037D01*
X321575Y-186148D01*
X321463Y-186296D01*
X321371Y-186463D01*
X321260Y-186648D01*
X321149Y-186852D01*
X321056Y-187093D01*
X320945Y-187352D01*
X320871Y-187611D01*
X320797Y-187907D01*
X320741Y-188222D01*
X320704Y-188555D01*
X320686Y-188907D01*
Y-180556D01*
X321260D01*
Y-182852D01*
D02*
G37*
%LPC*%
G36*
X429203Y-180677D02*
X420797D01*
Y-182454D01*
X420815Y-182473D01*
X420852Y-182510D01*
X420908Y-182565D01*
X420982Y-182639D01*
X421074Y-182750D01*
X421186Y-182880D01*
X421315Y-183028D01*
X421463Y-183213D01*
X421612Y-183417D01*
X421778Y-183639D01*
X421963Y-183880D01*
X422149Y-184139D01*
X422334Y-184436D01*
X422519Y-184732D01*
X422723Y-185065D01*
X422926Y-185417D01*
X422945Y-185435D01*
X422982Y-185509D01*
X423037Y-185602D01*
X423111Y-185750D01*
X423185Y-185917D01*
X423297Y-186139D01*
X423408Y-186380D01*
X423537Y-186639D01*
X423667Y-186935D01*
X423797Y-187250D01*
X423945Y-187583D01*
X424074Y-187935D01*
X424333Y-188694D01*
X424574Y-189491D01*
Y-189509D01*
X424593Y-189583D01*
X424630Y-189694D01*
X424667Y-189861D01*
X424704Y-190046D01*
X424741Y-190250D01*
X424796Y-190509D01*
X424852Y-190768D01*
X424907Y-191064D01*
X424944Y-191361D01*
X425037Y-192009D01*
X425093Y-192675D01*
X425111Y-193323D01*
X420797D01*
X427481D01*
Y-193286D01*
Y-193212D01*
X427463Y-193064D01*
Y-192861D01*
X427444Y-192620D01*
X427407Y-192342D01*
X427370Y-192009D01*
X427315Y-191657D01*
X427259Y-191268D01*
X427185Y-190842D01*
X427092Y-190398D01*
X427000Y-189916D01*
X426870Y-189435D01*
X426741Y-188935D01*
X426574Y-188435D01*
X426389Y-187917D01*
X426370Y-187880D01*
X426333Y-187787D01*
X426278Y-187639D01*
X426204Y-187454D01*
X426092Y-187213D01*
X425963Y-186917D01*
X425815Y-186602D01*
X425648Y-186250D01*
X425463Y-185880D01*
X425259Y-185491D01*
X425037Y-185065D01*
X424778Y-184658D01*
X424241Y-183787D01*
X423630Y-182954D01*
X429203D01*
Y-193323D01*
D01*
D01*
Y-180677D01*
D02*
G37*
G36*
X375130Y-306436D02*
X370741D01*
X374963D01*
X374833Y-306454D01*
X374667Y-306473D01*
X374500Y-306491D01*
X374296Y-306528D01*
X374093Y-306584D01*
X373630Y-306714D01*
X373389Y-306806D01*
X373130Y-306936D01*
X372889Y-307065D01*
X372667Y-307214D01*
X372426Y-307399D01*
X372223Y-307602D01*
X372204Y-307621D01*
X372186Y-307639D01*
X372130Y-307695D01*
X372074Y-307769D01*
X371926Y-307954D01*
X371760Y-308214D01*
X371593Y-308528D01*
X371463Y-308899D01*
X371352Y-309306D01*
X371334Y-309510D01*
X371315Y-309732D01*
Y-309750D01*
Y-309806D01*
X371334Y-309898D01*
X371352Y-310010D01*
X371371Y-310158D01*
X371408Y-310324D01*
X371463Y-310509D01*
X371537Y-310713D01*
X371648Y-310917D01*
X371760Y-311139D01*
X371908Y-311361D01*
X372093Y-311583D01*
X372315Y-311806D01*
X372556Y-312028D01*
X372834Y-312232D01*
X373167Y-312435D01*
X373148D01*
X373111Y-312454D01*
X373056D01*
X372982Y-312491D01*
X372778Y-312546D01*
X372537Y-312657D01*
X372260Y-312806D01*
X371963Y-312991D01*
X371667Y-313232D01*
X371408Y-313509D01*
X371371Y-313546D01*
X371297Y-313657D01*
X371204Y-313824D01*
X371074Y-314065D01*
X370945Y-314342D01*
X370852Y-314694D01*
X370778Y-315065D01*
X370741Y-315490D01*
Y-315657D01*
X370760Y-315768D01*
X370778Y-315916D01*
X370815Y-316083D01*
X370852Y-316287D01*
X370889Y-316490D01*
X371037Y-316935D01*
X371149Y-317176D01*
X371260Y-317435D01*
X371408Y-317675D01*
X371574Y-317916D01*
X371760Y-318157D01*
X371982Y-318379D01*
X372000Y-318398D01*
X372037Y-318435D01*
X372111Y-318490D01*
X372204Y-318564D01*
X372334Y-318657D01*
X372463Y-318749D01*
X372648Y-318860D01*
X372834Y-318972D01*
X373037Y-319083D01*
X373278Y-319194D01*
X373537Y-319286D01*
X373796Y-319379D01*
X374093Y-319453D01*
X374389Y-319509D01*
X374722Y-319546D01*
X375056Y-319564D01*
X370741D01*
X375222D01*
X375352Y-319546D01*
X375500Y-319527D01*
X375667Y-319509D01*
X375852Y-319471D01*
X376074Y-319435D01*
X376518Y-319323D01*
X377000Y-319138D01*
X377259Y-319027D01*
X377481Y-318897D01*
X377722Y-318731D01*
X377944Y-318564D01*
X377963Y-318546D01*
X378000Y-318509D01*
X378055Y-318453D01*
X378129Y-318379D01*
X378222Y-318286D01*
X378315Y-318157D01*
X378426Y-318027D01*
X378537Y-317861D01*
X378648Y-317675D01*
X378777Y-317490D01*
X378981Y-317046D01*
X379148Y-316527D01*
X379222Y-316250D01*
X379259Y-315953D01*
X376889Y-315657D01*
Y-315676D01*
Y-315694D01*
X376870Y-315805D01*
X376833Y-315972D01*
X376778Y-316176D01*
X376685Y-316398D01*
X376592Y-316639D01*
X376444Y-316861D01*
X376278Y-317064D01*
X376259Y-317083D01*
X376185Y-317139D01*
X376074Y-317213D01*
X375944Y-317287D01*
X375759Y-317379D01*
X375555Y-317453D01*
X375333Y-317509D01*
X375074Y-317527D01*
X375037D01*
X374944Y-317509D01*
X374815Y-317490D01*
X374630Y-317453D01*
X374426Y-317379D01*
X374222Y-317287D01*
X374000Y-317139D01*
X373796Y-316953D01*
X373778Y-316935D01*
X373704Y-316842D01*
X373630Y-316713D01*
X373519Y-316546D01*
X373426Y-316324D01*
X373334Y-316046D01*
X373278Y-315731D01*
X373260Y-315379D01*
Y-315361D01*
Y-315342D01*
Y-315231D01*
X373278Y-315065D01*
X373315Y-314842D01*
X373389Y-314602D01*
X373482Y-314361D01*
X373611Y-314120D01*
X373778Y-313898D01*
X373796Y-313880D01*
X373871Y-313806D01*
X373982Y-313713D01*
X374111Y-313620D01*
X374296Y-313509D01*
X374500Y-313435D01*
X374722Y-313361D01*
X374981Y-313343D01*
X375167D01*
X375296Y-313361D01*
X375463Y-313380D01*
X375667Y-313417D01*
X375870Y-313472D01*
X376111Y-313528D01*
X375852Y-311546D01*
X375685D01*
X375500Y-311528D01*
X375278Y-311509D01*
X375037Y-311454D01*
X374778Y-311380D01*
X374537Y-311269D01*
X374315Y-311121D01*
X374296Y-311102D01*
X374222Y-311028D01*
X374148Y-310935D01*
X374037Y-310787D01*
X373945Y-310621D01*
X373852Y-310417D01*
X373796Y-310176D01*
X373778Y-309898D01*
Y-309861D01*
Y-309787D01*
X373796Y-309676D01*
X373834Y-309528D01*
X373871Y-309361D01*
X373945Y-309195D01*
X374037Y-309010D01*
X374167Y-308862D01*
X374185Y-308843D01*
X374241Y-308806D01*
X374315Y-308732D01*
X374445Y-308658D01*
X374593Y-308602D01*
X374759Y-308528D01*
X374981Y-308491D01*
X375204Y-308473D01*
X375315D01*
X375426Y-308491D01*
X375574Y-308528D01*
X375741Y-308584D01*
X375926Y-308658D01*
X376111Y-308769D01*
X376278Y-308917D01*
X376296Y-308936D01*
X376352Y-308991D01*
X376426Y-309102D01*
X376518Y-309250D01*
X376611Y-309417D01*
X376685Y-309639D01*
X376759Y-309898D01*
X376815Y-310195D01*
X379074Y-309824D01*
Y-309806D01*
X379055Y-309769D01*
Y-309713D01*
X379037Y-309621D01*
X378981Y-309417D01*
X378907Y-309139D01*
X378796Y-308843D01*
X378685Y-308528D01*
X378537Y-308232D01*
X378370Y-307954D01*
X378352Y-307917D01*
X378278Y-307843D01*
X378166Y-307714D01*
X378018Y-307547D01*
X377833Y-307380D01*
X377611Y-307195D01*
X377333Y-307010D01*
X377037Y-306843D01*
X377018D01*
X377000Y-306825D01*
X376889Y-306788D01*
X376703Y-306714D01*
X376481Y-306639D01*
X376204Y-306565D01*
X375870Y-306491D01*
X375518Y-306454D01*
X375130Y-306436D01*
D02*
G37*
G36*
X474185Y-306556D02*
X472186D01*
Y-319444D01*
X474648D01*
Y-310167D01*
X474667Y-310186D01*
X474704Y-310222D01*
X474778Y-310278D01*
X474889Y-310371D01*
X475019Y-310482D01*
X475167Y-310593D01*
X475352Y-310723D01*
X475556Y-310871D01*
X475778Y-311019D01*
X476018Y-311167D01*
X476278Y-311334D01*
X476555Y-311482D01*
X477148Y-311759D01*
X477815Y-312019D01*
Y-309797D01*
X477796D01*
X477778Y-309778D01*
X477722Y-309760D01*
X477648Y-309741D01*
X477463Y-309648D01*
X477204Y-309537D01*
X476889Y-309389D01*
X476537Y-309186D01*
X476148Y-308926D01*
X475741Y-308630D01*
X475722Y-308612D01*
X475685Y-308593D01*
X475630Y-308538D01*
X475556Y-308463D01*
X475352Y-308278D01*
X475130Y-308038D01*
X474870Y-307741D01*
X474611Y-307371D01*
X474370Y-306982D01*
X474185Y-306556D01*
D02*
G37*
G36*
X46015Y-480201D02*
X37985D01*
X42187D01*
X42076Y-480215D01*
X41813Y-480229D01*
X41522Y-480243D01*
X41217Y-480285D01*
X40925Y-480326D01*
X40662Y-480396D01*
X40648D01*
X40620Y-480410D01*
X40579Y-480423D01*
X40523Y-480437D01*
X40357Y-480507D01*
X40163Y-480604D01*
X39941Y-480728D01*
X39691Y-480881D01*
X39455Y-481061D01*
X39220Y-481283D01*
X39206D01*
X39192Y-481311D01*
X39122Y-481394D01*
X39011Y-481533D01*
X38887Y-481713D01*
X38734Y-481935D01*
X38582Y-482199D01*
X38429Y-482504D01*
X38304Y-482836D01*
Y-482850D01*
X38290Y-482878D01*
X38276Y-482934D01*
X38249Y-483003D01*
X38235Y-483086D01*
X38207Y-483197D01*
X38179Y-483322D01*
X38138Y-483461D01*
X38110Y-483613D01*
X38082Y-483793D01*
X38054Y-483974D01*
X38041Y-484182D01*
X37999Y-484612D01*
X37985Y-485097D01*
Y-485291D01*
X37999Y-485402D01*
Y-485513D01*
X38013Y-485652D01*
X38027Y-485804D01*
X38054Y-486123D01*
X38110Y-486456D01*
X38193Y-486803D01*
X38290Y-487136D01*
Y-487150D01*
X38304Y-487177D01*
X38332Y-487233D01*
X38360Y-487316D01*
X38387Y-487399D01*
X38443Y-487496D01*
X38554Y-487746D01*
X38693Y-488009D01*
X38873Y-488301D01*
X39081Y-488578D01*
X39316Y-488842D01*
X39344Y-488869D01*
X39414Y-488925D01*
X39525Y-489008D01*
X39677Y-489119D01*
X39871Y-489244D01*
X40093Y-489369D01*
X40370Y-489493D01*
X40676Y-489604D01*
X40690D01*
X40703Y-489618D01*
X40745D01*
X40787Y-489632D01*
X40939Y-489660D01*
X41133Y-489701D01*
X41369Y-489743D01*
X41660Y-489771D01*
X42007Y-489785D01*
X42381Y-489798D01*
X46015D01*
Y-480201D01*
D02*
G37*
%LPD*%
G36*
X44073Y-488176D02*
X42368D01*
X42187Y-488162D01*
X41993D01*
X41799Y-488134D01*
X41619Y-488120D01*
X41466Y-488093D01*
X41438D01*
X41383Y-488065D01*
X41300Y-488037D01*
X41189Y-487995D01*
X41064Y-487940D01*
X40939Y-487871D01*
X40814Y-487788D01*
X40690Y-487690D01*
X40676Y-487677D01*
X40634Y-487635D01*
X40579Y-487566D01*
X40509Y-487468D01*
X40440Y-487344D01*
X40343Y-487191D01*
X40273Y-486997D01*
X40190Y-486775D01*
Y-486761D01*
X40176Y-486747D01*
Y-486706D01*
X40163Y-486650D01*
X40135Y-486595D01*
X40121Y-486512D01*
X40079Y-486304D01*
X40052Y-486054D01*
X40010Y-485763D01*
X39996Y-485402D01*
X39982Y-485014D01*
Y-485000D01*
Y-484958D01*
Y-484903D01*
Y-484833D01*
Y-484737D01*
X39996Y-484626D01*
X40010Y-484390D01*
X40038Y-484112D01*
X40065Y-483821D01*
X40121Y-483558D01*
X40190Y-483308D01*
Y-483294D01*
X40204Y-483280D01*
X40232Y-483211D01*
X40273Y-483100D01*
X40329Y-482961D01*
X40412Y-482823D01*
X40509Y-482670D01*
X40620Y-482518D01*
X40745Y-482379D01*
X40759Y-482365D01*
X40800Y-482323D01*
X40884Y-482268D01*
X40981Y-482199D01*
X41119Y-482115D01*
X41272Y-482046D01*
X41438Y-481977D01*
X41633Y-481921D01*
X41646D01*
X41716Y-481907D01*
X41827Y-481893D01*
X41979Y-481866D01*
X42076D01*
X42201Y-481852D01*
X42326D01*
X42465Y-481838D01*
X42631D01*
X42811Y-481824D01*
X44073D01*
Y-488176D01*
D02*
G37*
%LPC*%
G36*
X702081Y-11799D02*
X700309D01*
X700131Y-11809D01*
X699841D01*
X699728Y-11818D01*
X699541D01*
X699475Y-11827D01*
X699381D01*
X699353Y-11837D01*
X699316D01*
X699147Y-11865D01*
X698997Y-11912D01*
X698866Y-11968D01*
X698763Y-12024D01*
X698688Y-12080D01*
X698632Y-12127D01*
X698594Y-12165D01*
X698585Y-12174D01*
X698500Y-12287D01*
X698435Y-12408D01*
X698397Y-12530D01*
X698360Y-12643D01*
X698341Y-12746D01*
X698332Y-12821D01*
Y-12877D01*
Y-12887D01*
Y-12896D01*
X698341Y-13065D01*
X698379Y-13214D01*
X698426Y-13346D01*
X698472Y-13449D01*
X698529Y-13542D01*
X698575Y-13599D01*
X698613Y-13646D01*
X698622Y-13655D01*
X698735Y-13749D01*
X698866Y-13824D01*
X698988Y-13889D01*
X699119Y-13927D01*
X699231Y-13955D01*
X699316Y-13983D01*
X699353D01*
X699381Y-13992D01*
X699466D01*
X699541Y-14002D01*
X699634D01*
X699738Y-14011D01*
X699972D01*
X700216Y-14021D01*
X702081D01*
Y-11799D01*
D02*
G37*
G36*
Y-15623D02*
X700281D01*
X700066Y-15633D01*
X699869D01*
X699691Y-15642D01*
X699531Y-15651D01*
X699391Y-15670D01*
X699269Y-15680D01*
X699166Y-15689D01*
X699072Y-15708D01*
X698997Y-15717D01*
X698932Y-15726D01*
X698885Y-15745D01*
X698847Y-15754D01*
X698819D01*
X698800Y-15764D01*
X698660Y-15820D01*
X698538Y-15895D01*
X698435Y-15961D01*
X698341Y-16036D01*
X698276Y-16101D01*
X698229Y-16157D01*
X698201Y-16195D01*
X698191Y-16204D01*
X698116Y-16326D01*
X698069Y-16448D01*
X698032Y-16570D01*
X698004Y-16682D01*
X697985Y-16786D01*
X697976Y-16860D01*
Y-16917D01*
Y-16926D01*
Y-16935D01*
X697985Y-17113D01*
X698022Y-17273D01*
X698060Y-17413D01*
X698116Y-17535D01*
X698163Y-17629D01*
X698210Y-17695D01*
X698247Y-17732D01*
X698257Y-17751D01*
X698369Y-17854D01*
X698482Y-17938D01*
X698594Y-18004D01*
X698707Y-18051D01*
X698810Y-18088D01*
X698885Y-18107D01*
X698941Y-18126D01*
X698960D01*
X699025Y-18135D01*
X699100Y-18145D01*
X699185Y-18154D01*
X699288D01*
X699503Y-18173D01*
X699728D01*
X699944Y-18182D01*
X702081D01*
Y-15623D01*
D02*
G37*
G36*
X42081Y-11799D02*
X40309D01*
X40131Y-11809D01*
X39841D01*
X39728Y-11818D01*
X39541D01*
X39475Y-11827D01*
X39381D01*
X39353Y-11837D01*
X39316D01*
X39147Y-11865D01*
X38997Y-11912D01*
X38866Y-11968D01*
X38763Y-12024D01*
X38688Y-12080D01*
X38632Y-12127D01*
X38594Y-12165D01*
X38585Y-12174D01*
X38500Y-12287D01*
X38435Y-12408D01*
X38397Y-12530D01*
X38360Y-12643D01*
X38341Y-12746D01*
X38332Y-12821D01*
Y-12877D01*
Y-12887D01*
Y-12896D01*
X38341Y-13065D01*
X38379Y-13214D01*
X38425Y-13346D01*
X38472Y-13449D01*
X38528Y-13542D01*
X38575Y-13599D01*
X38613Y-13646D01*
X38622Y-13655D01*
X38735Y-13749D01*
X38866Y-13824D01*
X38988Y-13889D01*
X39119Y-13927D01*
X39232Y-13955D01*
X39316Y-13983D01*
X39353D01*
X39381Y-13992D01*
X39466D01*
X39541Y-14002D01*
X39634D01*
X39738Y-14011D01*
X39972D01*
X40216Y-14021D01*
X42081D01*
Y-11799D01*
D02*
G37*
G36*
Y-15623D02*
X40281D01*
X40066Y-15633D01*
X39869D01*
X39691Y-15642D01*
X39531Y-15651D01*
X39391Y-15670D01*
X39269Y-15680D01*
X39166Y-15689D01*
X39072Y-15708D01*
X38997Y-15717D01*
X38932Y-15726D01*
X38885Y-15745D01*
X38847Y-15754D01*
X38819D01*
X38800Y-15764D01*
X38660Y-15820D01*
X38538Y-15895D01*
X38435Y-15961D01*
X38341Y-16036D01*
X38275Y-16101D01*
X38229Y-16157D01*
X38201Y-16195D01*
X38191Y-16204D01*
X38116Y-16326D01*
X38069Y-16448D01*
X38032Y-16570D01*
X38004Y-16682D01*
X37985Y-16786D01*
X37975Y-16860D01*
Y-16917D01*
Y-16926D01*
Y-16935D01*
X37985Y-17113D01*
X38022Y-17273D01*
X38060Y-17413D01*
X38116Y-17535D01*
X38163Y-17629D01*
X38210Y-17695D01*
X38247Y-17732D01*
X38257Y-17751D01*
X38369Y-17854D01*
X38482Y-17938D01*
X38594Y-18004D01*
X38707Y-18051D01*
X38810Y-18088D01*
X38885Y-18107D01*
X38941Y-18126D01*
X38960D01*
X39025Y-18135D01*
X39100Y-18145D01*
X39185Y-18154D01*
X39288D01*
X39503Y-18173D01*
X39728D01*
X39944Y-18182D01*
X42081D01*
Y-15623D01*
D02*
G37*
G36*
X552081Y-11799D02*
X550309D01*
X550131Y-11809D01*
X549841D01*
X549728Y-11818D01*
X549541D01*
X549475Y-11827D01*
X549381D01*
X549353Y-11837D01*
X549316D01*
X549147Y-11865D01*
X548997Y-11912D01*
X548866Y-11968D01*
X548763Y-12024D01*
X548688Y-12080D01*
X548632Y-12127D01*
X548594Y-12165D01*
X548585Y-12174D01*
X548500Y-12287D01*
X548435Y-12408D01*
X548397Y-12530D01*
X548360Y-12643D01*
X548341Y-12746D01*
X548332Y-12821D01*
Y-12877D01*
Y-12887D01*
Y-12896D01*
X548341Y-13065D01*
X548379Y-13214D01*
X548425Y-13346D01*
X548472Y-13449D01*
X548529Y-13542D01*
X548575Y-13599D01*
X548613Y-13646D01*
X548622Y-13655D01*
X548735Y-13749D01*
X548866Y-13824D01*
X548988Y-13889D01*
X549119Y-13927D01*
X549231Y-13955D01*
X549316Y-13983D01*
X549353D01*
X549381Y-13992D01*
X549466D01*
X549541Y-14002D01*
X549635D01*
X549738Y-14011D01*
X549972D01*
X550216Y-14021D01*
X552081D01*
Y-11799D01*
D02*
G37*
G36*
Y-15623D02*
X550281D01*
X550066Y-15633D01*
X549869D01*
X549691Y-15642D01*
X549531Y-15651D01*
X549391Y-15670D01*
X549269Y-15680D01*
X549166Y-15689D01*
X549072Y-15708D01*
X548997Y-15717D01*
X548932Y-15726D01*
X548885Y-15745D01*
X548847Y-15754D01*
X548819D01*
X548800Y-15764D01*
X548660Y-15820D01*
X548538Y-15895D01*
X548435Y-15961D01*
X548341Y-16036D01*
X548275Y-16101D01*
X548229Y-16157D01*
X548200Y-16195D01*
X548191Y-16204D01*
X548116Y-16326D01*
X548069Y-16448D01*
X548032Y-16570D01*
X548004Y-16682D01*
X547985Y-16786D01*
X547976Y-16860D01*
Y-16917D01*
Y-16926D01*
Y-16935D01*
X547985Y-17113D01*
X548022Y-17273D01*
X548060Y-17413D01*
X548116Y-17535D01*
X548163Y-17629D01*
X548210Y-17695D01*
X548247Y-17732D01*
X548257Y-17751D01*
X548369Y-17854D01*
X548482Y-17938D01*
X548594Y-18004D01*
X548707Y-18051D01*
X548810Y-18088D01*
X548885Y-18107D01*
X548941Y-18126D01*
X548960D01*
X549025Y-18135D01*
X549100Y-18145D01*
X549185Y-18154D01*
X549288D01*
X549503Y-18173D01*
X549728D01*
X549944Y-18182D01*
X552081D01*
Y-15623D01*
D02*
G37*
G36*
X475148Y-182380D02*
X475037D01*
X474796Y-182399D01*
X474574Y-182454D01*
X474389Y-182510D01*
X474222Y-182584D01*
X474093Y-182676D01*
X474000Y-182732D01*
X473945Y-182787D01*
X473926Y-182806D01*
X473778Y-182973D01*
X473685Y-183158D01*
X473611Y-183343D01*
X473556Y-183528D01*
X473519Y-183676D01*
X473500Y-183806D01*
Y-183880D01*
Y-183917D01*
X473519Y-184176D01*
X473574Y-184417D01*
X473630Y-184602D01*
X473704Y-184769D01*
X473797Y-184917D01*
X473852Y-185009D01*
X473908Y-185065D01*
X473926Y-185084D01*
X474093Y-185213D01*
X474278Y-185324D01*
X474463Y-185398D01*
X474648Y-185435D01*
X474815Y-185472D01*
X474944Y-185491D01*
X475056D01*
X475296Y-185472D01*
X475518Y-185435D01*
X475704Y-185361D01*
X475870Y-185287D01*
X476000Y-185213D01*
X476092Y-185139D01*
X476148Y-185102D01*
X476167Y-185084D01*
X476296Y-184917D01*
X476407Y-184732D01*
X476481Y-184547D01*
X476518Y-184361D01*
X476555Y-184195D01*
X476574Y-184065D01*
Y-183973D01*
Y-183936D01*
X476555Y-183676D01*
X476518Y-183454D01*
X476444Y-183269D01*
X476370Y-183102D01*
X476296Y-182973D01*
X476222Y-182880D01*
X476185Y-182824D01*
X476167Y-182806D01*
X476000Y-182658D01*
X475815Y-182565D01*
X475630Y-182491D01*
X475444Y-182436D01*
X475278Y-182399D01*
X475148Y-182380D01*
D02*
G37*
G36*
X475167Y-187435D02*
X475019D01*
X474741Y-187454D01*
X474482Y-187528D01*
X474259Y-187602D01*
X474074Y-187713D01*
X473926Y-187806D01*
X473815Y-187898D01*
X473741Y-187972D01*
X473722Y-187991D01*
X473556Y-188213D01*
X473426Y-188454D01*
X473334Y-188694D01*
X473260Y-188935D01*
X473222Y-189139D01*
X473204Y-189305D01*
Y-189416D01*
Y-189435D01*
Y-189454D01*
X473222Y-189824D01*
X473278Y-190139D01*
X473371Y-190416D01*
X473463Y-190639D01*
X473556Y-190824D01*
X473648Y-190935D01*
X473704Y-191027D01*
X473722Y-191046D01*
X473926Y-191231D01*
X474130Y-191361D01*
X474333Y-191453D01*
X474537Y-191509D01*
X474722Y-191546D01*
X474852Y-191583D01*
X474981D01*
X475259Y-191564D01*
X475518Y-191490D01*
X475741Y-191398D01*
X475926Y-191305D01*
X476074Y-191194D01*
X476185Y-191120D01*
X476259Y-191046D01*
X476278Y-191027D01*
X476444Y-190787D01*
X476574Y-190527D01*
X476666Y-190268D01*
X476722Y-190009D01*
X476759Y-189768D01*
X476796Y-189583D01*
Y-189509D01*
Y-189454D01*
Y-189435D01*
Y-189416D01*
X476778Y-189157D01*
X476722Y-188898D01*
X476666Y-188676D01*
X476574Y-188472D01*
X476500Y-188305D01*
X476444Y-188176D01*
X476389Y-188102D01*
X476370Y-188065D01*
X476185Y-187861D01*
X475963Y-187694D01*
X475741Y-187583D01*
X475518Y-187509D01*
X475333Y-187472D01*
X475167Y-187435D01*
D02*
G37*
G36*
X202081Y-11799D02*
X200309D01*
X200131Y-11809D01*
X199841D01*
X199728Y-11818D01*
X199541D01*
X199475Y-11827D01*
X199381D01*
X199353Y-11837D01*
X199316D01*
X199147Y-11865D01*
X198997Y-11912D01*
X198866Y-11968D01*
X198763Y-12024D01*
X198688Y-12080D01*
X198632Y-12127D01*
X198594Y-12165D01*
X198585Y-12174D01*
X198500Y-12287D01*
X198435Y-12408D01*
X198397Y-12530D01*
X198360Y-12643D01*
X198341Y-12746D01*
X198332Y-12821D01*
Y-12877D01*
Y-12887D01*
Y-12896D01*
X198341Y-13065D01*
X198379Y-13214D01*
X198425Y-13346D01*
X198472Y-13449D01*
X198528Y-13542D01*
X198575Y-13599D01*
X198613Y-13646D01*
X198622Y-13655D01*
X198735Y-13749D01*
X198866Y-13824D01*
X198988Y-13889D01*
X199119Y-13927D01*
X199231Y-13955D01*
X199316Y-13983D01*
X199353D01*
X199381Y-13992D01*
X199466D01*
X199541Y-14002D01*
X199634D01*
X199738Y-14011D01*
X199972D01*
X200216Y-14021D01*
X202081D01*
Y-11799D01*
D02*
G37*
G36*
Y-15623D02*
X200281D01*
X200066Y-15633D01*
X199869D01*
X199691Y-15642D01*
X199531Y-15651D01*
X199391Y-15670D01*
X199269Y-15680D01*
X199166Y-15689D01*
X199072Y-15708D01*
X198997Y-15717D01*
X198932Y-15726D01*
X198885Y-15745D01*
X198847Y-15754D01*
X198819D01*
X198800Y-15764D01*
X198660Y-15820D01*
X198538Y-15895D01*
X198435Y-15961D01*
X198341Y-16036D01*
X198275Y-16101D01*
X198229Y-16157D01*
X198200Y-16195D01*
X198191Y-16204D01*
X198116Y-16326D01*
X198069Y-16448D01*
X198032Y-16570D01*
X198004Y-16682D01*
X197985Y-16786D01*
X197976Y-16860D01*
Y-16917D01*
Y-16926D01*
Y-16935D01*
X197985Y-17113D01*
X198022Y-17273D01*
X198060Y-17413D01*
X198116Y-17535D01*
X198163Y-17629D01*
X198210Y-17695D01*
X198247Y-17732D01*
X198257Y-17751D01*
X198369Y-17854D01*
X198482Y-17938D01*
X198594Y-18004D01*
X198707Y-18051D01*
X198810Y-18088D01*
X198885Y-18107D01*
X198941Y-18126D01*
X198960D01*
X199025Y-18135D01*
X199100Y-18145D01*
X199185Y-18154D01*
X199288D01*
X199503Y-18173D01*
X199728D01*
X199944Y-18182D01*
X202081D01*
Y-15623D01*
D02*
G37*
G36*
X324352Y-310306D02*
Y-314713D01*
X327333D01*
X324352Y-310306D01*
D02*
G37*
G36*
X204015Y-480201D02*
X200187D01*
X200076Y-480215D01*
X199813Y-480229D01*
X199522Y-480243D01*
X199216Y-480285D01*
X198925Y-480326D01*
X198662Y-480396D01*
X198648D01*
X198620Y-480410D01*
X198578Y-480423D01*
X198523Y-480437D01*
X198357Y-480507D01*
X198162Y-480604D01*
X197941Y-480728D01*
X197691Y-480881D01*
X197455Y-481061D01*
X197219Y-481283D01*
X197206D01*
X197192Y-481311D01*
X197122Y-481394D01*
X197011Y-481533D01*
X196887Y-481713D01*
X196734Y-481935D01*
X196581Y-482199D01*
X196429Y-482504D01*
X196304Y-482836D01*
Y-482850D01*
X196290Y-482878D01*
X196276Y-482934D01*
X196249Y-483003D01*
X196235Y-483086D01*
X196207Y-483197D01*
X196179Y-483322D01*
X196138Y-483461D01*
X196110Y-483613D01*
X196082Y-483793D01*
X196054Y-483974D01*
X196041Y-484182D01*
X195999Y-484612D01*
X195985Y-485097D01*
Y-484612D01*
Y-485097D01*
Y-485291D01*
X195999Y-485402D01*
Y-485513D01*
X196013Y-485652D01*
X196027Y-485804D01*
X196054Y-486123D01*
X196110Y-486456D01*
X196193Y-486803D01*
X196290Y-487136D01*
Y-487150D01*
X196304Y-487177D01*
X196332Y-487233D01*
X196360Y-487316D01*
X196387Y-487399D01*
X196443Y-487496D01*
X196554Y-487746D01*
X196692Y-488009D01*
X196873Y-488301D01*
X197081Y-488578D01*
X197316Y-488842D01*
X197344Y-488869D01*
X197414Y-488925D01*
X197525Y-489008D01*
X197677Y-489119D01*
X197871Y-489244D01*
X198093Y-489369D01*
X198370Y-489493D01*
X198676Y-489604D01*
X198689D01*
X198703Y-489618D01*
X198745D01*
X198787Y-489632D01*
X198939Y-489660D01*
X199133Y-489701D01*
X199369Y-489743D01*
X199660Y-489771D01*
X200007Y-489785D01*
X200381Y-489798D01*
X195985D01*
D01*
X204015D01*
Y-480201D01*
D02*
G37*
%LPD*%
G36*
X202073Y-488176D02*
X200368D01*
X200187Y-488162D01*
X199993D01*
X199799Y-488134D01*
X199619Y-488120D01*
X199466Y-488093D01*
X199438D01*
X199383Y-488065D01*
X199300Y-488037D01*
X199189Y-487995D01*
X199064Y-487940D01*
X198939Y-487871D01*
X198814Y-487788D01*
X198689Y-487690D01*
X198676Y-487677D01*
X198634Y-487635D01*
X198578Y-487566D01*
X198509Y-487468D01*
X198440Y-487344D01*
X198343Y-487191D01*
X198273Y-486997D01*
X198190Y-486775D01*
Y-486761D01*
X198176Y-486747D01*
Y-486706D01*
X198162Y-486650D01*
X198135Y-486595D01*
X198121Y-486512D01*
X198079Y-486304D01*
X198051Y-486054D01*
X198010Y-485763D01*
X197996Y-485402D01*
X197982Y-485014D01*
Y-485000D01*
Y-484958D01*
Y-484903D01*
Y-484833D01*
Y-484737D01*
X197996Y-484626D01*
X198010Y-484390D01*
X198038Y-484112D01*
X198065Y-483821D01*
X198121Y-483558D01*
X198190Y-483308D01*
Y-483294D01*
X198204Y-483280D01*
X198232Y-483211D01*
X198273Y-483100D01*
X198329Y-482961D01*
X198412Y-482823D01*
X198509Y-482670D01*
X198620Y-482518D01*
X198745Y-482379D01*
X198759Y-482365D01*
X198800Y-482323D01*
X198884Y-482268D01*
X198981Y-482199D01*
X199119Y-482115D01*
X199272Y-482046D01*
X199438Y-481977D01*
X199632Y-481921D01*
X199646D01*
X199716Y-481907D01*
X199827Y-481893D01*
X199979Y-481866D01*
X200076D01*
X200201Y-481852D01*
X200326D01*
X200465Y-481838D01*
X200631D01*
X200811Y-481824D01*
X202073D01*
Y-488176D01*
D02*
G37*
%LPC*%
G36*
X374954Y-186806D02*
X374843D01*
X374583Y-186824D01*
X374343Y-186898D01*
X374139Y-186991D01*
X373954Y-187102D01*
X373806Y-187213D01*
X373713Y-187306D01*
X373639Y-187380D01*
X373621Y-187398D01*
X373454Y-187639D01*
X373324Y-187935D01*
X373250Y-188250D01*
X373176Y-188546D01*
X373139Y-188824D01*
X373121Y-189046D01*
Y-189120D01*
Y-189194D01*
Y-189231D01*
Y-189250D01*
X373139Y-189676D01*
X373195Y-190046D01*
X373269Y-190342D01*
X373343Y-190583D01*
X373435Y-190768D01*
X373509Y-190898D01*
X373565Y-190990D01*
X373583Y-191009D01*
X373769Y-191175D01*
X373954Y-191305D01*
X374157Y-191398D01*
X374324Y-191453D01*
X374491Y-191490D01*
X374621Y-191527D01*
X374732D01*
X374991Y-191490D01*
X375232Y-191416D01*
X375435Y-191324D01*
X375620Y-191194D01*
X375769Y-191083D01*
X375898Y-190972D01*
X375972Y-190898D01*
X375991Y-190879D01*
X376176Y-190620D01*
X376306Y-190324D01*
X376398Y-190009D01*
X376454Y-189713D01*
X376491Y-189435D01*
X376528Y-189231D01*
Y-189139D01*
Y-189083D01*
Y-189046D01*
Y-189028D01*
X376509Y-188639D01*
X376454Y-188305D01*
X376380Y-188028D01*
X376287Y-187787D01*
X376194Y-187620D01*
X376120Y-187491D01*
X376065Y-187398D01*
X376046Y-187380D01*
X375861Y-187194D01*
X375657Y-187046D01*
X375454Y-186954D01*
X375269Y-186880D01*
X375102Y-186843D01*
X374954Y-186806D01*
D02*
G37*
G36*
X354015Y-480201D02*
X345985D01*
X350187D01*
X350076Y-480215D01*
X349813Y-480229D01*
X349521Y-480243D01*
X349216Y-480285D01*
X348925Y-480326D01*
X348662Y-480396D01*
X348648D01*
X348620Y-480410D01*
X348578Y-480423D01*
X348523Y-480437D01*
X348357Y-480507D01*
X348162Y-480604D01*
X347940Y-480728D01*
X347691Y-480881D01*
X347455Y-481061D01*
X347219Y-481283D01*
X347206D01*
X347192Y-481311D01*
X347122Y-481394D01*
X347011Y-481533D01*
X346886Y-481713D01*
X346734Y-481935D01*
X346581Y-482199D01*
X346429Y-482504D01*
X346304Y-482836D01*
Y-482850D01*
X346290Y-482878D01*
X346276Y-482934D01*
X346249Y-483003D01*
X346235Y-483086D01*
X346207Y-483197D01*
X346179Y-483322D01*
X346138Y-483461D01*
X346110Y-483613D01*
X346082Y-483793D01*
X346054Y-483974D01*
X346040Y-484182D01*
X345999Y-484612D01*
X345985Y-485097D01*
Y-485014D01*
Y-485291D01*
X345999Y-485402D01*
Y-485513D01*
X346013Y-485652D01*
X346027Y-485804D01*
X346054Y-486123D01*
X346110Y-486456D01*
X346193Y-486803D01*
X346290Y-487136D01*
Y-487150D01*
X346304Y-487177D01*
X346332Y-487233D01*
X346359Y-487316D01*
X346387Y-487399D01*
X346443Y-487496D01*
X346554Y-487746D01*
X346692Y-488009D01*
X346873Y-488301D01*
X347081Y-488578D01*
X347316Y-488842D01*
X347344Y-488869D01*
X347413Y-488925D01*
X347524Y-489008D01*
X347677Y-489119D01*
X347871Y-489244D01*
X348093Y-489369D01*
X348370Y-489493D01*
X348675Y-489604D01*
X348689D01*
X348703Y-489618D01*
X348745D01*
X348787Y-489632D01*
X348939Y-489660D01*
X349133Y-489701D01*
X349369Y-489743D01*
X349660Y-489771D01*
X350007Y-489785D01*
X350381Y-489798D01*
X354015D01*
Y-480201D01*
D02*
G37*
%LPD*%
G36*
X352073Y-488176D02*
X350368D01*
X350187Y-488162D01*
X349993D01*
X349799Y-488134D01*
X349619Y-488120D01*
X349466Y-488093D01*
X349438D01*
X349383Y-488065D01*
X349300Y-488037D01*
X349189Y-487995D01*
X349064Y-487940D01*
X348939Y-487871D01*
X348814Y-487788D01*
X348689Y-487690D01*
X348675Y-487677D01*
X348634Y-487635D01*
X348578Y-487566D01*
X348509Y-487468D01*
X348440Y-487344D01*
X348343Y-487191D01*
X348273Y-486997D01*
X348190Y-486775D01*
Y-486761D01*
X348176Y-486747D01*
Y-486706D01*
X348162Y-486650D01*
X348135Y-486595D01*
X348121Y-486512D01*
X348079Y-486304D01*
X348051Y-486054D01*
X348010Y-485763D01*
X347996Y-485402D01*
X347982Y-485014D01*
Y-485000D01*
Y-484958D01*
Y-484903D01*
Y-484833D01*
Y-484737D01*
X347996Y-484626D01*
X348010Y-484390D01*
X348038Y-484112D01*
X348065Y-483821D01*
X348121Y-483558D01*
X348190Y-483308D01*
Y-483294D01*
X348204Y-483280D01*
X348232Y-483211D01*
X348273Y-483100D01*
X348329Y-482961D01*
X348412Y-482823D01*
X348509Y-482670D01*
X348620Y-482518D01*
X348745Y-482379D01*
X348759Y-482365D01*
X348800Y-482323D01*
X348884Y-482268D01*
X348981Y-482199D01*
X349119Y-482115D01*
X349272Y-482046D01*
X349438Y-481977D01*
X349632Y-481921D01*
X349646D01*
X349716Y-481907D01*
X349827Y-481893D01*
X349979Y-481866D01*
X350076D01*
X350201Y-481852D01*
X350326D01*
X350465Y-481838D01*
X350631D01*
X350811Y-481824D01*
X352073D01*
Y-488176D01*
D02*
G37*
%LPC*%
G36*
X762822Y-10196D02*
D01*
Y-19803D01*
X759092Y-10196D01*
X757021D01*
X753178Y-19803D01*
D01*
X755296D01*
X756130Y-17620D01*
X759973D01*
X760770Y-19803D01*
X762822D01*
Y-10196D01*
D02*
G37*
%LPD*%
G36*
X759382Y-15998D02*
X756749D01*
X758080Y-12437D01*
X759382Y-15998D01*
D02*
G37*
%LPC*%
G36*
X251092Y-10196D02*
X249021D01*
X245178Y-19803D01*
X247296D01*
X248130Y-17620D01*
X251973D01*
X252770Y-19803D01*
X254822D01*
X251092Y-10196D01*
D02*
G37*
%LPD*%
G36*
X251383Y-15998D02*
X248749D01*
X250080Y-12437D01*
X251383Y-15998D01*
D02*
G37*
%LPC*%
G36*
X454822Y-10196D02*
D01*
Y-19803D01*
X451092Y-10196D01*
X449021D01*
X445178Y-19803D01*
D01*
X447296D01*
X448130Y-17620D01*
X451973D01*
X452770Y-19803D01*
X454822D01*
Y-10196D01*
D02*
G37*
%LPD*%
G36*
X451382Y-15998D02*
X448749D01*
X450080Y-12437D01*
X451382Y-15998D01*
D02*
G37*
%LPC*%
G36*
X352081Y-11799D02*
X350309D01*
X350131Y-11809D01*
X349841D01*
X349728Y-11818D01*
X349541D01*
X349475Y-11827D01*
X349381D01*
X349353Y-11837D01*
X349316D01*
X349147Y-11865D01*
X348997Y-11912D01*
X348866Y-11968D01*
X348763Y-12024D01*
X348688Y-12080D01*
X348632Y-12127D01*
X348594Y-12165D01*
X348585Y-12174D01*
X348500Y-12287D01*
X348435Y-12408D01*
X348397Y-12530D01*
X348360Y-12643D01*
X348341Y-12746D01*
X348332Y-12821D01*
Y-12877D01*
Y-12887D01*
Y-12896D01*
X348341Y-13065D01*
X348379Y-13214D01*
X348425Y-13346D01*
X348472Y-13449D01*
X348529Y-13542D01*
X348575Y-13599D01*
X348613Y-13646D01*
X348622Y-13655D01*
X348735Y-13749D01*
X348866Y-13824D01*
X348988Y-13889D01*
X349119Y-13927D01*
X349231Y-13955D01*
X349316Y-13983D01*
X349353D01*
X349381Y-13992D01*
X349466D01*
X349541Y-14002D01*
X349635D01*
X349738Y-14011D01*
X349972D01*
X350216Y-14021D01*
X352081D01*
Y-11799D01*
D02*
G37*
G36*
Y-15623D02*
X350281D01*
X350066Y-15633D01*
X349869D01*
X349691Y-15642D01*
X349531Y-15651D01*
X349391Y-15670D01*
X349269Y-15680D01*
X349166Y-15689D01*
X349072Y-15708D01*
X348997Y-15717D01*
X348932Y-15726D01*
X348885Y-15745D01*
X348847Y-15754D01*
X348819D01*
X348800Y-15764D01*
X348660Y-15820D01*
X348538Y-15895D01*
X348435Y-15961D01*
X348341Y-16036D01*
X348275Y-16101D01*
X348229Y-16157D01*
X348200Y-16195D01*
X348191Y-16204D01*
X348116Y-16326D01*
X348069Y-16448D01*
X348032Y-16570D01*
X348004Y-16682D01*
X347985Y-16786D01*
X347976Y-16860D01*
Y-16917D01*
Y-16926D01*
Y-16935D01*
X347985Y-17113D01*
X348022Y-17273D01*
X348060Y-17413D01*
X348116Y-17535D01*
X348163Y-17629D01*
X348210Y-17695D01*
X348247Y-17732D01*
X348257Y-17751D01*
X348369Y-17854D01*
X348482Y-17938D01*
X348594Y-18004D01*
X348707Y-18051D01*
X348810Y-18088D01*
X348885Y-18107D01*
X348941Y-18126D01*
X348960D01*
X349025Y-18135D01*
X349100Y-18145D01*
X349185Y-18154D01*
X349288D01*
X349503Y-18173D01*
X349728D01*
X349944Y-18182D01*
X352081D01*
Y-15623D01*
D02*
G37*
G36*
X554015Y-480201D02*
X550187D01*
X550076Y-480215D01*
X549813Y-480229D01*
X549521Y-480243D01*
X549216Y-480285D01*
X548925Y-480326D01*
X548662Y-480396D01*
X548648D01*
X548620Y-480410D01*
X548578Y-480423D01*
X548523Y-480437D01*
X548357Y-480507D01*
X548162Y-480604D01*
X547940Y-480728D01*
X547691Y-480881D01*
X547455Y-481061D01*
X547219Y-481283D01*
X547206D01*
X547192Y-481311D01*
X547122Y-481394D01*
X547011Y-481533D01*
X546886Y-481713D01*
X546734Y-481935D01*
X546581Y-482199D01*
X546429Y-482504D01*
X546304Y-482836D01*
Y-482850D01*
X546290Y-482878D01*
X546276Y-482934D01*
X546249Y-483003D01*
X546235Y-483086D01*
X546207Y-483197D01*
X546179Y-483322D01*
X546138Y-483461D01*
X546110Y-483613D01*
X546082Y-483793D01*
X546054Y-483974D01*
X546041Y-484182D01*
X545999Y-484612D01*
X545985Y-485097D01*
Y-485014D01*
Y-485291D01*
X545999Y-485402D01*
Y-485513D01*
X546013Y-485652D01*
X546027Y-485804D01*
X546054Y-486123D01*
X546110Y-486456D01*
X546193Y-486803D01*
X546290Y-487136D01*
Y-487150D01*
X546304Y-487177D01*
X546332Y-487233D01*
X546359Y-487316D01*
X546387Y-487399D01*
X546443Y-487496D01*
X546554Y-487746D01*
X546692Y-488009D01*
X546873Y-488301D01*
X547081Y-488578D01*
X547317Y-488842D01*
X547344Y-488869D01*
X547413Y-488925D01*
X547524Y-489008D01*
X547677Y-489119D01*
X547871Y-489244D01*
X548093Y-489369D01*
X548371Y-489493D01*
X548676Y-489604D01*
X548689D01*
X548703Y-489618D01*
X548745D01*
X548787Y-489632D01*
X548939Y-489660D01*
X549133Y-489701D01*
X549369Y-489743D01*
X549660Y-489771D01*
X550007Y-489785D01*
X550381Y-489798D01*
X545985D01*
Y-485291D01*
Y-489798D01*
D01*
X554015D01*
Y-480201D01*
D02*
G37*
%LPD*%
G36*
X552073Y-488176D02*
X550368D01*
X550187Y-488162D01*
X549993D01*
X549799Y-488134D01*
X549619Y-488120D01*
X549466Y-488093D01*
X549438D01*
X549383Y-488065D01*
X549300Y-488037D01*
X549189Y-487995D01*
X549064Y-487940D01*
X548939Y-487871D01*
X548814Y-487788D01*
X548689Y-487690D01*
X548676Y-487677D01*
X548634Y-487635D01*
X548578Y-487566D01*
X548509Y-487468D01*
X548440Y-487344D01*
X548343Y-487191D01*
X548273Y-486997D01*
X548190Y-486775D01*
Y-486761D01*
X548176Y-486747D01*
Y-486706D01*
X548162Y-486650D01*
X548135Y-486595D01*
X548121Y-486512D01*
X548079Y-486304D01*
X548051Y-486054D01*
X548010Y-485763D01*
X547996Y-485402D01*
X547982Y-485014D01*
Y-485000D01*
Y-484958D01*
Y-484903D01*
Y-484833D01*
Y-484737D01*
X547996Y-484626D01*
X548010Y-484390D01*
X548038Y-484112D01*
X548065Y-483821D01*
X548121Y-483558D01*
X548190Y-483308D01*
Y-483294D01*
X548204Y-483280D01*
X548232Y-483211D01*
X548273Y-483100D01*
X548329Y-482961D01*
X548412Y-482823D01*
X548509Y-482670D01*
X548620Y-482518D01*
X548745Y-482379D01*
X548759Y-482365D01*
X548800Y-482323D01*
X548884Y-482268D01*
X548981Y-482199D01*
X549119Y-482115D01*
X549272Y-482046D01*
X549438Y-481977D01*
X549632Y-481921D01*
X549646D01*
X549716Y-481907D01*
X549827Y-481893D01*
X549979Y-481866D01*
X550076D01*
X550201Y-481852D01*
X550326D01*
X550465Y-481838D01*
X550631D01*
X550811Y-481824D01*
X552073D01*
Y-488176D01*
D02*
G37*
%LPC*%
G36*
X101092Y-10196D02*
X99021D01*
X95178Y-19803D01*
X97296D01*
X98130Y-17620D01*
X101973D01*
X102770Y-19803D01*
X104822D01*
X101092Y-10196D01*
D02*
G37*
%LPD*%
G36*
X101382Y-15998D02*
X98749D01*
X100080Y-12437D01*
X101382Y-15998D01*
D02*
G37*
%LPC*%
G36*
X704015Y-480201D02*
X695985D01*
X700187D01*
X700076Y-480215D01*
X699813Y-480229D01*
X699521Y-480243D01*
X699216Y-480285D01*
X698925Y-480326D01*
X698662Y-480396D01*
X698648D01*
X698620Y-480410D01*
X698578Y-480423D01*
X698523Y-480437D01*
X698357Y-480507D01*
X698162Y-480604D01*
X697941Y-480728D01*
X697691Y-480881D01*
X697455Y-481061D01*
X697219Y-481283D01*
X697206D01*
X697192Y-481311D01*
X697122Y-481394D01*
X697011Y-481533D01*
X696887Y-481713D01*
X696734Y-481935D01*
X696581Y-482199D01*
X696429Y-482504D01*
X696304Y-482836D01*
Y-482850D01*
X696290Y-482878D01*
X696276Y-482934D01*
X696249Y-483003D01*
X696235Y-483086D01*
X696207Y-483197D01*
X696179Y-483322D01*
X696138Y-483461D01*
X696110Y-483613D01*
X696082Y-483793D01*
X696054Y-483974D01*
X696041Y-484182D01*
X695999Y-484612D01*
X695985Y-485097D01*
Y-485014D01*
Y-485291D01*
X695999Y-485402D01*
Y-485513D01*
X696013Y-485652D01*
X696027Y-485804D01*
X696054Y-486123D01*
X696110Y-486456D01*
X696193Y-486803D01*
X696290Y-487136D01*
Y-487150D01*
X696304Y-487177D01*
X696332Y-487233D01*
X696359Y-487316D01*
X696387Y-487399D01*
X696443Y-487496D01*
X696554Y-487746D01*
X696692Y-488009D01*
X696873Y-488301D01*
X697081Y-488578D01*
X697317Y-488842D01*
X697344Y-488869D01*
X697413Y-488925D01*
X697524Y-489008D01*
X697677Y-489119D01*
X697871Y-489244D01*
X698093Y-489369D01*
X698371Y-489493D01*
X698676Y-489604D01*
X698689D01*
X698703Y-489618D01*
X698745D01*
X698786Y-489632D01*
X698939Y-489660D01*
X699133Y-489701D01*
X699369Y-489743D01*
X699660Y-489771D01*
X700007Y-489785D01*
X700381Y-489798D01*
X704015D01*
Y-480201D01*
D02*
G37*
%LPD*%
G36*
X702073Y-488176D02*
X700368D01*
X700187Y-488162D01*
X699993D01*
X699799Y-488134D01*
X699619Y-488120D01*
X699466Y-488093D01*
X699438D01*
X699383Y-488065D01*
X699300Y-488037D01*
X699189Y-487995D01*
X699064Y-487940D01*
X698939Y-487871D01*
X698814Y-487788D01*
X698689Y-487690D01*
X698676Y-487677D01*
X698634Y-487635D01*
X698578Y-487566D01*
X698509Y-487468D01*
X698440Y-487344D01*
X698343Y-487191D01*
X698273Y-486997D01*
X698190Y-486775D01*
Y-486761D01*
X698176Y-486747D01*
Y-486706D01*
X698162Y-486650D01*
X698135Y-486595D01*
X698121Y-486512D01*
X698079Y-486304D01*
X698052Y-486054D01*
X698010Y-485763D01*
X697996Y-485402D01*
X697982Y-485014D01*
Y-485000D01*
Y-484958D01*
Y-484903D01*
Y-484833D01*
Y-484737D01*
X697996Y-484626D01*
X698010Y-484390D01*
X698038Y-484112D01*
X698065Y-483821D01*
X698121Y-483558D01*
X698190Y-483308D01*
Y-483294D01*
X698204Y-483280D01*
X698232Y-483211D01*
X698273Y-483100D01*
X698329Y-482961D01*
X698412Y-482823D01*
X698509Y-482670D01*
X698620Y-482518D01*
X698745Y-482379D01*
X698759Y-482365D01*
X698800Y-482323D01*
X698884Y-482268D01*
X698981Y-482199D01*
X699119Y-482115D01*
X699272Y-482046D01*
X699438Y-481977D01*
X699632Y-481921D01*
X699646D01*
X699716Y-481907D01*
X699827Y-481893D01*
X699979Y-481866D01*
X700076D01*
X700201Y-481852D01*
X700326D01*
X700465Y-481838D01*
X700631D01*
X700811Y-481824D01*
X702073D01*
Y-488176D01*
D02*
G37*
%LPC*%
G36*
X762888Y-281800D02*
X762777D01*
X762758D01*
X762740D01*
X762444Y-281818D01*
X762166Y-281892D01*
X761925Y-281985D01*
X761721Y-282096D01*
X761555Y-282207D01*
X761444Y-282299D01*
X761351Y-282374D01*
X761333Y-282392D01*
X761147Y-282614D01*
X760999Y-282874D01*
X760907Y-283114D01*
X760833Y-283355D01*
X760796Y-283577D01*
X760777Y-283744D01*
X760759Y-283855D01*
Y-283892D01*
X760777Y-284225D01*
X760851Y-284522D01*
X760944Y-284781D01*
X761055Y-285003D01*
X761147Y-285170D01*
X761240Y-285299D01*
X761314Y-285392D01*
X761333Y-285410D01*
X761555Y-285595D01*
X761814Y-285744D01*
X762055Y-285836D01*
X762295Y-285910D01*
X762499Y-285947D01*
X762666Y-285966D01*
X762777Y-285984D01*
X762795D01*
X762814D01*
X763110Y-285966D01*
X763369Y-285892D01*
X763610Y-285799D01*
X763814Y-285688D01*
X763980Y-285595D01*
X764110Y-285503D01*
X764184Y-285429D01*
X764203Y-285410D01*
X764406Y-285170D01*
X764555Y-284929D01*
X764647Y-284670D01*
X764721Y-284429D01*
X764758Y-284207D01*
X764795Y-284040D01*
Y-283892D01*
X764777Y-283577D01*
X764703Y-283281D01*
X764610Y-283040D01*
X764499Y-282818D01*
X764388Y-282651D01*
X764295Y-282522D01*
X764221Y-282429D01*
X764203Y-282411D01*
X763962Y-282207D01*
X763721Y-282059D01*
X763481Y-281948D01*
X763258Y-281874D01*
X763055Y-281837D01*
X762888Y-281800D01*
D02*
G37*
G36*
X756963Y-281281D02*
X756907D01*
X756870D01*
X756852D01*
X756463Y-281318D01*
X756092Y-281392D01*
X755778Y-281522D01*
X755518Y-281651D01*
X755315Y-281781D01*
X755148Y-281911D01*
X755055Y-281985D01*
X755018Y-282022D01*
X754778Y-282318D01*
X754593Y-282614D01*
X754481Y-282929D01*
X754389Y-283225D01*
X754333Y-283485D01*
X754315Y-283707D01*
X754296Y-283781D01*
Y-283892D01*
X754315Y-284151D01*
X754352Y-284410D01*
X754407Y-284651D01*
X754463Y-284855D01*
X754519Y-285021D01*
X754574Y-285151D01*
X754611Y-285225D01*
X754630Y-285262D01*
X754778Y-285484D01*
X754926Y-285670D01*
X755092Y-285836D01*
X755259Y-285966D01*
X755389Y-286077D01*
X755500Y-286151D01*
X755592Y-286188D01*
X755611Y-286206D01*
X755852Y-286299D01*
X756074Y-286373D01*
X756296Y-286429D01*
X756500Y-286466D01*
X756666Y-286484D01*
X756796Y-286503D01*
X756870D01*
X756907D01*
X757296Y-286466D01*
X757648Y-286392D01*
X757962Y-286281D01*
X758240Y-286133D01*
X758444Y-286003D01*
X758611Y-285892D01*
X758703Y-285818D01*
X758740Y-285781D01*
X758981Y-285503D01*
X759166Y-285188D01*
X759296Y-284892D01*
X759388Y-284596D01*
X759444Y-284336D01*
X759462Y-284133D01*
X759481Y-284059D01*
Y-283948D01*
X759444Y-283540D01*
X759370Y-283170D01*
X759240Y-282836D01*
X759111Y-282559D01*
X758962Y-282337D01*
X758833Y-282170D01*
X758759Y-282077D01*
X758722Y-282040D01*
X758426Y-281781D01*
X758111Y-281596D01*
X757796Y-281466D01*
X757518Y-281374D01*
X757240Y-281318D01*
X757037Y-281300D01*
X756963Y-281281D01*
D02*
G37*
G36*
X762888Y-307686D02*
X762777D01*
X762758D01*
X762740D01*
X762444Y-307704D01*
X762166Y-307778D01*
X761925Y-307871D01*
X761721Y-307982D01*
X761555Y-308093D01*
X761444Y-308186D01*
X761351Y-308260D01*
X761333Y-308278D01*
X761147Y-308500D01*
X760999Y-308760D01*
X760907Y-309000D01*
X760833Y-309241D01*
X760796Y-309463D01*
X760777Y-309630D01*
X760759Y-309741D01*
Y-309778D01*
X760777Y-310112D01*
X760851Y-310408D01*
X760944Y-310667D01*
X761055Y-310889D01*
X761147Y-311056D01*
X761240Y-311185D01*
X761314Y-311278D01*
X761333Y-311297D01*
X761555Y-311482D01*
X761814Y-311630D01*
X762055Y-311722D01*
X762295Y-311796D01*
X762499Y-311833D01*
X762666Y-311852D01*
X762777Y-311870D01*
X762795D01*
X762814D01*
X763110Y-311852D01*
X763369Y-311778D01*
X763610Y-311685D01*
X763814Y-311574D01*
X763980Y-311482D01*
X764110Y-311389D01*
X764184Y-311315D01*
X764203Y-311297D01*
X764406Y-311056D01*
X764555Y-310815D01*
X764647Y-310556D01*
X764721Y-310315D01*
X764758Y-310093D01*
X764795Y-309926D01*
Y-309778D01*
X764777Y-309463D01*
X764703Y-309167D01*
X764610Y-308926D01*
X764499Y-308704D01*
X764388Y-308538D01*
X764295Y-308408D01*
X764221Y-308315D01*
X764203Y-308297D01*
X763962Y-308093D01*
X763721Y-307945D01*
X763481Y-307834D01*
X763258Y-307760D01*
X763055Y-307723D01*
X762888Y-307686D01*
D02*
G37*
G36*
X756963Y-307167D02*
X756907D01*
X756870D01*
X756852D01*
X756463Y-307204D01*
X756092Y-307278D01*
X755778Y-307408D01*
X755518Y-307538D01*
X755315Y-307667D01*
X755148Y-307797D01*
X755055Y-307871D01*
X755018Y-307908D01*
X754778Y-308204D01*
X754593Y-308500D01*
X754481Y-308815D01*
X754389Y-309112D01*
X754333Y-309371D01*
X754315Y-309593D01*
X754296Y-309667D01*
Y-309778D01*
X754315Y-310037D01*
X754352Y-310297D01*
X754407Y-310537D01*
X754463Y-310741D01*
X754519Y-310908D01*
X754574Y-311037D01*
X754611Y-311111D01*
X754630Y-311148D01*
X754778Y-311371D01*
X754926Y-311556D01*
X755092Y-311722D01*
X755259Y-311852D01*
X755389Y-311963D01*
X755500Y-312037D01*
X755592Y-312074D01*
X755611Y-312093D01*
X755852Y-312185D01*
X756074Y-312259D01*
X756296Y-312315D01*
X756500Y-312352D01*
X756666Y-312370D01*
X756796Y-312389D01*
X756870D01*
X756907D01*
X757296Y-312352D01*
X757648Y-312278D01*
X757962Y-312167D01*
X758240Y-312019D01*
X758444Y-311889D01*
X758611Y-311778D01*
X758703Y-311704D01*
X758740Y-311667D01*
X758981Y-311389D01*
X759166Y-311074D01*
X759296Y-310778D01*
X759388Y-310482D01*
X759444Y-310223D01*
X759462Y-310019D01*
X759481Y-309945D01*
Y-309834D01*
X759444Y-309426D01*
X759370Y-309056D01*
X759240Y-308723D01*
X759111Y-308445D01*
X758962Y-308223D01*
X758833Y-308056D01*
X758759Y-307964D01*
X758722Y-307927D01*
X758426Y-307667D01*
X758111Y-307482D01*
X757796Y-307353D01*
X757518Y-307260D01*
X757240Y-307204D01*
X757037Y-307186D01*
X756963Y-307167D01*
D02*
G37*
%LPD*%
D10*
X460000Y-125000D02*
G03*
X450000Y-135000I0J-10000D01*
G01*
X500000D02*
G03*
X490000Y-125000I-10000J0D01*
G01*
X487300Y-212000D02*
G03*
X500000Y-199300I0J12700D01*
G01*
X350000Y-135000D02*
G03*
X340000Y-125000I-10000J0D01*
G01*
X310000D02*
G03*
X300000Y-135000I0J-10000D01*
G01*
Y-199300D02*
G03*
X312700Y-212000I12700J0D01*
G01*
X410000Y-125000D02*
G03*
X400000Y-135000I0J-10000D01*
G01*
X450000D02*
G03*
X440000Y-125000I-10000J0D01*
G01*
X400000Y-135000D02*
G03*
X390000Y-125000I-10000J0D01*
G01*
X360000D02*
G03*
X350000Y-135000I0J-10000D01*
G01*
X440000Y-175000D02*
G03*
X450000Y-165000I0J10000D01*
G01*
X400000D02*
G03*
X410000Y-175000I10000J0D01*
G01*
X437850Y-199203D02*
G03*
X450000Y-187053I0J12150D01*
G01*
X425400Y-211900D02*
G03*
X400000Y-211900I-12700J0D01*
G01*
X374600D02*
G03*
X361900Y-199200I-12700J0D01*
G01*
X438100D02*
G03*
X425400Y-211900I0J-12700D01*
G01*
X350000Y-187300D02*
G03*
X361900Y-199200I11900J0D01*
G01*
X374600Y-211900D02*
G03*
X352920Y-220880I-12700J0D01*
G01*
X340000Y-175000D02*
G03*
X350000Y-165000I0J10000D01*
G01*
X300000Y-167150D02*
G03*
X307850Y-175000I7850J0D01*
G01*
X500000Y-332850D02*
G03*
X492150Y-325000I-7850J0D01*
G01*
X460000D02*
G03*
X450000Y-335000I0J-10000D01*
G01*
X425400Y-288100D02*
G03*
X450800Y-288100I12700J0D01*
G01*
X450000Y-312700D02*
G03*
X438100Y-300800I-11900J0D01*
G01*
X361900D02*
G03*
X374600Y-288100I0J12700D01*
G01*
X425400Y-288100D02*
G03*
X438100Y-300800I12700J0D01*
G01*
X374600Y-288100D02*
G03*
X400000Y-288100I12700J0D01*
G01*
X362150Y-300797D02*
G03*
X350000Y-312947I0J-12150D01*
G01*
X400000Y-335000D02*
G03*
X390000Y-325000I-10000J0D01*
G01*
X360000D02*
G03*
X350000Y-335000I0J-10000D01*
G01*
X440000Y-375000D02*
G03*
X450000Y-365000I0J10000D01*
G01*
X400000D02*
G03*
X410000Y-375000I10000J0D01*
G01*
X350000Y-365000D02*
G03*
X360000Y-375000I10000J0D01*
G01*
X390000D02*
G03*
X400000Y-365000I0J10000D01*
G01*
X500000Y-300700D02*
G03*
X487300Y-288000I-12700J0D01*
G01*
X490000Y-375000D02*
G03*
X500000Y-365000I0J10000D01*
G01*
X450000D02*
G03*
X460000Y-375000I10000J0D01*
G01*
X312700Y-288000D02*
G03*
X300000Y-300700I0J-12700D01*
G01*
Y-365000D02*
G03*
X310000Y-375000I10000J0D01*
G01*
X340000D02*
G03*
X350000Y-365000I0J10000D01*
G01*
X450000Y-237300D02*
G03*
X450000Y-262700I0J-12700D01*
G01*
X425400Y-288100D02*
G03*
X412700Y-275400I-12700J0D01*
G01*
D02*
G03*
X400000Y-288100I0J-12700D01*
G01*
X387300Y-275400D02*
G03*
X374600Y-288100I0J-12700D01*
G01*
X400000D02*
G03*
X387300Y-275400I-12700J0D01*
G01*
X374600Y-288100D02*
G03*
X361900Y-275400I-12700J0D01*
G01*
D02*
G03*
X352920Y-279120I0J-12700D01*
G01*
X438100Y-275400D02*
G03*
X425400Y-288100I0J-12700D01*
G01*
X450800D02*
G03*
X438100Y-275400I-12700J0D01*
G01*
X361900Y-224600D02*
G03*
X374600Y-211900I0J12700D01*
G01*
X352920Y-220880D02*
G03*
X361900Y-224600I8980J8980D01*
G01*
X374500Y-211800D02*
G03*
X387200Y-224500I12700J0D01*
G01*
X387300Y-224600D02*
G03*
X400000Y-211900I0J12700D01*
G01*
X412700Y-224600D02*
G03*
X425400Y-211900I0J12700D01*
G01*
X400000Y-211900D02*
G03*
X412700Y-224600I12700J0D01*
G01*
X425300Y-211800D02*
G03*
X438000Y-224500I12700J0D01*
G01*
D02*
G03*
X446980Y-220780I0J12700D01*
G01*
X461100Y-212000D02*
G03*
X452120Y-215719I0J-12700D01*
G01*
X347500Y-215491D02*
G03*
X338520Y-211772I-8980J-8980D01*
G01*
X452120Y-284281D02*
G03*
X461100Y-288000I8980J8980D01*
G01*
X338892Y-288001D02*
G03*
X347873Y-284281I0J12700D01*
G01*
X5000Y-490000D02*
G03*
X10000Y-495000I5000J0D01*
G01*
X10000Y-425000D02*
G03*
X5000Y-430000I0J-5000D01*
G01*
X75000D02*
G03*
X70000Y-425000I-5000J0D01*
G01*
X80000D02*
G03*
X75000Y-430000I0J-5000D01*
G01*
X125000D02*
G03*
X120000Y-425000I-5000J0D01*
G01*
X130000D02*
G03*
X125000Y-430000I0J-5000D01*
G01*
X175000D02*
G03*
X170000Y-425000I-5000J0D01*
G01*
X180000D02*
G03*
X175000Y-430000I0J-5000D01*
G01*
X375000D02*
G03*
X370000Y-425000I-5000J0D01*
G01*
X380000D02*
G03*
X375000Y-430000I0J-5000D01*
G01*
X425000D02*
G03*
X420000Y-425000I-5000J0D01*
G01*
X480000D02*
G03*
X475000Y-430000I0J-5000D01*
G01*
X525000D02*
G03*
X520000Y-425000I-5000J0D01*
G01*
X530000D02*
G03*
X525000Y-430000I0J-5000D01*
G01*
X575000D02*
G03*
X570000Y-425000I-5000J0D01*
G01*
X580000D02*
G03*
X575000Y-430000I0J-5000D01*
G01*
X625000D02*
G03*
X620000Y-425000I-5000J0D01*
G01*
X630000D02*
G03*
X625000Y-430000I0J-5000D01*
G01*
X675000D02*
G03*
X670000Y-425000I-5000J0D01*
G01*
X680000D02*
G03*
X675000Y-430000I0J-5000D01*
G01*
X725000D02*
G03*
X720000Y-425000I-5000J0D01*
G01*
X325000Y-430000D02*
G03*
X320000Y-425000I-5000J0D01*
G01*
X280000D02*
G03*
X275000Y-430000I0J-5000D01*
G01*
D02*
G03*
X270000Y-425000I-5000J0D01*
G01*
X230000D02*
G03*
X225000Y-430000I0J-5000D01*
G01*
D02*
G03*
X220000Y-425000I-5000J0D01*
G01*
X792500Y-495000D02*
G03*
X795000Y-492500I0J2500D01*
G01*
X795000Y-430000D02*
G03*
X790000Y-425000I-5000J0D01*
G01*
X730000D02*
G03*
X725000Y-430000I0J-5000D01*
G01*
X475000D02*
G03*
X470000Y-425000I-5000J0D01*
G01*
X430000D02*
G03*
X425000Y-430000I0J-5000D01*
G01*
X375000D02*
G03*
X370000Y-425000I-5000J0D01*
G01*
X330000D02*
G03*
X325000Y-430000I0J-5000D01*
G01*
X470000Y-75000D02*
G03*
X475000Y-70000I0J5000D01*
G01*
X425000D02*
G03*
X430000Y-75000I5000J0D01*
G01*
X370000D02*
G03*
X375000Y-70000I0J5000D01*
G01*
X325000D02*
G03*
X330000Y-75000I5000J0D01*
G01*
X70000D02*
G03*
X75000Y-70000I0J5000D01*
G01*
X5000D02*
G03*
X10000Y-75000I5000J0D01*
G01*
X7500Y-5000D02*
G03*
X5000Y-7500I0J-2500D01*
G01*
X575000Y-70000D02*
G03*
X580000Y-75000I5000J0D01*
G01*
X570000D02*
G03*
X575000Y-70000I0J5000D01*
G01*
X525000D02*
G03*
X530000Y-75000I5000J0D01*
G01*
X520000D02*
G03*
X525000Y-70000I0J5000D01*
G01*
X475000D02*
G03*
X480000Y-75000I5000J0D01*
G01*
X75000Y-70000D02*
G03*
X80000Y-75000I5000J0D01*
G01*
X120000D02*
G03*
X125000Y-70000I0J5000D01*
G01*
D02*
G03*
X130000Y-75000I5000J0D01*
G01*
X170000D02*
G03*
X175000Y-70000I0J5000D01*
G01*
D02*
G03*
X180000Y-75000I5000J0D01*
G01*
X220000D02*
G03*
X225000Y-70000I0J5000D01*
G01*
D02*
G03*
X230000Y-75000I5000J0D01*
G01*
X270000D02*
G03*
X275000Y-70000I0J5000D01*
G01*
D02*
G03*
X280000Y-75000I5000J0D01*
G01*
X320000D02*
G03*
X325000Y-70000I0J5000D01*
G01*
X375000D02*
G03*
X380000Y-75000I5000J0D01*
G01*
X420000D02*
G03*
X425000Y-70000I0J5000D01*
G01*
D02*
G03*
X430000Y-75000I5000J0D01*
G01*
X620000D02*
G03*
X625000Y-70000I0J5000D01*
G01*
D02*
G03*
X630000Y-75000I5000J0D01*
G01*
X670000D02*
G03*
X675000Y-70000I0J5000D01*
G01*
D02*
G03*
X680000Y-75000I5000J0D01*
G01*
X720000D02*
G03*
X725000Y-70000I0J5000D01*
G01*
D02*
G03*
X730000Y-75000I5000J0D01*
G01*
X790000D02*
G03*
X795000Y-70000I0J5000D01*
G01*
Y-10000D02*
G03*
X790000Y-5000I-5000J0D01*
G01*
X450000Y-145000D02*
Y-135000D01*
X460000Y-125000D02*
X490000D01*
X500000Y-199300D02*
Y-135000D01*
X450000Y-183300D02*
Y-145000D01*
X350000Y-183950D02*
Y-135000D01*
X310000Y-125000D02*
X340000D01*
X300000Y-199300D02*
Y-135000D01*
X410000Y-125000D02*
X440000D01*
X360000D02*
X390000D01*
X410000Y-175000D02*
X440000D01*
X450000Y-187053D02*
Y-183300D01*
X437700Y-197750D02*
X437850D01*
X400000Y-211900D02*
Y-135000D01*
X350000Y-187300D02*
Y-183950D01*
X312700Y-212000D02*
X345000D01*
X350000Y-165000D02*
Y-159475D01*
X307850Y-175000D02*
X340000D01*
X460000Y-325000D02*
X492150D01*
X450000Y-340525D02*
Y-335000D01*
Y-316050D02*
Y-312700D01*
X400000Y-365000D02*
Y-288100D01*
X362150Y-302250D02*
X362300D01*
X350000Y-316700D02*
Y-312947D01*
X360000Y-325000D02*
X390000D01*
X410000Y-375000D02*
X440000D01*
X360000D02*
X390000D01*
X500000Y-365000D02*
Y-300700D01*
X460000Y-375000D02*
X490000D01*
X450000Y-365000D02*
Y-316050D01*
X350000Y-355000D02*
Y-316700D01*
X312700Y-288000D02*
X338892D01*
X300000Y-365000D02*
Y-300700D01*
X310000Y-375000D02*
X340000D01*
X350000Y-365000D02*
Y-355000D01*
X461100Y-212000D02*
X487300D01*
X452041Y-215719D02*
X452120D01*
X452406Y-215355D02*
X452500D01*
X446980Y-220780D02*
X452406Y-215355D01*
X348040Y-216000D02*
X352920Y-220880D01*
X450500Y-282500D02*
Y-262700D01*
Y-282500D02*
X456000Y-288000D01*
X487300D01*
X448500Y-237389D02*
X449911D01*
Y-217849D01*
X450400Y-217360D01*
X348040Y-284000D02*
X352920Y-279120D01*
X5000Y-475000D02*
X25000D01*
X10000Y-495000D02*
X25000D01*
X5000Y-490000D02*
Y-430000D01*
X10000Y-425000D02*
X70000D01*
X80000D02*
X120000D01*
X130000D02*
X170000D01*
X180000D02*
X220000D01*
X380000D02*
X420000D01*
X480000D02*
X520000D01*
X530000D02*
X570000D01*
X680000D02*
X720000D01*
X25000Y-495000D02*
X125000D01*
X75000D02*
Y-430000D01*
X125000Y-495000D02*
Y-485000D01*
Y-430000D01*
X25000Y-475000D02*
X125000D01*
X175000Y-495000D02*
Y-430000D01*
Y-495000D02*
X275000D01*
X225000D02*
Y-430000D01*
X275000Y-495000D02*
Y-485000D01*
X175000Y-495000D02*
Y-485000D01*
X275000D02*
Y-430000D01*
X175000Y-475000D02*
X275000D01*
X325000Y-495000D02*
Y-430000D01*
Y-495000D02*
Y-485000D01*
X375000D02*
Y-430000D01*
X475000Y-485000D02*
Y-430000D01*
X525000Y-475000D02*
X625000D01*
Y-485000D02*
Y-430000D01*
X125000Y-495000D02*
Y-485000D01*
X175000Y-495000D02*
Y-485000D01*
X275000Y-495000D02*
Y-485000D01*
X325000Y-495000D02*
Y-485000D01*
X375000Y-495000D02*
Y-485000D01*
Y-495000D02*
Y-485000D01*
X475000Y-495000D02*
Y-485000D01*
Y-495000D02*
Y-485000D01*
X625000Y-495000D02*
Y-485000D01*
X675000Y-495000D02*
Y-485000D01*
X725000Y-495000D02*
Y-485000D01*
Y-495000D02*
Y-430000D01*
X575000Y-495000D02*
Y-430000D01*
X525000Y-495000D02*
X625000D01*
X525000D02*
Y-430000D01*
X675000Y-495000D02*
Y-430000D01*
Y-495000D02*
Y-430000D01*
X688500Y-425000D02*
X700000D01*
X550000Y-425000D02*
X561500D01*
X644750Y-425000D02*
X670000Y-425000D01*
X630000D02*
X644750Y-425000D01*
X595000Y-425000D02*
X620000Y-425000D01*
X580000D02*
X595000Y-425000D01*
X230000Y-425000D02*
X245000Y-425000D01*
Y-425000D02*
X270000Y-425000D01*
X280000D02*
X294750Y-425000D01*
Y-425000D02*
X320000Y-425000D01*
X725000Y-495000D02*
X792500D01*
X725000D02*
Y-430000D01*
X730000Y-425000D02*
X790000D01*
X795000Y-492500D02*
Y-430000D01*
X430000Y-425000D02*
X445000Y-425000D01*
Y-425000D02*
X470000Y-425000D01*
X425000Y-495000D02*
Y-430000D01*
X475000Y-495000D02*
Y-485000D01*
Y-430000D01*
X350000Y-425000D02*
X361500D01*
X325000Y-495000D02*
Y-430000D01*
X375000Y-495000D02*
Y-430000D01*
X325000Y-495000D02*
Y-485000D01*
X330000Y-425000D02*
X370000D01*
X425000Y-495000D02*
X475000D01*
X325000D02*
X375000D01*
X675000D02*
X728000D01*
X72000Y-5000D02*
X125000D01*
X425000D02*
X475000D01*
X325000D02*
X375000D01*
X430000Y-75000D02*
X470000D01*
X475000Y-15000D02*
Y-5000D01*
X425000Y-70000D02*
Y-5000D01*
X475000Y-70000D02*
Y-5000D01*
X438500Y-75000D02*
X450000D01*
X325000Y-70000D02*
Y-15000D01*
Y-5000D01*
X375000Y-70000D02*
Y-5000D01*
X330000Y-75000D02*
X355000Y-75000D01*
Y-75000D02*
X370000Y-75000D01*
X5000Y-70000D02*
Y-7500D01*
X10000Y-75000D02*
X70000D01*
X75000Y-70000D02*
Y-5000D01*
X7500D02*
X75000D01*
X480000Y-75000D02*
X505250Y-75000D01*
Y-75000D02*
X520000Y-75000D01*
X530000D02*
X555000Y-75000D01*
Y-75000D02*
X570000Y-75000D01*
X205000Y-75000D02*
X220000Y-75000D01*
X180000D02*
X205000Y-75000D01*
X155250Y-75000D02*
X170000Y-75000D01*
X130000D02*
X155250Y-75000D01*
X238500Y-75000D02*
X250000D01*
X100000Y-75000D02*
X111500D01*
X125000Y-70000D02*
Y-5000D01*
Y-70000D02*
Y-5000D01*
X275000Y-70000D02*
Y-5000D01*
X175000D02*
X275000D01*
X225000Y-70000D02*
Y-5000D01*
X75000Y-70000D02*
Y-5000D01*
Y-15000D02*
Y-5000D01*
X125000Y-15000D02*
Y-5000D01*
X175000Y-15000D02*
Y-5000D01*
X325000Y-15000D02*
Y-5000D01*
Y-15000D02*
Y-5000D01*
X425000Y-15000D02*
Y-5000D01*
Y-15000D02*
Y-5000D01*
X475000Y-15000D02*
Y-5000D01*
X525000Y-15000D02*
Y-5000D01*
X625000Y-15000D02*
Y-5000D01*
X675000Y-15000D02*
Y-5000D01*
X175000Y-70000D02*
Y-15000D01*
Y-25000D02*
X275000D01*
X325000Y-70000D02*
Y-15000D01*
X425000Y-70000D02*
Y-15000D01*
X475000D02*
Y-5000D01*
Y-70000D02*
Y-5000D01*
X525000Y-25000D02*
X625000D01*
X525000Y-70000D02*
Y-15000D01*
X625000D02*
Y-5000D01*
X525000Y-15000D02*
Y-5000D01*
X575000Y-70000D02*
Y-5000D01*
X525000D02*
X625000D01*
Y-70000D02*
Y-5000D01*
X675000Y-25000D02*
X775000D01*
X675000Y-70000D02*
Y-15000D01*
Y-5000D01*
X725000Y-70000D02*
Y-5000D01*
X675000D02*
X775000D01*
X80000Y-75000D02*
X120000D01*
X230000D02*
X270000D01*
X280000D02*
X320000D01*
X380000D02*
X420000D01*
X580000D02*
X620000D01*
X630000D02*
X670000D01*
X680000D02*
X720000D01*
X730000D02*
X790000D01*
X795000Y-70000D02*
Y-10000D01*
X775000Y-5000D02*
X790000D01*
X775000Y-25000D02*
X795000D01*
D11*
X781000Y-256000D02*
G03*
X784000Y-259000I3000J0D01*
G01*
X788000D02*
G03*
X791000Y-256000I0J3000D01*
G01*
Y-265000D02*
G03*
X789000Y-263000I-2000J0D01*
G01*
X788000Y-271000D02*
G03*
X791000Y-268000I0J3000D01*
G01*
X781000Y-268000D02*
G03*
X784000Y-271000I3000J0D01*
G01*
Y-263000D02*
G03*
X781000Y-266000I0J-3000D01*
G01*
X785000Y-203000D02*
G03*
X782000Y-200000I-3000J0D01*
G01*
X785000Y-207000D02*
G03*
X786000Y-208000I1000J0D01*
G01*
X788000Y-200000D02*
G03*
X785000Y-203000I0J-3000D01*
G01*
X791000D02*
G03*
X788000Y-200000I-3000J0D01*
G01*
X791000Y-242000D02*
G03*
X788000Y-239000I-3000J0D01*
G01*
D02*
G03*
X785000Y-242000I0J-3000D01*
G01*
X783000Y-239000D02*
G03*
X781000Y-241000I0J-2000D01*
G01*
X785000Y-241000D02*
G03*
X783000Y-239000I-2000J0D01*
G01*
X789000Y-302000D02*
G03*
X787000Y-304000I0J-2000D01*
G01*
X791000Y-304000D02*
G03*
X789000Y-302000I-2000J0D01*
G01*
X787000Y-305000D02*
G03*
X784000Y-302000I-3000J0D01*
G01*
D02*
G03*
X781000Y-305000I0J-3000D01*
G01*
X784000Y-275000D02*
G03*
X781000Y-278000I0J-3000D01*
G01*
X791000Y-278000D02*
G03*
X788000Y-275000I-3000J0D01*
G01*
X788000Y-220000D02*
G03*
X791000Y-217000I0J3000D01*
G01*
Y-215000D02*
G03*
X788000Y-212000I-3000J0D01*
G01*
X791000Y-191000D02*
G03*
X788000Y-188000I-3000J0D01*
G01*
X784000Y-188000D02*
G03*
X781000Y-191000I0J-3000D01*
G01*
X790000Y-293000D02*
G03*
X790000Y-293000I-4000J0D01*
G01*
Y-229000D02*
G03*
X790000Y-229000I-4000J0D01*
G01*
X791000Y-293000D02*
G03*
X791000Y-293000I-5000J0D01*
G01*
Y-229000D02*
G03*
X791000Y-229000I-5000J0D01*
G01*
X415750Y-235000D02*
X428500Y-235000D01*
X781000Y-256000D02*
Y-251000D01*
X784000Y-259000D02*
X788000D01*
X791000Y-268000D02*
Y-265000D01*
X784000Y-263000D02*
X785000D01*
Y-265000D02*
Y-263000D01*
X781000Y-268000D02*
Y-266000D01*
X784000Y-271000D02*
X788000D01*
X781000Y-200000D02*
X782000D01*
X791000Y-208000D02*
Y-203000D01*
X785000Y-207000D02*
Y-203000D01*
X781000Y-247000D02*
X791000D01*
Y-242000D01*
X785000Y-247000D02*
Y-242000D01*
X781000Y-247000D02*
Y-241000D01*
X785000Y-259000D02*
Y-254000D01*
X787000Y-310000D02*
Y-305000D01*
X781000Y-310000D02*
Y-305000D01*
Y-310000D02*
X791000D01*
Y-304000D01*
X781000Y-283000D02*
X791000D01*
X781000D02*
Y-278000D01*
X784000Y-275000D02*
X788012D01*
X788000Y-275000D02*
X788012D01*
X791000Y-283000D02*
Y-278000D01*
X781000Y-220000D02*
X788000D01*
X781000Y-208000D02*
X791000D01*
X785000Y-220000D02*
Y-212000D01*
X781000D02*
X788000D01*
X791000Y-217000D02*
Y-215000D01*
Y-256000D02*
Y-251000D01*
Y-196000D02*
Y-191000D01*
X788000Y-188000D02*
X788012D01*
X784000Y-188000D02*
X788012D01*
X781000Y-196000D02*
Y-191000D01*
Y-196000D02*
X791000D01*
X777000Y-314000D02*
Y-302000D01*
X783000Y-296000D01*
X789000Y-226000D02*
X789000D01*
X795000Y-220000D01*
Y-184000D01*
X781000Y-298000D02*
X786000D01*
X781000D02*
Y-293000D01*
X791000Y-229016D02*
Y-224000D01*
X786000D02*
X791000D01*
D12*
X788012Y-275000D02*
D03*
Y-188000D02*
D03*
D14*
X441738Y-230987D02*
D03*
D26*
X7375Y-476250D02*
D03*
X792625Y-23750D02*
D03*
D27*
X8500Y-489500D02*
D03*
X791500Y-10500D02*
D03*
D28*
X8875Y-489500D02*
D03*
X791125Y-10500D02*
D03*
D29*
X7750Y-482875D02*
D03*
X792250Y-17125D02*
D03*
D30*
X8125Y-491000D02*
D03*
X791875Y-9000D02*
D03*
M02*
