G04*
G04 #@! TF.GenerationSoftware,Altium Limited,Altium Designer,24.6.1 (21)*
G04*
G04 Layer_Physical_Order=2*
G04 Layer_Color=16711680*
%FSLAX44Y44*%
%MOMM*%
G71*
G04*
G04 #@! TF.SameCoordinates,E2912B81-FF12-4EFC-B30A-82F2F3841449*
G04*
G04*
G04 #@! TF.FilePolarity,Positive*
G04*
G01*
G75*
%ADD16C,0.4500*%
%ADD17C,4.0000*%
G04:AMPARAMS|DCode=18|XSize=4mm|YSize=4mm|CornerRadius=0.5mm|HoleSize=0mm|Usage=FLASHONLY|Rotation=180.000|XOffset=0mm|YOffset=0mm|HoleType=Round|Shape=RoundedRectangle|*
%AMROUNDEDRECTD18*
21,1,4.0000,3.0000,0,0,180.0*
21,1,3.0000,4.0000,0,0,180.0*
1,1,1.0000,-1.5000,1.5000*
1,1,1.0000,1.5000,1.5000*
1,1,1.0000,1.5000,-1.5000*
1,1,1.0000,-1.5000,-1.5000*
%
%ADD18ROUNDEDRECTD18*%
D16*
X575000Y-425000D02*
X675000D01*
X550000Y-450000D02*
X575000Y-425000D01*
X525000D02*
X550000Y-450000D01*
X200000Y-450000D02*
X225000Y-425000D01*
X175000D02*
X200000Y-450000D01*
X75000Y-425000D02*
X175000D01*
X50000Y-450000D02*
X75000Y-425000D01*
X30000Y-450000D02*
X50000D01*
X225000Y-425000D02*
X325000D01*
X350000Y-450000D01*
X375000Y-425000D01*
X525000D01*
X675000D02*
X700000Y-450000D01*
X100000Y-50000D02*
X125000Y-75000D01*
X275000D02*
X425000D01*
X450000Y-50000D01*
X475000Y-75000D01*
X575000D01*
X750000Y-50000D02*
X770000D01*
X725000Y-75000D02*
X750000Y-50000D01*
X625000Y-75000D02*
X725000D01*
X600000Y-50000D02*
X625000Y-75000D01*
X575000D02*
X600000Y-50000D01*
X250000Y-50000D02*
X275000Y-75000D01*
X225000D02*
X250000Y-50000D01*
X125000Y-75000D02*
X225000D01*
D17*
X770000Y-350000D02*
D03*
Y-150000D02*
D03*
X30000Y-350000D02*
D03*
Y-250000D02*
D03*
Y-150000D02*
D03*
X30000Y-450000D02*
D03*
X650000Y-475000D02*
D03*
X150000D02*
D03*
X300000D02*
D03*
X500000D02*
D03*
X400000D02*
D03*
X770000Y-450000D02*
D03*
X30000Y-50000D02*
D03*
X400000Y-25000D02*
D03*
X300000D02*
D03*
X500000D02*
D03*
X650000D02*
D03*
X150000D02*
D03*
X770000Y-50000D02*
D03*
D18*
X50000Y-450000D02*
D03*
X100000D02*
D03*
X150000D02*
D03*
X200000D02*
D03*
X250000D02*
D03*
X300000D02*
D03*
X400000D02*
D03*
X500000D02*
D03*
X550000D02*
D03*
X600000D02*
D03*
X650000D02*
D03*
X700000D02*
D03*
X750000D02*
D03*
X450000D02*
D03*
X350000D02*
D03*
X450000Y-50000D02*
D03*
X350000D02*
D03*
X775000Y-400000D02*
D03*
X725000D02*
D03*
X525000D02*
D03*
X675000D02*
D03*
X475000D02*
D03*
X425000D02*
D03*
X375000D02*
D03*
X325000D02*
D03*
X275000D02*
D03*
X225000D02*
D03*
X175000D02*
D03*
X125000D02*
D03*
X75000D02*
D03*
X25000D02*
D03*
X625000D02*
D03*
X575000D02*
D03*
X750000Y-350000D02*
D03*
X550000D02*
D03*
X700000D02*
D03*
X500000D02*
D03*
X450000D02*
D03*
X400000D02*
D03*
X350000D02*
D03*
X300000D02*
D03*
X250000D02*
D03*
X200000D02*
D03*
X150000D02*
D03*
X100000D02*
D03*
X50000D02*
D03*
X650000D02*
D03*
X600000D02*
D03*
X50000Y-50000D02*
D03*
X650000Y-150000D02*
D03*
X600000D02*
D03*
X625000Y-200000D02*
D03*
X575000D02*
D03*
X650000Y-250000D02*
D03*
X600000D02*
D03*
X250000Y-150000D02*
D03*
X200000D02*
D03*
X225000Y-200000D02*
D03*
X175000D02*
D03*
X250000Y-250000D02*
D03*
X200000D02*
D03*
X575000Y-300000D02*
D03*
X625000D02*
D03*
X25000D02*
D03*
X75000D02*
D03*
X125000D02*
D03*
X50000Y-250000D02*
D03*
X100000D02*
D03*
X150000D02*
D03*
X25000Y-200000D02*
D03*
X75000D02*
D03*
X125000D02*
D03*
X50000Y-150000D02*
D03*
X100000D02*
D03*
X150000D02*
D03*
X100000Y-50000D02*
D03*
X150000D02*
D03*
X200000D02*
D03*
X250000D02*
D03*
X300000D02*
D03*
X400000D02*
D03*
X500000D02*
D03*
X550000D02*
D03*
X600000D02*
D03*
X650000D02*
D03*
X700000D02*
D03*
X750000D02*
D03*
X475000Y-100000D02*
D03*
X425000D02*
D03*
X375000D02*
D03*
X325000D02*
D03*
X275000D02*
D03*
X225000D02*
D03*
X175000D02*
D03*
X125000D02*
D03*
X75000D02*
D03*
X25000D02*
D03*
X300000Y-250000D02*
D03*
X350000D02*
D03*
X400000D02*
D03*
X450000D02*
D03*
X500000D02*
D03*
X275000Y-200000D02*
D03*
X325000D02*
D03*
X375000D02*
D03*
X425000D02*
D03*
X475000D02*
D03*
X300000Y-150000D02*
D03*
X350000D02*
D03*
X400000D02*
D03*
X450000D02*
D03*
X500000D02*
D03*
X175000Y-300000D02*
D03*
X225000D02*
D03*
X275000D02*
D03*
X325000D02*
D03*
X375000D02*
D03*
X425000D02*
D03*
X475000D02*
D03*
X675000D02*
D03*
X525000D02*
D03*
X550000Y-250000D02*
D03*
X525000Y-200000D02*
D03*
X550000Y-150000D02*
D03*
X675000Y-100000D02*
D03*
X625000D02*
D03*
X575000D02*
D03*
X525000D02*
D03*
X700000Y-150000D02*
D03*
X675000Y-200000D02*
D03*
X700000Y-250000D02*
D03*
X725000Y-200000D02*
D03*
X750000Y-150000D02*
D03*
X725000Y-100000D02*
D03*
X775000D02*
D03*
X750000Y-250000D02*
D03*
X725000Y-300000D02*
D03*
M02*
