G04*
G04 #@! TF.GenerationSoftware,Altium Limited,Altium Designer,24.6.1 (21)*
G04*
G04 Layer_Color=65535*
%FSLAX44Y44*%
%MOMM*%
G71*
G04*
G04 #@! TF.SameCoordinates,E2912B81-FF12-4EFC-B30A-82F2F3841449*
G04*
G04*
G04 #@! TF.FilePolarity,Positive*
G04*
G01*
G75*
%ADD10C,0.2000*%
%ADD11C,0.2000*%
%ADD12C,0.2500*%
%ADD13C,0.2500*%
G36*
X450206Y-10206D02*
X450450D01*
X450731Y-10225D01*
X451012Y-10243D01*
X451275Y-10262D01*
X451397Y-10281D01*
X451509Y-10300D01*
X451537D01*
X451565Y-10309D01*
X451603Y-10318D01*
X451706Y-10346D01*
X451846Y-10384D01*
X452006Y-10440D01*
X452165Y-10506D01*
X452343Y-10590D01*
X452512Y-10693D01*
X452521D01*
X452531Y-10703D01*
X452587Y-10749D01*
X452671Y-10815D01*
X452774Y-10909D01*
X452887Y-11021D01*
X453018Y-11162D01*
X453140Y-11321D01*
X453252Y-11499D01*
Y-11509D01*
X453262Y-11518D01*
X453280Y-11546D01*
X453299Y-11584D01*
X453318Y-11631D01*
X453346Y-11687D01*
X453402Y-11827D01*
X453459Y-11996D01*
X453505Y-12184D01*
X453543Y-12399D01*
X453552Y-12624D01*
Y-12633D01*
Y-12652D01*
Y-12690D01*
X453543Y-12737D01*
Y-12793D01*
X453534Y-12868D01*
X453505Y-13027D01*
X453468Y-13224D01*
X453402Y-13430D01*
X453309Y-13646D01*
X453187Y-13861D01*
Y-13871D01*
X453168Y-13889D01*
X453149Y-13917D01*
X453121Y-13955D01*
X453037Y-14058D01*
X452924Y-14180D01*
X452784Y-14311D01*
X452615Y-14452D01*
X452418Y-14583D01*
X452203Y-14705D01*
X452212D01*
X452240Y-14714D01*
X452287Y-14733D01*
X452343Y-14752D01*
X452418Y-14780D01*
X452503Y-14817D01*
X452699Y-14911D01*
X452915Y-15033D01*
X453140Y-15183D01*
X453355Y-15370D01*
X453449Y-15473D01*
X453543Y-15586D01*
X453552Y-15595D01*
X453562Y-15614D01*
X453590Y-15651D01*
X453618Y-15698D01*
X453655Y-15754D01*
X453693Y-15820D01*
X453740Y-15904D01*
X453787Y-15998D01*
X453824Y-16092D01*
X453871Y-16204D01*
X453946Y-16448D01*
X454002Y-16729D01*
X454011Y-16879D01*
X454021Y-17029D01*
Y-17039D01*
Y-17057D01*
Y-17095D01*
Y-17142D01*
X454011Y-17198D01*
X454002Y-17263D01*
X453983Y-17432D01*
X453946Y-17620D01*
X453890Y-17835D01*
X453815Y-18069D01*
X453712Y-18304D01*
Y-18313D01*
X453702Y-18332D01*
X453684Y-18360D01*
X453655Y-18407D01*
X453627Y-18454D01*
X453590Y-18519D01*
X453496Y-18660D01*
X453374Y-18819D01*
X453234Y-18979D01*
X453065Y-19138D01*
X452877Y-19288D01*
X452868D01*
X452849Y-19307D01*
X452821Y-19325D01*
X452784Y-19344D01*
X452737Y-19372D01*
X452671Y-19410D01*
X452596Y-19447D01*
X452521Y-19485D01*
X452334Y-19560D01*
X452109Y-19635D01*
X451865Y-19700D01*
X451584Y-19747D01*
X451528D01*
X451481Y-19757D01*
X451415D01*
X451331Y-19766D01*
X451228D01*
X451106Y-19775D01*
X450965D01*
X450797Y-19785D01*
X450609D01*
X450394Y-19794D01*
X449878D01*
X449569Y-19803D01*
X445979D01*
Y-10196D01*
X450094D01*
X450206Y-10206D01*
D02*
G37*
G36*
X275000Y-495000D02*
X225000D01*
Y-475000D01*
X275000D01*
Y-495000D01*
D02*
G37*
G36*
X225000Y-25000D02*
X175000D01*
Y-5000D01*
X225000D01*
Y-25000D01*
D02*
G37*
G36*
X375000D02*
X325000D01*
Y-5000D01*
X375000D01*
Y-25000D01*
D02*
G37*
G36*
X760206Y-10206D02*
X760450D01*
X760731Y-10225D01*
X761012Y-10243D01*
X761275Y-10262D01*
X761396Y-10281D01*
X761509Y-10300D01*
X761537D01*
X761565Y-10309D01*
X761603Y-10318D01*
X761706Y-10346D01*
X761846Y-10384D01*
X762006Y-10440D01*
X762165Y-10506D01*
X762343Y-10590D01*
X762512Y-10693D01*
X762521D01*
X762531Y-10703D01*
X762587Y-10749D01*
X762671Y-10815D01*
X762774Y-10909D01*
X762887Y-11021D01*
X763018Y-11162D01*
X763140Y-11321D01*
X763252Y-11499D01*
Y-11509D01*
X763262Y-11518D01*
X763280Y-11546D01*
X763299Y-11584D01*
X763318Y-11631D01*
X763346Y-11687D01*
X763402Y-11827D01*
X763458Y-11996D01*
X763505Y-12184D01*
X763543Y-12399D01*
X763552Y-12624D01*
Y-12633D01*
Y-12652D01*
Y-12690D01*
X763543Y-12737D01*
Y-12793D01*
X763533Y-12868D01*
X763505Y-13027D01*
X763468Y-13224D01*
X763402Y-13430D01*
X763309Y-13646D01*
X763187Y-13861D01*
Y-13871D01*
X763168Y-13889D01*
X763149Y-13917D01*
X763121Y-13955D01*
X763037Y-14058D01*
X762924Y-14180D01*
X762784Y-14311D01*
X762615Y-14452D01*
X762418Y-14583D01*
X762203Y-14705D01*
X762212D01*
X762240Y-14714D01*
X762287Y-14733D01*
X762343Y-14752D01*
X762418Y-14780D01*
X762503Y-14817D01*
X762699Y-14911D01*
X762915Y-15033D01*
X763140Y-15183D01*
X763355Y-15370D01*
X763449Y-15473D01*
X763543Y-15586D01*
X763552Y-15595D01*
X763562Y-15614D01*
X763590Y-15651D01*
X763618Y-15698D01*
X763655Y-15754D01*
X763693Y-15820D01*
X763740Y-15904D01*
X763787Y-15998D01*
X763824Y-16092D01*
X763871Y-16204D01*
X763946Y-16448D01*
X764002Y-16729D01*
X764012Y-16879D01*
X764021Y-17029D01*
Y-17039D01*
Y-17057D01*
Y-17095D01*
Y-17142D01*
X764012Y-17198D01*
X764002Y-17263D01*
X763983Y-17432D01*
X763946Y-17620D01*
X763890Y-17835D01*
X763815Y-18069D01*
X763712Y-18304D01*
Y-18313D01*
X763702Y-18332D01*
X763683Y-18360D01*
X763655Y-18407D01*
X763627Y-18454D01*
X763590Y-18519D01*
X763496Y-18660D01*
X763374Y-18819D01*
X763234Y-18979D01*
X763065Y-19138D01*
X762877Y-19288D01*
X762868D01*
X762849Y-19307D01*
X762821Y-19325D01*
X762784Y-19344D01*
X762737Y-19372D01*
X762671Y-19410D01*
X762596Y-19447D01*
X762521Y-19485D01*
X762334Y-19560D01*
X762109Y-19635D01*
X761865Y-19700D01*
X761584Y-19747D01*
X761528D01*
X761481Y-19757D01*
X761415D01*
X761331Y-19766D01*
X761228D01*
X761106Y-19775D01*
X760965D01*
X760797Y-19785D01*
X760609D01*
X760394Y-19794D01*
X759878D01*
X759569Y-19803D01*
X755979D01*
Y-10196D01*
X760094D01*
X760206Y-10206D01*
D02*
G37*
G36*
X625000Y-495000D02*
X575000D01*
Y-475000D01*
X625000D01*
Y-495000D01*
D02*
G37*
G36*
X40596Y-480042D02*
X40749Y-480056D01*
X40915Y-480084D01*
X41109Y-480111D01*
X41318Y-480153D01*
X41539Y-480208D01*
X41775Y-480278D01*
X42011Y-480361D01*
X42260Y-480472D01*
X42496Y-480583D01*
X42718Y-480722D01*
X42954Y-480888D01*
X43162Y-481068D01*
X43176D01*
X43190Y-481096D01*
X43231Y-481138D01*
X43273Y-481179D01*
X43328Y-481249D01*
X43384Y-481332D01*
X43536Y-481526D01*
X43689Y-481776D01*
X43855Y-482081D01*
X44008Y-482427D01*
X44147Y-482830D01*
X42233Y-483287D01*
Y-483273D01*
X42219Y-483260D01*
Y-483218D01*
X42191Y-483162D01*
X42150Y-483038D01*
X42080Y-482871D01*
X41983Y-482677D01*
X41858Y-482483D01*
X41692Y-482289D01*
X41512Y-482122D01*
X41484Y-482108D01*
X41414Y-482053D01*
X41304Y-481984D01*
X41151Y-481900D01*
X40957Y-481817D01*
X40735Y-481748D01*
X40485Y-481692D01*
X40208Y-481679D01*
X40111D01*
X40028Y-481692D01*
X39945Y-481706D01*
X39834Y-481720D01*
X39598Y-481776D01*
X39320Y-481873D01*
X39029Y-482011D01*
X38877Y-482094D01*
X38738Y-482192D01*
X38599Y-482316D01*
X38474Y-482455D01*
Y-482469D01*
X38447Y-482497D01*
X38419Y-482538D01*
X38377Y-482608D01*
X38322Y-482691D01*
X38266Y-482788D01*
X38211Y-482913D01*
X38156Y-483051D01*
X38086Y-483218D01*
X38031Y-483398D01*
X37975Y-483606D01*
X37920Y-483828D01*
X37878Y-484078D01*
X37850Y-484341D01*
X37836Y-484632D01*
X37823Y-484951D01*
Y-484965D01*
Y-485035D01*
Y-485132D01*
X37836Y-485243D01*
Y-485395D01*
X37864Y-485575D01*
X37878Y-485756D01*
X37906Y-485964D01*
X37989Y-486394D01*
X38100Y-486824D01*
X38169Y-487032D01*
X38266Y-487226D01*
X38363Y-487406D01*
X38474Y-487559D01*
X38488Y-487573D01*
X38502Y-487586D01*
X38544Y-487628D01*
X38599Y-487683D01*
X38738Y-487794D01*
X38932Y-487933D01*
X39168Y-488086D01*
X39459Y-488197D01*
X39792Y-488294D01*
X39972Y-488308D01*
X40166Y-488321D01*
X40236D01*
X40291Y-488308D01*
X40444Y-488294D01*
X40624Y-488266D01*
X40818Y-488197D01*
X41040Y-488113D01*
X41262Y-488003D01*
X41484Y-487836D01*
X41512Y-487808D01*
X41581Y-487739D01*
X41678Y-487628D01*
X41789Y-487462D01*
X41928Y-487240D01*
X42052Y-486976D01*
X42177Y-486657D01*
X42288Y-486283D01*
X44174Y-486865D01*
Y-486879D01*
X44160Y-486935D01*
X44133Y-487018D01*
X44091Y-487129D01*
X44036Y-487254D01*
X43980Y-487406D01*
X43911Y-487573D01*
X43828Y-487753D01*
X43633Y-488127D01*
X43384Y-488516D01*
X43079Y-488890D01*
X42912Y-489057D01*
X42732Y-489209D01*
X42718Y-489223D01*
X42690Y-489237D01*
X42635Y-489278D01*
X42552Y-489334D01*
X42455Y-489389D01*
X42330Y-489445D01*
X42191Y-489514D01*
X42039Y-489584D01*
X41858Y-489667D01*
X41664Y-489736D01*
X41456Y-489791D01*
X41234Y-489847D01*
X40999Y-489902D01*
X40735Y-489944D01*
X40472Y-489958D01*
X40180Y-489972D01*
X40097D01*
X40000Y-489958D01*
X39861Y-489944D01*
X39709Y-489930D01*
X39515Y-489902D01*
X39307Y-489861D01*
X39071Y-489805D01*
X38835Y-489736D01*
X38585Y-489653D01*
X38322Y-489542D01*
X38058Y-489417D01*
X37795Y-489278D01*
X37531Y-489098D01*
X37282Y-488904D01*
X37046Y-488668D01*
X37032Y-488654D01*
X36990Y-488613D01*
X36935Y-488530D01*
X36852Y-488432D01*
X36769Y-488294D01*
X36658Y-488141D01*
X36547Y-487947D01*
X36436Y-487725D01*
X36325Y-487489D01*
X36214Y-487226D01*
X36103Y-486921D01*
X36020Y-486602D01*
X35937Y-486269D01*
X35881Y-485895D01*
X35840Y-485506D01*
X35826Y-485090D01*
Y-485076D01*
Y-485062D01*
Y-484979D01*
X35840Y-484854D01*
Y-484688D01*
X35867Y-484494D01*
X35895Y-484258D01*
X35923Y-484008D01*
X35978Y-483717D01*
X36047Y-483426D01*
X36131Y-483121D01*
X36228Y-482816D01*
X36353Y-482497D01*
X36491Y-482192D01*
X36658Y-481900D01*
X36838Y-481623D01*
X37060Y-481359D01*
X37074Y-481346D01*
X37115Y-481304D01*
X37185Y-481235D01*
X37282Y-481152D01*
X37407Y-481054D01*
X37559Y-480943D01*
X37726Y-480819D01*
X37934Y-480694D01*
X38156Y-480569D01*
X38391Y-480444D01*
X38669Y-480333D01*
X38946Y-480236D01*
X39265Y-480153D01*
X39584Y-480084D01*
X39945Y-480042D01*
X40305Y-480028D01*
X40472D01*
X40596Y-480042D01*
D02*
G37*
G36*
X795000Y-495000D02*
X725000D01*
Y-475000D01*
X795000D01*
Y-495000D01*
D02*
G37*
G36*
X575000Y-25000D02*
X525000D01*
Y-5000D01*
X575000D01*
Y-25000D01*
D02*
G37*
G36*
X350596Y-480042D02*
X350749Y-480056D01*
X350915Y-480084D01*
X351109Y-480111D01*
X351317Y-480153D01*
X351539Y-480208D01*
X351775Y-480278D01*
X352011Y-480361D01*
X352261Y-480472D01*
X352496Y-480583D01*
X352718Y-480722D01*
X352954Y-480888D01*
X353162Y-481068D01*
X353176D01*
X353190Y-481096D01*
X353231Y-481138D01*
X353273Y-481179D01*
X353328Y-481249D01*
X353384Y-481332D01*
X353536Y-481526D01*
X353689Y-481776D01*
X353855Y-482081D01*
X354008Y-482427D01*
X354147Y-482830D01*
X352233Y-483287D01*
Y-483273D01*
X352219Y-483260D01*
Y-483218D01*
X352191Y-483162D01*
X352150Y-483038D01*
X352080Y-482871D01*
X351983Y-482677D01*
X351858Y-482483D01*
X351692Y-482289D01*
X351512Y-482122D01*
X351484Y-482108D01*
X351414Y-482053D01*
X351304Y-481984D01*
X351151Y-481900D01*
X350957Y-481817D01*
X350735Y-481748D01*
X350485Y-481692D01*
X350208Y-481679D01*
X350111D01*
X350028Y-481692D01*
X349944Y-481706D01*
X349833Y-481720D01*
X349598Y-481776D01*
X349320Y-481873D01*
X349029Y-482011D01*
X348877Y-482094D01*
X348738Y-482192D01*
X348599Y-482316D01*
X348474Y-482455D01*
Y-482469D01*
X348447Y-482497D01*
X348419Y-482538D01*
X348377Y-482608D01*
X348322Y-482691D01*
X348266Y-482788D01*
X348211Y-482913D01*
X348156Y-483051D01*
X348086Y-483218D01*
X348031Y-483398D01*
X347975Y-483606D01*
X347920Y-483828D01*
X347878Y-484078D01*
X347850Y-484341D01*
X347836Y-484632D01*
X347823Y-484951D01*
Y-484965D01*
Y-485035D01*
Y-485132D01*
X347836Y-485243D01*
Y-485395D01*
X347864Y-485575D01*
X347878Y-485756D01*
X347906Y-485964D01*
X347989Y-486394D01*
X348100Y-486824D01*
X348169Y-487032D01*
X348266Y-487226D01*
X348363Y-487406D01*
X348474Y-487559D01*
X348488Y-487573D01*
X348502Y-487586D01*
X348544Y-487628D01*
X348599Y-487683D01*
X348738Y-487794D01*
X348932Y-487933D01*
X349168Y-488086D01*
X349459Y-488197D01*
X349792Y-488294D01*
X349972Y-488308D01*
X350166Y-488321D01*
X350236D01*
X350291Y-488308D01*
X350444Y-488294D01*
X350624Y-488266D01*
X350818Y-488197D01*
X351040Y-488113D01*
X351262Y-488003D01*
X351484Y-487836D01*
X351512Y-487808D01*
X351581Y-487739D01*
X351678Y-487628D01*
X351789Y-487462D01*
X351928Y-487240D01*
X352052Y-486976D01*
X352177Y-486657D01*
X352288Y-486283D01*
X354174Y-486865D01*
Y-486879D01*
X354160Y-486935D01*
X354133Y-487018D01*
X354091Y-487129D01*
X354036Y-487254D01*
X353980Y-487406D01*
X353911Y-487573D01*
X353828Y-487753D01*
X353633Y-488127D01*
X353384Y-488516D01*
X353079Y-488890D01*
X352912Y-489057D01*
X352732Y-489209D01*
X352718Y-489223D01*
X352690Y-489237D01*
X352635Y-489278D01*
X352552Y-489334D01*
X352455Y-489389D01*
X352330Y-489445D01*
X352191Y-489514D01*
X352039Y-489584D01*
X351858Y-489667D01*
X351664Y-489736D01*
X351456Y-489791D01*
X351234Y-489847D01*
X350998Y-489902D01*
X350735Y-489944D01*
X350471Y-489958D01*
X350180Y-489972D01*
X350097D01*
X350000Y-489958D01*
X349861Y-489944D01*
X349709Y-489930D01*
X349515Y-489902D01*
X349306Y-489861D01*
X349071Y-489805D01*
X348835Y-489736D01*
X348585Y-489653D01*
X348322Y-489542D01*
X348058Y-489417D01*
X347795Y-489278D01*
X347531Y-489098D01*
X347282Y-488904D01*
X347046Y-488668D01*
X347032Y-488654D01*
X346991Y-488613D01*
X346935Y-488530D01*
X346852Y-488432D01*
X346769Y-488294D01*
X346658Y-488141D01*
X346547Y-487947D01*
X346436Y-487725D01*
X346325Y-487489D01*
X346214Y-487226D01*
X346103Y-486921D01*
X346020Y-486602D01*
X345937Y-486269D01*
X345881Y-485895D01*
X345839Y-485506D01*
X345826Y-485090D01*
Y-485076D01*
Y-485062D01*
Y-484979D01*
X345839Y-484854D01*
Y-484688D01*
X345867Y-484494D01*
X345895Y-484258D01*
X345923Y-484008D01*
X345978Y-483717D01*
X346048Y-483426D01*
X346131Y-483121D01*
X346228Y-482816D01*
X346353Y-482497D01*
X346491Y-482192D01*
X346658Y-481900D01*
X346838Y-481623D01*
X347060Y-481359D01*
X347074Y-481346D01*
X347115Y-481304D01*
X347185Y-481235D01*
X347282Y-481152D01*
X347407Y-481054D01*
X347559Y-480943D01*
X347725Y-480819D01*
X347934Y-480694D01*
X348156Y-480569D01*
X348391Y-480444D01*
X348669Y-480333D01*
X348946Y-480236D01*
X349265Y-480153D01*
X349584Y-480084D01*
X349944Y-480042D01*
X350305Y-480028D01*
X350471D01*
X350596Y-480042D01*
D02*
G37*
G36*
X125000Y-495000D02*
X75000D01*
Y-475000D01*
X125000D01*
Y-495000D01*
D02*
G37*
G36*
X200596Y-480042D02*
X200749Y-480056D01*
X200915Y-480084D01*
X201109Y-480111D01*
X201318Y-480153D01*
X201539Y-480208D01*
X201775Y-480278D01*
X202011Y-480361D01*
X202260Y-480472D01*
X202496Y-480583D01*
X202718Y-480722D01*
X202954Y-480888D01*
X203162Y-481068D01*
X203176D01*
X203190Y-481096D01*
X203231Y-481138D01*
X203273Y-481179D01*
X203328Y-481249D01*
X203384Y-481332D01*
X203536Y-481526D01*
X203689Y-481776D01*
X203855Y-482081D01*
X204008Y-482427D01*
X204147Y-482830D01*
X202233Y-483287D01*
Y-483273D01*
X202219Y-483260D01*
Y-483218D01*
X202191Y-483162D01*
X202150Y-483038D01*
X202080Y-482871D01*
X201983Y-482677D01*
X201858Y-482483D01*
X201692Y-482289D01*
X201512Y-482122D01*
X201484Y-482108D01*
X201415Y-482053D01*
X201304Y-481984D01*
X201151Y-481900D01*
X200957Y-481817D01*
X200735Y-481748D01*
X200485Y-481692D01*
X200208Y-481679D01*
X200111D01*
X200028Y-481692D01*
X199944Y-481706D01*
X199834Y-481720D01*
X199598Y-481776D01*
X199320Y-481873D01*
X199029Y-482011D01*
X198877Y-482094D01*
X198738Y-482192D01*
X198599Y-482316D01*
X198474Y-482455D01*
Y-482469D01*
X198447Y-482497D01*
X198419Y-482538D01*
X198377Y-482608D01*
X198322Y-482691D01*
X198266Y-482788D01*
X198211Y-482913D01*
X198155Y-483051D01*
X198086Y-483218D01*
X198031Y-483398D01*
X197975Y-483606D01*
X197920Y-483828D01*
X197878Y-484078D01*
X197850Y-484341D01*
X197836Y-484632D01*
X197823Y-484951D01*
Y-484965D01*
Y-485035D01*
Y-485132D01*
X197836Y-485243D01*
Y-485395D01*
X197864Y-485575D01*
X197878Y-485756D01*
X197906Y-485964D01*
X197989Y-486394D01*
X198100Y-486824D01*
X198169Y-487032D01*
X198266Y-487226D01*
X198363Y-487406D01*
X198474Y-487559D01*
X198488Y-487573D01*
X198502Y-487586D01*
X198544Y-487628D01*
X198599Y-487683D01*
X198738Y-487794D01*
X198932Y-487933D01*
X199168Y-488086D01*
X199459Y-488197D01*
X199792Y-488294D01*
X199972Y-488308D01*
X200166Y-488321D01*
X200236D01*
X200291Y-488308D01*
X200444Y-488294D01*
X200624Y-488266D01*
X200818Y-488197D01*
X201040Y-488113D01*
X201262Y-488003D01*
X201484Y-487836D01*
X201512Y-487808D01*
X201581Y-487739D01*
X201678Y-487628D01*
X201789Y-487462D01*
X201928Y-487240D01*
X202052Y-486976D01*
X202177Y-486657D01*
X202288Y-486283D01*
X204174Y-486865D01*
Y-486879D01*
X204160Y-486935D01*
X204133Y-487018D01*
X204091Y-487129D01*
X204036Y-487254D01*
X203980Y-487406D01*
X203911Y-487573D01*
X203828Y-487753D01*
X203633Y-488127D01*
X203384Y-488516D01*
X203079Y-488890D01*
X202912Y-489057D01*
X202732Y-489209D01*
X202718Y-489223D01*
X202690Y-489237D01*
X202635Y-489278D01*
X202552Y-489334D01*
X202455Y-489389D01*
X202330Y-489445D01*
X202191Y-489514D01*
X202039Y-489584D01*
X201858Y-489667D01*
X201664Y-489736D01*
X201456Y-489791D01*
X201234Y-489847D01*
X200998Y-489902D01*
X200735Y-489944D01*
X200471Y-489958D01*
X200180Y-489972D01*
X200097D01*
X200000Y-489958D01*
X199861Y-489944D01*
X199709Y-489930D01*
X199515Y-489902D01*
X199307Y-489861D01*
X199071Y-489805D01*
X198835Y-489736D01*
X198585Y-489653D01*
X198322Y-489542D01*
X198058Y-489417D01*
X197795Y-489278D01*
X197531Y-489098D01*
X197282Y-488904D01*
X197046Y-488668D01*
X197032Y-488654D01*
X196991Y-488613D01*
X196935Y-488530D01*
X196852Y-488432D01*
X196769Y-488294D01*
X196658Y-488141D01*
X196547Y-487947D01*
X196436Y-487725D01*
X196325Y-487489D01*
X196214Y-487226D01*
X196103Y-486921D01*
X196020Y-486602D01*
X195937Y-486269D01*
X195881Y-485895D01*
X195839Y-485506D01*
X195826Y-485090D01*
Y-485076D01*
Y-485062D01*
Y-484979D01*
X195839Y-484854D01*
Y-484688D01*
X195867Y-484494D01*
X195895Y-484258D01*
X195923Y-484008D01*
X195978Y-483717D01*
X196047Y-483426D01*
X196131Y-483121D01*
X196228Y-482816D01*
X196353Y-482497D01*
X196491Y-482192D01*
X196658Y-481900D01*
X196838Y-481623D01*
X197060Y-481359D01*
X197074Y-481346D01*
X197115Y-481304D01*
X197185Y-481235D01*
X197282Y-481152D01*
X197407Y-481054D01*
X197559Y-480943D01*
X197726Y-480819D01*
X197934Y-480694D01*
X198155Y-480569D01*
X198391Y-480444D01*
X198669Y-480333D01*
X198946Y-480236D01*
X199265Y-480153D01*
X199584Y-480084D01*
X199944Y-480042D01*
X200305Y-480028D01*
X200471D01*
X200596Y-480042D01*
D02*
G37*
G36*
X475000Y-495000D02*
X425000D01*
Y-475000D01*
X475000D01*
Y-495000D01*
D02*
G37*
G36*
X75000Y-25000D02*
X5000D01*
Y-5000D01*
X75000D01*
Y-25000D01*
D02*
G37*
G36*
X725000D02*
X675000D01*
Y-5000D01*
X725000D01*
Y-25000D01*
D02*
G37*
G36*
X550596Y-480042D02*
X550749Y-480056D01*
X550915Y-480084D01*
X551110Y-480111D01*
X551317Y-480153D01*
X551539Y-480208D01*
X551775Y-480278D01*
X552011Y-480361D01*
X552261Y-480472D01*
X552496Y-480583D01*
X552718Y-480722D01*
X552954Y-480888D01*
X553162Y-481068D01*
X553176D01*
X553190Y-481096D01*
X553231Y-481138D01*
X553273Y-481179D01*
X553328Y-481249D01*
X553384Y-481332D01*
X553536Y-481526D01*
X553689Y-481776D01*
X553855Y-482081D01*
X554008Y-482427D01*
X554147Y-482830D01*
X552233Y-483287D01*
Y-483273D01*
X552219Y-483260D01*
Y-483218D01*
X552191Y-483162D01*
X552150Y-483038D01*
X552080Y-482871D01*
X551983Y-482677D01*
X551858Y-482483D01*
X551692Y-482289D01*
X551512Y-482122D01*
X551484Y-482108D01*
X551415Y-482053D01*
X551304Y-481984D01*
X551151Y-481900D01*
X550957Y-481817D01*
X550735Y-481748D01*
X550485Y-481692D01*
X550208Y-481679D01*
X550111D01*
X550028Y-481692D01*
X549944Y-481706D01*
X549834Y-481720D01*
X549598Y-481776D01*
X549320Y-481873D01*
X549029Y-482011D01*
X548877Y-482094D01*
X548738Y-482192D01*
X548599Y-482316D01*
X548475Y-482455D01*
Y-482469D01*
X548447Y-482497D01*
X548419Y-482538D01*
X548377Y-482608D01*
X548322Y-482691D01*
X548266Y-482788D01*
X548211Y-482913D01*
X548156Y-483051D01*
X548086Y-483218D01*
X548031Y-483398D01*
X547975Y-483606D01*
X547920Y-483828D01*
X547878Y-484078D01*
X547850Y-484341D01*
X547836Y-484632D01*
X547823Y-484951D01*
Y-484965D01*
Y-485035D01*
Y-485132D01*
X547836Y-485243D01*
Y-485395D01*
X547864Y-485575D01*
X547878Y-485756D01*
X547906Y-485964D01*
X547989Y-486394D01*
X548100Y-486824D01*
X548169Y-487032D01*
X548266Y-487226D01*
X548363Y-487406D01*
X548475Y-487559D01*
X548488Y-487573D01*
X548502Y-487586D01*
X548544Y-487628D01*
X548599Y-487683D01*
X548738Y-487794D01*
X548932Y-487933D01*
X549168Y-488086D01*
X549459Y-488197D01*
X549792Y-488294D01*
X549972Y-488308D01*
X550166Y-488321D01*
X550236D01*
X550291Y-488308D01*
X550444Y-488294D01*
X550624Y-488266D01*
X550818Y-488197D01*
X551040Y-488113D01*
X551262Y-488003D01*
X551484Y-487836D01*
X551512Y-487808D01*
X551581Y-487739D01*
X551678Y-487628D01*
X551789Y-487462D01*
X551928Y-487240D01*
X552052Y-486976D01*
X552177Y-486657D01*
X552288Y-486283D01*
X554174Y-486865D01*
Y-486879D01*
X554160Y-486935D01*
X554133Y-487018D01*
X554091Y-487129D01*
X554036Y-487254D01*
X553980Y-487406D01*
X553911Y-487573D01*
X553828Y-487753D01*
X553633Y-488127D01*
X553384Y-488516D01*
X553079Y-488890D01*
X552912Y-489057D01*
X552732Y-489209D01*
X552718Y-489223D01*
X552691Y-489237D01*
X552635Y-489278D01*
X552552Y-489334D01*
X552455Y-489389D01*
X552330Y-489445D01*
X552191Y-489514D01*
X552039Y-489584D01*
X551858Y-489667D01*
X551664Y-489736D01*
X551456Y-489791D01*
X551234Y-489847D01*
X550998Y-489902D01*
X550735Y-489944D01*
X550471Y-489958D01*
X550180Y-489972D01*
X550097D01*
X550000Y-489958D01*
X549861Y-489944D01*
X549709Y-489930D01*
X549515Y-489902D01*
X549307Y-489861D01*
X549071Y-489805D01*
X548835Y-489736D01*
X548585Y-489653D01*
X548322Y-489542D01*
X548058Y-489417D01*
X547795Y-489278D01*
X547531Y-489098D01*
X547282Y-488904D01*
X547046Y-488668D01*
X547032Y-488654D01*
X546991Y-488613D01*
X546935Y-488530D01*
X546852Y-488432D01*
X546769Y-488294D01*
X546658Y-488141D01*
X546547Y-487947D01*
X546436Y-487725D01*
X546325Y-487489D01*
X546214Y-487226D01*
X546103Y-486921D01*
X546020Y-486602D01*
X545937Y-486269D01*
X545881Y-485895D01*
X545840Y-485506D01*
X545826Y-485090D01*
Y-485076D01*
Y-485062D01*
Y-484979D01*
X545840Y-484854D01*
Y-484688D01*
X545867Y-484494D01*
X545895Y-484258D01*
X545923Y-484008D01*
X545978Y-483717D01*
X546048Y-483426D01*
X546131Y-483121D01*
X546228Y-482816D01*
X546353Y-482497D01*
X546491Y-482192D01*
X546658Y-481900D01*
X546838Y-481623D01*
X547060Y-481359D01*
X547074Y-481346D01*
X547115Y-481304D01*
X547185Y-481235D01*
X547282Y-481152D01*
X547407Y-481054D01*
X547559Y-480943D01*
X547726Y-480819D01*
X547934Y-480694D01*
X548156Y-480569D01*
X548391Y-480444D01*
X548669Y-480333D01*
X548946Y-480236D01*
X549265Y-480153D01*
X549584Y-480084D01*
X549944Y-480042D01*
X550305Y-480028D01*
X550471D01*
X550596Y-480042D01*
D02*
G37*
G36*
X600206Y-10206D02*
X600450D01*
X600731Y-10225D01*
X601012Y-10243D01*
X601275Y-10262D01*
X601397Y-10281D01*
X601509Y-10300D01*
X601537D01*
X601565Y-10309D01*
X601603Y-10318D01*
X601706Y-10346D01*
X601846Y-10384D01*
X602006Y-10440D01*
X602165Y-10506D01*
X602343Y-10590D01*
X602512Y-10693D01*
X602521D01*
X602531Y-10703D01*
X602587Y-10749D01*
X602671Y-10815D01*
X602774Y-10909D01*
X602887Y-11021D01*
X603018Y-11162D01*
X603140Y-11321D01*
X603252Y-11499D01*
Y-11509D01*
X603262Y-11518D01*
X603280Y-11546D01*
X603299Y-11584D01*
X603318Y-11631D01*
X603346Y-11687D01*
X603402Y-11827D01*
X603459Y-11996D01*
X603505Y-12184D01*
X603543Y-12399D01*
X603552Y-12624D01*
Y-12633D01*
Y-12652D01*
Y-12690D01*
X603543Y-12737D01*
Y-12793D01*
X603534Y-12868D01*
X603505Y-13027D01*
X603468Y-13224D01*
X603402Y-13430D01*
X603309Y-13646D01*
X603187Y-13861D01*
Y-13871D01*
X603168Y-13889D01*
X603149Y-13917D01*
X603121Y-13955D01*
X603037Y-14058D01*
X602924Y-14180D01*
X602784Y-14311D01*
X602615Y-14452D01*
X602418Y-14583D01*
X602203Y-14705D01*
X602212D01*
X602240Y-14714D01*
X602287Y-14733D01*
X602343Y-14752D01*
X602418Y-14780D01*
X602503Y-14817D01*
X602699Y-14911D01*
X602915Y-15033D01*
X603140Y-15183D01*
X603355Y-15370D01*
X603449Y-15473D01*
X603543Y-15586D01*
X603552Y-15595D01*
X603562Y-15614D01*
X603590Y-15651D01*
X603618Y-15698D01*
X603655Y-15754D01*
X603693Y-15820D01*
X603740Y-15904D01*
X603787Y-15998D01*
X603824Y-16092D01*
X603871Y-16204D01*
X603946Y-16448D01*
X604002Y-16729D01*
X604011Y-16879D01*
X604021Y-17029D01*
Y-17039D01*
Y-17057D01*
Y-17095D01*
Y-17142D01*
X604011Y-17198D01*
X604002Y-17263D01*
X603983Y-17432D01*
X603946Y-17620D01*
X603890Y-17835D01*
X603815Y-18069D01*
X603712Y-18304D01*
Y-18313D01*
X603702Y-18332D01*
X603684Y-18360D01*
X603655Y-18407D01*
X603627Y-18454D01*
X603590Y-18519D01*
X603496Y-18660D01*
X603374Y-18819D01*
X603234Y-18979D01*
X603065Y-19138D01*
X602877Y-19288D01*
X602868D01*
X602849Y-19307D01*
X602821Y-19325D01*
X602784Y-19344D01*
X602737Y-19372D01*
X602671Y-19410D01*
X602596Y-19447D01*
X602521Y-19485D01*
X602334Y-19560D01*
X602109Y-19635D01*
X601865Y-19700D01*
X601584Y-19747D01*
X601528D01*
X601481Y-19757D01*
X601415D01*
X601331Y-19766D01*
X601228D01*
X601106Y-19775D01*
X600965D01*
X600797Y-19785D01*
X600609D01*
X600394Y-19794D01*
X599878D01*
X599569Y-19803D01*
X595979D01*
Y-10196D01*
X600094D01*
X600206Y-10206D01*
D02*
G37*
G36*
X700596Y-480042D02*
X700749Y-480056D01*
X700915Y-480084D01*
X701109Y-480111D01*
X701318Y-480153D01*
X701539Y-480208D01*
X701775Y-480278D01*
X702011Y-480361D01*
X702261Y-480472D01*
X702496Y-480583D01*
X702718Y-480722D01*
X702954Y-480888D01*
X703162Y-481068D01*
X703176D01*
X703190Y-481096D01*
X703231Y-481138D01*
X703273Y-481179D01*
X703328Y-481249D01*
X703384Y-481332D01*
X703536Y-481526D01*
X703689Y-481776D01*
X703855Y-482081D01*
X704008Y-482427D01*
X704147Y-482830D01*
X702233Y-483287D01*
Y-483273D01*
X702219Y-483260D01*
Y-483218D01*
X702191Y-483162D01*
X702150Y-483038D01*
X702080Y-482871D01*
X701983Y-482677D01*
X701858Y-482483D01*
X701692Y-482289D01*
X701512Y-482122D01*
X701484Y-482108D01*
X701415Y-482053D01*
X701304Y-481984D01*
X701151Y-481900D01*
X700957Y-481817D01*
X700735Y-481748D01*
X700485Y-481692D01*
X700208Y-481679D01*
X700111D01*
X700028Y-481692D01*
X699945Y-481706D01*
X699834Y-481720D01*
X699598Y-481776D01*
X699320Y-481873D01*
X699029Y-482011D01*
X698877Y-482094D01*
X698738Y-482192D01*
X698599Y-482316D01*
X698475Y-482455D01*
Y-482469D01*
X698447Y-482497D01*
X698419Y-482538D01*
X698377Y-482608D01*
X698322Y-482691D01*
X698266Y-482788D01*
X698211Y-482913D01*
X698156Y-483051D01*
X698086Y-483218D01*
X698031Y-483398D01*
X697975Y-483606D01*
X697920Y-483828D01*
X697878Y-484078D01*
X697850Y-484341D01*
X697837Y-484632D01*
X697823Y-484951D01*
Y-484965D01*
Y-485035D01*
Y-485132D01*
X697837Y-485243D01*
Y-485395D01*
X697864Y-485575D01*
X697878Y-485756D01*
X697906Y-485964D01*
X697989Y-486394D01*
X698100Y-486824D01*
X698169Y-487032D01*
X698266Y-487226D01*
X698363Y-487406D01*
X698475Y-487559D01*
X698488Y-487573D01*
X698502Y-487586D01*
X698544Y-487628D01*
X698599Y-487683D01*
X698738Y-487794D01*
X698932Y-487933D01*
X699168Y-488086D01*
X699459Y-488197D01*
X699792Y-488294D01*
X699972Y-488308D01*
X700166Y-488321D01*
X700236D01*
X700291Y-488308D01*
X700444Y-488294D01*
X700624Y-488266D01*
X700818Y-488197D01*
X701040Y-488113D01*
X701262Y-488003D01*
X701484Y-487836D01*
X701512Y-487808D01*
X701581Y-487739D01*
X701678Y-487628D01*
X701789Y-487462D01*
X701928Y-487240D01*
X702053Y-486976D01*
X702177Y-486657D01*
X702288Y-486283D01*
X704174Y-486865D01*
Y-486879D01*
X704161Y-486935D01*
X704133Y-487018D01*
X704091Y-487129D01*
X704036Y-487254D01*
X703980Y-487406D01*
X703911Y-487573D01*
X703828Y-487753D01*
X703633Y-488127D01*
X703384Y-488516D01*
X703079Y-488890D01*
X702912Y-489057D01*
X702732Y-489209D01*
X702718Y-489223D01*
X702691Y-489237D01*
X702635Y-489278D01*
X702552Y-489334D01*
X702455Y-489389D01*
X702330Y-489445D01*
X702191Y-489514D01*
X702039Y-489584D01*
X701858Y-489667D01*
X701664Y-489736D01*
X701456Y-489791D01*
X701234Y-489847D01*
X700999Y-489902D01*
X700735Y-489944D01*
X700471Y-489958D01*
X700180Y-489972D01*
X700097D01*
X700000Y-489958D01*
X699861Y-489944D01*
X699709Y-489930D01*
X699515Y-489902D01*
X699307Y-489861D01*
X699071Y-489805D01*
X698835Y-489736D01*
X698585Y-489653D01*
X698322Y-489542D01*
X698058Y-489417D01*
X697795Y-489278D01*
X697531Y-489098D01*
X697282Y-488904D01*
X697046Y-488668D01*
X697032Y-488654D01*
X696991Y-488613D01*
X696935Y-488530D01*
X696852Y-488432D01*
X696769Y-488294D01*
X696658Y-488141D01*
X696547Y-487947D01*
X696436Y-487725D01*
X696325Y-487489D01*
X696214Y-487226D01*
X696103Y-486921D01*
X696020Y-486602D01*
X695937Y-486269D01*
X695881Y-485895D01*
X695839Y-485506D01*
X695826Y-485090D01*
Y-485076D01*
Y-485062D01*
Y-484979D01*
X695839Y-484854D01*
Y-484688D01*
X695867Y-484494D01*
X695895Y-484258D01*
X695923Y-484008D01*
X695978Y-483717D01*
X696048Y-483426D01*
X696131Y-483121D01*
X696228Y-482816D01*
X696353Y-482497D01*
X696491Y-482192D01*
X696658Y-481900D01*
X696838Y-481623D01*
X697060Y-481359D01*
X697074Y-481346D01*
X697115Y-481304D01*
X697185Y-481235D01*
X697282Y-481152D01*
X697407Y-481054D01*
X697559Y-480943D01*
X697726Y-480819D01*
X697934Y-480694D01*
X698156Y-480569D01*
X698391Y-480444D01*
X698669Y-480333D01*
X698946Y-480236D01*
X699265Y-480153D01*
X699584Y-480084D01*
X699945Y-480042D01*
X700305Y-480028D01*
X700471D01*
X700596Y-480042D01*
D02*
G37*
G36*
X250206Y-10206D02*
X250450D01*
X250731Y-10225D01*
X251012Y-10243D01*
X251275Y-10262D01*
X251397Y-10281D01*
X251509Y-10300D01*
X251537D01*
X251565Y-10309D01*
X251603Y-10318D01*
X251706Y-10346D01*
X251846Y-10384D01*
X252006Y-10440D01*
X252165Y-10506D01*
X252343Y-10590D01*
X252512Y-10693D01*
X252521D01*
X252531Y-10703D01*
X252587Y-10749D01*
X252671Y-10815D01*
X252774Y-10909D01*
X252887Y-11021D01*
X253018Y-11162D01*
X253140Y-11321D01*
X253252Y-11499D01*
Y-11509D01*
X253262Y-11518D01*
X253280Y-11546D01*
X253299Y-11584D01*
X253318Y-11631D01*
X253346Y-11687D01*
X253402Y-11827D01*
X253458Y-11996D01*
X253505Y-12184D01*
X253543Y-12399D01*
X253552Y-12624D01*
Y-12633D01*
Y-12652D01*
Y-12690D01*
X253543Y-12737D01*
Y-12793D01*
X253533Y-12868D01*
X253505Y-13027D01*
X253468Y-13224D01*
X253402Y-13430D01*
X253309Y-13646D01*
X253187Y-13861D01*
Y-13871D01*
X253168Y-13889D01*
X253149Y-13917D01*
X253121Y-13955D01*
X253037Y-14058D01*
X252924Y-14180D01*
X252784Y-14311D01*
X252615Y-14452D01*
X252418Y-14583D01*
X252203Y-14705D01*
X252212D01*
X252240Y-14714D01*
X252287Y-14733D01*
X252343Y-14752D01*
X252418Y-14780D01*
X252502Y-14817D01*
X252699Y-14911D01*
X252915Y-15033D01*
X253140Y-15183D01*
X253355Y-15370D01*
X253449Y-15473D01*
X253543Y-15586D01*
X253552Y-15595D01*
X253562Y-15614D01*
X253590Y-15651D01*
X253618Y-15698D01*
X253655Y-15754D01*
X253693Y-15820D01*
X253740Y-15904D01*
X253787Y-15998D01*
X253824Y-16092D01*
X253871Y-16204D01*
X253946Y-16448D01*
X254002Y-16729D01*
X254011Y-16879D01*
X254021Y-17029D01*
Y-17039D01*
Y-17057D01*
Y-17095D01*
Y-17142D01*
X254011Y-17198D01*
X254002Y-17263D01*
X253983Y-17432D01*
X253946Y-17620D01*
X253890Y-17835D01*
X253815Y-18069D01*
X253712Y-18304D01*
Y-18313D01*
X253702Y-18332D01*
X253683Y-18360D01*
X253655Y-18407D01*
X253627Y-18454D01*
X253590Y-18519D01*
X253496Y-18660D01*
X253374Y-18819D01*
X253234Y-18979D01*
X253065Y-19138D01*
X252877Y-19288D01*
X252868D01*
X252849Y-19307D01*
X252821Y-19325D01*
X252784Y-19344D01*
X252737Y-19372D01*
X252671Y-19410D01*
X252596Y-19447D01*
X252521Y-19485D01*
X252334Y-19560D01*
X252109Y-19635D01*
X251865Y-19700D01*
X251584Y-19747D01*
X251528D01*
X251481Y-19757D01*
X251415D01*
X251331Y-19766D01*
X251228D01*
X251106Y-19775D01*
X250965D01*
X250797Y-19785D01*
X250609D01*
X250394Y-19794D01*
X249878D01*
X249569Y-19803D01*
X245979D01*
Y-10196D01*
X250094D01*
X250206Y-10206D01*
D02*
G37*
G36*
X100206D02*
X100450D01*
X100731Y-10225D01*
X101012Y-10243D01*
X101275Y-10262D01*
X101397Y-10281D01*
X101509Y-10300D01*
X101537D01*
X101565Y-10309D01*
X101603Y-10318D01*
X101706Y-10346D01*
X101846Y-10384D01*
X102006Y-10440D01*
X102165Y-10506D01*
X102343Y-10590D01*
X102512Y-10693D01*
X102521D01*
X102531Y-10703D01*
X102587Y-10749D01*
X102671Y-10815D01*
X102774Y-10909D01*
X102887Y-11021D01*
X103018Y-11162D01*
X103140Y-11321D01*
X103252Y-11499D01*
Y-11509D01*
X103262Y-11518D01*
X103280Y-11546D01*
X103299Y-11584D01*
X103318Y-11631D01*
X103346Y-11687D01*
X103402Y-11827D01*
X103458Y-11996D01*
X103505Y-12184D01*
X103543Y-12399D01*
X103552Y-12624D01*
Y-12633D01*
Y-12652D01*
Y-12690D01*
X103543Y-12737D01*
Y-12793D01*
X103533Y-12868D01*
X103505Y-13027D01*
X103468Y-13224D01*
X103402Y-13430D01*
X103308Y-13646D01*
X103187Y-13861D01*
Y-13871D01*
X103168Y-13889D01*
X103149Y-13917D01*
X103121Y-13955D01*
X103037Y-14058D01*
X102924Y-14180D01*
X102784Y-14311D01*
X102615Y-14452D01*
X102418Y-14583D01*
X102203Y-14705D01*
X102212D01*
X102240Y-14714D01*
X102287Y-14733D01*
X102343Y-14752D01*
X102418Y-14780D01*
X102502Y-14817D01*
X102699Y-14911D01*
X102915Y-15033D01*
X103140Y-15183D01*
X103355Y-15370D01*
X103449Y-15473D01*
X103543Y-15586D01*
X103552Y-15595D01*
X103562Y-15614D01*
X103590Y-15651D01*
X103618Y-15698D01*
X103655Y-15754D01*
X103693Y-15820D01*
X103740Y-15904D01*
X103786Y-15998D01*
X103824Y-16092D01*
X103871Y-16204D01*
X103946Y-16448D01*
X104002Y-16729D01*
X104011Y-16879D01*
X104021Y-17029D01*
Y-17039D01*
Y-17057D01*
Y-17095D01*
Y-17142D01*
X104011Y-17198D01*
X104002Y-17263D01*
X103983Y-17432D01*
X103946Y-17620D01*
X103890Y-17835D01*
X103815Y-18069D01*
X103712Y-18304D01*
Y-18313D01*
X103702Y-18332D01*
X103683Y-18360D01*
X103655Y-18407D01*
X103627Y-18454D01*
X103590Y-18519D01*
X103496Y-18660D01*
X103374Y-18819D01*
X103234Y-18979D01*
X103065Y-19138D01*
X102877Y-19288D01*
X102868D01*
X102849Y-19307D01*
X102821Y-19325D01*
X102784Y-19344D01*
X102737Y-19372D01*
X102671Y-19410D01*
X102596Y-19447D01*
X102521Y-19485D01*
X102334Y-19560D01*
X102109Y-19635D01*
X101865Y-19700D01*
X101584Y-19747D01*
X101528D01*
X101481Y-19757D01*
X101415D01*
X101331Y-19766D01*
X101228D01*
X101106Y-19775D01*
X100965D01*
X100797Y-19785D01*
X100609D01*
X100394Y-19794D01*
X99878D01*
X99569Y-19803D01*
X95979D01*
Y-10196D01*
X100094D01*
X100206Y-10206D01*
D02*
G37*
G36*
X757111Y-185019D02*
X757222D01*
X757351Y-185037D01*
X757648Y-185074D01*
X757981Y-185148D01*
X758314Y-185259D01*
X758666Y-185426D01*
X758999Y-185630D01*
X759018D01*
X759036Y-185667D01*
X759129Y-185741D01*
X759277Y-185889D01*
X759462Y-186092D01*
X759648Y-186352D01*
X759851Y-186667D01*
X760018Y-187018D01*
X760147Y-187444D01*
Y-187426D01*
X760166Y-187407D01*
X760184Y-187352D01*
X760221Y-187278D01*
X760296Y-187111D01*
X760407Y-186889D01*
X760555Y-186648D01*
X760740Y-186407D01*
X760944Y-186185D01*
X761166Y-185981D01*
X761203Y-185963D01*
X761277Y-185907D01*
X761425Y-185833D01*
X761610Y-185759D01*
X761851Y-185667D01*
X762129Y-185593D01*
X762443Y-185537D01*
X762777Y-185518D01*
X762795D01*
X762832D01*
X762906D01*
X763018Y-185537D01*
X763129Y-185555D01*
X763277Y-185574D01*
X763592Y-185648D01*
X763962Y-185759D01*
X764351Y-185944D01*
X764554Y-186056D01*
X764758Y-186185D01*
X764943Y-186352D01*
X765128Y-186518D01*
X765147Y-186537D01*
X765165Y-186574D01*
X765221Y-186630D01*
X765276Y-186704D01*
X765351Y-186796D01*
X765425Y-186926D01*
X765517Y-187074D01*
X765610Y-187222D01*
X765702Y-187407D01*
X765795Y-187611D01*
X765869Y-187833D01*
X765943Y-188074D01*
X766054Y-188592D01*
X766073Y-188888D01*
X766091Y-189185D01*
Y-189351D01*
X766073Y-189463D01*
X766054Y-189611D01*
X766036Y-189777D01*
X766017Y-189963D01*
X765962Y-190148D01*
X765851Y-190592D01*
X765684Y-191036D01*
X765573Y-191259D01*
X765443Y-191481D01*
X765276Y-191684D01*
X765110Y-191888D01*
X765091Y-191907D01*
X765073Y-191925D01*
X765017Y-191981D01*
X764943Y-192055D01*
X764832Y-192129D01*
X764721Y-192222D01*
X764443Y-192407D01*
X764091Y-192592D01*
X763684Y-192759D01*
X763221Y-192888D01*
X762980Y-192907D01*
X762721Y-192925D01*
X762703D01*
X762684D01*
X762573D01*
X762406Y-192907D01*
X762203Y-192870D01*
X761944Y-192814D01*
X761684Y-192722D01*
X761425Y-192610D01*
X761166Y-192444D01*
X761129Y-192425D01*
X761055Y-192351D01*
X760944Y-192240D01*
X760796Y-192092D01*
X760629Y-191888D01*
X760462Y-191647D01*
X760296Y-191370D01*
X760147Y-191036D01*
Y-191055D01*
X760129Y-191092D01*
X760110Y-191147D01*
X760073Y-191222D01*
X759981Y-191444D01*
X759851Y-191703D01*
X759666Y-191981D01*
X759462Y-192277D01*
X759203Y-192555D01*
X758907Y-192814D01*
X758888D01*
X758870Y-192833D01*
X758759Y-192907D01*
X758574Y-193018D01*
X758333Y-193129D01*
X758036Y-193240D01*
X757685Y-193351D01*
X757296Y-193425D01*
X756870Y-193444D01*
X756852D01*
X756796D01*
X756703D01*
X756592Y-193425D01*
X756463Y-193407D01*
X756296Y-193388D01*
X756111Y-193351D01*
X755907Y-193295D01*
X755481Y-193166D01*
X755240Y-193073D01*
X755018Y-192944D01*
X754778Y-192814D01*
X754555Y-192666D01*
X754333Y-192481D01*
X754111Y-192277D01*
X754092Y-192258D01*
X754055Y-192222D01*
X754000Y-192166D01*
X753944Y-192073D01*
X753852Y-191944D01*
X753759Y-191814D01*
X753667Y-191647D01*
X753556Y-191462D01*
X753444Y-191259D01*
X753352Y-191018D01*
X753259Y-190759D01*
X753167Y-190499D01*
X753111Y-190203D01*
X753056Y-189888D01*
X753018Y-189574D01*
X753000Y-189222D01*
Y-189037D01*
X753018Y-188907D01*
X753037Y-188740D01*
X753056Y-188555D01*
X753093Y-188351D01*
X753148Y-188129D01*
X753278Y-187629D01*
X753370Y-187370D01*
X753463Y-187129D01*
X753593Y-186870D01*
X753741Y-186611D01*
X753907Y-186370D01*
X754111Y-186148D01*
X754129Y-186129D01*
X754167Y-186092D01*
X754222Y-186037D01*
X754315Y-185963D01*
X754426Y-185889D01*
X754555Y-185778D01*
X754704Y-185685D01*
X754889Y-185574D01*
X755074Y-185463D01*
X755296Y-185370D01*
X755759Y-185185D01*
X756037Y-185111D01*
X756314Y-185056D01*
X756611Y-185019D01*
X756907Y-185000D01*
X756926D01*
X756963D01*
X757037D01*
X757111Y-185019D01*
D02*
G37*
G36*
X756703Y-196628D02*
X756685D01*
X756648D01*
X756592Y-196647D01*
X756500Y-196665D01*
X756296Y-196721D01*
X756018Y-196795D01*
X755741Y-196906D01*
X755426Y-197054D01*
X755148Y-197239D01*
X754889Y-197462D01*
X754870Y-197499D01*
X754796Y-197573D01*
X754704Y-197721D01*
X754592Y-197925D01*
X754481Y-198147D01*
X754389Y-198425D01*
X754315Y-198739D01*
X754296Y-199091D01*
Y-199202D01*
X754315Y-199276D01*
X754333Y-199499D01*
X754407Y-199758D01*
X754500Y-200072D01*
X754648Y-200387D01*
X754870Y-200721D01*
X755000Y-200869D01*
X755148Y-201017D01*
X755166Y-201035D01*
X755185Y-201054D01*
X755240Y-201091D01*
X755296Y-201147D01*
X755500Y-201276D01*
X755759Y-201424D01*
X756074Y-201554D01*
X756463Y-201684D01*
X756926Y-201776D01*
X757166Y-201813D01*
X757426D01*
X757444D01*
X757481D01*
X757555D01*
X757648Y-201795D01*
X757759D01*
X757888Y-201776D01*
X758185Y-201721D01*
X758537Y-201628D01*
X758888Y-201498D01*
X759222Y-201313D01*
X759536Y-201054D01*
X759555D01*
X759573Y-201017D01*
X759666Y-200924D01*
X759796Y-200758D01*
X759944Y-200536D01*
X760073Y-200239D01*
X760203Y-199906D01*
X760296Y-199517D01*
X760333Y-199295D01*
Y-198943D01*
X760314Y-198795D01*
X760296Y-198610D01*
X760240Y-198388D01*
X760184Y-198165D01*
X760092Y-197925D01*
X759981Y-197684D01*
X759962Y-197665D01*
X759925Y-197591D01*
X759833Y-197480D01*
X759740Y-197332D01*
X759610Y-197184D01*
X759444Y-197036D01*
X759277Y-196869D01*
X759073Y-196740D01*
X759277Y-195258D01*
X765869Y-196499D01*
Y-202869D01*
X764369D01*
Y-197740D01*
X760907Y-197054D01*
X760925Y-197073D01*
X760944Y-197110D01*
X760981Y-197165D01*
X761036Y-197258D01*
X761092Y-197369D01*
X761166Y-197499D01*
X761314Y-197795D01*
X761462Y-198165D01*
X761592Y-198573D01*
X761684Y-199017D01*
X761721Y-199239D01*
Y-199647D01*
X761703Y-199758D01*
X761684Y-199906D01*
X761666Y-200072D01*
X761629Y-200258D01*
X761573Y-200461D01*
X761444Y-200906D01*
X761351Y-201147D01*
X761221Y-201387D01*
X761092Y-201628D01*
X760944Y-201869D01*
X760759Y-202091D01*
X760555Y-202313D01*
X760536Y-202332D01*
X760499Y-202369D01*
X760444Y-202424D01*
X760351Y-202498D01*
X760221Y-202591D01*
X760092Y-202683D01*
X759925Y-202794D01*
X759740Y-202906D01*
X759536Y-202998D01*
X759314Y-203109D01*
X759055Y-203202D01*
X758796Y-203294D01*
X758518Y-203368D01*
X758203Y-203424D01*
X757888Y-203461D01*
X757555Y-203480D01*
X757537D01*
X757481D01*
X757389D01*
X757259Y-203461D01*
X757111Y-203443D01*
X756944Y-203424D01*
X756740Y-203387D01*
X756537Y-203350D01*
X756055Y-203239D01*
X755555Y-203054D01*
X755296Y-202943D01*
X755055Y-202794D01*
X754796Y-202646D01*
X754555Y-202461D01*
X754537Y-202443D01*
X754481Y-202406D01*
X754407Y-202332D01*
X754315Y-202239D01*
X754204Y-202109D01*
X754055Y-201961D01*
X753926Y-201776D01*
X753778Y-201572D01*
X753630Y-201350D01*
X753500Y-201091D01*
X753370Y-200813D01*
X753241Y-200517D01*
X753148Y-200202D01*
X753074Y-199850D01*
X753018Y-199480D01*
X753000Y-199091D01*
Y-198925D01*
X753018Y-198795D01*
X753037Y-198647D01*
X753056Y-198480D01*
X753074Y-198276D01*
X753130Y-198073D01*
X753241Y-197610D01*
X753407Y-197147D01*
X753519Y-196906D01*
X753648Y-196665D01*
X753796Y-196443D01*
X753963Y-196221D01*
X753981Y-196203D01*
X754000Y-196166D01*
X754074Y-196129D01*
X754148Y-196054D01*
X754241Y-195962D01*
X754352Y-195869D01*
X754500Y-195758D01*
X754667Y-195666D01*
X754833Y-195555D01*
X755037Y-195443D01*
X755481Y-195240D01*
X756000Y-195073D01*
X756277Y-195018D01*
X756574Y-194981D01*
X756703Y-196628D01*
D02*
G37*
G36*
X757481Y-206609D02*
X757462D01*
X757444D01*
X757389Y-206627D01*
X757314D01*
X757148Y-206665D01*
X756907Y-206720D01*
X756666Y-206794D01*
X756389Y-206868D01*
X756129Y-206998D01*
X755889Y-207127D01*
X755870Y-207146D01*
X755796Y-207201D01*
X755666Y-207294D01*
X755537Y-207442D01*
X755370Y-207627D01*
X755203Y-207831D01*
X755037Y-208109D01*
X754889Y-208405D01*
Y-208424D01*
X754870Y-208442D01*
X754852Y-208498D01*
X754833Y-208553D01*
X754778Y-208738D01*
X754704Y-208979D01*
X754630Y-209275D01*
X754574Y-209609D01*
X754537Y-209979D01*
X754518Y-210386D01*
Y-210553D01*
X754537Y-210738D01*
X754555Y-210960D01*
X754592Y-211220D01*
X754630Y-211516D01*
X754704Y-211812D01*
X754796Y-212090D01*
X754815Y-212127D01*
X754852Y-212219D01*
X754926Y-212349D01*
X755000Y-212516D01*
X755129Y-212682D01*
X755259Y-212868D01*
X755407Y-213053D01*
X755592Y-213201D01*
X755611Y-213219D01*
X755685Y-213256D01*
X755778Y-213312D01*
X755926Y-213386D01*
X756074Y-213460D01*
X756259Y-213516D01*
X756463Y-213553D01*
X756685Y-213571D01*
X756703D01*
X756796D01*
X756907Y-213553D01*
X757055Y-213534D01*
X757203Y-213479D01*
X757389Y-213423D01*
X757574Y-213330D01*
X757740Y-213201D01*
X757759Y-213182D01*
X757814Y-213127D01*
X757888Y-213053D01*
X757999Y-212923D01*
X758111Y-212775D01*
X758240Y-212571D01*
X758370Y-212330D01*
X758481Y-212053D01*
X758499Y-212034D01*
X758518Y-211942D01*
X758574Y-211794D01*
X758592Y-211701D01*
X758629Y-211571D01*
X758685Y-211442D01*
X758722Y-211275D01*
X758777Y-211090D01*
X758833Y-210868D01*
X758888Y-210646D01*
X758962Y-210386D01*
X759036Y-210090D01*
X759110Y-209775D01*
Y-209757D01*
X759129Y-209701D01*
X759147Y-209609D01*
X759185Y-209498D01*
X759222Y-209349D01*
X759259Y-209183D01*
X759370Y-208812D01*
X759499Y-208405D01*
X759629Y-207979D01*
X759759Y-207609D01*
X759833Y-207442D01*
X759907Y-207294D01*
Y-207276D01*
X759925Y-207257D01*
X759999Y-207146D01*
X760092Y-206979D01*
X760240Y-206794D01*
X760407Y-206572D01*
X760610Y-206350D01*
X760851Y-206127D01*
X761110Y-205942D01*
X761147Y-205924D01*
X761240Y-205868D01*
X761388Y-205794D01*
X761573Y-205720D01*
X761814Y-205646D01*
X762092Y-205572D01*
X762388Y-205516D01*
X762703Y-205498D01*
X762721D01*
X762740D01*
X762795D01*
X762869D01*
X763055Y-205535D01*
X763295Y-205572D01*
X763573Y-205627D01*
X763888Y-205720D01*
X764203Y-205850D01*
X764517Y-206035D01*
X764536D01*
X764554Y-206053D01*
X764666Y-206146D01*
X764814Y-206276D01*
X764999Y-206442D01*
X765202Y-206665D01*
X765425Y-206942D01*
X765628Y-207276D01*
X765814Y-207646D01*
Y-207664D01*
X765832Y-207701D01*
X765851Y-207757D01*
X765888Y-207831D01*
X765925Y-207924D01*
X765962Y-208053D01*
X766036Y-208331D01*
X766110Y-208683D01*
X766184Y-209090D01*
X766239Y-209516D01*
X766258Y-209997D01*
Y-210238D01*
X766239Y-210368D01*
Y-210497D01*
X766202Y-210849D01*
X766147Y-211238D01*
X766054Y-211645D01*
X765943Y-212090D01*
X765795Y-212497D01*
Y-212516D01*
X765777Y-212553D01*
X765739Y-212608D01*
X765702Y-212682D01*
X765610Y-212868D01*
X765443Y-213108D01*
X765258Y-213386D01*
X765017Y-213664D01*
X764740Y-213923D01*
X764425Y-214164D01*
X764406D01*
X764388Y-214182D01*
X764332Y-214219D01*
X764277Y-214256D01*
X764091Y-214349D01*
X763851Y-214460D01*
X763555Y-214590D01*
X763203Y-214682D01*
X762832Y-214775D01*
X762425Y-214812D01*
X762295Y-213182D01*
X762314D01*
X762351D01*
X762406Y-213164D01*
X762499Y-213145D01*
X762703Y-213090D01*
X762980Y-213016D01*
X763277Y-212905D01*
X763573Y-212738D01*
X763851Y-212534D01*
X764110Y-212275D01*
X764128Y-212238D01*
X764203Y-212145D01*
X764314Y-211960D01*
X764425Y-211719D01*
X764536Y-211405D01*
X764647Y-211034D01*
X764721Y-210571D01*
X764740Y-210053D01*
Y-209794D01*
X764721Y-209683D01*
X764703Y-209534D01*
X764666Y-209201D01*
X764591Y-208831D01*
X764499Y-208461D01*
X764351Y-208109D01*
X764258Y-207961D01*
X764165Y-207812D01*
X764147Y-207775D01*
X764073Y-207701D01*
X763943Y-207590D01*
X763795Y-207479D01*
X763592Y-207350D01*
X763369Y-207239D01*
X763110Y-207164D01*
X762814Y-207127D01*
X762777D01*
X762703D01*
X762573Y-207146D01*
X762425Y-207183D01*
X762240Y-207239D01*
X762055Y-207331D01*
X761870Y-207442D01*
X761684Y-207609D01*
X761666Y-207627D01*
X761610Y-207720D01*
X761555Y-207794D01*
X761518Y-207868D01*
X761462Y-207979D01*
X761388Y-208109D01*
X761332Y-208275D01*
X761258Y-208461D01*
X761184Y-208664D01*
X761092Y-208905D01*
X761018Y-209164D01*
X760925Y-209461D01*
X760851Y-209794D01*
X760759Y-210164D01*
Y-210183D01*
X760740Y-210257D01*
X760721Y-210368D01*
X760684Y-210497D01*
X760647Y-210664D01*
X760592Y-210868D01*
X760536Y-211071D01*
X760481Y-211294D01*
X760351Y-211775D01*
X760221Y-212238D01*
X760147Y-212460D01*
X760073Y-212664D01*
X760018Y-212849D01*
X759944Y-212997D01*
Y-213016D01*
X759925Y-213053D01*
X759888Y-213108D01*
X759851Y-213182D01*
X759740Y-213386D01*
X759592Y-213627D01*
X759388Y-213904D01*
X759166Y-214182D01*
X758907Y-214441D01*
X758629Y-214664D01*
X758592Y-214682D01*
X758499Y-214756D01*
X758333Y-214830D01*
X758111Y-214941D01*
X757851Y-215034D01*
X757537Y-215126D01*
X757185Y-215182D01*
X756814Y-215201D01*
X756796D01*
X756777D01*
X756722D01*
X756648D01*
X756444Y-215164D01*
X756185Y-215126D01*
X755889Y-215053D01*
X755574Y-214960D01*
X755240Y-214812D01*
X754889Y-214608D01*
X754870D01*
X754852Y-214590D01*
X754741Y-214497D01*
X754574Y-214367D01*
X754389Y-214182D01*
X754167Y-213941D01*
X753926Y-213645D01*
X753704Y-213312D01*
X753500Y-212923D01*
Y-212905D01*
X753481Y-212868D01*
X753463Y-212812D01*
X753426Y-212738D01*
X753389Y-212627D01*
X753333Y-212497D01*
X753259Y-212201D01*
X753167Y-211849D01*
X753074Y-211423D01*
X753018Y-210960D01*
X753000Y-210460D01*
Y-210164D01*
X753018Y-210016D01*
Y-209849D01*
X753037Y-209664D01*
X753056Y-209442D01*
X753130Y-208979D01*
X753204Y-208498D01*
X753333Y-208016D01*
X753500Y-207553D01*
Y-207535D01*
X753519Y-207498D01*
X753556Y-207442D01*
X753593Y-207368D01*
X753704Y-207146D01*
X753870Y-206887D01*
X754092Y-206590D01*
X754352Y-206276D01*
X754667Y-205979D01*
X755018Y-205702D01*
X755037D01*
X755074Y-205665D01*
X755129Y-205646D01*
X755203Y-205590D01*
X755296Y-205553D01*
X755407Y-205498D01*
X755685Y-205368D01*
X756037Y-205239D01*
X756426Y-205128D01*
X756870Y-205054D01*
X757333Y-205016D01*
X757481Y-206609D01*
D02*
G37*
%LPC*%
G36*
X449691Y-11799D02*
X447919D01*
Y-14021D01*
X449785D01*
X450028Y-14011D01*
X450262D01*
X450366Y-14002D01*
X450459D01*
X450534Y-13992D01*
X450619D01*
X450647Y-13983D01*
X450684D01*
X450769Y-13955D01*
X450881Y-13927D01*
X451012Y-13889D01*
X451134Y-13824D01*
X451265Y-13749D01*
X451378Y-13655D01*
X451387Y-13646D01*
X451425Y-13599D01*
X451471Y-13542D01*
X451528Y-13449D01*
X451575Y-13346D01*
X451622Y-13214D01*
X451659Y-13065D01*
X451668Y-12896D01*
Y-12887D01*
Y-12877D01*
Y-12821D01*
X451659Y-12746D01*
X451640Y-12643D01*
X451603Y-12530D01*
X451565Y-12408D01*
X451500Y-12287D01*
X451415Y-12174D01*
X451406Y-12165D01*
X451368Y-12127D01*
X451312Y-12080D01*
X451237Y-12024D01*
X451134Y-11968D01*
X451003Y-11912D01*
X450853Y-11865D01*
X450684Y-11837D01*
X450647D01*
X450619Y-11827D01*
X450525D01*
X450459Y-11818D01*
X450272D01*
X450159Y-11809D01*
X449869D01*
X449691Y-11799D01*
D02*
G37*
G36*
X449719Y-15623D02*
X447919D01*
Y-18182D01*
X450056D01*
X450272Y-18173D01*
X450497D01*
X450712Y-18154D01*
X450816D01*
X450900Y-18145D01*
X450975Y-18135D01*
X451040Y-18126D01*
X451059D01*
X451115Y-18107D01*
X451190Y-18088D01*
X451293Y-18051D01*
X451406Y-18004D01*
X451518Y-17938D01*
X451631Y-17854D01*
X451743Y-17751D01*
X451753Y-17732D01*
X451790Y-17695D01*
X451837Y-17629D01*
X451884Y-17535D01*
X451940Y-17413D01*
X451978Y-17273D01*
X452015Y-17113D01*
X452024Y-16935D01*
Y-16926D01*
Y-16917D01*
Y-16860D01*
X452015Y-16786D01*
X451996Y-16682D01*
X451968Y-16570D01*
X451931Y-16448D01*
X451884Y-16326D01*
X451809Y-16204D01*
X451800Y-16195D01*
X451772Y-16157D01*
X451725Y-16101D01*
X451659Y-16036D01*
X451565Y-15961D01*
X451462Y-15895D01*
X451340Y-15820D01*
X451200Y-15764D01*
X451181Y-15754D01*
X451153D01*
X451115Y-15745D01*
X451068Y-15726D01*
X451003Y-15717D01*
X450928Y-15708D01*
X450834Y-15689D01*
X450731Y-15680D01*
X450609Y-15670D01*
X450469Y-15651D01*
X450309Y-15642D01*
X450131Y-15633D01*
X449934D01*
X449719Y-15623D01*
D02*
G37*
G36*
X249813Y-480201D02*
X245985D01*
Y-489798D01*
X254015D01*
Y-485097D01*
X254001Y-484612D01*
X253959Y-484182D01*
X253946Y-483974D01*
X253918Y-483793D01*
X253890Y-483613D01*
X253862Y-483461D01*
X253821Y-483322D01*
X253793Y-483197D01*
X253765Y-483086D01*
X253751Y-483003D01*
X253724Y-482934D01*
X253710Y-482878D01*
X253696Y-482850D01*
Y-482836D01*
X253571Y-482504D01*
X253419Y-482199D01*
X253266Y-481935D01*
X253113Y-481713D01*
X252989Y-481533D01*
X252878Y-481394D01*
X252808Y-481311D01*
X252794Y-481283D01*
X252781D01*
X252545Y-481061D01*
X252309Y-480881D01*
X252059Y-480728D01*
X251838Y-480604D01*
X251643Y-480507D01*
X251477Y-480437D01*
X251422Y-480423D01*
X251380Y-480410D01*
X251352Y-480396D01*
X251338D01*
X251075Y-480326D01*
X250784Y-480285D01*
X250478Y-480243D01*
X250187Y-480229D01*
X249924Y-480215D01*
X249813Y-480201D01*
D02*
G37*
%LPD*%
G36*
X249369Y-481838D02*
X249535D01*
X249674Y-481852D01*
X249799D01*
X249924Y-481866D01*
X250021D01*
X250173Y-481893D01*
X250284Y-481907D01*
X250354Y-481921D01*
X250368D01*
X250562Y-481977D01*
X250728Y-482046D01*
X250881Y-482115D01*
X251019Y-482199D01*
X251116Y-482268D01*
X251200Y-482323D01*
X251241Y-482365D01*
X251255Y-482379D01*
X251380Y-482518D01*
X251491Y-482670D01*
X251588Y-482823D01*
X251671Y-482961D01*
X251727Y-483100D01*
X251768Y-483211D01*
X251796Y-483280D01*
X251810Y-483294D01*
Y-483308D01*
X251879Y-483558D01*
X251935Y-483821D01*
X251962Y-484112D01*
X251990Y-484390D01*
X252004Y-484626D01*
X252018Y-484737D01*
Y-484833D01*
Y-484903D01*
Y-484958D01*
Y-485000D01*
Y-485014D01*
X252004Y-485402D01*
X251990Y-485763D01*
X251949Y-486054D01*
X251921Y-486304D01*
X251879Y-486512D01*
X251865Y-486595D01*
X251838Y-486650D01*
X251824Y-486706D01*
Y-486747D01*
X251810Y-486761D01*
Y-486775D01*
X251727Y-486997D01*
X251657Y-487191D01*
X251560Y-487344D01*
X251491Y-487468D01*
X251422Y-487566D01*
X251366Y-487635D01*
X251324Y-487677D01*
X251311Y-487690D01*
X251186Y-487788D01*
X251061Y-487871D01*
X250936Y-487940D01*
X250811Y-487995D01*
X250700Y-488037D01*
X250617Y-488065D01*
X250562Y-488093D01*
X250534D01*
X250381Y-488120D01*
X250201Y-488134D01*
X250007Y-488162D01*
X249813D01*
X249632Y-488176D01*
X247927D01*
Y-481824D01*
X249189D01*
X249369Y-481838D01*
D02*
G37*
G36*
X254015Y-489798D02*
X249619D01*
X249993Y-489785D01*
X250340Y-489771D01*
X250631Y-489743D01*
X250867Y-489701D01*
X251061Y-489660D01*
X251213Y-489632D01*
X251255Y-489618D01*
X251297D01*
X251311Y-489604D01*
X251324D01*
X251630Y-489493D01*
X251907Y-489369D01*
X252129Y-489244D01*
X252323Y-489119D01*
X252475Y-489008D01*
X252586Y-488925D01*
X252656Y-488869D01*
X252684Y-488842D01*
X252919Y-488578D01*
X253127Y-488301D01*
X253308Y-488009D01*
X253446Y-487746D01*
X253557Y-487496D01*
X253613Y-487399D01*
X253640Y-487316D01*
X253668Y-487233D01*
X253696Y-487177D01*
X253710Y-487150D01*
Y-487136D01*
X253807Y-486803D01*
X253890Y-486456D01*
X253946Y-486123D01*
X253973Y-485804D01*
X253987Y-485652D01*
X254001Y-485513D01*
Y-485402D01*
X254015Y-485291D01*
Y-489798D01*
D02*
G37*
%LPC*%
G36*
X200979Y-10196D02*
X198908D01*
X195178Y-19803D01*
X197230D01*
X198027Y-17620D01*
X201870D01*
X202704Y-19803D01*
X204822D01*
X200979Y-10196D01*
D02*
G37*
%LPD*%
G36*
X201251Y-15998D02*
X198618D01*
X199920Y-12437D01*
X201251Y-15998D01*
D02*
G37*
%LPC*%
G36*
X350979Y-10196D02*
X348908D01*
X345178Y-19803D01*
X347230D01*
X348027Y-17620D01*
X351870D01*
X352704Y-19803D01*
X354822D01*
X350979Y-10196D01*
D02*
G37*
%LPD*%
G36*
X351251Y-15998D02*
X348618D01*
X349920Y-12437D01*
X351251Y-15998D01*
D02*
G37*
%LPC*%
G36*
X759691Y-11799D02*
X757919D01*
Y-14021D01*
X759784D01*
X760028Y-14011D01*
X760263D01*
X760366Y-14002D01*
X760459D01*
X760534Y-13992D01*
X760619D01*
X760647Y-13983D01*
X760684D01*
X760769Y-13955D01*
X760881Y-13927D01*
X761012Y-13889D01*
X761134Y-13824D01*
X761265Y-13749D01*
X761378Y-13655D01*
X761387Y-13646D01*
X761425Y-13599D01*
X761471Y-13542D01*
X761528Y-13449D01*
X761575Y-13346D01*
X761621Y-13214D01*
X761659Y-13065D01*
X761668Y-12896D01*
Y-12887D01*
Y-12877D01*
Y-12821D01*
X761659Y-12746D01*
X761640Y-12643D01*
X761603Y-12530D01*
X761565Y-12408D01*
X761500Y-12287D01*
X761415Y-12174D01*
X761406Y-12165D01*
X761368Y-12127D01*
X761312Y-12080D01*
X761237Y-12024D01*
X761134Y-11968D01*
X761003Y-11912D01*
X760853Y-11865D01*
X760684Y-11837D01*
X760647D01*
X760619Y-11827D01*
X760525D01*
X760459Y-11818D01*
X760272D01*
X760159Y-11809D01*
X759869D01*
X759691Y-11799D01*
D02*
G37*
G36*
X759719Y-15623D02*
X757919D01*
Y-18182D01*
X760056D01*
X760272Y-18173D01*
X760497D01*
X760712Y-18154D01*
X760815D01*
X760900Y-18145D01*
X760975Y-18135D01*
X761040Y-18126D01*
X761059D01*
X761115Y-18107D01*
X761190Y-18088D01*
X761293Y-18051D01*
X761406Y-18004D01*
X761518Y-17938D01*
X761631Y-17854D01*
X761743Y-17751D01*
X761753Y-17732D01*
X761790Y-17695D01*
X761837Y-17629D01*
X761884Y-17535D01*
X761940Y-17413D01*
X761978Y-17273D01*
X762015Y-17113D01*
X762025Y-16935D01*
Y-16926D01*
Y-16917D01*
Y-16860D01*
X762015Y-16786D01*
X761996Y-16682D01*
X761968Y-16570D01*
X761931Y-16448D01*
X761884Y-16326D01*
X761809Y-16204D01*
X761800Y-16195D01*
X761771Y-16157D01*
X761725Y-16101D01*
X761659Y-16036D01*
X761565Y-15961D01*
X761462Y-15895D01*
X761340Y-15820D01*
X761200Y-15764D01*
X761181Y-15754D01*
X761153D01*
X761115Y-15745D01*
X761068Y-15726D01*
X761003Y-15717D01*
X760928Y-15708D01*
X760834Y-15689D01*
X760731Y-15680D01*
X760609Y-15670D01*
X760469Y-15651D01*
X760309Y-15642D01*
X760131Y-15633D01*
X759934D01*
X759719Y-15623D01*
D02*
G37*
G36*
X604015Y-480201D02*
X595985D01*
Y-489798D01*
X599619D01*
X599993Y-489785D01*
X600340Y-489771D01*
X600631Y-489743D01*
X600867Y-489701D01*
X601061Y-489660D01*
X601213Y-489632D01*
X601255Y-489618D01*
X601297D01*
X601311Y-489604D01*
X601324D01*
X601629Y-489493D01*
X601907Y-489369D01*
X602129Y-489244D01*
X602323Y-489119D01*
X602476Y-489008D01*
X602587Y-488925D01*
X602656Y-488869D01*
X602683Y-488842D01*
X602919Y-488578D01*
X603127Y-488301D01*
X603308Y-488009D01*
X603446Y-487746D01*
X603557Y-487496D01*
X603613Y-487399D01*
X603640Y-487316D01*
X603668Y-487233D01*
X603696Y-487177D01*
X603710Y-487150D01*
Y-487136D01*
X603807Y-486803D01*
X603890Y-486456D01*
X603946Y-486123D01*
X603973Y-485804D01*
X603987Y-485652D01*
X604001Y-485513D01*
Y-485402D01*
X604015Y-485291D01*
Y-485097D01*
X604001Y-484612D01*
X603959Y-484182D01*
X603946Y-483974D01*
X603918Y-483793D01*
X603890Y-483613D01*
X603862Y-483461D01*
X603821Y-483322D01*
X603793Y-483197D01*
X603765Y-483086D01*
X603751Y-483003D01*
X603724Y-482934D01*
X603710Y-482878D01*
X603696Y-482850D01*
Y-482836D01*
X603571Y-482504D01*
X603419Y-482199D01*
X603266Y-481935D01*
X603113Y-481713D01*
X602989Y-481533D01*
X602878Y-481394D01*
X602808Y-481311D01*
X602794Y-481283D01*
X602781D01*
X602545Y-481061D01*
X602309Y-480881D01*
X602060Y-480728D01*
X601838Y-480604D01*
X601643Y-480507D01*
X601477Y-480437D01*
X601422Y-480423D01*
X601380Y-480410D01*
X601352Y-480396D01*
X601338D01*
X601075Y-480326D01*
X600784Y-480285D01*
X600479Y-480243D01*
X600187Y-480229D01*
X599924Y-480215D01*
X599813Y-480201D01*
X604015D01*
D01*
D02*
G37*
%LPD*%
G36*
X599369Y-481838D02*
X599535D01*
X599674Y-481852D01*
X599799D01*
X599924Y-481866D01*
X600021D01*
X600173Y-481893D01*
X600284Y-481907D01*
X600354Y-481921D01*
X600368D01*
X600562Y-481977D01*
X600728Y-482046D01*
X600881Y-482115D01*
X601019Y-482199D01*
X601116Y-482268D01*
X601200Y-482323D01*
X601241Y-482365D01*
X601255Y-482379D01*
X601380Y-482518D01*
X601491Y-482670D01*
X601588Y-482823D01*
X601671Y-482961D01*
X601727Y-483100D01*
X601768Y-483211D01*
X601796Y-483280D01*
X601810Y-483294D01*
Y-483308D01*
X601879Y-483558D01*
X601935Y-483821D01*
X601962Y-484112D01*
X601990Y-484390D01*
X602004Y-484626D01*
X602018Y-484737D01*
Y-484833D01*
Y-484903D01*
Y-484958D01*
Y-485000D01*
Y-485014D01*
X602004Y-485402D01*
X601990Y-485763D01*
X601949Y-486054D01*
X601921Y-486304D01*
X601879Y-486512D01*
X601865Y-486595D01*
X601838Y-486650D01*
X601824Y-486706D01*
Y-486747D01*
X601810Y-486761D01*
Y-486775D01*
X601727Y-486997D01*
X601657Y-487191D01*
X601560Y-487344D01*
X601491Y-487468D01*
X601422Y-487566D01*
X601366Y-487635D01*
X601324Y-487677D01*
X601311Y-487690D01*
X601186Y-487788D01*
X601061Y-487871D01*
X600936Y-487940D01*
X600811Y-487995D01*
X600700Y-488037D01*
X600617Y-488065D01*
X600562Y-488093D01*
X600534D01*
X600381Y-488120D01*
X600201Y-488134D01*
X600007Y-488162D01*
X599813D01*
X599632Y-488176D01*
X597927D01*
Y-481824D01*
X599189D01*
X599369Y-481838D01*
D02*
G37*
%LPC*%
G36*
X759813Y-480201D02*
X755985D01*
Y-489798D01*
X764015D01*
X759619D01*
X759993Y-489785D01*
X760340Y-489771D01*
X760631Y-489743D01*
X760867Y-489701D01*
X761061Y-489660D01*
X761214Y-489632D01*
X761255Y-489618D01*
X761297D01*
X761311Y-489604D01*
X761324D01*
X761629Y-489493D01*
X761907Y-489369D01*
X762129Y-489244D01*
X762323Y-489119D01*
X762476Y-489008D01*
X762587Y-488925D01*
X762656Y-488869D01*
X762683Y-488842D01*
X762919Y-488578D01*
X763127Y-488301D01*
X763308Y-488009D01*
X763446Y-487746D01*
X763557Y-487496D01*
X763613Y-487399D01*
X763641Y-487316D01*
X763668Y-487233D01*
X763696Y-487177D01*
X763710Y-487150D01*
Y-487136D01*
X763807Y-486803D01*
X763890Y-486456D01*
X763946Y-486123D01*
X763973Y-485804D01*
X763987Y-485652D01*
X764001Y-485513D01*
Y-485402D01*
X764015Y-485291D01*
Y-485097D01*
X764001Y-484612D01*
X763959Y-484182D01*
X763946Y-483974D01*
X763918Y-483793D01*
X763890Y-483613D01*
X763862Y-483461D01*
X763821Y-483322D01*
X763793Y-483197D01*
X763765Y-483086D01*
X763751Y-483003D01*
X763724Y-482934D01*
X763710Y-482878D01*
X763696Y-482850D01*
Y-482836D01*
X763571Y-482504D01*
X763419Y-482199D01*
X763266Y-481935D01*
X763113Y-481713D01*
X762989Y-481533D01*
X762878Y-481394D01*
X762808Y-481311D01*
X762794Y-481283D01*
X762781D01*
X762545Y-481061D01*
X762309Y-480881D01*
X762059Y-480728D01*
X761838Y-480604D01*
X761643Y-480507D01*
X761477Y-480437D01*
X761422Y-480423D01*
X761380Y-480410D01*
X761352Y-480396D01*
X761338D01*
X761075Y-480326D01*
X760784Y-480285D01*
X760479Y-480243D01*
X760187Y-480229D01*
X759924Y-480215D01*
X759813Y-480201D01*
D02*
G37*
%LPD*%
G36*
X759369Y-481838D02*
X759535D01*
X759674Y-481852D01*
X759799D01*
X759924Y-481866D01*
X760021D01*
X760173Y-481893D01*
X760284Y-481907D01*
X760354Y-481921D01*
X760368D01*
X760562Y-481977D01*
X760728Y-482046D01*
X760881Y-482115D01*
X761019Y-482199D01*
X761116Y-482268D01*
X761200Y-482323D01*
X761241Y-482365D01*
X761255Y-482379D01*
X761380Y-482518D01*
X761491Y-482670D01*
X761588Y-482823D01*
X761671Y-482961D01*
X761727Y-483100D01*
X761768Y-483211D01*
X761796Y-483280D01*
X761810Y-483294D01*
Y-483308D01*
X761879Y-483558D01*
X761935Y-483821D01*
X761962Y-484112D01*
X761990Y-484390D01*
X762004Y-484626D01*
X762018Y-484737D01*
Y-484833D01*
Y-484903D01*
Y-484958D01*
Y-485000D01*
Y-485014D01*
X762004Y-485402D01*
X761990Y-485763D01*
X761948Y-486054D01*
X761921Y-486304D01*
X761879Y-486512D01*
X761865Y-486595D01*
X761838Y-486650D01*
X761824Y-486706D01*
Y-486747D01*
X761810Y-486761D01*
Y-486775D01*
X761727Y-486997D01*
X761657Y-487191D01*
X761560Y-487344D01*
X761491Y-487468D01*
X761422Y-487566D01*
X761366Y-487635D01*
X761324Y-487677D01*
X761311Y-487690D01*
X761186Y-487788D01*
X761061Y-487871D01*
X760936Y-487940D01*
X760811Y-487995D01*
X760700Y-488037D01*
X760617Y-488065D01*
X760562Y-488093D01*
X760534D01*
X760381Y-488120D01*
X760201Y-488134D01*
X760007Y-488162D01*
X759813D01*
X759632Y-488176D01*
X757927D01*
Y-481824D01*
X759189D01*
X759369Y-481838D01*
D02*
G37*
%LPC*%
G36*
X550979Y-10196D02*
X548908D01*
X545178Y-19803D01*
X547230D01*
X548027Y-17620D01*
X551870D01*
X552704Y-19803D01*
X554822D01*
X550979Y-10196D01*
D02*
G37*
%LPD*%
G36*
X551251Y-15998D02*
X548618D01*
X549920Y-12437D01*
X551251Y-15998D01*
D02*
G37*
%LPC*%
G36*
X99813Y-480201D02*
X95985D01*
Y-489798D01*
X104015D01*
Y-485097D01*
X104001Y-484612D01*
X103959Y-484182D01*
X103946Y-483974D01*
X103918Y-483793D01*
X103890Y-483613D01*
X103862Y-483461D01*
X103821Y-483322D01*
X103793Y-483197D01*
X103765Y-483086D01*
X103751Y-483003D01*
X103724Y-482934D01*
X103710Y-482878D01*
X103696Y-482850D01*
Y-482836D01*
X103571Y-482504D01*
X103419Y-482199D01*
X103266Y-481935D01*
X103113Y-481713D01*
X102989Y-481533D01*
X102878Y-481394D01*
X102808Y-481311D01*
X102795Y-481283D01*
X102781D01*
X102545Y-481061D01*
X102309Y-480881D01*
X102059Y-480728D01*
X101838Y-480604D01*
X101643Y-480507D01*
X101477Y-480437D01*
X101421Y-480423D01*
X101380Y-480410D01*
X101352Y-480396D01*
X101338D01*
X101075Y-480326D01*
X100784Y-480285D01*
X100478Y-480243D01*
X100187Y-480229D01*
X99924Y-480215D01*
X99813Y-480201D01*
D02*
G37*
%LPD*%
G36*
X99369Y-481838D02*
X99535D01*
X99674Y-481852D01*
X99799D01*
X99924Y-481866D01*
X100021D01*
X100173Y-481893D01*
X100284Y-481907D01*
X100354Y-481921D01*
X100367D01*
X100562Y-481977D01*
X100728Y-482046D01*
X100881Y-482115D01*
X101019Y-482199D01*
X101116Y-482268D01*
X101200Y-482323D01*
X101241Y-482365D01*
X101255Y-482379D01*
X101380Y-482518D01*
X101491Y-482670D01*
X101588Y-482823D01*
X101671Y-482961D01*
X101727Y-483100D01*
X101768Y-483211D01*
X101796Y-483280D01*
X101810Y-483294D01*
Y-483308D01*
X101879Y-483558D01*
X101935Y-483821D01*
X101962Y-484112D01*
X101990Y-484390D01*
X102004Y-484626D01*
X102018Y-484737D01*
Y-484833D01*
Y-484903D01*
Y-484958D01*
Y-485000D01*
Y-485014D01*
X102004Y-485402D01*
X101990Y-485763D01*
X101948Y-486054D01*
X101921Y-486304D01*
X101879Y-486512D01*
X101865Y-486595D01*
X101838Y-486650D01*
X101824Y-486706D01*
Y-486747D01*
X101810Y-486761D01*
Y-486775D01*
X101727Y-486997D01*
X101657Y-487191D01*
X101560Y-487344D01*
X101491Y-487468D01*
X101421Y-487566D01*
X101366Y-487635D01*
X101324Y-487677D01*
X101311Y-487690D01*
X101186Y-487788D01*
X101061Y-487871D01*
X100936Y-487940D01*
X100811Y-487995D01*
X100700Y-488037D01*
X100617Y-488065D01*
X100562Y-488093D01*
X100534D01*
X100381Y-488120D01*
X100201Y-488134D01*
X100007Y-488162D01*
X99813D01*
X99633Y-488176D01*
X97927D01*
Y-481824D01*
X99189D01*
X99369Y-481838D01*
D02*
G37*
G36*
X104015Y-489798D02*
X99619D01*
X99993Y-489785D01*
X100340Y-489771D01*
X100631Y-489743D01*
X100867Y-489701D01*
X101061Y-489660D01*
X101214Y-489632D01*
X101255Y-489618D01*
X101297D01*
X101311Y-489604D01*
X101324D01*
X101629Y-489493D01*
X101907Y-489369D01*
X102129Y-489244D01*
X102323Y-489119D01*
X102476Y-489008D01*
X102586Y-488925D01*
X102656Y-488869D01*
X102683Y-488842D01*
X102919Y-488578D01*
X103127Y-488301D01*
X103308Y-488009D01*
X103446Y-487746D01*
X103557Y-487496D01*
X103613Y-487399D01*
X103640Y-487316D01*
X103668Y-487233D01*
X103696Y-487177D01*
X103710Y-487150D01*
Y-487136D01*
X103807Y-486803D01*
X103890Y-486456D01*
X103946Y-486123D01*
X103973Y-485804D01*
X103987Y-485652D01*
X104001Y-485513D01*
Y-485402D01*
X104015Y-485291D01*
Y-489798D01*
D02*
G37*
%LPC*%
G36*
X449813Y-480201D02*
X445985D01*
Y-489798D01*
X454015D01*
X449619D01*
X449993Y-489785D01*
X450340Y-489771D01*
X450631Y-489743D01*
X450867Y-489701D01*
X451061Y-489660D01*
X451213Y-489632D01*
X451255Y-489618D01*
X451297D01*
X451311Y-489604D01*
X451324D01*
X451629Y-489493D01*
X451907Y-489369D01*
X452129Y-489244D01*
X452323Y-489119D01*
X452476Y-489008D01*
X452586Y-488925D01*
X452656Y-488869D01*
X452683Y-488842D01*
X452919Y-488578D01*
X453127Y-488301D01*
X453308Y-488009D01*
X453446Y-487746D01*
X453557Y-487496D01*
X453613Y-487399D01*
X453640Y-487316D01*
X453668Y-487233D01*
X453696Y-487177D01*
X453710Y-487150D01*
Y-487136D01*
X453807Y-486803D01*
X453890Y-486456D01*
X453946Y-486123D01*
X453973Y-485804D01*
X453987Y-485652D01*
X454001Y-485513D01*
Y-485402D01*
X454015Y-485291D01*
Y-485097D01*
X454001Y-484612D01*
X453959Y-484182D01*
X453946Y-483974D01*
X453918Y-483793D01*
X453890Y-483613D01*
X453862Y-483461D01*
X453821Y-483322D01*
X453793Y-483197D01*
X453765Y-483086D01*
X453751Y-483003D01*
X453724Y-482934D01*
X453710Y-482878D01*
X453696Y-482850D01*
Y-482836D01*
X453571Y-482504D01*
X453419Y-482199D01*
X453266Y-481935D01*
X453113Y-481713D01*
X452989Y-481533D01*
X452878Y-481394D01*
X452808Y-481311D01*
X452794Y-481283D01*
X452781D01*
X452545Y-481061D01*
X452309Y-480881D01*
X452059Y-480728D01*
X451838Y-480604D01*
X451643Y-480507D01*
X451477Y-480437D01*
X451422Y-480423D01*
X451380Y-480410D01*
X451352Y-480396D01*
X451338D01*
X451075Y-480326D01*
X450784Y-480285D01*
X450478Y-480243D01*
X450187Y-480229D01*
X449924Y-480215D01*
X449813Y-480201D01*
D02*
G37*
%LPD*%
G36*
X449369Y-481838D02*
X449535D01*
X449674Y-481852D01*
X449799D01*
X449924Y-481866D01*
X450021D01*
X450173Y-481893D01*
X450284Y-481907D01*
X450354Y-481921D01*
X450368D01*
X450562Y-481977D01*
X450728Y-482046D01*
X450881Y-482115D01*
X451019Y-482199D01*
X451116Y-482268D01*
X451200Y-482323D01*
X451241Y-482365D01*
X451255Y-482379D01*
X451380Y-482518D01*
X451491Y-482670D01*
X451588Y-482823D01*
X451671Y-482961D01*
X451727Y-483100D01*
X451768Y-483211D01*
X451796Y-483280D01*
X451810Y-483294D01*
Y-483308D01*
X451879Y-483558D01*
X451935Y-483821D01*
X451962Y-484112D01*
X451990Y-484390D01*
X452004Y-484626D01*
X452018Y-484737D01*
Y-484833D01*
Y-484903D01*
Y-484958D01*
Y-485000D01*
Y-485014D01*
X452004Y-485402D01*
X451990Y-485763D01*
X451949Y-486054D01*
X451921Y-486304D01*
X451879Y-486512D01*
X451865Y-486595D01*
X451838Y-486650D01*
X451824Y-486706D01*
Y-486747D01*
X451810Y-486761D01*
Y-486775D01*
X451727Y-486997D01*
X451657Y-487191D01*
X451560Y-487344D01*
X451491Y-487468D01*
X451422Y-487566D01*
X451366Y-487635D01*
X451324Y-487677D01*
X451311Y-487690D01*
X451186Y-487788D01*
X451061Y-487871D01*
X450936Y-487940D01*
X450811Y-487995D01*
X450700Y-488037D01*
X450617Y-488065D01*
X450562Y-488093D01*
X450534D01*
X450381Y-488120D01*
X450201Y-488134D01*
X450007Y-488162D01*
X449813D01*
X449632Y-488176D01*
X447927D01*
Y-481824D01*
X449189D01*
X449369Y-481838D01*
D02*
G37*
%LPC*%
G36*
X40979Y-10196D02*
X38908D01*
X35178Y-19803D01*
X37230D01*
X38027Y-17620D01*
X41870D01*
X42704Y-19803D01*
X44822D01*
X40979Y-10196D01*
D02*
G37*
%LPD*%
G36*
X41251Y-15998D02*
X38618D01*
X39920Y-12437D01*
X41251Y-15998D01*
D02*
G37*
%LPC*%
G36*
X700980Y-10196D02*
X698908D01*
X695178Y-19803D01*
X697230D01*
X698027Y-17620D01*
X701870D01*
X702704Y-19803D01*
X704822D01*
X700980Y-10196D01*
D02*
G37*
%LPD*%
G36*
X701251Y-15998D02*
X698618D01*
X699920Y-12437D01*
X701251Y-15998D01*
D02*
G37*
%LPC*%
G36*
X599691Y-11799D02*
X597919D01*
Y-14021D01*
X599785D01*
X600028Y-14011D01*
X600262D01*
X600366Y-14002D01*
X600459D01*
X600534Y-13992D01*
X600619D01*
X600647Y-13983D01*
X600684D01*
X600769Y-13955D01*
X600881Y-13927D01*
X601012Y-13889D01*
X601134Y-13824D01*
X601265Y-13749D01*
X601378Y-13655D01*
X601387Y-13646D01*
X601425Y-13599D01*
X601471Y-13542D01*
X601528Y-13449D01*
X601575Y-13346D01*
X601622Y-13214D01*
X601659Y-13065D01*
X601668Y-12896D01*
Y-12887D01*
Y-12877D01*
Y-12821D01*
X601659Y-12746D01*
X601640Y-12643D01*
X601603Y-12530D01*
X601565Y-12408D01*
X601500Y-12287D01*
X601415Y-12174D01*
X601406Y-12165D01*
X601368Y-12127D01*
X601312Y-12080D01*
X601237Y-12024D01*
X601134Y-11968D01*
X601003Y-11912D01*
X600853Y-11865D01*
X600684Y-11837D01*
X600647D01*
X600619Y-11827D01*
X600525D01*
X600459Y-11818D01*
X600272D01*
X600159Y-11809D01*
X599869D01*
X599691Y-11799D01*
D02*
G37*
G36*
X599719Y-15623D02*
X597919D01*
Y-18182D01*
X600056D01*
X600272Y-18173D01*
X600497D01*
X600712Y-18154D01*
X600816D01*
X600900Y-18145D01*
X600975Y-18135D01*
X601040Y-18126D01*
X601059D01*
X601115Y-18107D01*
X601190Y-18088D01*
X601293Y-18051D01*
X601406Y-18004D01*
X601518Y-17938D01*
X601631Y-17854D01*
X601743Y-17751D01*
X601753Y-17732D01*
X601790Y-17695D01*
X601837Y-17629D01*
X601884Y-17535D01*
X601940Y-17413D01*
X601978Y-17273D01*
X602015Y-17113D01*
X602024Y-16935D01*
Y-16926D01*
Y-16917D01*
Y-16860D01*
X602015Y-16786D01*
X601996Y-16682D01*
X601968Y-16570D01*
X601931Y-16448D01*
X601884Y-16326D01*
X601809Y-16204D01*
X601800Y-16195D01*
X601772Y-16157D01*
X601725Y-16101D01*
X601659Y-16036D01*
X601565Y-15961D01*
X601462Y-15895D01*
X601340Y-15820D01*
X601200Y-15764D01*
X601181Y-15754D01*
X601153D01*
X601115Y-15745D01*
X601068Y-15726D01*
X601003Y-15717D01*
X600928Y-15708D01*
X600834Y-15689D01*
X600731Y-15680D01*
X600609Y-15670D01*
X600469Y-15651D01*
X600309Y-15642D01*
X600131Y-15633D01*
X599934D01*
X599719Y-15623D01*
D02*
G37*
G36*
X249691Y-11799D02*
X247919D01*
Y-14021D01*
X249784D01*
X250028Y-14011D01*
X250262D01*
X250366Y-14002D01*
X250459D01*
X250534Y-13992D01*
X250619D01*
X250647Y-13983D01*
X250684D01*
X250769Y-13955D01*
X250881Y-13927D01*
X251012Y-13889D01*
X251134Y-13824D01*
X251265Y-13749D01*
X251378Y-13655D01*
X251387Y-13646D01*
X251425Y-13599D01*
X251472Y-13542D01*
X251528Y-13449D01*
X251575Y-13346D01*
X251621Y-13214D01*
X251659Y-13065D01*
X251668Y-12896D01*
Y-12887D01*
Y-12877D01*
Y-12821D01*
X251659Y-12746D01*
X251640Y-12643D01*
X251603Y-12530D01*
X251565Y-12408D01*
X251500Y-12287D01*
X251415Y-12174D01*
X251406Y-12165D01*
X251368Y-12127D01*
X251312Y-12080D01*
X251237Y-12024D01*
X251134Y-11968D01*
X251003Y-11912D01*
X250853Y-11865D01*
X250684Y-11837D01*
X250647D01*
X250619Y-11827D01*
X250525D01*
X250459Y-11818D01*
X250272D01*
X250159Y-11809D01*
X249869D01*
X249691Y-11799D01*
D02*
G37*
G36*
X249719Y-15623D02*
X247919D01*
Y-18182D01*
X250056D01*
X250272Y-18173D01*
X250497D01*
X250712Y-18154D01*
X250815D01*
X250900Y-18145D01*
X250975Y-18135D01*
X251040Y-18126D01*
X251059D01*
X251115Y-18107D01*
X251190Y-18088D01*
X251293Y-18051D01*
X251406Y-18004D01*
X251518Y-17938D01*
X251631Y-17854D01*
X251743Y-17751D01*
X251753Y-17732D01*
X251790Y-17695D01*
X251837Y-17629D01*
X251884Y-17535D01*
X251940Y-17413D01*
X251978Y-17273D01*
X252015Y-17113D01*
X252024Y-16935D01*
Y-16926D01*
Y-16917D01*
Y-16860D01*
X252015Y-16786D01*
X251996Y-16682D01*
X251968Y-16570D01*
X251931Y-16448D01*
X251884Y-16326D01*
X251809Y-16204D01*
X251800Y-16195D01*
X251771Y-16157D01*
X251725Y-16101D01*
X251659Y-16036D01*
X251565Y-15961D01*
X251462Y-15895D01*
X251340Y-15820D01*
X251200Y-15764D01*
X251181Y-15754D01*
X251153D01*
X251115Y-15745D01*
X251068Y-15726D01*
X251003Y-15717D01*
X250928Y-15708D01*
X250834Y-15689D01*
X250731Y-15680D01*
X250609Y-15670D01*
X250469Y-15651D01*
X250309Y-15642D01*
X250131Y-15633D01*
X249934D01*
X249719Y-15623D01*
D02*
G37*
G36*
X99691Y-11799D02*
X97919D01*
Y-14021D01*
X99784D01*
X100028Y-14011D01*
X100262D01*
X100365Y-14002D01*
X100459D01*
X100534Y-13992D01*
X100619D01*
X100647Y-13983D01*
X100684D01*
X100769Y-13955D01*
X100881Y-13927D01*
X101012Y-13889D01*
X101134Y-13824D01*
X101265Y-13749D01*
X101378Y-13655D01*
X101387Y-13646D01*
X101425Y-13599D01*
X101472Y-13542D01*
X101528Y-13449D01*
X101575Y-13346D01*
X101622Y-13214D01*
X101659Y-13065D01*
X101668Y-12896D01*
Y-12887D01*
Y-12877D01*
Y-12821D01*
X101659Y-12746D01*
X101640Y-12643D01*
X101603Y-12530D01*
X101565Y-12408D01*
X101500Y-12287D01*
X101415Y-12174D01*
X101406Y-12165D01*
X101368Y-12127D01*
X101312Y-12080D01*
X101237Y-12024D01*
X101134Y-11968D01*
X101003Y-11912D01*
X100853Y-11865D01*
X100684Y-11837D01*
X100647D01*
X100619Y-11827D01*
X100525D01*
X100459Y-11818D01*
X100272D01*
X100159Y-11809D01*
X99869D01*
X99691Y-11799D01*
D02*
G37*
G36*
X99719Y-15623D02*
X97919D01*
Y-18182D01*
X100056D01*
X100272Y-18173D01*
X100497D01*
X100712Y-18154D01*
X100815D01*
X100900Y-18145D01*
X100975Y-18135D01*
X101040Y-18126D01*
X101059D01*
X101115Y-18107D01*
X101190Y-18088D01*
X101293Y-18051D01*
X101406Y-18004D01*
X101518Y-17938D01*
X101631Y-17854D01*
X101743Y-17751D01*
X101753Y-17732D01*
X101790Y-17695D01*
X101837Y-17629D01*
X101884Y-17535D01*
X101940Y-17413D01*
X101978Y-17273D01*
X102015Y-17113D01*
X102024Y-16935D01*
Y-16926D01*
Y-16917D01*
Y-16860D01*
X102015Y-16786D01*
X101996Y-16682D01*
X101968Y-16570D01*
X101931Y-16448D01*
X101884Y-16326D01*
X101809Y-16204D01*
X101799Y-16195D01*
X101771Y-16157D01*
X101725Y-16101D01*
X101659Y-16036D01*
X101565Y-15961D01*
X101462Y-15895D01*
X101340Y-15820D01*
X101200Y-15764D01*
X101181Y-15754D01*
X101153D01*
X101115Y-15745D01*
X101068Y-15726D01*
X101003Y-15717D01*
X100928Y-15708D01*
X100834Y-15689D01*
X100731Y-15680D01*
X100609Y-15670D01*
X100469Y-15651D01*
X100309Y-15642D01*
X100131Y-15633D01*
X99934D01*
X99719Y-15623D01*
D02*
G37*
G36*
X762814Y-187129D02*
X762795D01*
X762777D01*
X762666Y-187148D01*
X762499Y-187167D01*
X762295Y-187204D01*
X762055Y-187278D01*
X761814Y-187370D01*
X761555Y-187518D01*
X761332Y-187703D01*
X761314Y-187722D01*
X761240Y-187815D01*
X761147Y-187944D01*
X761055Y-188111D01*
X760944Y-188333D01*
X760851Y-188592D01*
X760777Y-188888D01*
X760759Y-189222D01*
Y-189259D01*
X760777Y-189370D01*
X760796Y-189537D01*
X760833Y-189759D01*
X760907Y-190000D01*
X760999Y-190240D01*
X761147Y-190499D01*
X761332Y-190722D01*
X761351Y-190740D01*
X761444Y-190814D01*
X761555Y-190907D01*
X761721Y-191018D01*
X761925Y-191129D01*
X762166Y-191222D01*
X762443Y-191296D01*
X762740Y-191314D01*
X762758D01*
X762777D01*
X762888D01*
X763055Y-191277D01*
X763258Y-191240D01*
X763480Y-191166D01*
X763721Y-191055D01*
X763962Y-190907D01*
X764203Y-190703D01*
X764221Y-190685D01*
X764295Y-190592D01*
X764388Y-190462D01*
X764499Y-190296D01*
X764610Y-190074D01*
X764703Y-189833D01*
X764777Y-189537D01*
X764795Y-189222D01*
Y-189074D01*
X764758Y-188907D01*
X764721Y-188685D01*
X764647Y-188444D01*
X764554Y-188185D01*
X764406Y-187944D01*
X764203Y-187703D01*
X764184Y-187685D01*
X764110Y-187611D01*
X763980Y-187518D01*
X763814Y-187426D01*
X763610Y-187315D01*
X763369Y-187222D01*
X763110Y-187148D01*
X762814Y-187129D01*
D02*
G37*
G36*
X756907Y-186611D02*
X756870D01*
X756796D01*
X756666Y-186630D01*
X756500Y-186648D01*
X756296Y-186685D01*
X756074Y-186741D01*
X755852Y-186815D01*
X755611Y-186907D01*
X755592Y-186926D01*
X755500Y-186963D01*
X755389Y-187037D01*
X755259Y-187148D01*
X755092Y-187278D01*
X754926Y-187444D01*
X754778Y-187629D01*
X754630Y-187852D01*
X754611Y-187889D01*
X754574Y-187963D01*
X754518Y-188092D01*
X754463Y-188259D01*
X754407Y-188463D01*
X754352Y-188703D01*
X754315Y-188963D01*
X754296Y-189222D01*
Y-189333D01*
X754315Y-189407D01*
X754333Y-189629D01*
X754389Y-189888D01*
X754481Y-190185D01*
X754592Y-190499D01*
X754778Y-190796D01*
X755018Y-191092D01*
X755055Y-191129D01*
X755148Y-191203D01*
X755315Y-191333D01*
X755518Y-191462D01*
X755778Y-191592D01*
X756092Y-191722D01*
X756463Y-191796D01*
X756852Y-191833D01*
X756870D01*
X756907D01*
X756963D01*
X757037Y-191814D01*
X757240Y-191796D01*
X757518Y-191740D01*
X757796Y-191647D01*
X758111Y-191518D01*
X758425Y-191333D01*
X758722Y-191073D01*
X758759Y-191036D01*
X758833Y-190944D01*
X758962Y-190777D01*
X759110Y-190555D01*
X759240Y-190277D01*
X759370Y-189944D01*
X759444Y-189574D01*
X759481Y-189166D01*
Y-189055D01*
X759462Y-188981D01*
X759444Y-188777D01*
X759388Y-188518D01*
X759296Y-188222D01*
X759166Y-187926D01*
X758981Y-187611D01*
X758740Y-187333D01*
X758703Y-187296D01*
X758611Y-187222D01*
X758444Y-187111D01*
X758240Y-186981D01*
X757962Y-186833D01*
X757648Y-186722D01*
X757296Y-186648D01*
X756907Y-186611D01*
D02*
G37*
%LPD*%
D10*
X784000Y-240000D02*
G03*
X781000Y-243000I0J-3000D01*
G01*
X791000D02*
G03*
X788000Y-240000I-3000J0D01*
G01*
X789000Y-236000D02*
G03*
X791000Y-234000I0J2000D01*
G01*
Y-231000D02*
G03*
X788000Y-228000I-3000J0D01*
G01*
X784000D02*
G03*
X781000Y-231000I0J-3000D01*
G01*
Y-233000D02*
G03*
X784000Y-236000I3000J0D01*
G01*
X782000Y-299000D02*
G03*
X785000Y-296000I0J3000D01*
G01*
X786000Y-291000D02*
G03*
X785000Y-292000I0J-1000D01*
G01*
Y-296000D02*
G03*
X788000Y-299000I3000J0D01*
G01*
D02*
G03*
X791000Y-296000I0J3000D01*
G01*
X788000Y-260000D02*
G03*
X791000Y-257000I0J3000D01*
G01*
X785000D02*
G03*
X788000Y-260000I3000J0D01*
G01*
X781000Y-258000D02*
G03*
X783000Y-260000I2000J0D01*
G01*
D02*
G03*
X785000Y-258000I0J2000D01*
G01*
X787000Y-195000D02*
G03*
X789000Y-197000I2000J0D01*
G01*
D02*
G03*
X791000Y-195000I0J2000D01*
G01*
X784000Y-197000D02*
G03*
X787000Y-194000I0J3000D01*
G01*
X781000D02*
G03*
X784000Y-197000I3000J0D01*
G01*
X781000Y-221000D02*
G03*
X784000Y-224000I3000J0D01*
G01*
X788000Y-224000D02*
G03*
X791000Y-221000I0J3000D01*
G01*
Y-282000D02*
G03*
X788000Y-279000I-3000J0D01*
G01*
X788000Y-287000D02*
G03*
X791000Y-284000I0J3000D01*
G01*
X788000Y-311000D02*
G03*
X791000Y-308000I0J3000D01*
G01*
X781000Y-308000D02*
G03*
X784000Y-311000I3000J0D01*
G01*
X790000Y-206000D02*
G03*
X790000Y-206000I-4000J0D01*
G01*
Y-270000D02*
G03*
X790000Y-270000I-4000J0D01*
G01*
X791000Y-206000D02*
G03*
X791000Y-206000I-5000J0D01*
G01*
Y-270000D02*
G03*
X791000Y-270000I-5000J0D01*
G01*
X781000Y-248000D02*
Y-243000D01*
X784000Y-240000D02*
X788000D01*
X791000Y-234000D02*
Y-231000D01*
X784000Y-236000D02*
X785000D01*
Y-234000D01*
X781000Y-233000D02*
Y-231000D01*
X784000Y-228000D02*
X788000D01*
X781000Y-299000D02*
X782000D01*
X791000Y-296000D02*
Y-291000D01*
X785000Y-296000D02*
Y-292000D01*
X781000Y-252000D02*
X791000D01*
Y-257000D02*
Y-252000D01*
X785000Y-257000D02*
Y-252000D01*
X781000Y-258000D02*
Y-252000D01*
X785000Y-245000D02*
Y-240000D01*
X787000Y-194000D02*
Y-189000D01*
X781000Y-194000D02*
Y-189000D01*
X791000D01*
Y-195000D02*
Y-189000D01*
X781000Y-216000D02*
X791000D01*
X781000Y-221000D02*
Y-216000D01*
X784000Y-224000D02*
X788012D01*
X788000Y-224000D02*
X788012D01*
X791000Y-221000D02*
Y-216000D01*
X781000Y-279000D02*
X788000D01*
X781000Y-291000D02*
X791000D01*
X785000Y-287000D02*
Y-279000D01*
X781000Y-287000D02*
X788000D01*
X791000Y-284000D02*
Y-282000D01*
Y-248000D02*
Y-243000D01*
Y-308000D02*
Y-303000D01*
X788000Y-311000D02*
X788012D01*
X784000Y-311000D02*
X788012D01*
X781000Y-308000D02*
Y-303000D01*
X791000D01*
X777000Y-197000D02*
Y-185000D01*
Y-197000D02*
X783000Y-203000D01*
X789000Y-273000D02*
X789000D01*
X795000Y-279000D01*
Y-315000D02*
Y-279000D01*
X781000Y-201000D02*
X786000D01*
X781000Y-206000D02*
Y-201000D01*
X791000Y-275000D02*
Y-269984D01*
X786000Y-275000D02*
X791000D01*
D11*
X788012Y-224000D02*
D03*
Y-311000D02*
D03*
D12*
X550000Y-425000D02*
D03*
X350000D02*
D03*
X450000Y-75000D02*
D03*
X250000D02*
D03*
D13*
X5000Y-490000D02*
G03*
X10000Y-495000I5000J0D01*
G01*
X10000Y-425000D02*
G03*
X5000Y-430000I0J-5000D01*
G01*
X75000D02*
G03*
X70000Y-425000I-5000J0D01*
G01*
X80000D02*
G03*
X75000Y-430000I0J-5000D01*
G01*
X125000D02*
G03*
X120000Y-425000I-5000J0D01*
G01*
X130000D02*
G03*
X125000Y-430000I0J-5000D01*
G01*
X175000D02*
G03*
X170000Y-425000I-5000J0D01*
G01*
X180000D02*
G03*
X175000Y-430000I0J-5000D01*
G01*
X225000D02*
G03*
X220000Y-425000I-5000J0D01*
G01*
X230000D02*
G03*
X225000Y-430000I0J-5000D01*
G01*
X275000D02*
G03*
X270000Y-425000I-5000J0D01*
G01*
X280000D02*
G03*
X275000Y-430000I0J-5000D01*
G01*
X325000D02*
G03*
X320000Y-425000I-5000J0D01*
G01*
X375000Y-430000D02*
G03*
X370000Y-425000I-5000J0D01*
G01*
X380000D02*
G03*
X375000Y-430000I0J-5000D01*
G01*
X425000D02*
G03*
X420000Y-425000I-5000J0D01*
G01*
X480000D02*
G03*
X475000Y-430000I0J-5000D01*
G01*
X525000D02*
G03*
X520000Y-425000I-5000J0D01*
G01*
X530000D02*
G03*
X525000Y-430000I0J-5000D01*
G01*
X575000D02*
G03*
X570000Y-425000I-5000J0D01*
G01*
X580000D02*
G03*
X575000Y-430000I0J-5000D01*
G01*
X625000D02*
G03*
X620000Y-425000I-5000J0D01*
G01*
X630000D02*
G03*
X625000Y-430000I0J-5000D01*
G01*
X675000D02*
G03*
X670000Y-425000I-5000J0D01*
G01*
X680000D02*
G03*
X675000Y-430000I0J-5000D01*
G01*
X725000D02*
G03*
X720000Y-425000I-5000J0D01*
G01*
X680000D02*
G03*
X675000Y-430000I0J-5000D01*
G01*
D02*
G03*
X670000Y-425000I-5000J0D01*
G01*
X630000D02*
G03*
X625000Y-430000I0J-5000D01*
G01*
D02*
G03*
X620000Y-425000I-5000J0D01*
G01*
X580000D02*
G03*
X575000Y-430000I0J-5000D01*
G01*
D02*
G03*
X570000Y-425000I-5000J0D01*
G01*
X325000Y-430000D02*
G03*
X320000Y-425000I-5000J0D01*
G01*
X280000D02*
G03*
X275000Y-430000I0J-5000D01*
G01*
D02*
G03*
X270000Y-425000I-5000J0D01*
G01*
X230000D02*
G03*
X225000Y-430000I0J-5000D01*
G01*
D02*
G03*
X220000Y-425000I-5000J0D01*
G01*
X795000Y-430000D02*
G03*
X790000Y-425000I-5000J0D01*
G01*
X792500Y-495000D02*
G03*
X795000Y-492500I0J2500D01*
G01*
X730000Y-425000D02*
G03*
X725000Y-430000I0J-5000D01*
G01*
X430000Y-425000D02*
G03*
X425000Y-430000I0J-5000D01*
G01*
X475000D02*
G03*
X470000Y-425000I-5000J0D01*
G01*
X475000Y-430000D02*
G03*
X470000Y-425000I-5000J0D01*
G01*
X430000D02*
G03*
X425000Y-430000I0J-5000D01*
G01*
X375000D02*
G03*
X370000Y-425000I-5000J0D01*
G01*
X375000Y-430000D02*
G03*
X370000Y-425000I-5000J0D01*
G01*
X330000D02*
G03*
X325000Y-430000I0J-5000D01*
G01*
X470000Y-75000D02*
G03*
X475000Y-70000I0J5000D01*
G01*
X425000D02*
G03*
X430000Y-75000I5000J0D01*
G01*
X425000Y-70000D02*
G03*
X430000Y-75000I5000J0D01*
G01*
X370000D02*
G03*
X375000Y-70000I0J5000D01*
G01*
X325000D02*
G03*
X330000Y-75000I5000J0D01*
G01*
X325000Y-70000D02*
G03*
X330000Y-75000I5000J0D01*
G01*
X370000D02*
G03*
X375000Y-70000I0J5000D01*
G01*
X70000Y-75000D02*
G03*
X75000Y-70000I0J5000D01*
G01*
X7500Y-5000D02*
G03*
X5000Y-7500I0J-2500D01*
G01*
X5000Y-70000D02*
G03*
X10000Y-75000I5000J0D01*
G01*
X575000Y-70000D02*
G03*
X580000Y-75000I5000J0D01*
G01*
X570000D02*
G03*
X575000Y-70000I0J5000D01*
G01*
X525000D02*
G03*
X530000Y-75000I5000J0D01*
G01*
X520000D02*
G03*
X525000Y-70000I0J5000D01*
G01*
X475000D02*
G03*
X480000Y-75000I5000J0D01*
G01*
X225000Y-70000D02*
G03*
X230000Y-75000I5000J0D01*
G01*
X220000D02*
G03*
X225000Y-70000I0J5000D01*
G01*
X175000D02*
G03*
X180000Y-75000I5000J0D01*
G01*
X170000D02*
G03*
X175000Y-70000I0J5000D01*
G01*
X125000D02*
G03*
X130000Y-75000I5000J0D01*
G01*
X120000D02*
G03*
X125000Y-70000I0J5000D01*
G01*
X75000D02*
G03*
X80000Y-75000I5000J0D01*
G01*
X120000D02*
G03*
X125000Y-70000I0J5000D01*
G01*
D02*
G03*
X130000Y-75000I5000J0D01*
G01*
X170000D02*
G03*
X175000Y-70000I0J5000D01*
G01*
D02*
G03*
X180000Y-75000I5000J0D01*
G01*
X220000D02*
G03*
X225000Y-70000I0J5000D01*
G01*
D02*
G03*
X230000Y-75000I5000J0D01*
G01*
X270000D02*
G03*
X275000Y-70000I0J5000D01*
G01*
D02*
G03*
X280000Y-75000I5000J0D01*
G01*
X320000D02*
G03*
X325000Y-70000I0J5000D01*
G01*
X375000D02*
G03*
X380000Y-75000I5000J0D01*
G01*
X420000D02*
G03*
X425000Y-70000I0J5000D01*
G01*
D02*
G03*
X430000Y-75000I5000J0D01*
G01*
X475000Y-70000D02*
G03*
X480000Y-75000I5000J0D01*
G01*
X520000D02*
G03*
X525000Y-70000I0J5000D01*
G01*
D02*
G03*
X530000Y-75000I5000J0D01*
G01*
X570000D02*
G03*
X575000Y-70000I0J5000D01*
G01*
D02*
G03*
X580000Y-75000I5000J0D01*
G01*
X620000D02*
G03*
X625000Y-70000I0J5000D01*
G01*
D02*
G03*
X630000Y-75000I5000J0D01*
G01*
X670000D02*
G03*
X675000Y-70000I0J5000D01*
G01*
D02*
G03*
X680000Y-75000I5000J0D01*
G01*
X720000D02*
G03*
X725000Y-70000I0J5000D01*
G01*
D02*
G03*
X730000Y-75000I5000J0D01*
G01*
X790000D02*
G03*
X795000Y-70000I0J5000D01*
G01*
Y-10000D02*
G03*
X790000Y-5000I-5000J0D01*
G01*
X5000Y-475000D02*
X25000D01*
X10000Y-495000D02*
X25000D01*
X5000Y-490000D02*
Y-430000D01*
X10000Y-425000D02*
X70000D01*
X80000D02*
X120000D01*
X130000D02*
X170000D01*
X180000D02*
X220000D01*
X380000D02*
X420000D01*
X480000D02*
X520000D01*
X530000D02*
X570000D01*
X680000D02*
X720000D01*
X25000Y-495000D02*
X125000D01*
X75000D02*
Y-430000D01*
X125000Y-495000D02*
Y-485000D01*
Y-430000D01*
X25000Y-475000D02*
X125000D01*
X175000Y-495000D02*
Y-430000D01*
Y-495000D02*
X275000D01*
X225000D02*
Y-430000D01*
X275000Y-495000D02*
Y-485000D01*
X175000Y-495000D02*
Y-485000D01*
X275000D02*
Y-430000D01*
X175000Y-475000D02*
X275000D01*
X325000Y-495000D02*
Y-430000D01*
Y-495000D02*
Y-485000D01*
X375000D02*
Y-430000D01*
X475000Y-485000D02*
Y-430000D01*
X525000Y-475000D02*
X625000D01*
Y-485000D02*
Y-430000D01*
X125000Y-495000D02*
Y-485000D01*
X175000Y-495000D02*
Y-485000D01*
X275000Y-495000D02*
Y-485000D01*
X325000Y-495000D02*
Y-485000D01*
X375000Y-495000D02*
Y-485000D01*
Y-495000D02*
Y-485000D01*
X475000Y-495000D02*
Y-485000D01*
Y-495000D02*
Y-485000D01*
X525000Y-495000D02*
Y-485000D01*
X625000Y-495000D02*
Y-485000D01*
X675000Y-495000D02*
Y-485000D01*
X725000Y-495000D02*
Y-485000D01*
Y-495000D02*
Y-430000D01*
X575000Y-495000D02*
Y-430000D01*
X525000Y-495000D02*
X625000D01*
X525000D02*
Y-430000D01*
X675000Y-495000D02*
Y-430000D01*
Y-495000D02*
Y-430000D01*
X660500Y-425000D02*
X670000Y-425000D01*
X630000D02*
X639500Y-425000D01*
X580000Y-425000D02*
X590000Y-425000D01*
X610500D02*
X620000Y-425000D01*
X550000Y-425000D02*
X561500D01*
X200000D02*
X211500D01*
X230000Y-425000D02*
X240000Y-425000D01*
X260500D02*
X270000Y-425000D01*
X280000D02*
X289500Y-425000D01*
X310500Y-425000D02*
X320000Y-425000D01*
X580000D02*
X595000Y-425000D01*
Y-425000D02*
X620000Y-425000D01*
X630000D02*
X644750Y-425000D01*
Y-425000D02*
X670000Y-425000D01*
X230000D02*
X245000Y-425000D01*
Y-425000D02*
X270000Y-425000D01*
X280000D02*
X294750Y-425000D01*
Y-425000D02*
X320000Y-425000D01*
X795000Y-492500D02*
Y-430000D01*
X730000Y-425000D02*
X790000D01*
X725000Y-495000D02*
X792500D01*
X725000D02*
Y-430000D01*
X445000Y-425000D02*
X470000Y-425000D01*
X430000D02*
X445000Y-425000D01*
X460500D02*
X470000Y-425000D01*
X430000D02*
X440000Y-425000D01*
X425000Y-495000D02*
Y-430000D01*
X475000Y-495000D02*
Y-485000D01*
Y-430000D01*
X350000Y-425000D02*
X361500D01*
X325000Y-495000D02*
Y-430000D01*
X375000Y-495000D02*
Y-430000D01*
X325000Y-495000D02*
Y-485000D01*
X330000Y-425000D02*
X370000D01*
X425003Y-494613D02*
X475000Y-495000D01*
X675000D02*
X725000D01*
X325000D02*
X375000D01*
X425000D02*
X475000D01*
X325000Y-5000D02*
X375000D01*
X425000D02*
X475000D01*
X75000D02*
X125000D01*
X325000D02*
X374997Y-5387D01*
X430000Y-75000D02*
X470000D01*
X475000Y-15000D02*
Y-5000D01*
X425000Y-70000D02*
Y-5000D01*
X475000Y-70000D02*
Y-5000D01*
X438500Y-75000D02*
X450000D01*
X325000Y-70000D02*
Y-15000D01*
Y-5000D01*
X375000Y-70000D02*
Y-5000D01*
X360000Y-75000D02*
X370000Y-75000D01*
X330000D02*
X339500Y-75000D01*
X355000D02*
X370000Y-75000D01*
X330000D02*
X355000Y-75000D01*
X75000Y-70000D02*
Y-5000D01*
X7500D02*
X75000D01*
X10000Y-75000D02*
X70000D01*
X5000Y-70000D02*
Y-7500D01*
X480000Y-75000D02*
X505250Y-75000D01*
Y-75000D02*
X520000Y-75000D01*
X530000D02*
X555000Y-75000D01*
Y-75000D02*
X570000Y-75000D01*
X130000D02*
X155250Y-75000D01*
Y-75000D02*
X170000Y-75000D01*
X180000D02*
X205000Y-75000D01*
Y-75000D02*
X220000Y-75000D01*
X480000D02*
X489500Y-75000D01*
X510500Y-75000D02*
X520000Y-75000D01*
X530000D02*
X539500Y-75000D01*
X560000D02*
X570000Y-75000D01*
X588500Y-75000D02*
X600000D01*
X238500D02*
X250000D01*
X180000Y-75000D02*
X189500Y-75000D01*
X210000D02*
X220000Y-75000D01*
X160500Y-75000D02*
X170000Y-75000D01*
X130000D02*
X139500Y-75000D01*
X125000Y-70000D02*
Y-5000D01*
Y-70000D02*
Y-5000D01*
X275000Y-70000D02*
Y-5000D01*
X175000D02*
X275000D01*
X225000Y-70000D02*
Y-5000D01*
X75000Y-70000D02*
Y-5000D01*
Y-15000D02*
Y-5000D01*
X125000Y-15000D02*
Y-5000D01*
X175000Y-15000D02*
Y-5000D01*
X275000Y-15000D02*
Y-5000D01*
X325000Y-15000D02*
Y-5000D01*
Y-15000D02*
Y-5000D01*
X425000Y-15000D02*
Y-5000D01*
Y-15000D02*
Y-5000D01*
X475000Y-15000D02*
Y-5000D01*
X525000Y-15000D02*
Y-5000D01*
X625000Y-15000D02*
Y-5000D01*
X675000Y-15000D02*
Y-5000D01*
X175000Y-70000D02*
Y-15000D01*
Y-25000D02*
X275000D01*
X325000Y-70000D02*
Y-15000D01*
X425000Y-70000D02*
Y-15000D01*
X475000D02*
Y-5000D01*
Y-70000D02*
Y-5000D01*
X525000Y-25000D02*
X625000D01*
X525000Y-70000D02*
Y-15000D01*
X625000D02*
Y-5000D01*
X525000Y-15000D02*
Y-5000D01*
X575000Y-70000D02*
Y-5000D01*
X525000D02*
X625000D01*
Y-70000D02*
Y-5000D01*
X675000Y-25000D02*
X775000D01*
X675000Y-70000D02*
Y-15000D01*
Y-5000D01*
X725000Y-70000D02*
Y-5000D01*
X675000D02*
X775000D01*
X80000Y-75000D02*
X120000D01*
X230000D02*
X270000D01*
X280000D02*
X320000D01*
X380000D02*
X420000D01*
X580000D02*
X620000D01*
X630000D02*
X670000D01*
X680000D02*
X720000D01*
X730000D02*
X790000D01*
X795000Y-70000D02*
Y-10000D01*
X775000Y-5000D02*
X790000D01*
X775000Y-25000D02*
X795000D01*
M02*
