G04*
G04 #@! TF.GenerationSoftware,Altium Limited,Altium Designer,24.6.1 (21)*
G04*
G04 Layer_Color=16711935*
%FSLAX44Y44*%
%MOMM*%
G71*
G04*
G04 #@! TF.SameCoordinates,E2912B81-FF12-4EFC-B30A-82F2F3841449*
G04*
G04*
G04 #@! TF.FilePolarity,Negative*
G04*
G01*
G75*
%ADD14C,3.0000*%
G04:AMPARAMS|DCode=15|XSize=4.2mm|YSize=4.2mm|CornerRadius=0.6mm|HoleSize=0mm|Usage=FLASHONLY|Rotation=180.000|XOffset=0mm|YOffset=0mm|HoleType=Round|Shape=RoundedRectangle|*
%AMROUNDEDRECTD15*
21,1,4.2000,3.0000,0,0,180.0*
21,1,3.0000,4.2000,0,0,180.0*
1,1,1.2000,-1.5000,1.5000*
1,1,1.2000,1.5000,1.5000*
1,1,1.2000,1.5000,-1.5000*
1,1,1.2000,-1.5000,-1.5000*
%
%ADD15ROUNDEDRECTD15*%
G36*
X40250Y-429000D02*
X65000Y-429000D01*
X66193Y-429000D01*
X68399Y-429913D01*
X70086Y-431601D01*
X71000Y-433806D01*
X71000Y-435000D01*
X71000D01*
Y-450000D01*
X71000Y-465000D01*
X71000Y-466194D01*
X70086Y-468399D01*
X68399Y-470087D01*
X66193Y-471000D01*
X65000Y-471000D01*
Y-471000D01*
X40250D01*
X40250Y-467174D01*
X41336Y-466477D01*
X43363Y-464880D01*
X45167Y-463036D01*
X46719Y-460975D01*
X47993Y-458732D01*
X48967Y-456343D01*
X49626Y-453848D01*
X49958Y-451290D01*
X50000Y-450000D01*
X50000Y-450000D01*
X49958Y-448710D01*
X49626Y-446152D01*
X48967Y-443657D01*
X47993Y-441268D01*
X46719Y-439025D01*
X45167Y-436964D01*
X43363Y-435120D01*
X41336Y-433523D01*
X40250Y-432826D01*
D01*
Y-429000D01*
D02*
G37*
G36*
X40250Y-371000D02*
X65000D01*
X66193Y-371000D01*
X68399Y-370087D01*
X70087Y-368399D01*
X71000Y-366194D01*
X71000Y-365000D01*
X71000D01*
Y-350000D01*
X71000Y-335000D01*
X71000Y-333806D01*
X70087Y-331601D01*
X68399Y-329913D01*
X66193Y-329000D01*
X65000Y-329000D01*
Y-329000D01*
X40250D01*
X40250Y-332826D01*
X41336Y-333523D01*
X43363Y-335120D01*
X45167Y-336964D01*
X46719Y-339025D01*
X47993Y-341268D01*
X48968Y-343657D01*
X49626Y-346152D01*
X49958Y-348710D01*
X50000Y-350000D01*
X50000D01*
X49958Y-351290D01*
X49626Y-353848D01*
X48968Y-356343D01*
X47993Y-358732D01*
X46719Y-360975D01*
X45167Y-363036D01*
X43363Y-364880D01*
X41336Y-366477D01*
X40250Y-367174D01*
Y-367174D01*
Y-371000D01*
D02*
G37*
G36*
X135000Y-429000D02*
X133806D01*
X131601Y-429913D01*
X129913Y-431601D01*
X129000Y-433807D01*
Y-435000D01*
D01*
Y-464750D01*
X132826Y-464750D01*
X133523Y-463664D01*
X135120Y-461637D01*
X136964Y-459833D01*
X139025Y-458281D01*
X141268Y-457007D01*
X143657Y-456032D01*
X146152Y-455374D01*
X148710Y-455042D01*
X150000Y-455000D01*
D01*
Y-455000D01*
X151290Y-455042D01*
X153848Y-455374D01*
X156343Y-456032D01*
X158732Y-457007D01*
X160975Y-458281D01*
X163036Y-459833D01*
X164880Y-461637D01*
X166477Y-463664D01*
X167174Y-464750D01*
X167174Y-464750D01*
X171000D01*
Y-435000D01*
Y-433807D01*
X170086Y-431601D01*
X168399Y-429913D01*
X166194Y-429000D01*
X165000D01*
D01*
X152250D01*
D01*
X135000D01*
D02*
G37*
G36*
X285000D02*
X283806D01*
X281601Y-429913D01*
X279913Y-431601D01*
X279000Y-433807D01*
Y-435000D01*
D01*
Y-464750D01*
X282826Y-464750D01*
X283523Y-463664D01*
X285120Y-461637D01*
X286964Y-459833D01*
X289025Y-458281D01*
X291268Y-457007D01*
X293657Y-456032D01*
X296152Y-455374D01*
X298710Y-455042D01*
X300000Y-455000D01*
D01*
Y-455000D01*
X301290Y-455042D01*
X303848Y-455374D01*
X306343Y-456032D01*
X308732Y-457007D01*
X310975Y-458281D01*
X313036Y-459833D01*
X314880Y-461637D01*
X316477Y-463664D01*
X317174Y-464750D01*
X317174Y-464750D01*
X321000D01*
Y-435000D01*
Y-433807D01*
X320087Y-431601D01*
X318399Y-429913D01*
X316193Y-429000D01*
X315000D01*
D01*
X302250D01*
D01*
X285000D01*
D02*
G37*
G36*
X40250Y-271000D02*
X65000D01*
X66193Y-271000D01*
X68399Y-270087D01*
X70087Y-268399D01*
X71000Y-266194D01*
X71000Y-265000D01*
X71000D01*
Y-250000D01*
X71000Y-235000D01*
X71000Y-233806D01*
X70087Y-231601D01*
X68399Y-229913D01*
X66193Y-229000D01*
X65000Y-229000D01*
Y-229000D01*
X40250D01*
X40250Y-232826D01*
X41336Y-233523D01*
X43363Y-235119D01*
X45167Y-236964D01*
X46719Y-239025D01*
X47993Y-241268D01*
X48968Y-243657D01*
X49626Y-246152D01*
X49958Y-248710D01*
X50000Y-250000D01*
X50000D01*
X49958Y-251290D01*
X49626Y-253848D01*
X48968Y-256343D01*
X47993Y-258732D01*
X46719Y-260975D01*
X45167Y-263036D01*
X43363Y-264881D01*
X41336Y-266477D01*
X40250Y-267174D01*
Y-267174D01*
Y-271000D01*
D02*
G37*
G36*
Y-171000D02*
X65000D01*
X66193Y-171000D01*
X68399Y-170087D01*
X70087Y-168399D01*
X71000Y-166194D01*
X71000Y-165000D01*
X71000D01*
Y-150000D01*
X71000Y-135000D01*
X71000Y-133806D01*
X70087Y-131601D01*
X68399Y-129913D01*
X66193Y-129000D01*
X65000Y-129000D01*
Y-129000D01*
X40250D01*
X40250Y-132826D01*
X41336Y-133523D01*
X43363Y-135119D01*
X45167Y-136964D01*
X46719Y-139024D01*
X47993Y-141268D01*
X48968Y-143657D01*
X49626Y-146152D01*
X49958Y-148710D01*
X50000Y-150000D01*
X50000D01*
X49958Y-151290D01*
X49626Y-153848D01*
X48968Y-156343D01*
X47993Y-158732D01*
X46719Y-160975D01*
X45167Y-163036D01*
X43363Y-164881D01*
X41336Y-166477D01*
X40250Y-167174D01*
Y-167174D01*
Y-171000D01*
D02*
G37*
G36*
X40250Y-71000D02*
X65000D01*
X66193Y-71000D01*
X68399Y-70087D01*
X70087Y-68399D01*
X71000Y-66193D01*
X71000Y-65000D01*
X71000D01*
Y-50000D01*
X71000Y-35000D01*
X71000Y-33807D01*
X70087Y-31601D01*
X68399Y-29913D01*
X66193Y-29000D01*
X65000Y-29000D01*
Y-29000D01*
X40250D01*
X40250Y-32826D01*
X41336Y-33523D01*
X43363Y-35120D01*
X45167Y-36964D01*
X46719Y-39025D01*
X47993Y-41268D01*
X48967Y-43657D01*
X49626Y-46151D01*
X49958Y-48710D01*
X50000Y-50000D01*
X50000D01*
X49958Y-51290D01*
X49626Y-53849D01*
X48967Y-56343D01*
X47993Y-58732D01*
X46719Y-60975D01*
X45167Y-63036D01*
X43363Y-64880D01*
X41336Y-66477D01*
X40250Y-67174D01*
Y-67174D01*
Y-71000D01*
D02*
G37*
G36*
X129000Y-65000D02*
Y-66193D01*
X129913Y-68399D01*
X131601Y-70086D01*
X133806Y-71000D01*
X135000D01*
D01*
X165000D01*
X166194D01*
X168399Y-70086D01*
X170087Y-68399D01*
X171000Y-66193D01*
Y-65000D01*
D01*
Y-35250D01*
X167174Y-35250D01*
X166477Y-36336D01*
X164880Y-38363D01*
X163036Y-40167D01*
X160975Y-41719D01*
X158732Y-42993D01*
X156343Y-43968D01*
X153848Y-44626D01*
X151290Y-44958D01*
X150000Y-45000D01*
X150000D01*
Y-45000D01*
X148710Y-44958D01*
X146152Y-44626D01*
X143657Y-43967D01*
X141268Y-42993D01*
X139025Y-41719D01*
X136964Y-40167D01*
X135120Y-38363D01*
X133523Y-36336D01*
X132826Y-35250D01*
X132826D01*
X129000D01*
Y-65000D01*
D02*
G37*
G36*
X279000D02*
Y-66193D01*
X279913Y-68399D01*
X281601Y-70086D01*
X283806Y-71000D01*
X285000D01*
D01*
X315000D01*
X316194D01*
X318399Y-70086D01*
X320087Y-68399D01*
X321000Y-66193D01*
Y-65000D01*
D01*
Y-35250D01*
X317174Y-35250D01*
X316477Y-36336D01*
X314880Y-38363D01*
X313036Y-40167D01*
X310975Y-41719D01*
X308732Y-42993D01*
X306343Y-43968D01*
X303848Y-44626D01*
X301290Y-44958D01*
X300000Y-45000D01*
X300000D01*
Y-45000D01*
X298710Y-44958D01*
X296152Y-44626D01*
X293657Y-43967D01*
X291268Y-42993D01*
X289025Y-41719D01*
X286964Y-40167D01*
X285120Y-38363D01*
X283523Y-36336D01*
X282826Y-35250D01*
X282826D01*
X279000D01*
Y-65000D01*
D02*
G37*
G36*
X421000Y-435000D02*
Y-433807D01*
X420087Y-431601D01*
X418399Y-429913D01*
X416194Y-429000D01*
X415000D01*
D01*
X385000D01*
X383806D01*
X381601Y-429913D01*
X379913Y-431601D01*
X379000Y-433807D01*
Y-435000D01*
D01*
Y-464750D01*
X382826Y-464750D01*
X383523Y-463664D01*
X385120Y-461637D01*
X386964Y-459833D01*
X389025Y-458281D01*
X391268Y-457007D01*
X393657Y-456032D01*
X396152Y-455374D01*
X398710Y-455042D01*
X400000Y-455000D01*
X401290Y-455042D01*
X403848Y-455374D01*
X406343Y-456032D01*
X408732Y-457007D01*
X410975Y-458281D01*
X413036Y-459833D01*
X414880Y-461637D01*
X416477Y-463664D01*
X417174Y-464750D01*
X417174Y-464750D01*
X421000D01*
Y-435000D01*
D02*
G37*
G36*
X521000D02*
Y-433807D01*
X520087Y-431601D01*
X518399Y-429913D01*
X516194Y-429000D01*
X515000D01*
D01*
X485000D01*
X483806D01*
X481601Y-429913D01*
X479913Y-431601D01*
X479000Y-433807D01*
Y-435000D01*
D01*
Y-464750D01*
X482826Y-464750D01*
X483523Y-463664D01*
X485120Y-461637D01*
X486964Y-459832D01*
X489025Y-458281D01*
X491268Y-457007D01*
X493657Y-456032D01*
X496152Y-455374D01*
X498710Y-455042D01*
X500000Y-455000D01*
Y-455000D01*
Y-455000D01*
X501290Y-455042D01*
X503848Y-455374D01*
X506343Y-456032D01*
X508732Y-457007D01*
X510975Y-458281D01*
X513036Y-459833D01*
X514880Y-461637D01*
X516477Y-463664D01*
X517174Y-464750D01*
X517174Y-464750D01*
X521000D01*
Y-435000D01*
D02*
G37*
G36*
X671000D02*
Y-433807D01*
X670087Y-431601D01*
X668399Y-429913D01*
X666193Y-429000D01*
X665000D01*
D01*
X635000D01*
X633806D01*
X631601Y-429913D01*
X629913Y-431601D01*
X629000Y-433807D01*
Y-435000D01*
D01*
Y-464750D01*
X632826Y-464750D01*
X633523Y-463664D01*
X635120Y-461637D01*
X636964Y-459833D01*
X639025Y-458281D01*
X641268Y-457007D01*
X643657Y-456032D01*
X646152Y-455374D01*
X648710Y-455042D01*
X650000Y-455000D01*
Y-455000D01*
Y-455000D01*
X651290Y-455042D01*
X653848Y-455374D01*
X656343Y-456032D01*
X658732Y-457007D01*
X660975Y-458281D01*
X663036Y-459833D01*
X664880Y-461637D01*
X666477Y-463664D01*
X667174Y-464750D01*
X667174Y-464750D01*
X671000D01*
Y-435000D01*
D02*
G37*
G36*
X759750Y-429000D02*
X735000Y-429000D01*
X733807Y-429000D01*
X731601Y-429913D01*
X729913Y-431601D01*
X729000Y-433806D01*
X729000Y-435000D01*
D01*
Y-450000D01*
X729000Y-465000D01*
X729000Y-466194D01*
X729913Y-468399D01*
X731601Y-470087D01*
X733807Y-471000D01*
X735000Y-471000D01*
X735000Y-471000D01*
X759750D01*
Y-467174D01*
X758664Y-466477D01*
X756637Y-464880D01*
X754833Y-463036D01*
X753281Y-460975D01*
X752007Y-458732D01*
X751032Y-456343D01*
X750374Y-453848D01*
X750042Y-451290D01*
X750000Y-450000D01*
X750042Y-448710D01*
X750374Y-446152D01*
X751032Y-443657D01*
X752007Y-441268D01*
X753280Y-439025D01*
X754833Y-436964D01*
X756637Y-435120D01*
X758664Y-433523D01*
X759750Y-432826D01*
X759750D01*
Y-429000D01*
D02*
G37*
G36*
X759750Y-329000D02*
X735000Y-329000D01*
X733807Y-329000D01*
X731601Y-329913D01*
X729913Y-331601D01*
X729000Y-333806D01*
X729000Y-335000D01*
D01*
Y-350000D01*
X729000Y-365000D01*
X729000Y-366194D01*
X729913Y-368399D01*
X731601Y-370087D01*
X733807Y-371000D01*
X735000Y-371000D01*
X735000Y-371000D01*
X759750D01*
Y-367174D01*
X758664Y-366477D01*
X756637Y-364880D01*
X754833Y-363036D01*
X753280Y-360975D01*
X752007Y-358732D01*
X751032Y-356343D01*
X750374Y-353848D01*
X750042Y-351290D01*
X750000Y-350000D01*
X750042Y-348710D01*
X750374Y-346152D01*
X751032Y-343657D01*
X752007Y-341268D01*
X753280Y-339025D01*
X754833Y-336964D01*
X756637Y-335120D01*
X758664Y-333523D01*
X759750Y-332826D01*
X759750D01*
Y-329000D01*
D02*
G37*
G36*
X379000Y-65000D02*
Y-66193D01*
X379913Y-68399D01*
X381601Y-70086D01*
X383806Y-71000D01*
X385000D01*
D01*
X415000D01*
X416194D01*
X418399Y-70086D01*
X420087Y-68399D01*
X421000Y-66193D01*
Y-65000D01*
D01*
Y-35250D01*
X417174Y-35250D01*
X416477Y-36336D01*
X414880Y-38363D01*
X413036Y-40167D01*
X410975Y-41719D01*
X408732Y-42993D01*
X406343Y-43967D01*
X403848Y-44626D01*
X401290Y-44958D01*
X400000Y-45000D01*
X398710Y-44958D01*
X396152Y-44626D01*
X393657Y-43967D01*
X391268Y-42993D01*
X389025Y-41719D01*
X386964Y-40167D01*
X385120Y-38363D01*
X383523Y-36336D01*
X382826Y-35250D01*
X382826D01*
X379000D01*
Y-65000D01*
D02*
G37*
G36*
X515000Y-71000D02*
X516194D01*
X518399Y-70086D01*
X520087Y-68399D01*
X521000Y-66193D01*
Y-65000D01*
D01*
Y-35250D01*
X517174Y-35250D01*
X516477Y-36336D01*
X514880Y-38363D01*
X513036Y-40167D01*
X510975Y-41719D01*
X508732Y-42993D01*
X506343Y-43968D01*
X503848Y-44626D01*
X501290Y-44958D01*
X500000Y-45000D01*
X500000D01*
Y-45000D01*
X498710Y-44958D01*
X496152Y-44626D01*
X493657Y-43967D01*
X491268Y-42993D01*
X489025Y-41719D01*
X486964Y-40167D01*
X485120Y-38363D01*
X483523Y-36336D01*
X482826Y-35250D01*
X482826D01*
X479000D01*
Y-65000D01*
Y-66193D01*
X479913Y-68399D01*
X481601Y-70086D01*
X483806Y-71000D01*
X485000D01*
D01*
X497750D01*
D01*
X515000D01*
D02*
G37*
G36*
X665000D02*
X666193D01*
X668399Y-70086D01*
X670087Y-68399D01*
X671000Y-66193D01*
Y-65000D01*
D01*
Y-35250D01*
X667174Y-35250D01*
X666477Y-36336D01*
X664880Y-38363D01*
X663036Y-40167D01*
X660975Y-41719D01*
X658732Y-42993D01*
X656343Y-43968D01*
X653848Y-44626D01*
X651290Y-44958D01*
X650000Y-45000D01*
X650000D01*
Y-45000D01*
X648710Y-44958D01*
X646152Y-44626D01*
X643657Y-43967D01*
X641268Y-42993D01*
X639025Y-41719D01*
X636964Y-40167D01*
X635120Y-38363D01*
X633523Y-36336D01*
X632826Y-35250D01*
X632826D01*
X629000D01*
Y-65000D01*
Y-66193D01*
X629913Y-68399D01*
X631601Y-70086D01*
X633806Y-71000D01*
X635000D01*
D01*
X647750D01*
D01*
X665000D01*
D02*
G37*
G36*
X759750Y-129000D02*
X735000Y-129000D01*
X733807Y-129000D01*
X731601Y-129913D01*
X729913Y-131601D01*
X729000Y-133806D01*
X729000Y-135000D01*
D01*
Y-150000D01*
X729000Y-165000D01*
X729000Y-166194D01*
X729913Y-168399D01*
X731601Y-170087D01*
X733807Y-171000D01*
X735000Y-171000D01*
X735000Y-171000D01*
X759750D01*
Y-167174D01*
X758664Y-166477D01*
X756637Y-164880D01*
X754833Y-163036D01*
X753280Y-160975D01*
X752007Y-158732D01*
X751032Y-156343D01*
X750374Y-153848D01*
X750042Y-151290D01*
X750000Y-150000D01*
X750042Y-148710D01*
X750374Y-146152D01*
X751032Y-143657D01*
X752007Y-141268D01*
X753280Y-139024D01*
X754833Y-136964D01*
X756637Y-135119D01*
X758664Y-133523D01*
X759750Y-132826D01*
X759750D01*
Y-129000D01*
D02*
G37*
G36*
X759750Y-71000D02*
X735000D01*
X733807Y-71000D01*
X731601Y-70087D01*
X729913Y-68399D01*
X729000Y-66193D01*
X729000Y-65000D01*
D01*
Y-50000D01*
X729000Y-35000D01*
X729000Y-33807D01*
X729913Y-31601D01*
X731601Y-29913D01*
X733807Y-29000D01*
X735000Y-29000D01*
X735000Y-29000D01*
X759750D01*
Y-32826D01*
X758664Y-33523D01*
X756637Y-35120D01*
X754833Y-36964D01*
X753281Y-39025D01*
X752007Y-41268D01*
X751032Y-43657D01*
X750374Y-46151D01*
X750042Y-48710D01*
X750000Y-50000D01*
X750042Y-51290D01*
X750374Y-53849D01*
X751032Y-56343D01*
X752007Y-58732D01*
X753281Y-60975D01*
X754833Y-63036D01*
X756637Y-64880D01*
X758664Y-66477D01*
X759750Y-67174D01*
X759750Y-67174D01*
Y-71000D01*
D02*
G37*
D14*
X770000Y-350000D02*
D03*
Y-150000D02*
D03*
X30000Y-350000D02*
D03*
Y-250000D02*
D03*
Y-150000D02*
D03*
X30000Y-450000D02*
D03*
X650000Y-475000D02*
D03*
X150000D02*
D03*
X300000D02*
D03*
X500000D02*
D03*
X400000D02*
D03*
X770000Y-450000D02*
D03*
X30000Y-50000D02*
D03*
X400000Y-25000D02*
D03*
X300000D02*
D03*
X500000D02*
D03*
X650000D02*
D03*
X150000D02*
D03*
X770000Y-50000D02*
D03*
D15*
X100000Y-450000D02*
D03*
X200000D02*
D03*
X250000D02*
D03*
X550000D02*
D03*
X600000D02*
D03*
X700000D02*
D03*
X450000D02*
D03*
X350000D02*
D03*
X450000Y-50000D02*
D03*
X350000D02*
D03*
X775000Y-400000D02*
D03*
X725000D02*
D03*
X525000D02*
D03*
X675000D02*
D03*
X475000D02*
D03*
X425000D02*
D03*
X375000D02*
D03*
X325000D02*
D03*
X275000D02*
D03*
X225000D02*
D03*
X175000D02*
D03*
X125000D02*
D03*
X75000D02*
D03*
X25000D02*
D03*
X625000D02*
D03*
X575000D02*
D03*
X550000Y-350000D02*
D03*
X700000D02*
D03*
X500000D02*
D03*
X450000D02*
D03*
X400000D02*
D03*
X350000D02*
D03*
X300000D02*
D03*
X250000D02*
D03*
X200000D02*
D03*
X150000D02*
D03*
X100000D02*
D03*
X650000D02*
D03*
X600000D02*
D03*
X650000Y-150000D02*
D03*
X600000D02*
D03*
X625000Y-200000D02*
D03*
X575000D02*
D03*
X650000Y-250000D02*
D03*
X600000D02*
D03*
X250000Y-150000D02*
D03*
X200000D02*
D03*
X225000Y-200000D02*
D03*
X175000D02*
D03*
X250000Y-250000D02*
D03*
X200000D02*
D03*
X575000Y-300000D02*
D03*
X625000D02*
D03*
X25000D02*
D03*
X75000D02*
D03*
X125000D02*
D03*
X100000Y-250000D02*
D03*
X150000D02*
D03*
X25000Y-200000D02*
D03*
X75000D02*
D03*
X125000D02*
D03*
X100000Y-150000D02*
D03*
X150000D02*
D03*
X100000Y-50000D02*
D03*
X200000D02*
D03*
X250000D02*
D03*
X550000D02*
D03*
X600000D02*
D03*
X700000D02*
D03*
X475000Y-100000D02*
D03*
X425000D02*
D03*
X375000D02*
D03*
X325000D02*
D03*
X275000D02*
D03*
X225000D02*
D03*
X175000D02*
D03*
X125000D02*
D03*
X75000D02*
D03*
X25000D02*
D03*
X300000Y-250000D02*
D03*
X350000D02*
D03*
X400000D02*
D03*
X450000D02*
D03*
X500000D02*
D03*
X275000Y-200000D02*
D03*
X325000D02*
D03*
X375000D02*
D03*
X425000D02*
D03*
X475000D02*
D03*
X300000Y-150000D02*
D03*
X350000D02*
D03*
X400000D02*
D03*
X450000D02*
D03*
X500000D02*
D03*
X175000Y-300000D02*
D03*
X225000D02*
D03*
X275000D02*
D03*
X325000D02*
D03*
X375000D02*
D03*
X425000D02*
D03*
X475000D02*
D03*
X675000D02*
D03*
X525000D02*
D03*
X550000Y-250000D02*
D03*
X525000Y-200000D02*
D03*
X550000Y-150000D02*
D03*
X675000Y-100000D02*
D03*
X625000D02*
D03*
X575000D02*
D03*
X525000D02*
D03*
X700000Y-150000D02*
D03*
X675000Y-200000D02*
D03*
X700000Y-250000D02*
D03*
X725000Y-200000D02*
D03*
Y-100000D02*
D03*
X775000D02*
D03*
X750000Y-250000D02*
D03*
X725000Y-300000D02*
D03*
M02*
