G04*
G04 #@! TF.GenerationSoftware,Altium Limited,Altium Designer,24.6.1 (21)*
G04*
G04 Layer_Color=32768*
%FSLAX44Y44*%
%MOMM*%
G71*
G04*
G04 #@! TF.SameCoordinates,801A7B55-1520-438C-8D58-620F3B385FE8*
G04*
G04*
G04 #@! TF.FilePolarity,Positive*
G04*
G01*
G75*
%ADD28C,0.0500*%
G36*
X380500Y-374000D02*
X365500D01*
Y-368000D01*
X380500D01*
Y-374000D01*
D02*
G37*
G36*
Y16000D02*
X365500D01*
Y22000D01*
X380500D01*
Y16000D01*
D02*
G37*
G36*
X-19500Y-374000D02*
X-34500D01*
Y-368000D01*
X-19500D01*
Y-374000D01*
D02*
G37*
G36*
Y16000D02*
X-34500D01*
Y22000D01*
X-19500D01*
Y16000D01*
D02*
G37*
%LPC*%
G36*
X373473Y-369712D02*
X372528D01*
Y-372288D01*
D01*
Y-370662D01*
X372584Y-370639D01*
X372639Y-370614D01*
X372695Y-370586D01*
X372746Y-370561D01*
X372792Y-370535D01*
X372809Y-370525D01*
X372827Y-370517D01*
X372840Y-370510D01*
X372850Y-370505D01*
X372855Y-370500D01*
X372858D01*
X372924Y-370459D01*
X372982Y-370418D01*
X373033Y-370383D01*
X373076Y-370350D01*
X373112Y-370322D01*
X373137Y-370299D01*
X373145Y-370291D01*
X373152Y-370286D01*
X373158Y-370281D01*
Y-372288D01*
X373473D01*
Y-369712D01*
D02*
G37*
%LPD*%
G36*
X373251Y-369743D02*
X373234Y-369776D01*
X373190Y-369837D01*
X373142Y-369895D01*
X373097Y-369949D01*
X373053Y-369992D01*
X373036Y-370012D01*
X373020Y-370027D01*
X373005Y-370040D01*
X372995Y-370050D01*
X372990Y-370055D01*
X372987Y-370058D01*
X372911Y-370121D01*
X372832Y-370180D01*
X372756Y-370230D01*
X372685Y-370274D01*
X372652Y-370291D01*
X372622Y-370309D01*
X372596Y-370322D01*
X372571Y-370335D01*
X372553Y-370345D01*
X372540Y-370352D01*
X372530Y-370355D01*
X372528Y-370357D01*
Y-369712D01*
X373269D01*
X373251Y-369743D01*
D02*
G37*
%LPC*%
G36*
X373473Y20288D02*
X372528D01*
X373269D01*
X373251Y20257D01*
X373234Y20224D01*
X373190Y20163D01*
X373142Y20105D01*
X373097Y20052D01*
X373053Y20008D01*
X373036Y19988D01*
X373020Y19973D01*
X373005Y19960D01*
X372995Y19950D01*
X372990Y19945D01*
X372987Y19942D01*
X372911Y19879D01*
X372832Y19820D01*
X372756Y19770D01*
X372685Y19726D01*
X372652Y19709D01*
X372622Y19691D01*
X372596Y19678D01*
X372571Y19665D01*
X372553Y19655D01*
X372540Y19648D01*
X372530Y19645D01*
X372528Y19643D01*
Y19338D01*
X372584Y19361D01*
X372639Y19386D01*
X372695Y19414D01*
X372746Y19439D01*
X372792Y19465D01*
X372809Y19475D01*
X372827Y19483D01*
X372840Y19490D01*
X372850Y19495D01*
X372855Y19500D01*
X372858D01*
X372924Y19541D01*
X372982Y19582D01*
X373033Y19617D01*
X373076Y19650D01*
X373112Y19678D01*
X373137Y19701D01*
X373145Y19709D01*
X373152Y19714D01*
X373158Y19719D01*
Y17712D01*
X373473D01*
Y20288D01*
D02*
G37*
G36*
X-26528Y-369712D02*
X-27472D01*
X-26731D01*
X-26748Y-369743D01*
X-26766Y-369776D01*
X-26809Y-369837D01*
X-26858Y-369895D01*
X-26904Y-369949D01*
X-26947Y-369992D01*
X-26964Y-370012D01*
X-26980Y-370027D01*
X-26995Y-370040D01*
X-27005Y-370050D01*
X-27010Y-370055D01*
X-27013Y-370058D01*
X-27089Y-370121D01*
X-27168Y-370180D01*
X-27244Y-370230D01*
X-27315Y-370274D01*
X-27348Y-370291D01*
X-27378Y-370309D01*
X-27404Y-370322D01*
X-27429Y-370335D01*
X-27447Y-370345D01*
X-27460Y-370352D01*
X-27470Y-370355D01*
X-27472Y-370357D01*
Y-370355D01*
Y-370662D01*
X-27417Y-370639D01*
X-27361Y-370614D01*
X-27305Y-370586D01*
X-27254Y-370561D01*
X-27208Y-370535D01*
X-27190Y-370525D01*
X-27173Y-370517D01*
X-27160Y-370510D01*
X-27150Y-370505D01*
X-27145Y-370500D01*
X-27142D01*
X-27076Y-370459D01*
X-27018Y-370418D01*
X-26967Y-370383D01*
X-26924Y-370350D01*
X-26888Y-370322D01*
X-26863Y-370299D01*
X-26855Y-370291D01*
X-26848Y-370286D01*
X-26843Y-370281D01*
Y-372288D01*
X-26528D01*
Y-369712D01*
D02*
G37*
G36*
Y20288D02*
X-27472D01*
X-26731D01*
X-26748Y20257D01*
X-26766Y20224D01*
X-26809Y20163D01*
X-26858Y20105D01*
X-26904Y20052D01*
X-26947Y20008D01*
X-26964Y19988D01*
X-26980Y19973D01*
X-26995Y19960D01*
X-27005Y19950D01*
X-27010Y19945D01*
X-27013Y19942D01*
X-27089Y19879D01*
X-27168Y19820D01*
X-27244Y19770D01*
X-27315Y19726D01*
X-27348Y19709D01*
X-27378Y19691D01*
X-27404Y19678D01*
X-27429Y19665D01*
X-27447Y19655D01*
X-27460Y19648D01*
X-27470Y19645D01*
X-27472Y19643D01*
Y19645D01*
Y19338D01*
X-27417Y19361D01*
X-27361Y19386D01*
X-27305Y19414D01*
X-27254Y19439D01*
X-27208Y19465D01*
X-27190Y19475D01*
X-27173Y19483D01*
X-27160Y19490D01*
X-27150Y19495D01*
X-27145Y19500D01*
X-27142D01*
X-27076Y19541D01*
X-27018Y19582D01*
X-26967Y19617D01*
X-26924Y19650D01*
X-26888Y19678D01*
X-26863Y19701D01*
X-26855Y19709D01*
X-26848Y19714D01*
X-26843Y19719D01*
Y17712D01*
X-26528D01*
Y20288D01*
D02*
G37*
%LPD*%
D28*
X-19500Y-415000D02*
Y-365000D01*
X19500Y-415000D02*
X19500Y-365000D01*
X-19500Y-415000D02*
X19500Y-415000D01*
X-19500Y-365000D02*
X19500D01*
X-34500Y-368000D02*
X-19500D01*
Y-374000D02*
Y-368000D01*
X-34500Y-374000D02*
X-19500Y-374000D01*
X-34500Y-374000D02*
X-34500Y-368000D01*
X-34500Y-380700D02*
X-19500Y-380700D01*
X-19500Y-386700D01*
X-34500Y-386700D02*
X-19500Y-386700D01*
X-34500Y-380700D02*
X-34500Y-386700D01*
X-34500Y-393400D02*
X-19500Y-393400D01*
X-19500Y-399400D01*
X-34500Y-399400D02*
X-19500Y-399400D01*
X-34500Y-399400D02*
Y-393400D01*
Y-406100D02*
X-19500Y-406100D01*
X-19500Y-412100D02*
X-19500Y-406100D01*
X-34500Y-412100D02*
X-19500Y-412100D01*
X-34500Y-412100D02*
X-34500Y-406100D01*
X19500D02*
X34500Y-406100D01*
Y-412100D02*
Y-406100D01*
X19500Y-412100D02*
X34500Y-412100D01*
X19500Y-412100D02*
X19500Y-406100D01*
X19500Y-393400D02*
X34500D01*
X34500Y-399400D02*
X34500Y-393400D01*
X19500Y-399400D02*
X34500Y-399400D01*
X19500Y-399400D02*
X19500Y-393400D01*
Y-380700D02*
X34500Y-380700D01*
X34500Y-386700D02*
X34500Y-380700D01*
X19500Y-386700D02*
X34500D01*
X19500D02*
Y-380700D01*
Y-368000D02*
X34500D01*
X34500Y-374000D02*
X34500Y-368000D01*
X19500Y-374000D02*
X34500D01*
X19500Y-368000D02*
X19500Y-374000D01*
X380500Y-415000D02*
Y-365000D01*
X419500Y-415000D02*
X419500Y-365000D01*
X380500Y-415000D02*
X419500Y-415000D01*
X380500Y-365000D02*
X419500D01*
X365500Y-368000D02*
X380500D01*
Y-374000D02*
Y-368000D01*
X365500Y-374000D02*
X380500Y-374000D01*
X365500Y-374000D02*
X365500Y-368000D01*
X365500Y-380700D02*
X380500Y-380700D01*
X380500Y-386700D01*
X365500Y-386700D02*
X380500Y-386700D01*
X365500Y-380700D02*
X365500Y-386700D01*
X365500Y-393400D02*
X380500Y-393400D01*
X380500Y-399400D01*
X365500Y-399400D02*
X380500Y-399400D01*
X365500Y-399400D02*
Y-393400D01*
Y-406100D02*
X380500Y-406100D01*
X380500Y-412100D02*
X380500Y-406100D01*
X365500Y-412100D02*
X380500Y-412100D01*
X365500Y-412100D02*
X365500Y-406100D01*
X419500D02*
X434500Y-406100D01*
Y-412100D02*
Y-406100D01*
X419500Y-412100D02*
X434500Y-412100D01*
X419500Y-412100D02*
X419500Y-406100D01*
X419500Y-393400D02*
X434500D01*
X434500Y-399400D02*
X434500Y-393400D01*
X419500Y-399400D02*
X434500Y-399400D01*
X419500Y-399400D02*
X419500Y-393400D01*
Y-380700D02*
X434500Y-380700D01*
X434500Y-386700D02*
X434500Y-380700D01*
X419500Y-386700D02*
X434500D01*
X419500D02*
Y-380700D01*
Y-368000D02*
X434500D01*
X434500Y-374000D02*
X434500Y-368000D01*
X419500Y-374000D02*
X434500D01*
X419500Y-368000D02*
X419500Y-374000D01*
X380500Y-25000D02*
Y25000D01*
X419500Y-25000D02*
X419500Y25000D01*
X380500Y-25000D02*
X419500Y-25000D01*
X380500Y25000D02*
X419500D01*
X365500Y22000D02*
X380500D01*
Y16000D02*
Y22000D01*
X365500Y16000D02*
X380500Y16000D01*
X365500Y16000D02*
X365500Y22000D01*
X365500Y9300D02*
X380500Y9300D01*
X380500Y3300D01*
X365500Y3300D02*
X380500Y3300D01*
X365500Y9300D02*
X365500Y3300D01*
X365500Y-3400D02*
X380500Y-3400D01*
X380500Y-9400D01*
X365500Y-9400D02*
X380500Y-9400D01*
X365500Y-9400D02*
Y-3400D01*
Y-16100D02*
X380500Y-16100D01*
X380500Y-22100D02*
X380500Y-16100D01*
X365500Y-22100D02*
X380500Y-22100D01*
X365500Y-22100D02*
X365500Y-16100D01*
X419500D02*
X434500Y-16100D01*
Y-22100D02*
Y-16100D01*
X419500Y-22100D02*
X434500Y-22100D01*
X419500Y-22100D02*
X419500Y-16100D01*
X419500Y-3400D02*
X434500D01*
X434500Y-9400D02*
X434500Y-3400D01*
X419500Y-9400D02*
X434500Y-9400D01*
X419500Y-9400D02*
X419500Y-3400D01*
Y9300D02*
X434500Y9300D01*
X434500Y3300D02*
X434500Y9300D01*
X419500Y3300D02*
X434500D01*
X419500D02*
Y9300D01*
Y22000D02*
X434500D01*
X434500Y16000D02*
X434500Y22000D01*
X419500Y16000D02*
X434500D01*
X419500Y22000D02*
X419500Y16000D01*
X19500Y22000D02*
X19500Y16000D01*
X34500D01*
X34500Y22000D01*
X19500D02*
X34500D01*
X19500Y3300D02*
Y9300D01*
Y3300D02*
X34500D01*
X34500Y9300D01*
X19500Y9300D02*
X34500Y9300D01*
X19500Y-9400D02*
X19500Y-3400D01*
X19500Y-9400D02*
X34500Y-9400D01*
X34500Y-3400D01*
X19500D02*
X34500D01*
X19500Y-22100D02*
X19500Y-16100D01*
X19500Y-22100D02*
X34500Y-22100D01*
Y-16100D01*
X19500Y-16100D02*
X34500Y-16100D01*
X-34500Y-22100D02*
X-34500Y-16100D01*
X-34500Y-22100D02*
X-19500Y-22100D01*
X-19500Y-16100D01*
X-34500Y-16100D02*
X-19500Y-16100D01*
X-34500Y-9400D02*
Y-3400D01*
Y-9400D02*
X-19500Y-9400D01*
X-19500Y-3400D02*
X-19500Y-9400D01*
X-34500Y-3400D02*
X-19500Y-3400D01*
X-34500Y9300D02*
X-34500Y3300D01*
X-19500Y3300D01*
X-19500Y9300D02*
X-19500Y3300D01*
X-34500Y9300D02*
X-19500Y9300D01*
X-34500Y16000D02*
X-34500Y22000D01*
X-34500Y16000D02*
X-19500Y16000D01*
Y22000D01*
X-34500D02*
X-19500D01*
X-19500Y25000D02*
X19500D01*
X-19500Y-25000D02*
X19500Y-25000D01*
X19500Y25000D01*
X-19500Y-25000D02*
Y25000D01*
M02*
