G04*
G04 #@! TF.GenerationSoftware,Altium Limited,Altium Designer,24.6.1 (21)*
G04*
G04 Layer_Physical_Order=2*
G04 Layer_Color=16711680*
%FSLAX44Y44*%
%MOMM*%
G71*
G04*
G04 #@! TF.SameCoordinates,801A7B55-1520-438C-8D58-620F3B385FE8*
G04*
G04*
G04 #@! TF.FilePolarity,Positive*
G04*
G01*
G75*
%ADD18C,0.4500*%
%ADD19C,0.2500*%
G04:AMPARAMS|DCode=20|XSize=4mm|YSize=4mm|CornerRadius=0.5mm|HoleSize=0mm|Usage=FLASHONLY|Rotation=0.000|XOffset=0mm|YOffset=0mm|HoleType=Round|Shape=RoundedRectangle|*
%AMROUNDEDRECTD20*
21,1,4.0000,3.0000,0,0,0.0*
21,1,3.0000,4.0000,0,0,0.0*
1,1,1.0000,1.5000,-1.5000*
1,1,1.0000,-1.5000,-1.5000*
1,1,1.0000,-1.5000,1.5000*
1,1,1.0000,1.5000,1.5000*
%
%ADD20ROUNDEDRECTD20*%
%ADD21C,1.5000*%
%ADD22C,4.0000*%
G04:AMPARAMS|DCode=23|XSize=0.38mm|YSize=1.45mm|CornerRadius=0.095mm|HoleSize=0mm|Usage=FLASHONLY|Rotation=90.000|XOffset=0mm|YOffset=0mm|HoleType=Round|Shape=RoundedRectangle|*
%AMROUNDEDRECTD23*
21,1,0.3800,1.2600,0,0,90.0*
21,1,0.1900,1.4500,0,0,90.0*
1,1,0.1900,0.6300,0.0950*
1,1,0.1900,0.6300,-0.0950*
1,1,0.1900,-0.6300,-0.0950*
1,1,0.1900,-0.6300,0.0950*
%
%ADD23ROUNDEDRECTD23*%
D18*
X625000Y-125000D02*
X650000Y-150000D01*
X500000D02*
X525000Y-125000D01*
X625000D01*
X-175000D02*
X-75000D01*
X-200000Y-150000D02*
X-175000Y-125000D01*
X-75000D02*
X-50000Y-150000D01*
X-25000Y-265000D02*
X75000D01*
X-81065Y-515500D02*
X-80819Y-515746D01*
X-74254D01*
X-25000Y-515000D02*
X75000D01*
X375000Y-265000D02*
X475000D01*
X318935Y-515500D02*
X319181Y-515746D01*
X325746D01*
X375000Y-515000D02*
X475000D01*
X375000Y125000D02*
X475000D01*
X375000Y-125000D02*
X475000D01*
X650000Y-540000D02*
X670000D01*
X650000Y-240000D02*
X670000D01*
X475000Y-125000D02*
X500000Y-150000D01*
X650000D02*
X670000D01*
X650000Y150000D02*
X670000D01*
X-200000Y-240000D02*
X-175000Y-265000D01*
X-75000D01*
X-25000D02*
X75000D01*
X-50000Y-240000D02*
X-25000Y-265000D01*
X125000D02*
X325000D01*
X100000Y-240000D02*
X125000Y-265000D01*
X350000Y-240000D02*
X375000Y-265000D01*
X475000D01*
X500000Y-240000D02*
X525000Y-265000D01*
X625000D01*
X350000Y-150000D02*
X375000Y-125000D01*
X475000D01*
X325000D02*
X350000Y-150000D01*
X-25000Y-125000D02*
X75000D01*
X-50000Y-150000D02*
X-25000Y-125000D01*
X-200000Y-150000D02*
Y-150000D01*
X100000Y-150000D02*
X125000Y-125000D01*
X-200000Y-540000D02*
X-175000Y-515000D01*
X-75000D01*
X-50000Y-540000D01*
X-25000Y-515000D01*
X75000D01*
X100000Y-540000D01*
X125000Y-515000D01*
X325000D01*
X350000Y-540000D01*
X375000Y-515000D01*
X475000D01*
X500000Y-540000D01*
X525000Y-515000D01*
X625000D01*
X650000Y-540000D01*
X-75000Y-265000D02*
X-50000Y-240000D01*
X75000Y-265000D02*
X100000Y-240000D01*
X325000Y-265000D02*
X350000Y-240000D01*
X475000Y-265000D02*
X500000Y-240000D01*
X625000Y-265000D02*
X650000Y-240000D01*
X125000Y-125000D02*
X325000D01*
X75000D02*
X100000Y-150000D01*
X625000Y125000D02*
X650000Y150000D01*
X525000Y125000D02*
X625000D01*
X500000Y150000D02*
X525000Y125000D01*
X475000D02*
X500000Y150000D01*
X375000Y125000D02*
X475000D01*
X350000Y150000D02*
X375000Y125000D01*
X325000D02*
X350000Y150000D01*
X125000Y125000D02*
X325000D01*
X100000Y150000D02*
X125000Y125000D01*
X75000D02*
X100000Y150000D01*
X-25000Y125000D02*
X75000D01*
X-50000Y150000D02*
X-25000Y125000D01*
X-75000D02*
X-50000Y150000D01*
X-175000Y125000D02*
X-75000D01*
X-200000Y150000D02*
X-175000Y125000D01*
D19*
X0Y-372250D02*
Y-347500D01*
X-32750Y-399750D02*
X-22000D01*
X-38100Y-394400D02*
X-32750Y-399750D01*
X-31000Y-393250D02*
X-22000D01*
X-38100Y-394400D02*
Y-351900D01*
X-33500Y-390750D02*
X-31000Y-393250D01*
X-33500Y-372700D02*
X-12700Y-351900D01*
X-33500Y-390750D02*
Y-372700D01*
X33500Y-389250D02*
X33500Y-407300D01*
X12700Y-428100D02*
X33500Y-407300D01*
X31000Y-386750D02*
X33500Y-389250D01*
X38100Y-428100D02*
X38100Y-385600D01*
X22000Y-386750D02*
X31000Y-386750D01*
X32750Y-380250D02*
X38100Y-385600D01*
X22000Y-380250D02*
X32750Y-380250D01*
X7250Y-340250D02*
X26450D01*
X0Y-347500D02*
X7250Y-340250D01*
X26450D02*
X38100Y-351900D01*
X12700Y-443950D02*
X25000Y-456250D01*
Y-490000D02*
Y-456250D01*
X12700Y-443950D02*
Y-428100D01*
Y-428100D01*
X-12700Y-351900D02*
Y-336050D01*
X-25000Y-323750D02*
Y-290000D01*
Y-323750D02*
X-12700Y-336050D01*
X12700Y-368800D02*
Y-351900D01*
X-5250Y-386750D02*
X12700Y-368800D01*
X-22000Y-386750D02*
X-5250D01*
X-8000Y-380250D02*
X0Y-372250D01*
X-22000Y-380250D02*
X-8000D01*
X8000Y-399750D02*
X22000D01*
X0Y-407750D02*
X8000Y-399750D01*
X5250Y-393250D02*
X22000D01*
X-12700Y-411200D02*
X5250Y-393250D01*
X-12700Y-428100D02*
Y-411200D01*
X-38100Y-428100D02*
X-26450Y-439750D01*
X-7250D02*
X0Y-432500D01*
X-26450Y-439750D02*
X-7250D01*
X0Y-432500D02*
Y-407750D01*
X400000Y-372250D02*
Y-347500D01*
X367250Y-399750D02*
X378000D01*
X361900Y-394400D02*
X367250Y-399750D01*
X369000Y-393250D02*
X378000D01*
X361900Y-394400D02*
Y-351900D01*
X366500Y-390750D02*
X369000Y-393250D01*
X366500Y-372700D02*
X387300Y-351900D01*
X366500Y-390750D02*
Y-372700D01*
X433500Y-389250D02*
X433500Y-407300D01*
X412700Y-428100D02*
X433500Y-407300D01*
X431000Y-386750D02*
X433500Y-389250D01*
X438100Y-428100D02*
X438100Y-385600D01*
X422000Y-386750D02*
X431000Y-386750D01*
X432750Y-380250D02*
X438100Y-385600D01*
X422000Y-380250D02*
X432750Y-380250D01*
X407250Y-340250D02*
X426450D01*
X400000Y-347500D02*
X407250Y-340250D01*
X426450D02*
X438100Y-351900D01*
X412700Y-443950D02*
X425000Y-456250D01*
Y-490000D02*
Y-456250D01*
X412700Y-443950D02*
Y-428100D01*
Y-428100D01*
X387300Y-351900D02*
Y-336050D01*
X375000Y-323750D02*
Y-290000D01*
Y-323750D02*
X387300Y-336050D01*
X412700Y-368800D02*
Y-351900D01*
X394750Y-386750D02*
X412700Y-368800D01*
X378000Y-386750D02*
X394750D01*
X392000Y-380250D02*
X400000Y-372250D01*
X378000Y-380250D02*
X392000D01*
X408000Y-399750D02*
X422000D01*
X400000Y-407750D02*
X408000Y-399750D01*
X405250Y-393250D02*
X422000D01*
X387300Y-411200D02*
X405250Y-393250D01*
X387300Y-428100D02*
Y-411200D01*
X361900Y-428100D02*
X373550Y-439750D01*
X392750D02*
X400000Y-432500D01*
X373550Y-439750D02*
X392750D01*
X400000Y-432500D02*
Y-407750D01*
Y17750D02*
Y42500D01*
X367250Y-9750D02*
X378000D01*
X361900Y-4400D02*
X367250Y-9750D01*
X369000Y-3250D02*
X378000D01*
X361900Y-4400D02*
Y38100D01*
X366500Y-750D02*
X369000Y-3250D01*
X366500Y17300D02*
X387300Y38100D01*
X366500Y-750D02*
Y17300D01*
X433500Y750D02*
X433500Y-17300D01*
X412700Y-38100D02*
X433500Y-17300D01*
X431000Y3250D02*
X433500Y750D01*
X438100Y-38100D02*
X438100Y4400D01*
X422000Y3250D02*
X431000Y3250D01*
X432750Y9750D02*
X438100Y4400D01*
X422000Y9750D02*
X432750Y9750D01*
X407250Y49750D02*
X426450D01*
X400000Y42500D02*
X407250Y49750D01*
X426450D02*
X438100Y38100D01*
X412700Y-53950D02*
X425000Y-66250D01*
Y-100000D02*
Y-66250D01*
X412700Y-53950D02*
Y-38100D01*
Y-38100D01*
X387300Y38100D02*
Y53950D01*
X375000Y66250D02*
Y100000D01*
Y66250D02*
X387300Y53950D01*
X412700Y21200D02*
Y38100D01*
X394750Y3250D02*
X412700Y21200D01*
X378000Y3250D02*
X394750D01*
X392000Y9750D02*
X400000Y17750D01*
X378000Y9750D02*
X392000D01*
X408000Y-9750D02*
X422000D01*
X400000Y-17750D02*
X408000Y-9750D01*
X405250Y-3250D02*
X422000D01*
X387300Y-21200D02*
X405250Y-3250D01*
X387300Y-38100D02*
Y-21200D01*
X361900Y-38100D02*
X373550Y-49750D01*
X392750D02*
X400000Y-42500D01*
X373550Y-49750D02*
X392750D01*
X400000Y-42500D02*
Y-17750D01*
X0Y-42500D02*
Y-17750D01*
X-26450Y-49750D02*
X-7250D01*
X0Y-42500D01*
X-38100Y-38100D02*
X-26450Y-49750D01*
X-12700Y-38100D02*
Y-21200D01*
X5250Y-3250D01*
X22000D01*
X0Y-17750D02*
X8000Y-9750D01*
X22000D01*
X-22000Y9750D02*
X-8000D01*
X0Y17750D01*
X-22000Y3250D02*
X-5250D01*
X12700Y21200D01*
Y38100D01*
X-25000Y66250D02*
X-12700Y53950D01*
X-25000Y66250D02*
Y100000D01*
X-12700Y38100D02*
Y53950D01*
X12700Y-38100D02*
Y-38100D01*
Y-53950D02*
Y-38100D01*
X25000Y-100000D02*
Y-66250D01*
X12700Y-53950D02*
X25000Y-66250D01*
X26450Y49750D02*
X38100Y38100D01*
X0Y42500D02*
X7250Y49750D01*
X26450D01*
X22000Y9750D02*
X32750Y9750D01*
X38100Y4400D01*
X22000Y3250D02*
X31000Y3250D01*
X38100Y-38100D02*
X38100Y4400D01*
X31000Y3250D02*
X33500Y750D01*
X12700Y-38100D02*
X33500Y-17300D01*
X33500Y750D02*
X33500Y-17300D01*
X-33500Y-750D02*
Y17300D01*
X-12700Y38100D01*
X-33500Y-750D02*
X-31000Y-3250D01*
X-38100Y-4400D02*
Y38100D01*
X-31000Y-3250D02*
X-22000D01*
X-38100Y-4400D02*
X-32750Y-9750D01*
X-22000D01*
X0Y17750D02*
Y42500D01*
D20*
X475000Y-440000D02*
D03*
Y-390000D02*
D03*
Y-340000D02*
D03*
X375000Y-490000D02*
D03*
X425000D02*
D03*
X475000D02*
D03*
X325000D02*
D03*
Y-440000D02*
D03*
Y-390000D02*
D03*
Y-340000D02*
D03*
X475000Y-290000D02*
D03*
X425000D02*
D03*
X375000D02*
D03*
X325000D02*
D03*
X375000Y-100000D02*
D03*
X425000D02*
D03*
X-275000D02*
D03*
X-225000D02*
D03*
X-175000D02*
D03*
X-125000D02*
D03*
X-75000D02*
D03*
X-275000Y-50000D02*
D03*
X-225000D02*
D03*
X-175000D02*
D03*
X-125000D02*
D03*
X-75000D02*
D03*
X-275000Y0D02*
D03*
X-225000D02*
D03*
X-175000D02*
D03*
X-125000D02*
D03*
X-75000D02*
D03*
X-275000Y50000D02*
D03*
X-225000D02*
D03*
X-175000D02*
D03*
X-125000D02*
D03*
X-75000D02*
D03*
X-250000Y150000D02*
D03*
X-200000D02*
D03*
X-150000D02*
D03*
X-100000D02*
D03*
X-50000D02*
D03*
X0D02*
D03*
X50000D02*
D03*
X100000D02*
D03*
X150000D02*
D03*
X200000D02*
D03*
X250000D02*
D03*
X300000D02*
D03*
X350000D02*
D03*
X400000D02*
D03*
X450000D02*
D03*
X500000D02*
D03*
X550000D02*
D03*
X600000D02*
D03*
X650000D02*
D03*
X275000Y100000D02*
D03*
X225000D02*
D03*
X175000D02*
D03*
X125000D02*
D03*
X75000D02*
D03*
X25000D02*
D03*
X-25000D02*
D03*
X-75000D02*
D03*
X-125000D02*
D03*
X-175000D02*
D03*
X-225000D02*
D03*
X-275000D02*
D03*
X650000Y-240000D02*
D03*
Y-150000D02*
D03*
X600000D02*
D03*
X550000D02*
D03*
X500000D02*
D03*
X450000D02*
D03*
X400000D02*
D03*
X350000D02*
D03*
X300000D02*
D03*
X250000D02*
D03*
X200000D02*
D03*
X150000D02*
D03*
X100000D02*
D03*
X50000D02*
D03*
X0D02*
D03*
X-50000D02*
D03*
X-100000D02*
D03*
X-150000D02*
D03*
X-200000D02*
D03*
X-250000D02*
D03*
X75000Y-50000D02*
D03*
X125000D02*
D03*
X175000D02*
D03*
X225000D02*
D03*
X275000D02*
D03*
X75000Y0D02*
D03*
X125000D02*
D03*
X175000D02*
D03*
X225000D02*
D03*
X275000D02*
D03*
X75000Y50000D02*
D03*
X125000D02*
D03*
X175000D02*
D03*
X225000D02*
D03*
X275000D02*
D03*
X-25000Y-100000D02*
D03*
X25000D02*
D03*
X75000D02*
D03*
X125000D02*
D03*
X175000D02*
D03*
X225000D02*
D03*
X275000D02*
D03*
X575000Y-290000D02*
D03*
X525000D02*
D03*
X275000D02*
D03*
X225000D02*
D03*
X175000D02*
D03*
X125000D02*
D03*
X675000Y-440000D02*
D03*
X625000D02*
D03*
X575000D02*
D03*
X525000D02*
D03*
X275000D02*
D03*
X225000D02*
D03*
X175000D02*
D03*
X125000D02*
D03*
X675000Y-390000D02*
D03*
X625000D02*
D03*
X575000D02*
D03*
X525000D02*
D03*
X275000D02*
D03*
X225000D02*
D03*
X175000D02*
D03*
X125000D02*
D03*
X675000Y-340000D02*
D03*
X625000D02*
D03*
X575000D02*
D03*
X525000D02*
D03*
X275000D02*
D03*
X225000D02*
D03*
X175000D02*
D03*
X125000D02*
D03*
X-250000Y-240000D02*
D03*
X-200000D02*
D03*
X-150000D02*
D03*
X-100000D02*
D03*
X-50000D02*
D03*
X0D02*
D03*
X50000D02*
D03*
X100000D02*
D03*
X150000D02*
D03*
X200000D02*
D03*
X250000D02*
D03*
X300000D02*
D03*
X350000D02*
D03*
X400000D02*
D03*
X450000D02*
D03*
X500000D02*
D03*
X550000D02*
D03*
X600000D02*
D03*
X-275000Y-490000D02*
D03*
X-225000D02*
D03*
X-175000D02*
D03*
X125000D02*
D03*
X175000D02*
D03*
X225000D02*
D03*
X275000D02*
D03*
X525000D02*
D03*
X575000D02*
D03*
X625000D02*
D03*
X675000D02*
D03*
X650000Y-540000D02*
D03*
X600000D02*
D03*
X550000D02*
D03*
X500000D02*
D03*
X450000D02*
D03*
X400000D02*
D03*
X350000D02*
D03*
X300000D02*
D03*
X250000D02*
D03*
X200000D02*
D03*
X150000D02*
D03*
X100000D02*
D03*
X50000D02*
D03*
X0D02*
D03*
X-50000D02*
D03*
X-100000D02*
D03*
X-150000D02*
D03*
X-200000D02*
D03*
X-250000D02*
D03*
X-125000Y-440000D02*
D03*
X-175000D02*
D03*
X-225000D02*
D03*
X-275000D02*
D03*
X-125000Y-390000D02*
D03*
X-175000D02*
D03*
X-225000D02*
D03*
X-275000D02*
D03*
X-125000Y-340000D02*
D03*
X-175000D02*
D03*
X-225000D02*
D03*
X-275000D02*
D03*
X-125000Y-290000D02*
D03*
X-175000D02*
D03*
X-225000D02*
D03*
X-275000D02*
D03*
X675000D02*
D03*
X625000D02*
D03*
X75000Y-440000D02*
D03*
Y-390000D02*
D03*
Y-340000D02*
D03*
X-25000Y-490000D02*
D03*
X25000D02*
D03*
X75000D02*
D03*
X-75000D02*
D03*
Y-440000D02*
D03*
Y-390000D02*
D03*
Y-340000D02*
D03*
X75000Y-290000D02*
D03*
X25000D02*
D03*
X-25000D02*
D03*
X-75000D02*
D03*
X475000Y-100000D02*
D03*
X325000D02*
D03*
Y-50000D02*
D03*
Y0D02*
D03*
Y50000D02*
D03*
X475000Y100000D02*
D03*
X425000D02*
D03*
X375000D02*
D03*
X325000D02*
D03*
X475000Y50000D02*
D03*
Y0D02*
D03*
Y-50000D02*
D03*
X525000Y0D02*
D03*
Y50000D02*
D03*
X625000D02*
D03*
Y0D02*
D03*
X675000Y50000D02*
D03*
X575000D02*
D03*
Y0D02*
D03*
X675000D02*
D03*
X525000Y100000D02*
D03*
X675000D02*
D03*
X625000D02*
D03*
X575000D02*
D03*
X525000Y-50000D02*
D03*
Y-100000D02*
D03*
X675000D02*
D03*
X575000D02*
D03*
X625000D02*
D03*
X575000Y-50000D02*
D03*
X625000D02*
D03*
X675000D02*
D03*
X-125000Y-490000D02*
D03*
D21*
X438100Y38100D02*
D03*
X412700Y38100D02*
D03*
X387300Y38100D02*
D03*
X361900D02*
D03*
X438100Y-38100D02*
D03*
X412700D02*
D03*
X387300Y-38100D02*
D03*
X361900Y-38100D02*
D03*
X-38100D02*
D03*
X-12700Y-38100D02*
D03*
X12700Y-38100D02*
D03*
X38100D02*
D03*
X-38100Y38100D02*
D03*
X-12700D02*
D03*
X12700Y38100D02*
D03*
X38100Y38100D02*
D03*
Y-351900D02*
D03*
X12700Y-351900D02*
D03*
X-12700Y-351900D02*
D03*
X-38100D02*
D03*
X38100Y-428100D02*
D03*
X12700D02*
D03*
X-12700Y-428100D02*
D03*
X-38100Y-428100D02*
D03*
X438100Y-351900D02*
D03*
X412700Y-351900D02*
D03*
X387300Y-351900D02*
D03*
X361900D02*
D03*
X438100Y-428100D02*
D03*
X412700D02*
D03*
X387300Y-428100D02*
D03*
X361900Y-428100D02*
D03*
D22*
X550000Y-167500D02*
D03*
Y-222500D02*
D03*
X400000Y-167500D02*
D03*
Y-222500D02*
D03*
X-0Y-167500D02*
D03*
Y-222500D02*
D03*
X-150000Y-222500D02*
D03*
Y-167500D02*
D03*
X-270000Y-540000D02*
D03*
X670000D02*
D03*
X-150000Y-565000D02*
D03*
X0D02*
D03*
X550000D02*
D03*
X400000D02*
D03*
X150000D02*
D03*
X250000D02*
D03*
X200000D02*
D03*
X-270000Y-240000D02*
D03*
X670000D02*
D03*
Y-150000D02*
D03*
X200000Y175000D02*
D03*
X250000D02*
D03*
X150000D02*
D03*
X400000D02*
D03*
X550000D02*
D03*
X0D02*
D03*
X-150000D02*
D03*
X-270000Y-150000D02*
D03*
X670000Y150000D02*
D03*
X-270000D02*
D03*
D23*
X22000Y-380250D02*
D03*
X22000Y-386750D02*
D03*
Y-393250D02*
D03*
Y-399750D02*
D03*
X-22000Y-380250D02*
D03*
X-22000Y-386750D02*
D03*
X-22000Y-393250D02*
D03*
X-22000Y-399750D02*
D03*
X422000Y-380250D02*
D03*
X422000Y-386750D02*
D03*
Y-393250D02*
D03*
Y-399750D02*
D03*
X378000Y-380250D02*
D03*
X378000Y-386750D02*
D03*
X378000Y-393250D02*
D03*
X378000Y-399750D02*
D03*
X422000Y9750D02*
D03*
X422000Y3250D02*
D03*
Y-3250D02*
D03*
Y-9750D02*
D03*
X378000Y9750D02*
D03*
X378000Y3250D02*
D03*
X378000Y-3250D02*
D03*
X378000Y-9750D02*
D03*
X-22000D02*
D03*
X-22000Y-3250D02*
D03*
X-22000Y3250D02*
D03*
X-22000Y9750D02*
D03*
X22000Y-9750D02*
D03*
Y-3250D02*
D03*
Y3250D02*
D03*
X22000Y9750D02*
D03*
M02*
