G04*
G04 #@! TF.GenerationSoftware,Altium Limited,Altium Designer,24.6.1 (21)*
G04*
G04 Layer_Color=15983311*
%FSLAX44Y44*%
%MOMM*%
G71*
G04*
G04 #@! TF.SameCoordinates,801A7B55-1520-438C-8D58-620F3B385FE8*
G04*
G04*
G04 #@! TF.FilePolarity,Positive*
G04*
G01*
G75*
%ADD28C,0.0500*%
G36*
X29250Y7750D02*
X15000D01*
Y11750D01*
X29250D01*
Y7750D01*
D02*
G37*
G36*
X429250D02*
X415000D01*
Y11750D01*
X429250D01*
Y7750D01*
D02*
G37*
G36*
X29250Y-382250D02*
X15000D01*
Y-378250D01*
X29250D01*
Y-382250D01*
D02*
G37*
G36*
X429250D02*
X415000D01*
Y-378250D01*
X429250D01*
Y-382250D01*
D02*
G37*
%LPC*%
G36*
X21856Y11038D02*
X21653D01*
Y8462D01*
X21967D01*
Y10469D01*
X21973Y10464D01*
X21980Y10459D01*
X21988Y10451D01*
X22013Y10428D01*
X22049Y10400D01*
X22092Y10367D01*
X22143Y10332D01*
X22201Y10291D01*
X22267Y10250D01*
X22270D01*
X22275Y10245D01*
X22285Y10240D01*
X22298Y10233D01*
X22315Y10225D01*
X22333Y10215D01*
X22379Y10189D01*
X22430Y10164D01*
X22486Y10136D01*
X22541Y10111D01*
X22597Y10088D01*
Y10393D01*
X22595Y10395D01*
X22585Y10398D01*
X22572Y10405D01*
X22554Y10416D01*
X22529Y10428D01*
X22503Y10441D01*
X22473Y10459D01*
X22440Y10476D01*
X22369Y10520D01*
X22293Y10570D01*
X22214Y10629D01*
X22138Y10692D01*
X22135Y10695D01*
X22130Y10700D01*
X22120Y10710D01*
X22105Y10723D01*
X22089Y10738D01*
X22072Y10758D01*
X22029Y10802D01*
X21983Y10855D01*
X21934Y10913D01*
X21891Y10974D01*
X21874Y11007D01*
X21856Y11038D01*
D02*
G37*
G36*
X421856D02*
X421652D01*
Y8462D01*
X421968D01*
Y10469D01*
X421973Y10464D01*
X421980Y10459D01*
X421988Y10451D01*
X422013Y10428D01*
X422049Y10400D01*
X422092Y10367D01*
X422143Y10332D01*
X422201Y10291D01*
X422267Y10250D01*
X422270D01*
X422275Y10245D01*
X422285Y10240D01*
X422298Y10233D01*
X422315Y10225D01*
X422333Y10215D01*
X422379Y10189D01*
X422430Y10164D01*
X422486Y10136D01*
X422542Y10111D01*
X422597Y10088D01*
Y10393D01*
X422595Y10395D01*
X422585Y10398D01*
X422572Y10405D01*
X422554Y10416D01*
X422529Y10428D01*
X422503Y10441D01*
X422473Y10459D01*
X422440Y10476D01*
X422369Y10520D01*
X422293Y10570D01*
X422214Y10629D01*
X422138Y10692D01*
X422135Y10695D01*
X422130Y10700D01*
X422120Y10710D01*
X422105Y10723D01*
X422089Y10738D01*
X422072Y10758D01*
X422029Y10802D01*
X421983Y10855D01*
X421935Y10913D01*
X421891Y10974D01*
X421874Y11007D01*
X421856Y11038D01*
D02*
G37*
G36*
X22597Y-378962D02*
X21653D01*
Y-381538D01*
X21967D01*
D01*
Y-379531D01*
X21973Y-379536D01*
X21980Y-379541D01*
X21988Y-379549D01*
X22013Y-379572D01*
X22049Y-379600D01*
X22092Y-379633D01*
X22143Y-379668D01*
X22201Y-379709D01*
X22267Y-379750D01*
X22270D01*
X22275Y-379755D01*
X22285Y-379760D01*
X22298Y-379767D01*
X22315Y-379775D01*
X22333Y-379785D01*
X22379Y-379811D01*
X22430Y-379836D01*
X22486Y-379864D01*
X22541Y-379889D01*
X22597Y-379912D01*
Y-381538D01*
D01*
Y-378962D01*
D02*
G37*
%LPD*%
G36*
Y-379607D02*
X22595Y-379605D01*
X22585Y-379602D01*
X22572Y-379595D01*
X22554Y-379585D01*
X22529Y-379572D01*
X22503Y-379559D01*
X22473Y-379541D01*
X22440Y-379524D01*
X22369Y-379480D01*
X22293Y-379430D01*
X22214Y-379371D01*
X22138Y-379308D01*
X22135Y-379305D01*
X22130Y-379300D01*
X22120Y-379290D01*
X22105Y-379277D01*
X22089Y-379262D01*
X22072Y-379242D01*
X22029Y-379198D01*
X21983Y-379145D01*
X21934Y-379087D01*
X21891Y-379026D01*
X21874Y-378993D01*
X21856Y-378962D01*
X22597D01*
Y-379607D01*
D02*
G37*
%LPC*%
G36*
X421856Y-378962D02*
X421652D01*
Y-381538D01*
X422597D01*
Y-379607D01*
X422595Y-379605D01*
X422585Y-379602D01*
X422572Y-379595D01*
X422554Y-379585D01*
X422529Y-379572D01*
X422503Y-379559D01*
X422473Y-379541D01*
X422440Y-379524D01*
X422369Y-379480D01*
X422293Y-379430D01*
X422214Y-379371D01*
X422138Y-379308D01*
X422135Y-379305D01*
X422130Y-379300D01*
X422120Y-379290D01*
X422105Y-379277D01*
X422089Y-379262D01*
X422072Y-379242D01*
X422029Y-379198D01*
X421983Y-379145D01*
X421935Y-379087D01*
X421891Y-379026D01*
X421874Y-378993D01*
X421856Y-378962D01*
D02*
G37*
%LPD*%
G36*
X421973Y-379536D02*
X421980Y-379541D01*
X421988Y-379549D01*
X422013Y-379572D01*
X422049Y-379600D01*
X422092Y-379633D01*
X422143Y-379668D01*
X422201Y-379709D01*
X422267Y-379750D01*
X422270D01*
X422275Y-379755D01*
X422285Y-379760D01*
X422298Y-379767D01*
X422315Y-379775D01*
X422333Y-379785D01*
X422379Y-379811D01*
X422430Y-379836D01*
X422486Y-379864D01*
X422542Y-379889D01*
X422597Y-379912D01*
Y-381538D01*
X421968D01*
Y-379531D01*
X421973Y-379536D01*
D02*
G37*
D28*
X15000Y-405000D02*
Y-375000D01*
X-15000Y-405000D02*
Y-375000D01*
X15000D01*
X-15000Y-405000D02*
X15000D01*
X15000Y-378250D02*
X29250Y-378250D01*
X15000Y-378250D02*
X15000Y-382250D01*
X29250Y-382250D01*
X29250Y-378250D01*
X15000Y-384750D02*
X29250D01*
X15000Y-388750D02*
X15000Y-384750D01*
X15000Y-388750D02*
X29250Y-388750D01*
X29250Y-384750D01*
X15000Y-391250D02*
X29250Y-391250D01*
X15000Y-395250D02*
Y-391250D01*
Y-395250D02*
X29250Y-395250D01*
X29250Y-391250D01*
X15000Y-397750D02*
X29250Y-397750D01*
X15000Y-397750D02*
X15000Y-401750D01*
X29250D01*
X29250Y-397750D01*
X-29000Y-378250D02*
X-14750Y-378250D01*
X-29000Y-382250D02*
Y-378250D01*
Y-382250D02*
X-14750Y-382250D01*
X-14750Y-378250D01*
X-29000Y-384750D02*
X-14750Y-384750D01*
X-29000Y-384750D02*
X-29000Y-388750D01*
X-14750Y-388750D01*
X-14750Y-384750D02*
X-14750Y-388750D01*
X-29000Y-391250D02*
X-14750Y-391250D01*
X-29000Y-395250D02*
X-29000Y-391250D01*
X-29000Y-395250D02*
X-14750D01*
X-14750Y-391250D02*
X-14750Y-395250D01*
X-29000Y-397750D02*
X-14750Y-397750D01*
X-29000Y-401750D02*
X-29000Y-397750D01*
X-29000Y-401750D02*
X-14750D01*
X-14750Y-397750D02*
X-14750Y-401750D01*
X415000Y-405000D02*
Y-375000D01*
X385000Y-405000D02*
Y-375000D01*
X415000D01*
X385000Y-405000D02*
X415000D01*
X415000Y-378250D02*
X429250Y-378250D01*
X415000Y-378250D02*
X415000Y-382250D01*
X429250Y-382250D01*
X429250Y-378250D01*
X415000Y-384750D02*
X429250D01*
X415000Y-388750D02*
X415000Y-384750D01*
X415000Y-388750D02*
X429250Y-388750D01*
X429250Y-384750D01*
X415000Y-391250D02*
X429250Y-391250D01*
X415000Y-395250D02*
Y-391250D01*
Y-395250D02*
X429250Y-395250D01*
X429250Y-391250D01*
X415000Y-397750D02*
X429250Y-397750D01*
X415000Y-397750D02*
X415000Y-401750D01*
X429250D01*
X429250Y-397750D01*
X371000Y-378250D02*
X385250Y-378250D01*
X371000Y-382250D02*
Y-378250D01*
Y-382250D02*
X385250Y-382250D01*
X385250Y-378250D01*
X371000Y-384750D02*
X385250Y-384750D01*
X371000Y-384750D02*
X371000Y-388750D01*
X385250Y-388750D01*
X385250Y-384750D02*
X385250Y-388750D01*
X371000Y-391250D02*
X385250Y-391250D01*
X371000Y-395250D02*
X371000Y-391250D01*
X371000Y-395250D02*
X385250D01*
X385250Y-391250D02*
X385250Y-395250D01*
X371000Y-397750D02*
X385250Y-397750D01*
X371000Y-401750D02*
X371000Y-397750D01*
X371000Y-401750D02*
X385250D01*
X385250Y-397750D02*
X385250Y-401750D01*
X415000Y-15000D02*
Y15000D01*
X385000Y-15000D02*
Y15000D01*
X415000D01*
X385000Y-15000D02*
X415000D01*
X415000Y11750D02*
X429250Y11750D01*
X415000Y11750D02*
X415000Y7750D01*
X429250Y7750D01*
X429250Y11750D01*
X415000Y5250D02*
X429250D01*
X415000Y1250D02*
X415000Y5250D01*
X415000Y1250D02*
X429250Y1250D01*
X429250Y5250D01*
X415000Y-1250D02*
X429250Y-1250D01*
X415000Y-5250D02*
Y-1250D01*
Y-5250D02*
X429250Y-5250D01*
X429250Y-1250D01*
X415000Y-7750D02*
X429250Y-7750D01*
X415000Y-7750D02*
X415000Y-11750D01*
X429250D01*
X429250Y-7750D01*
X371000Y11750D02*
X385250Y11750D01*
X371000Y7750D02*
Y11750D01*
Y7750D02*
X385250Y7750D01*
X385250Y11750D01*
X371000Y5250D02*
X385250Y5250D01*
X371000Y5250D02*
X371000Y1250D01*
X385250Y1250D01*
X385250Y5250D02*
X385250Y1250D01*
X371000Y-1250D02*
X385250Y-1250D01*
X371000Y-5250D02*
X371000Y-1250D01*
X371000Y-5250D02*
X385250D01*
X385250Y-1250D02*
X385250Y-5250D01*
X371000Y-7750D02*
X385250Y-7750D01*
X371000Y-11750D02*
X371000Y-7750D01*
X371000Y-11750D02*
X385250D01*
X385250Y-7750D02*
X385250Y-11750D01*
X-14750Y-7750D02*
X-14750Y-11750D01*
X-29000D02*
X-14750D01*
X-29000D02*
X-29000Y-7750D01*
X-14750Y-7750D01*
X-14750Y-1250D02*
X-14750Y-5250D01*
X-29000D02*
X-14750D01*
X-29000D02*
X-29000Y-1250D01*
X-14750Y-1250D01*
X-14750Y5250D02*
X-14750Y1250D01*
X-29000Y1250D02*
X-14750Y1250D01*
X-29000Y5250D02*
X-29000Y1250D01*
X-29000Y5250D02*
X-14750Y5250D01*
X-14750Y7750D02*
X-14750Y11750D01*
X-29000Y7750D02*
X-14750Y7750D01*
X-29000Y7750D02*
Y11750D01*
X-14750Y11750D01*
X29250Y-11750D02*
X29250Y-7750D01*
X15000Y-11750D02*
X29250D01*
X15000Y-7750D02*
X15000Y-11750D01*
X15000Y-7750D02*
X29250Y-7750D01*
X29250Y-5250D02*
X29250Y-1250D01*
X15000Y-5250D02*
X29250Y-5250D01*
X15000Y-5250D02*
Y-1250D01*
X29250Y-1250D01*
X29250Y1250D02*
X29250Y5250D01*
X15000Y1250D02*
X29250Y1250D01*
X15000Y1250D02*
X15000Y5250D01*
X29250D01*
X29250Y7750D02*
X29250Y11750D01*
X15000Y7750D02*
X29250Y7750D01*
X15000Y11750D02*
X15000Y7750D01*
X15000Y11750D02*
X29250Y11750D01*
X-15000Y-15000D02*
X15000D01*
X-15000Y15000D02*
X15000D01*
X-15000Y-15000D02*
Y15000D01*
X15000Y-15000D02*
Y15000D01*
M02*
