G04*
G04 #@! TF.GenerationSoftware,Altium Limited,Altium Designer,24.6.1 (21)*
G04*
G04 Layer_Color=255*
%FSLAX44Y44*%
%MOMM*%
G71*
G04*
G04 #@! TF.SameCoordinates,801A7B55-1520-438C-8D58-620F3B385FE8*
G04*
G04*
G04 #@! TF.FilePolarity,Positive*
G04*
G01*
G75*
G04:AMPARAMS|DCode=20|XSize=4mm|YSize=4mm|CornerRadius=0.5mm|HoleSize=0mm|Usage=FLASHONLY|Rotation=0.000|XOffset=0mm|YOffset=0mm|HoleType=Round|Shape=RoundedRectangle|*
%AMROUNDEDRECTD20*
21,1,4.0000,3.0000,0,0,0.0*
21,1,3.0000,4.0000,0,0,0.0*
1,1,1.0000,1.5000,-1.5000*
1,1,1.0000,-1.5000,-1.5000*
1,1,1.0000,-1.5000,1.5000*
1,1,1.0000,1.5000,1.5000*
%
%ADD20ROUNDEDRECTD20*%
%ADD21C,1.5000*%
%ADD22C,4.0000*%
G04:AMPARAMS|DCode=23|XSize=0.38mm|YSize=1.45mm|CornerRadius=0.095mm|HoleSize=0mm|Usage=FLASHONLY|Rotation=90.000|XOffset=0mm|YOffset=0mm|HoleType=Round|Shape=RoundedRectangle|*
%AMROUNDEDRECTD23*
21,1,0.3800,1.2600,0,0,90.0*
21,1,0.1900,1.4500,0,0,90.0*
1,1,0.1900,0.6300,0.0950*
1,1,0.1900,0.6300,-0.0950*
1,1,0.1900,-0.6300,-0.0950*
1,1,0.1900,-0.6300,0.0950*
%
%ADD23ROUNDEDRECTD23*%
D20*
X475000Y-440000D02*
D03*
Y-390000D02*
D03*
Y-340000D02*
D03*
X375000Y-490000D02*
D03*
X425000D02*
D03*
X475000D02*
D03*
X325000D02*
D03*
Y-440000D02*
D03*
Y-390000D02*
D03*
Y-340000D02*
D03*
X475000Y-290000D02*
D03*
X425000D02*
D03*
X375000D02*
D03*
X325000D02*
D03*
X375000Y-100000D02*
D03*
X425000D02*
D03*
X-275000D02*
D03*
X-225000D02*
D03*
X-175000D02*
D03*
X-125000D02*
D03*
X-75000D02*
D03*
X-275000Y-50000D02*
D03*
X-225000D02*
D03*
X-175000D02*
D03*
X-125000D02*
D03*
X-75000D02*
D03*
X-275000Y0D02*
D03*
X-225000D02*
D03*
X-175000D02*
D03*
X-125000D02*
D03*
X-75000D02*
D03*
X-275000Y50000D02*
D03*
X-225000D02*
D03*
X-175000D02*
D03*
X-125000D02*
D03*
X-75000D02*
D03*
X-250000Y150000D02*
D03*
X-200000D02*
D03*
X-150000D02*
D03*
X-100000D02*
D03*
X-50000D02*
D03*
X0D02*
D03*
X50000D02*
D03*
X100000D02*
D03*
X150000D02*
D03*
X200000D02*
D03*
X250000D02*
D03*
X300000D02*
D03*
X350000D02*
D03*
X400000D02*
D03*
X450000D02*
D03*
X500000D02*
D03*
X550000D02*
D03*
X600000D02*
D03*
X650000D02*
D03*
X275000Y100000D02*
D03*
X225000D02*
D03*
X175000D02*
D03*
X125000D02*
D03*
X75000D02*
D03*
X25000D02*
D03*
X-25000D02*
D03*
X-75000D02*
D03*
X-125000D02*
D03*
X-175000D02*
D03*
X-225000D02*
D03*
X-275000D02*
D03*
X650000Y-240000D02*
D03*
Y-150000D02*
D03*
X600000D02*
D03*
X550000D02*
D03*
X500000D02*
D03*
X450000D02*
D03*
X400000D02*
D03*
X350000D02*
D03*
X300000D02*
D03*
X250000D02*
D03*
X200000D02*
D03*
X150000D02*
D03*
X100000D02*
D03*
X50000D02*
D03*
X0D02*
D03*
X-50000D02*
D03*
X-100000D02*
D03*
X-150000D02*
D03*
X-200000D02*
D03*
X-250000D02*
D03*
X75000Y-50000D02*
D03*
X125000D02*
D03*
X175000D02*
D03*
X225000D02*
D03*
X275000D02*
D03*
X75000Y0D02*
D03*
X125000D02*
D03*
X175000D02*
D03*
X225000D02*
D03*
X275000D02*
D03*
X75000Y50000D02*
D03*
X125000D02*
D03*
X175000D02*
D03*
X225000D02*
D03*
X275000D02*
D03*
X-25000Y-100000D02*
D03*
X25000D02*
D03*
X75000D02*
D03*
X125000D02*
D03*
X175000D02*
D03*
X225000D02*
D03*
X275000D02*
D03*
X575000Y-290000D02*
D03*
X525000D02*
D03*
X275000D02*
D03*
X225000D02*
D03*
X175000D02*
D03*
X125000D02*
D03*
X675000Y-440000D02*
D03*
X625000D02*
D03*
X575000D02*
D03*
X525000D02*
D03*
X275000D02*
D03*
X225000D02*
D03*
X175000D02*
D03*
X125000D02*
D03*
X675000Y-390000D02*
D03*
X625000D02*
D03*
X575000D02*
D03*
X525000D02*
D03*
X275000D02*
D03*
X225000D02*
D03*
X175000D02*
D03*
X125000D02*
D03*
X675000Y-340000D02*
D03*
X625000D02*
D03*
X575000D02*
D03*
X525000D02*
D03*
X275000D02*
D03*
X225000D02*
D03*
X175000D02*
D03*
X125000D02*
D03*
X-250000Y-240000D02*
D03*
X-200000D02*
D03*
X-150000D02*
D03*
X-100000D02*
D03*
X-50000D02*
D03*
X0D02*
D03*
X50000D02*
D03*
X100000D02*
D03*
X150000D02*
D03*
X200000D02*
D03*
X250000D02*
D03*
X300000D02*
D03*
X350000D02*
D03*
X400000D02*
D03*
X450000D02*
D03*
X500000D02*
D03*
X550000D02*
D03*
X600000D02*
D03*
X-275000Y-490000D02*
D03*
X-225000D02*
D03*
X-175000D02*
D03*
X125000D02*
D03*
X175000D02*
D03*
X225000D02*
D03*
X275000D02*
D03*
X525000D02*
D03*
X575000D02*
D03*
X625000D02*
D03*
X675000D02*
D03*
X650000Y-540000D02*
D03*
X600000D02*
D03*
X550000D02*
D03*
X500000D02*
D03*
X450000D02*
D03*
X400000D02*
D03*
X350000D02*
D03*
X300000D02*
D03*
X250000D02*
D03*
X200000D02*
D03*
X150000D02*
D03*
X100000D02*
D03*
X50000D02*
D03*
X0D02*
D03*
X-50000D02*
D03*
X-100000D02*
D03*
X-150000D02*
D03*
X-200000D02*
D03*
X-250000D02*
D03*
X-125000Y-440000D02*
D03*
X-175000D02*
D03*
X-225000D02*
D03*
X-275000D02*
D03*
X-125000Y-390000D02*
D03*
X-175000D02*
D03*
X-225000D02*
D03*
X-275000D02*
D03*
X-125000Y-340000D02*
D03*
X-175000D02*
D03*
X-225000D02*
D03*
X-275000D02*
D03*
X-125000Y-290000D02*
D03*
X-175000D02*
D03*
X-225000D02*
D03*
X-275000D02*
D03*
X675000D02*
D03*
X625000D02*
D03*
X75000Y-440000D02*
D03*
Y-390000D02*
D03*
Y-340000D02*
D03*
X-25000Y-490000D02*
D03*
X25000D02*
D03*
X75000D02*
D03*
X-75000D02*
D03*
Y-440000D02*
D03*
Y-390000D02*
D03*
Y-340000D02*
D03*
X75000Y-290000D02*
D03*
X25000D02*
D03*
X-25000D02*
D03*
X-75000D02*
D03*
X475000Y-100000D02*
D03*
X325000D02*
D03*
Y-50000D02*
D03*
Y0D02*
D03*
Y50000D02*
D03*
X475000Y100000D02*
D03*
X425000D02*
D03*
X375000D02*
D03*
X325000D02*
D03*
X475000Y50000D02*
D03*
Y0D02*
D03*
Y-50000D02*
D03*
X525000Y0D02*
D03*
Y50000D02*
D03*
X625000D02*
D03*
Y0D02*
D03*
X675000Y50000D02*
D03*
X575000D02*
D03*
Y0D02*
D03*
X675000D02*
D03*
X525000Y100000D02*
D03*
X675000D02*
D03*
X625000D02*
D03*
X575000D02*
D03*
X525000Y-50000D02*
D03*
Y-100000D02*
D03*
X675000D02*
D03*
X575000D02*
D03*
X625000D02*
D03*
X575000Y-50000D02*
D03*
X625000D02*
D03*
X675000D02*
D03*
X-125000Y-490000D02*
D03*
D21*
X438100Y38100D02*
D03*
X412700Y38100D02*
D03*
X387300Y38100D02*
D03*
X361900D02*
D03*
X438100Y-38100D02*
D03*
X412700D02*
D03*
X387300Y-38100D02*
D03*
X361900Y-38100D02*
D03*
X-38100D02*
D03*
X-12700Y-38100D02*
D03*
X12700Y-38100D02*
D03*
X38100D02*
D03*
X-38100Y38100D02*
D03*
X-12700D02*
D03*
X12700Y38100D02*
D03*
X38100Y38100D02*
D03*
Y-351900D02*
D03*
X12700Y-351900D02*
D03*
X-12700Y-351900D02*
D03*
X-38100D02*
D03*
X38100Y-428100D02*
D03*
X12700D02*
D03*
X-12700Y-428100D02*
D03*
X-38100Y-428100D02*
D03*
X438100Y-351900D02*
D03*
X412700Y-351900D02*
D03*
X387300Y-351900D02*
D03*
X361900D02*
D03*
X438100Y-428100D02*
D03*
X412700D02*
D03*
X387300Y-428100D02*
D03*
X361900Y-428100D02*
D03*
D22*
X550000Y-167500D02*
D03*
Y-222500D02*
D03*
X400000Y-167500D02*
D03*
Y-222500D02*
D03*
X-0Y-167500D02*
D03*
Y-222500D02*
D03*
X-150000Y-222500D02*
D03*
Y-167500D02*
D03*
X-270000Y-540000D02*
D03*
X670000D02*
D03*
X-150000Y-565000D02*
D03*
X0D02*
D03*
X550000D02*
D03*
X400000D02*
D03*
X150000D02*
D03*
X250000D02*
D03*
X200000D02*
D03*
X-270000Y-240000D02*
D03*
X670000D02*
D03*
Y-150000D02*
D03*
X200000Y175000D02*
D03*
X250000D02*
D03*
X150000D02*
D03*
X400000D02*
D03*
X550000D02*
D03*
X0D02*
D03*
X-150000D02*
D03*
X-270000Y-150000D02*
D03*
X670000Y150000D02*
D03*
X-270000D02*
D03*
D23*
X22000Y-380250D02*
D03*
X22000Y-386750D02*
D03*
Y-393250D02*
D03*
Y-399750D02*
D03*
X-22000Y-380250D02*
D03*
X-22000Y-386750D02*
D03*
X-22000Y-393250D02*
D03*
X-22000Y-399750D02*
D03*
X422000Y-380250D02*
D03*
X422000Y-386750D02*
D03*
Y-393250D02*
D03*
Y-399750D02*
D03*
X378000Y-380250D02*
D03*
X378000Y-386750D02*
D03*
X378000Y-393250D02*
D03*
X378000Y-399750D02*
D03*
X422000Y9750D02*
D03*
X422000Y3250D02*
D03*
Y-3250D02*
D03*
Y-9750D02*
D03*
X378000Y9750D02*
D03*
X378000Y3250D02*
D03*
X378000Y-3250D02*
D03*
X378000Y-9750D02*
D03*
X-22000D02*
D03*
X-22000Y-3250D02*
D03*
X-22000Y3250D02*
D03*
X-22000Y9750D02*
D03*
X22000Y-9750D02*
D03*
Y-3250D02*
D03*
Y3250D02*
D03*
X22000Y9750D02*
D03*
M02*
