M48
;Layer_Color=9474304
;FILE_FORMAT=4:4
METRIC,LZ
;TYPE=PLATED
T01F00S00C0.8000
T02F00S00C0.9000
T03F00S00C2.0000
%
T01
X007Y-0045
X006
X0055
X0045
X0035
X0025
X002
X001
X00075Y-004
X00125
X00175
X00225
Y-0035
X00175
X00125
X00075
X00025
Y-004
Y-003
X00075
X00125
Y-0025
X00175
Y-002
Y-0015
X00225
Y-002
Y-0025
Y-003
X00175
X00075Y-0025
X00025
Y-002
X00075
X00125
Y-0015
X00075
X00025
Y-001
X00075
X00125
X00175
X00225
X002Y-0005
X001
X0025
X00275Y-001
X00325
Y-0015
X00375
X00425
X00475
Y-001
X00425
X00375
X0035Y-0005
X0045
X0055
X006
X00625Y-001
Y-0015
X00575
Y-002
X00625
Y-0025
X00575
Y-003
Y-0035
Y-004
X00525
X00475
Y-0035
X00425
X00375
X00325
Y-004
X00375
X00425
X00275
Y-0035
Y-003
Y-0025
X00325
X00275Y-002
Y-0015
X00525
Y-002
Y-0025
X00475
X00525Y-003
Y-0035
X00625
Y-004
Y-003
X00575Y-001
X00525
X00675
X00725
Y-0015
X00675
Y-002
X00725
Y-0025
X00675
Y-003
X00725
Y-0035
X00675
Y-004
X00725
X00775
Y-0035
Y-0015
Y-001
X007Y-0005
T02
X003619Y-002881
X003873Y-002881
X004127Y-002881
X004381
Y-002119
X004127Y-002119
X003873Y-002119
X003619
T03
X0065Y-00475
X0077Y-0045
X005Y-00475
X004
X003
X0015
X0003Y-0045
X0003Y-0005
X0015Y-00025
X003
X004
X005
X0065
X0077Y-0005
M30
