G04*
G04 #@! TF.GenerationSoftware,Altium Limited,Altium Designer,24.6.1 (21)*
G04*
G04 Layer_Color=32896*
%FSLAX44Y44*%
%MOMM*%
G71*
G04*
G04 #@! TF.SameCoordinates,D3BBE74D-FBB0-432F-9B48-3D12EA20F86B*
G04*
G04*
G04 #@! TF.FilePolarity,Positive*
G04*
G01*
G75*
%ADD10C,0.2000*%
%ADD11C,0.2000*%
%ADD13C,0.2500*%
%ADD19R,0.4750X0.2500*%
%ADD20R,0.3000X0.2500*%
%ADD21R,0.6250X0.2500*%
%ADD22R,0.4000X1.5750*%
%ADD23R,0.3750X0.5500*%
G36*
X250055Y-480042D02*
X250416Y-480084D01*
X250735Y-480153D01*
X251054Y-480236D01*
X251331Y-480333D01*
X251609Y-480444D01*
X251845Y-480569D01*
X252066Y-480694D01*
X252274Y-480819D01*
X252441Y-480943D01*
X252593Y-481054D01*
X252718Y-481152D01*
X252815Y-481235D01*
X252885Y-481304D01*
X252926Y-481346D01*
X252940Y-481359D01*
X253162Y-481623D01*
X253342Y-481900D01*
X253509Y-482192D01*
X253647Y-482497D01*
X253772Y-482816D01*
X253869Y-483121D01*
X253953Y-483426D01*
X254022Y-483717D01*
X254077Y-484008D01*
X254105Y-484258D01*
X254133Y-484494D01*
X254160Y-484688D01*
Y-484854D01*
X254174Y-484979D01*
Y-485062D01*
Y-485076D01*
Y-485090D01*
X254160Y-485506D01*
X254119Y-485895D01*
X254063Y-486269D01*
X253980Y-486602D01*
X253897Y-486921D01*
X253786Y-487226D01*
X253675Y-487489D01*
X253564Y-487725D01*
X253453Y-487947D01*
X253342Y-488141D01*
X253231Y-488294D01*
X253148Y-488432D01*
X253065Y-488530D01*
X253009Y-488613D01*
X252968Y-488654D01*
X252954Y-488668D01*
X252718Y-488904D01*
X252468Y-489098D01*
X252205Y-489278D01*
X251942Y-489417D01*
X251678Y-489542D01*
X251415Y-489653D01*
X251165Y-489736D01*
X250929Y-489805D01*
X250693Y-489861D01*
X250485Y-489902D01*
X250291Y-489930D01*
X250139Y-489944D01*
X250000Y-489958D01*
X249903Y-489972D01*
X249820D01*
X249528Y-489958D01*
X249265Y-489944D01*
X249001Y-489902D01*
X248766Y-489847D01*
X248544Y-489791D01*
X248336Y-489736D01*
X248142Y-489667D01*
X247961Y-489584D01*
X247809Y-489514D01*
X247670Y-489445D01*
X247545Y-489389D01*
X247448Y-489334D01*
X247365Y-489278D01*
X247309Y-489237D01*
X247282Y-489223D01*
X247268Y-489209D01*
X247088Y-489057D01*
X246921Y-488890D01*
X246616Y-488516D01*
X246366Y-488127D01*
X246172Y-487753D01*
X246089Y-487573D01*
X246020Y-487406D01*
X245964Y-487254D01*
X245909Y-487129D01*
X245867Y-487018D01*
X245839Y-486935D01*
X245826Y-486879D01*
Y-486865D01*
X247712Y-486283D01*
X247823Y-486657D01*
X247947Y-486976D01*
X248072Y-487240D01*
X248211Y-487462D01*
X248322Y-487628D01*
X248419Y-487739D01*
X248488Y-487808D01*
X248516Y-487836D01*
X248738Y-488003D01*
X248960Y-488113D01*
X249182Y-488197D01*
X249376Y-488266D01*
X249556Y-488294D01*
X249709Y-488308D01*
X249764Y-488321D01*
X249834D01*
X250028Y-488308D01*
X250208Y-488294D01*
X250541Y-488197D01*
X250832Y-488086D01*
X251068Y-487933D01*
X251262Y-487794D01*
X251401Y-487683D01*
X251456Y-487628D01*
X251498Y-487586D01*
X251512Y-487573D01*
X251525Y-487559D01*
X251636Y-487406D01*
X251733Y-487226D01*
X251831Y-487032D01*
X251900Y-486824D01*
X252011Y-486394D01*
X252094Y-485964D01*
X252122Y-485756D01*
X252136Y-485575D01*
X252163Y-485395D01*
Y-485243D01*
X252177Y-485132D01*
Y-485035D01*
Y-484965D01*
Y-484951D01*
X252163Y-484632D01*
X252150Y-484341D01*
X252122Y-484078D01*
X252080Y-483828D01*
X252025Y-483606D01*
X251969Y-483398D01*
X251914Y-483218D01*
X251845Y-483051D01*
X251789Y-482913D01*
X251733Y-482788D01*
X251678Y-482691D01*
X251623Y-482608D01*
X251581Y-482538D01*
X251553Y-482497D01*
X251525Y-482469D01*
Y-482455D01*
X251401Y-482316D01*
X251262Y-482192D01*
X251123Y-482094D01*
X250971Y-482011D01*
X250679Y-481873D01*
X250402Y-481776D01*
X250166Y-481720D01*
X250055Y-481706D01*
X249972Y-481692D01*
X249889Y-481679D01*
X249792D01*
X249515Y-481692D01*
X249265Y-481748D01*
X249043Y-481817D01*
X248849Y-481900D01*
X248696Y-481984D01*
X248585Y-482053D01*
X248516Y-482108D01*
X248488Y-482122D01*
X248308Y-482289D01*
X248142Y-482483D01*
X248017Y-482677D01*
X247920Y-482871D01*
X247850Y-483038D01*
X247809Y-483162D01*
X247781Y-483218D01*
Y-483260D01*
X247767Y-483273D01*
Y-483287D01*
X245853Y-482830D01*
X245992Y-482427D01*
X246145Y-482081D01*
X246311Y-481776D01*
X246464Y-481526D01*
X246616Y-481332D01*
X246672Y-481249D01*
X246727Y-481179D01*
X246769Y-481138D01*
X246810Y-481096D01*
X246824Y-481068D01*
X246838D01*
X247046Y-480888D01*
X247282Y-480722D01*
X247504Y-480583D01*
X247739Y-480472D01*
X247989Y-480361D01*
X248225Y-480278D01*
X248461Y-480208D01*
X248682Y-480153D01*
X248890Y-480111D01*
X249085Y-480084D01*
X249251Y-480056D01*
X249404Y-480042D01*
X249528Y-480028D01*
X249695D01*
X250055Y-480042D01*
D02*
G37*
G36*
X44021Y-19803D02*
X40431D01*
X40122Y-19794D01*
X39606D01*
X39391Y-19785D01*
X39203D01*
X39035Y-19775D01*
X38894D01*
X38772Y-19766D01*
X38669D01*
X38585Y-19757D01*
X38519D01*
X38472Y-19747D01*
X38416D01*
X38135Y-19700D01*
X37891Y-19635D01*
X37666Y-19560D01*
X37479Y-19485D01*
X37404Y-19447D01*
X37329Y-19410D01*
X37263Y-19372D01*
X37216Y-19344D01*
X37179Y-19325D01*
X37151Y-19307D01*
X37132Y-19288D01*
X37123D01*
X36935Y-19138D01*
X36767Y-18979D01*
X36626Y-18819D01*
X36504Y-18660D01*
X36410Y-18519D01*
X36373Y-18454D01*
X36345Y-18407D01*
X36317Y-18360D01*
X36298Y-18332D01*
X36288Y-18313D01*
Y-18304D01*
X36185Y-18069D01*
X36110Y-17835D01*
X36054Y-17620D01*
X36017Y-17432D01*
X35998Y-17263D01*
X35989Y-17198D01*
X35979Y-17142D01*
Y-17095D01*
Y-17057D01*
Y-17039D01*
Y-17029D01*
X35989Y-16879D01*
X35998Y-16729D01*
X36054Y-16448D01*
X36129Y-16204D01*
X36176Y-16092D01*
X36214Y-15998D01*
X36260Y-15904D01*
X36307Y-15820D01*
X36345Y-15754D01*
X36382Y-15698D01*
X36410Y-15651D01*
X36438Y-15614D01*
X36448Y-15595D01*
X36457Y-15586D01*
X36551Y-15473D01*
X36645Y-15370D01*
X36860Y-15183D01*
X37085Y-15033D01*
X37301Y-14911D01*
X37497Y-14817D01*
X37582Y-14780D01*
X37657Y-14752D01*
X37713Y-14733D01*
X37760Y-14714D01*
X37788Y-14705D01*
X37798D01*
X37582Y-14583D01*
X37385Y-14452D01*
X37216Y-14311D01*
X37076Y-14180D01*
X36963Y-14058D01*
X36879Y-13955D01*
X36851Y-13917D01*
X36832Y-13889D01*
X36813Y-13871D01*
Y-13861D01*
X36692Y-13646D01*
X36598Y-13430D01*
X36532Y-13224D01*
X36495Y-13027D01*
X36467Y-12868D01*
X36457Y-12793D01*
Y-12737D01*
X36448Y-12690D01*
Y-12652D01*
Y-12633D01*
Y-12624D01*
X36457Y-12399D01*
X36495Y-12184D01*
X36542Y-11996D01*
X36598Y-11827D01*
X36654Y-11687D01*
X36682Y-11631D01*
X36701Y-11584D01*
X36720Y-11546D01*
X36738Y-11518D01*
X36748Y-11509D01*
Y-11499D01*
X36860Y-11321D01*
X36982Y-11162D01*
X37113Y-11021D01*
X37226Y-10909D01*
X37329Y-10815D01*
X37413Y-10749D01*
X37469Y-10703D01*
X37479Y-10693D01*
X37488D01*
X37657Y-10590D01*
X37835Y-10506D01*
X37994Y-10440D01*
X38154Y-10384D01*
X38294Y-10346D01*
X38397Y-10318D01*
X38435Y-10309D01*
X38463Y-10300D01*
X38491D01*
X38603Y-10281D01*
X38725Y-10262D01*
X38988Y-10243D01*
X39269Y-10225D01*
X39550Y-10206D01*
X39794D01*
X39906Y-10196D01*
X44021D01*
Y-19803D01*
D02*
G37*
G36*
X450056Y-480042D02*
X450416Y-480084D01*
X450735Y-480153D01*
X451054Y-480236D01*
X451331Y-480333D01*
X451609Y-480444D01*
X451844Y-480569D01*
X452066Y-480694D01*
X452274Y-480819D01*
X452441Y-480943D01*
X452593Y-481054D01*
X452718Y-481152D01*
X452815Y-481235D01*
X452885Y-481304D01*
X452926Y-481346D01*
X452940Y-481359D01*
X453162Y-481623D01*
X453342Y-481900D01*
X453509Y-482192D01*
X453647Y-482497D01*
X453772Y-482816D01*
X453869Y-483121D01*
X453952Y-483426D01*
X454022Y-483717D01*
X454077Y-484008D01*
X454105Y-484258D01*
X454133Y-484494D01*
X454160Y-484688D01*
Y-484854D01*
X454174Y-484979D01*
Y-485062D01*
Y-485076D01*
Y-485090D01*
X454160Y-485506D01*
X454119Y-485895D01*
X454063Y-486269D01*
X453980Y-486602D01*
X453897Y-486921D01*
X453786Y-487226D01*
X453675Y-487489D01*
X453564Y-487725D01*
X453453Y-487947D01*
X453342Y-488141D01*
X453231Y-488294D01*
X453148Y-488432D01*
X453065Y-488530D01*
X453009Y-488613D01*
X452968Y-488654D01*
X452954Y-488668D01*
X452718Y-488904D01*
X452469Y-489098D01*
X452205Y-489278D01*
X451942Y-489417D01*
X451678Y-489542D01*
X451415Y-489653D01*
X451165Y-489736D01*
X450929Y-489805D01*
X450693Y-489861D01*
X450485Y-489902D01*
X450291Y-489930D01*
X450139Y-489944D01*
X450000Y-489958D01*
X449903Y-489972D01*
X449820D01*
X449529Y-489958D01*
X449265Y-489944D01*
X449002Y-489902D01*
X448766Y-489847D01*
X448544Y-489791D01*
X448336Y-489736D01*
X448142Y-489667D01*
X447961Y-489584D01*
X447809Y-489514D01*
X447670Y-489445D01*
X447545Y-489389D01*
X447448Y-489334D01*
X447365Y-489278D01*
X447309Y-489237D01*
X447282Y-489223D01*
X447268Y-489209D01*
X447088Y-489057D01*
X446921Y-488890D01*
X446616Y-488516D01*
X446367Y-488127D01*
X446172Y-487753D01*
X446089Y-487573D01*
X446020Y-487406D01*
X445964Y-487254D01*
X445909Y-487129D01*
X445867Y-487018D01*
X445840Y-486935D01*
X445826Y-486879D01*
Y-486865D01*
X447712Y-486283D01*
X447823Y-486657D01*
X447948Y-486976D01*
X448072Y-487240D01*
X448211Y-487462D01*
X448322Y-487628D01*
X448419Y-487739D01*
X448488Y-487808D01*
X448516Y-487836D01*
X448738Y-488003D01*
X448960Y-488113D01*
X449182Y-488197D01*
X449376Y-488266D01*
X449556Y-488294D01*
X449709Y-488308D01*
X449764Y-488321D01*
X449834D01*
X450028Y-488308D01*
X450208Y-488294D01*
X450541Y-488197D01*
X450832Y-488086D01*
X451068Y-487933D01*
X451262Y-487794D01*
X451401Y-487683D01*
X451456Y-487628D01*
X451498Y-487586D01*
X451512Y-487573D01*
X451525Y-487559D01*
X451637Y-487406D01*
X451734Y-487226D01*
X451831Y-487032D01*
X451900Y-486824D01*
X452011Y-486394D01*
X452094Y-485964D01*
X452122Y-485756D01*
X452136Y-485575D01*
X452164Y-485395D01*
Y-485243D01*
X452177Y-485132D01*
Y-485035D01*
Y-484965D01*
Y-484951D01*
X452164Y-484632D01*
X452150Y-484341D01*
X452122Y-484078D01*
X452080Y-483828D01*
X452025Y-483606D01*
X451969Y-483398D01*
X451914Y-483218D01*
X451844Y-483051D01*
X451789Y-482913D01*
X451734Y-482788D01*
X451678Y-482691D01*
X451623Y-482608D01*
X451581Y-482538D01*
X451553Y-482497D01*
X451525Y-482469D01*
Y-482455D01*
X451401Y-482316D01*
X451262Y-482192D01*
X451123Y-482094D01*
X450971Y-482011D01*
X450680Y-481873D01*
X450402Y-481776D01*
X450166Y-481720D01*
X450056Y-481706D01*
X449972Y-481692D01*
X449889Y-481679D01*
X449792D01*
X449515Y-481692D01*
X449265Y-481748D01*
X449043Y-481817D01*
X448849Y-481900D01*
X448696Y-481984D01*
X448585Y-482053D01*
X448516Y-482108D01*
X448488Y-482122D01*
X448308Y-482289D01*
X448142Y-482483D01*
X448017Y-482677D01*
X447920Y-482871D01*
X447850Y-483038D01*
X447809Y-483162D01*
X447781Y-483218D01*
Y-483260D01*
X447767Y-483273D01*
Y-483287D01*
X445853Y-482830D01*
X445992Y-482427D01*
X446145Y-482081D01*
X446311Y-481776D01*
X446464Y-481526D01*
X446616Y-481332D01*
X446672Y-481249D01*
X446727Y-481179D01*
X446769Y-481138D01*
X446810Y-481096D01*
X446824Y-481068D01*
X446838D01*
X447046Y-480888D01*
X447282Y-480722D01*
X447504Y-480583D01*
X447739Y-480472D01*
X447989Y-480361D01*
X448225Y-480278D01*
X448461Y-480208D01*
X448683Y-480153D01*
X448890Y-480111D01*
X449085Y-480084D01*
X449251Y-480056D01*
X449404Y-480042D01*
X449529Y-480028D01*
X449695D01*
X450056Y-480042D01*
D02*
G37*
G36*
X475000Y-25000D02*
X425000D01*
Y-5000D01*
X475000D01*
Y-25000D01*
D02*
G37*
G36*
X225000Y-475000D02*
Y-495000D01*
X175000D01*
Y-475000D01*
X225000D01*
D02*
G37*
G36*
X275000Y-5000D02*
Y-25000D01*
X225000D01*
Y-5000D01*
X275000D01*
D02*
G37*
G36*
X554021Y-19803D02*
X550431D01*
X550122Y-19794D01*
X549606D01*
X549391Y-19785D01*
X549203D01*
X549035Y-19775D01*
X548894D01*
X548772Y-19766D01*
X548669D01*
X548585Y-19757D01*
X548519D01*
X548472Y-19747D01*
X548416D01*
X548135Y-19700D01*
X547891Y-19635D01*
X547666Y-19560D01*
X547479Y-19485D01*
X547404Y-19447D01*
X547329Y-19410D01*
X547263Y-19372D01*
X547216Y-19344D01*
X547179Y-19325D01*
X547151Y-19307D01*
X547132Y-19288D01*
X547123D01*
X546935Y-19138D01*
X546767Y-18979D01*
X546626Y-18819D01*
X546504Y-18660D01*
X546410Y-18519D01*
X546373Y-18454D01*
X546345Y-18407D01*
X546317Y-18360D01*
X546298Y-18332D01*
X546288Y-18313D01*
Y-18304D01*
X546185Y-18069D01*
X546110Y-17835D01*
X546054Y-17620D01*
X546017Y-17432D01*
X545998Y-17263D01*
X545989Y-17198D01*
X545979Y-17142D01*
Y-17095D01*
Y-17057D01*
Y-17039D01*
Y-17029D01*
X545989Y-16879D01*
X545998Y-16729D01*
X546054Y-16448D01*
X546129Y-16204D01*
X546176Y-16092D01*
X546213Y-15998D01*
X546260Y-15904D01*
X546307Y-15820D01*
X546345Y-15754D01*
X546382Y-15698D01*
X546410Y-15651D01*
X546438Y-15614D01*
X546448Y-15595D01*
X546457Y-15586D01*
X546551Y-15473D01*
X546645Y-15370D01*
X546860Y-15183D01*
X547085Y-15033D01*
X547301Y-14911D01*
X547498Y-14817D01*
X547582Y-14780D01*
X547657Y-14752D01*
X547713Y-14733D01*
X547760Y-14714D01*
X547788Y-14705D01*
X547798D01*
X547582Y-14583D01*
X547385Y-14452D01*
X547216Y-14311D01*
X547076Y-14180D01*
X546963Y-14058D01*
X546879Y-13955D01*
X546851Y-13917D01*
X546832Y-13889D01*
X546813Y-13871D01*
Y-13861D01*
X546692Y-13646D01*
X546598Y-13430D01*
X546532Y-13224D01*
X546495Y-13027D01*
X546467Y-12868D01*
X546457Y-12793D01*
Y-12737D01*
X546448Y-12690D01*
Y-12652D01*
Y-12633D01*
Y-12624D01*
X546457Y-12399D01*
X546495Y-12184D01*
X546542Y-11996D01*
X546598Y-11827D01*
X546654Y-11687D01*
X546682Y-11631D01*
X546701Y-11584D01*
X546720Y-11546D01*
X546738Y-11518D01*
X546748Y-11509D01*
Y-11499D01*
X546860Y-11321D01*
X546982Y-11162D01*
X547113Y-11021D01*
X547226Y-10909D01*
X547329Y-10815D01*
X547413Y-10749D01*
X547469Y-10703D01*
X547479Y-10693D01*
X547488D01*
X547657Y-10590D01*
X547835Y-10506D01*
X547994Y-10440D01*
X548154Y-10384D01*
X548294Y-10346D01*
X548397Y-10318D01*
X548435Y-10309D01*
X548463Y-10300D01*
X548491D01*
X548604Y-10281D01*
X548725Y-10262D01*
X548988Y-10243D01*
X549269Y-10225D01*
X549550Y-10206D01*
X549794D01*
X549906Y-10196D01*
X554021D01*
Y-19803D01*
D02*
G37*
G36*
X354021D02*
X350431D01*
X350122Y-19794D01*
X349606D01*
X349391Y-19785D01*
X349203D01*
X349035Y-19775D01*
X348894D01*
X348772Y-19766D01*
X348669D01*
X348585Y-19757D01*
X348519D01*
X348472Y-19747D01*
X348416D01*
X348135Y-19700D01*
X347891Y-19635D01*
X347666Y-19560D01*
X347479Y-19485D01*
X347404Y-19447D01*
X347329Y-19410D01*
X347263Y-19372D01*
X347216Y-19344D01*
X347179Y-19325D01*
X347151Y-19307D01*
X347132Y-19288D01*
X347123D01*
X346935Y-19138D01*
X346767Y-18979D01*
X346626Y-18819D01*
X346504Y-18660D01*
X346410Y-18519D01*
X346373Y-18454D01*
X346345Y-18407D01*
X346317Y-18360D01*
X346298Y-18332D01*
X346288Y-18313D01*
Y-18304D01*
X346185Y-18069D01*
X346110Y-17835D01*
X346054Y-17620D01*
X346017Y-17432D01*
X345998Y-17263D01*
X345989Y-17198D01*
X345979Y-17142D01*
Y-17095D01*
Y-17057D01*
Y-17039D01*
Y-17029D01*
X345989Y-16879D01*
X345998Y-16729D01*
X346054Y-16448D01*
X346129Y-16204D01*
X346176Y-16092D01*
X346213Y-15998D01*
X346260Y-15904D01*
X346307Y-15820D01*
X346345Y-15754D01*
X346382Y-15698D01*
X346410Y-15651D01*
X346438Y-15614D01*
X346448Y-15595D01*
X346457Y-15586D01*
X346551Y-15473D01*
X346645Y-15370D01*
X346860Y-15183D01*
X347085Y-15033D01*
X347301Y-14911D01*
X347497Y-14817D01*
X347582Y-14780D01*
X347657Y-14752D01*
X347713Y-14733D01*
X347760Y-14714D01*
X347788Y-14705D01*
X347798D01*
X347582Y-14583D01*
X347385Y-14452D01*
X347216Y-14311D01*
X347076Y-14180D01*
X346963Y-14058D01*
X346879Y-13955D01*
X346851Y-13917D01*
X346832Y-13889D01*
X346813Y-13871D01*
Y-13861D01*
X346692Y-13646D01*
X346598Y-13430D01*
X346532Y-13224D01*
X346495Y-13027D01*
X346466Y-12868D01*
X346457Y-12793D01*
Y-12737D01*
X346448Y-12690D01*
Y-12652D01*
Y-12633D01*
Y-12624D01*
X346457Y-12399D01*
X346495Y-12184D01*
X346541Y-11996D01*
X346598Y-11827D01*
X346654Y-11687D01*
X346682Y-11631D01*
X346701Y-11584D01*
X346720Y-11546D01*
X346738Y-11518D01*
X346748Y-11509D01*
Y-11499D01*
X346860Y-11321D01*
X346982Y-11162D01*
X347113Y-11021D01*
X347226Y-10909D01*
X347329Y-10815D01*
X347413Y-10749D01*
X347469Y-10703D01*
X347479Y-10693D01*
X347488D01*
X347657Y-10590D01*
X347835Y-10506D01*
X347994Y-10440D01*
X348154Y-10384D01*
X348294Y-10346D01*
X348397Y-10318D01*
X348435Y-10309D01*
X348463Y-10300D01*
X348491D01*
X348604Y-10281D01*
X348725Y-10262D01*
X348988Y-10243D01*
X349269Y-10225D01*
X349550Y-10206D01*
X349794D01*
X349906Y-10196D01*
X354021D01*
Y-19803D01*
D02*
G37*
G36*
X125000Y-5000D02*
Y-25000D01*
X75000D01*
Y-5000D01*
X125000D01*
D02*
G37*
G36*
X791000Y-25000D02*
X725000D01*
Y-5000D01*
X791000D01*
Y-25000D01*
D02*
G37*
G36*
X575000Y-475000D02*
Y-495000D01*
X525000D01*
Y-475000D01*
X575000D01*
D02*
G37*
G36*
X600056Y-480042D02*
X600416Y-480084D01*
X600735Y-480153D01*
X601054Y-480236D01*
X601331Y-480333D01*
X601609Y-480444D01*
X601844Y-480569D01*
X602066Y-480694D01*
X602274Y-480819D01*
X602441Y-480943D01*
X602593Y-481054D01*
X602718Y-481152D01*
X602815Y-481235D01*
X602885Y-481304D01*
X602926Y-481346D01*
X602940Y-481359D01*
X603162Y-481623D01*
X603342Y-481900D01*
X603509Y-482192D01*
X603647Y-482497D01*
X603772Y-482816D01*
X603869Y-483121D01*
X603952Y-483426D01*
X604022Y-483717D01*
X604077Y-484008D01*
X604105Y-484258D01*
X604133Y-484494D01*
X604160Y-484688D01*
Y-484854D01*
X604174Y-484979D01*
Y-485062D01*
Y-485076D01*
Y-485090D01*
X604160Y-485506D01*
X604119Y-485895D01*
X604063Y-486269D01*
X603980Y-486602D01*
X603897Y-486921D01*
X603786Y-487226D01*
X603675Y-487489D01*
X603564Y-487725D01*
X603453Y-487947D01*
X603342Y-488141D01*
X603231Y-488294D01*
X603148Y-488432D01*
X603065Y-488530D01*
X603009Y-488613D01*
X602968Y-488654D01*
X602954Y-488668D01*
X602718Y-488904D01*
X602469Y-489098D01*
X602205Y-489278D01*
X601942Y-489417D01*
X601678Y-489542D01*
X601415Y-489653D01*
X601165Y-489736D01*
X600929Y-489805D01*
X600693Y-489861D01*
X600485Y-489902D01*
X600291Y-489930D01*
X600139Y-489944D01*
X600000Y-489958D01*
X599903Y-489972D01*
X599820D01*
X599529Y-489958D01*
X599265Y-489944D01*
X599002Y-489902D01*
X598766Y-489847D01*
X598544Y-489791D01*
X598336Y-489736D01*
X598142Y-489667D01*
X597961Y-489584D01*
X597809Y-489514D01*
X597670Y-489445D01*
X597545Y-489389D01*
X597448Y-489334D01*
X597365Y-489278D01*
X597309Y-489237D01*
X597282Y-489223D01*
X597268Y-489209D01*
X597088Y-489057D01*
X596921Y-488890D01*
X596616Y-488516D01*
X596367Y-488127D01*
X596172Y-487753D01*
X596089Y-487573D01*
X596020Y-487406D01*
X595964Y-487254D01*
X595909Y-487129D01*
X595867Y-487018D01*
X595840Y-486935D01*
X595826Y-486879D01*
Y-486865D01*
X597712Y-486283D01*
X597823Y-486657D01*
X597948Y-486976D01*
X598072Y-487240D01*
X598211Y-487462D01*
X598322Y-487628D01*
X598419Y-487739D01*
X598488Y-487808D01*
X598516Y-487836D01*
X598738Y-488003D01*
X598960Y-488113D01*
X599182Y-488197D01*
X599376Y-488266D01*
X599556Y-488294D01*
X599709Y-488308D01*
X599764Y-488321D01*
X599834D01*
X600028Y-488308D01*
X600208Y-488294D01*
X600541Y-488197D01*
X600832Y-488086D01*
X601068Y-487933D01*
X601262Y-487794D01*
X601401Y-487683D01*
X601456Y-487628D01*
X601498Y-487586D01*
X601512Y-487573D01*
X601525Y-487559D01*
X601637Y-487406D01*
X601734Y-487226D01*
X601831Y-487032D01*
X601900Y-486824D01*
X602011Y-486394D01*
X602094Y-485964D01*
X602122Y-485756D01*
X602136Y-485575D01*
X602164Y-485395D01*
Y-485243D01*
X602177Y-485132D01*
Y-485035D01*
Y-484965D01*
Y-484951D01*
X602164Y-484632D01*
X602150Y-484341D01*
X602122Y-484078D01*
X602080Y-483828D01*
X602025Y-483606D01*
X601969Y-483398D01*
X601914Y-483218D01*
X601844Y-483051D01*
X601789Y-482913D01*
X601734Y-482788D01*
X601678Y-482691D01*
X601623Y-482608D01*
X601581Y-482538D01*
X601553Y-482497D01*
X601525Y-482469D01*
Y-482455D01*
X601401Y-482316D01*
X601262Y-482192D01*
X601123Y-482094D01*
X600971Y-482011D01*
X600680Y-481873D01*
X600402Y-481776D01*
X600166Y-481720D01*
X600056Y-481706D01*
X599972Y-481692D01*
X599889Y-481679D01*
X599792D01*
X599515Y-481692D01*
X599265Y-481748D01*
X599043Y-481817D01*
X598849Y-481900D01*
X598696Y-481984D01*
X598585Y-482053D01*
X598516Y-482108D01*
X598488Y-482122D01*
X598308Y-482289D01*
X598142Y-482483D01*
X598017Y-482677D01*
X597920Y-482871D01*
X597850Y-483038D01*
X597809Y-483162D01*
X597781Y-483218D01*
Y-483260D01*
X597767Y-483273D01*
Y-483287D01*
X595853Y-482830D01*
X595992Y-482427D01*
X596145Y-482081D01*
X596311Y-481776D01*
X596464Y-481526D01*
X596616Y-481332D01*
X596672Y-481249D01*
X596727Y-481179D01*
X596769Y-481138D01*
X596810Y-481096D01*
X596824Y-481068D01*
X596838D01*
X597046Y-480888D01*
X597282Y-480722D01*
X597504Y-480583D01*
X597739Y-480472D01*
X597989Y-480361D01*
X598225Y-480278D01*
X598461Y-480208D01*
X598683Y-480153D01*
X598890Y-480111D01*
X599085Y-480084D01*
X599251Y-480056D01*
X599404Y-480042D01*
X599529Y-480028D01*
X599695D01*
X600056Y-480042D01*
D02*
G37*
G36*
X204021Y-19803D02*
X200431D01*
X200122Y-19794D01*
X199606D01*
X199391Y-19785D01*
X199203D01*
X199035Y-19775D01*
X198894D01*
X198772Y-19766D01*
X198669D01*
X198585Y-19757D01*
X198519D01*
X198472Y-19747D01*
X198416D01*
X198135Y-19700D01*
X197891Y-19635D01*
X197666Y-19560D01*
X197479Y-19485D01*
X197404Y-19447D01*
X197329Y-19410D01*
X197263Y-19372D01*
X197216Y-19344D01*
X197179Y-19325D01*
X197151Y-19307D01*
X197132Y-19288D01*
X197123D01*
X196935Y-19138D01*
X196766Y-18979D01*
X196626Y-18819D01*
X196504Y-18660D01*
X196410Y-18519D01*
X196373Y-18454D01*
X196345Y-18407D01*
X196317Y-18360D01*
X196298Y-18332D01*
X196289Y-18313D01*
Y-18304D01*
X196185Y-18069D01*
X196110Y-17835D01*
X196054Y-17620D01*
X196017Y-17432D01*
X195998Y-17263D01*
X195989Y-17198D01*
X195979Y-17142D01*
Y-17095D01*
Y-17057D01*
Y-17039D01*
Y-17029D01*
X195989Y-16879D01*
X195998Y-16729D01*
X196054Y-16448D01*
X196129Y-16204D01*
X196176Y-16092D01*
X196213Y-15998D01*
X196260Y-15904D01*
X196307Y-15820D01*
X196345Y-15754D01*
X196382Y-15698D01*
X196410Y-15651D01*
X196438Y-15614D01*
X196448Y-15595D01*
X196457Y-15586D01*
X196551Y-15473D01*
X196645Y-15370D01*
X196860Y-15183D01*
X197085Y-15033D01*
X197301Y-14911D01*
X197498Y-14817D01*
X197582Y-14780D01*
X197657Y-14752D01*
X197713Y-14733D01*
X197760Y-14714D01*
X197788Y-14705D01*
X197797D01*
X197582Y-14583D01*
X197385Y-14452D01*
X197216Y-14311D01*
X197076Y-14180D01*
X196963Y-14058D01*
X196879Y-13955D01*
X196851Y-13917D01*
X196832Y-13889D01*
X196813Y-13871D01*
Y-13861D01*
X196691Y-13646D01*
X196598Y-13430D01*
X196532Y-13224D01*
X196495Y-13027D01*
X196467Y-12868D01*
X196457Y-12793D01*
Y-12737D01*
X196448Y-12690D01*
Y-12652D01*
Y-12633D01*
Y-12624D01*
X196457Y-12399D01*
X196495Y-12184D01*
X196542Y-11996D01*
X196598Y-11827D01*
X196654Y-11687D01*
X196682Y-11631D01*
X196701Y-11584D01*
X196720Y-11546D01*
X196738Y-11518D01*
X196748Y-11509D01*
Y-11499D01*
X196860Y-11321D01*
X196982Y-11162D01*
X197113Y-11021D01*
X197226Y-10909D01*
X197329Y-10815D01*
X197413Y-10749D01*
X197469Y-10703D01*
X197479Y-10693D01*
X197488D01*
X197657Y-10590D01*
X197835Y-10506D01*
X197994Y-10440D01*
X198154Y-10384D01*
X198294Y-10346D01*
X198397Y-10318D01*
X198435Y-10309D01*
X198463Y-10300D01*
X198491D01*
X198603Y-10281D01*
X198725Y-10262D01*
X198988Y-10243D01*
X199269Y-10225D01*
X199550Y-10206D01*
X199794D01*
X199906Y-10196D01*
X204021D01*
Y-19803D01*
D02*
G37*
G36*
X760055Y-480042D02*
X760416Y-480084D01*
X760735Y-480153D01*
X761054Y-480236D01*
X761331Y-480333D01*
X761609Y-480444D01*
X761844Y-480569D01*
X762066Y-480694D01*
X762274Y-480819D01*
X762441Y-480943D01*
X762593Y-481054D01*
X762718Y-481152D01*
X762815Y-481235D01*
X762885Y-481304D01*
X762926Y-481346D01*
X762940Y-481359D01*
X763162Y-481623D01*
X763342Y-481900D01*
X763509Y-482192D01*
X763647Y-482497D01*
X763772Y-482816D01*
X763869Y-483121D01*
X763952Y-483426D01*
X764022Y-483717D01*
X764077Y-484008D01*
X764105Y-484258D01*
X764133Y-484494D01*
X764161Y-484688D01*
Y-484854D01*
X764174Y-484979D01*
Y-485062D01*
Y-485076D01*
Y-485090D01*
X764161Y-485506D01*
X764119Y-485895D01*
X764063Y-486269D01*
X763980Y-486602D01*
X763897Y-486921D01*
X763786Y-487226D01*
X763675Y-487489D01*
X763564Y-487725D01*
X763453Y-487947D01*
X763342Y-488141D01*
X763231Y-488294D01*
X763148Y-488432D01*
X763065Y-488530D01*
X763009Y-488613D01*
X762968Y-488654D01*
X762954Y-488668D01*
X762718Y-488904D01*
X762469Y-489098D01*
X762205Y-489278D01*
X761942Y-489417D01*
X761678Y-489542D01*
X761415Y-489653D01*
X761165Y-489736D01*
X760929Y-489805D01*
X760693Y-489861D01*
X760485Y-489902D01*
X760291Y-489930D01*
X760139Y-489944D01*
X760000Y-489958D01*
X759903Y-489972D01*
X759820D01*
X759529Y-489958D01*
X759265Y-489944D01*
X759001Y-489902D01*
X758766Y-489847D01*
X758544Y-489791D01*
X758336Y-489736D01*
X758142Y-489667D01*
X757961Y-489584D01*
X757809Y-489514D01*
X757670Y-489445D01*
X757545Y-489389D01*
X757448Y-489334D01*
X757365Y-489278D01*
X757309Y-489237D01*
X757282Y-489223D01*
X757268Y-489209D01*
X757088Y-489057D01*
X756921Y-488890D01*
X756616Y-488516D01*
X756367Y-488127D01*
X756172Y-487753D01*
X756089Y-487573D01*
X756020Y-487406D01*
X755964Y-487254D01*
X755909Y-487129D01*
X755867Y-487018D01*
X755839Y-486935D01*
X755826Y-486879D01*
Y-486865D01*
X757712Y-486283D01*
X757823Y-486657D01*
X757947Y-486976D01*
X758072Y-487240D01*
X758211Y-487462D01*
X758322Y-487628D01*
X758419Y-487739D01*
X758488Y-487808D01*
X758516Y-487836D01*
X758738Y-488003D01*
X758960Y-488113D01*
X759182Y-488197D01*
X759376Y-488266D01*
X759556Y-488294D01*
X759709Y-488308D01*
X759764Y-488321D01*
X759834D01*
X760028Y-488308D01*
X760208Y-488294D01*
X760541Y-488197D01*
X760832Y-488086D01*
X761068Y-487933D01*
X761262Y-487794D01*
X761401Y-487683D01*
X761456Y-487628D01*
X761498Y-487586D01*
X761512Y-487573D01*
X761525Y-487559D01*
X761636Y-487406D01*
X761733Y-487226D01*
X761831Y-487032D01*
X761900Y-486824D01*
X762011Y-486394D01*
X762094Y-485964D01*
X762122Y-485756D01*
X762136Y-485575D01*
X762163Y-485395D01*
Y-485243D01*
X762177Y-485132D01*
Y-485035D01*
Y-484965D01*
Y-484951D01*
X762163Y-484632D01*
X762150Y-484341D01*
X762122Y-484078D01*
X762080Y-483828D01*
X762025Y-483606D01*
X761969Y-483398D01*
X761914Y-483218D01*
X761844Y-483051D01*
X761789Y-482913D01*
X761733Y-482788D01*
X761678Y-482691D01*
X761623Y-482608D01*
X761581Y-482538D01*
X761553Y-482497D01*
X761525Y-482469D01*
Y-482455D01*
X761401Y-482316D01*
X761262Y-482192D01*
X761123Y-482094D01*
X760971Y-482011D01*
X760679Y-481873D01*
X760402Y-481776D01*
X760166Y-481720D01*
X760055Y-481706D01*
X759972Y-481692D01*
X759889Y-481679D01*
X759792D01*
X759515Y-481692D01*
X759265Y-481748D01*
X759043Y-481817D01*
X758849Y-481900D01*
X758696Y-481984D01*
X758585Y-482053D01*
X758516Y-482108D01*
X758488Y-482122D01*
X758308Y-482289D01*
X758142Y-482483D01*
X758017Y-482677D01*
X757920Y-482871D01*
X757850Y-483038D01*
X757809Y-483162D01*
X757781Y-483218D01*
Y-483260D01*
X757767Y-483273D01*
Y-483287D01*
X755853Y-482830D01*
X755992Y-482427D01*
X756145Y-482081D01*
X756311Y-481776D01*
X756463Y-481526D01*
X756616Y-481332D01*
X756672Y-481249D01*
X756727Y-481179D01*
X756769Y-481138D01*
X756810Y-481096D01*
X756824Y-481068D01*
X756838D01*
X757046Y-480888D01*
X757282Y-480722D01*
X757504Y-480583D01*
X757739Y-480472D01*
X757989Y-480361D01*
X758225Y-480278D01*
X758461Y-480208D01*
X758682Y-480153D01*
X758891Y-480111D01*
X759085Y-480084D01*
X759251Y-480056D01*
X759404Y-480042D01*
X759529Y-480028D01*
X759695D01*
X760055Y-480042D01*
D02*
G37*
G36*
X625000Y-25000D02*
X575000D01*
Y-5000D01*
X625000D01*
Y-25000D01*
D02*
G37*
G36*
X725000Y-475000D02*
Y-495000D01*
X675000D01*
Y-475000D01*
X725000D01*
D02*
G37*
G36*
X100056Y-480042D02*
X100416Y-480084D01*
X100735Y-480153D01*
X101054Y-480236D01*
X101331Y-480333D01*
X101609Y-480444D01*
X101845Y-480569D01*
X102066Y-480694D01*
X102274Y-480819D01*
X102441Y-480943D01*
X102593Y-481054D01*
X102718Y-481152D01*
X102815Y-481235D01*
X102885Y-481304D01*
X102926Y-481346D01*
X102940Y-481359D01*
X103162Y-481623D01*
X103342Y-481900D01*
X103509Y-482192D01*
X103647Y-482497D01*
X103772Y-482816D01*
X103869Y-483121D01*
X103953Y-483426D01*
X104022Y-483717D01*
X104077Y-484008D01*
X104105Y-484258D01*
X104133Y-484494D01*
X104160Y-484688D01*
Y-484854D01*
X104174Y-484979D01*
Y-485062D01*
Y-485076D01*
Y-485090D01*
X104160Y-485506D01*
X104119Y-485895D01*
X104063Y-486269D01*
X103980Y-486602D01*
X103897Y-486921D01*
X103786Y-487226D01*
X103675Y-487489D01*
X103564Y-487725D01*
X103453Y-487947D01*
X103342Y-488141D01*
X103231Y-488294D01*
X103148Y-488432D01*
X103065Y-488530D01*
X103009Y-488613D01*
X102968Y-488654D01*
X102954Y-488668D01*
X102718Y-488904D01*
X102469Y-489098D01*
X102205Y-489278D01*
X101942Y-489417D01*
X101678Y-489542D01*
X101415Y-489653D01*
X101165Y-489736D01*
X100929Y-489805D01*
X100693Y-489861D01*
X100485Y-489902D01*
X100291Y-489930D01*
X100139Y-489944D01*
X100000Y-489958D01*
X99903Y-489972D01*
X99820D01*
X99529Y-489958D01*
X99265Y-489944D01*
X99002Y-489902D01*
X98766Y-489847D01*
X98544Y-489791D01*
X98336Y-489736D01*
X98142Y-489667D01*
X97961Y-489584D01*
X97809Y-489514D01*
X97670Y-489445D01*
X97545Y-489389D01*
X97448Y-489334D01*
X97365Y-489278D01*
X97310Y-489237D01*
X97282Y-489223D01*
X97268Y-489209D01*
X97088Y-489057D01*
X96921Y-488890D01*
X96616Y-488516D01*
X96367Y-488127D01*
X96172Y-487753D01*
X96089Y-487573D01*
X96020Y-487406D01*
X95964Y-487254D01*
X95909Y-487129D01*
X95867Y-487018D01*
X95840Y-486935D01*
X95826Y-486879D01*
Y-486865D01*
X97712Y-486283D01*
X97823Y-486657D01*
X97948Y-486976D01*
X98072Y-487240D01*
X98211Y-487462D01*
X98322Y-487628D01*
X98419Y-487739D01*
X98488Y-487808D01*
X98516Y-487836D01*
X98738Y-488003D01*
X98960Y-488113D01*
X99182Y-488197D01*
X99376Y-488266D01*
X99556Y-488294D01*
X99709Y-488308D01*
X99764Y-488321D01*
X99834D01*
X100028Y-488308D01*
X100208Y-488294D01*
X100541Y-488197D01*
X100832Y-488086D01*
X101068Y-487933D01*
X101262Y-487794D01*
X101401Y-487683D01*
X101456Y-487628D01*
X101498Y-487586D01*
X101512Y-487573D01*
X101525Y-487559D01*
X101636Y-487406D01*
X101734Y-487226D01*
X101831Y-487032D01*
X101900Y-486824D01*
X102011Y-486394D01*
X102094Y-485964D01*
X102122Y-485756D01*
X102136Y-485575D01*
X102163Y-485395D01*
Y-485243D01*
X102177Y-485132D01*
Y-485035D01*
Y-484965D01*
Y-484951D01*
X102163Y-484632D01*
X102150Y-484341D01*
X102122Y-484078D01*
X102080Y-483828D01*
X102025Y-483606D01*
X101969Y-483398D01*
X101914Y-483218D01*
X101845Y-483051D01*
X101789Y-482913D01*
X101734Y-482788D01*
X101678Y-482691D01*
X101623Y-482608D01*
X101581Y-482538D01*
X101553Y-482497D01*
X101525Y-482469D01*
Y-482455D01*
X101401Y-482316D01*
X101262Y-482192D01*
X101123Y-482094D01*
X100971Y-482011D01*
X100680Y-481873D01*
X100402Y-481776D01*
X100166Y-481720D01*
X100056Y-481706D01*
X99972Y-481692D01*
X99889Y-481679D01*
X99792D01*
X99515Y-481692D01*
X99265Y-481748D01*
X99043Y-481817D01*
X98849Y-481900D01*
X98696Y-481984D01*
X98585Y-482053D01*
X98516Y-482108D01*
X98488Y-482122D01*
X98308Y-482289D01*
X98142Y-482483D01*
X98017Y-482677D01*
X97920Y-482871D01*
X97850Y-483038D01*
X97809Y-483162D01*
X97781Y-483218D01*
Y-483260D01*
X97767Y-483273D01*
Y-483287D01*
X95853Y-482830D01*
X95992Y-482427D01*
X96145Y-482081D01*
X96311Y-481776D01*
X96464Y-481526D01*
X96616Y-481332D01*
X96672Y-481249D01*
X96727Y-481179D01*
X96769Y-481138D01*
X96810Y-481096D01*
X96824Y-481068D01*
X96838D01*
X97046Y-480888D01*
X97282Y-480722D01*
X97504Y-480583D01*
X97739Y-480472D01*
X97989Y-480361D01*
X98225Y-480278D01*
X98461Y-480208D01*
X98682Y-480153D01*
X98890Y-480111D01*
X99085Y-480084D01*
X99251Y-480056D01*
X99404Y-480042D01*
X99529Y-480028D01*
X99695D01*
X100056Y-480042D01*
D02*
G37*
G36*
X375000Y-495000D02*
X325000D01*
Y-475000D01*
X375000D01*
Y-495000D01*
D02*
G37*
G36*
X704021Y-19803D02*
X700431D01*
X700122Y-19794D01*
X699606D01*
X699391Y-19785D01*
X699203D01*
X699035Y-19775D01*
X698894D01*
X698772Y-19766D01*
X698669D01*
X698585Y-19757D01*
X698519D01*
X698472Y-19747D01*
X698416D01*
X698135Y-19700D01*
X697891Y-19635D01*
X697666Y-19560D01*
X697479Y-19485D01*
X697404Y-19447D01*
X697329Y-19410D01*
X697263Y-19372D01*
X697216Y-19344D01*
X697179Y-19325D01*
X697151Y-19307D01*
X697132Y-19288D01*
X697123D01*
X696935Y-19138D01*
X696767Y-18979D01*
X696626Y-18819D01*
X696504Y-18660D01*
X696410Y-18519D01*
X696373Y-18454D01*
X696345Y-18407D01*
X696317Y-18360D01*
X696298Y-18332D01*
X696289Y-18313D01*
Y-18304D01*
X696185Y-18069D01*
X696110Y-17835D01*
X696054Y-17620D01*
X696017Y-17432D01*
X695998Y-17263D01*
X695989Y-17198D01*
X695979Y-17142D01*
Y-17095D01*
Y-17057D01*
Y-17039D01*
Y-17029D01*
X695989Y-16879D01*
X695998Y-16729D01*
X696054Y-16448D01*
X696129Y-16204D01*
X696176Y-16092D01*
X696214Y-15998D01*
X696260Y-15904D01*
X696307Y-15820D01*
X696345Y-15754D01*
X696382Y-15698D01*
X696410Y-15651D01*
X696439Y-15614D01*
X696448Y-15595D01*
X696457Y-15586D01*
X696551Y-15473D01*
X696645Y-15370D01*
X696860Y-15183D01*
X697085Y-15033D01*
X697301Y-14911D01*
X697498Y-14817D01*
X697582Y-14780D01*
X697657Y-14752D01*
X697713Y-14733D01*
X697760Y-14714D01*
X697788Y-14705D01*
X697797D01*
X697582Y-14583D01*
X697385Y-14452D01*
X697216Y-14311D01*
X697076Y-14180D01*
X696963Y-14058D01*
X696879Y-13955D01*
X696851Y-13917D01*
X696832Y-13889D01*
X696813Y-13871D01*
Y-13861D01*
X696692Y-13646D01*
X696598Y-13430D01*
X696532Y-13224D01*
X696495Y-13027D01*
X696467Y-12868D01*
X696457Y-12793D01*
Y-12737D01*
X696448Y-12690D01*
Y-12652D01*
Y-12633D01*
Y-12624D01*
X696457Y-12399D01*
X696495Y-12184D01*
X696542Y-11996D01*
X696598Y-11827D01*
X696654Y-11687D01*
X696682Y-11631D01*
X696701Y-11584D01*
X696720Y-11546D01*
X696738Y-11518D01*
X696748Y-11509D01*
Y-11499D01*
X696860Y-11321D01*
X696982Y-11162D01*
X697113Y-11021D01*
X697226Y-10909D01*
X697329Y-10815D01*
X697413Y-10749D01*
X697469Y-10703D01*
X697479Y-10693D01*
X697488D01*
X697657Y-10590D01*
X697835Y-10506D01*
X697994Y-10440D01*
X698154Y-10384D01*
X698294Y-10346D01*
X698397Y-10318D01*
X698435Y-10309D01*
X698463Y-10300D01*
X698491D01*
X698604Y-10281D01*
X698725Y-10262D01*
X698988Y-10243D01*
X699269Y-10225D01*
X699550Y-10206D01*
X699794D01*
X699906Y-10196D01*
X704021D01*
Y-19803D01*
D02*
G37*
G36*
X75000Y-475000D02*
Y-495000D01*
X9000D01*
Y-475000D01*
X75000D01*
D02*
G37*
G36*
X757888Y-295539D02*
X758203Y-295576D01*
X758518Y-295632D01*
X758796Y-295706D01*
X759055Y-295798D01*
X759314Y-295891D01*
X759537Y-296002D01*
X759740Y-296094D01*
X759925Y-296206D01*
X760092Y-296317D01*
X760222Y-296409D01*
X760351Y-296502D01*
X760444Y-296576D01*
X760499Y-296631D01*
X760536Y-296668D01*
X760555Y-296687D01*
X760759Y-296909D01*
X760944Y-297131D01*
X761092Y-297372D01*
X761221Y-297613D01*
X761351Y-297854D01*
X761444Y-298094D01*
X761573Y-298539D01*
X761629Y-298742D01*
X761666Y-298927D01*
X761684Y-299094D01*
X761703Y-299242D01*
X761721Y-299353D01*
Y-299761D01*
X761684Y-299983D01*
X761592Y-300427D01*
X761462Y-300835D01*
X761314Y-301205D01*
X761166Y-301501D01*
X761092Y-301631D01*
X761036Y-301742D01*
X760981Y-301835D01*
X760944Y-301890D01*
X760925Y-301927D01*
X760907Y-301946D01*
X764369Y-301261D01*
Y-296131D01*
X765869D01*
Y-302501D01*
X759277Y-303742D01*
X759073Y-302260D01*
X759277Y-302131D01*
X759444Y-301964D01*
X759611Y-301816D01*
X759740Y-301668D01*
X759833Y-301520D01*
X759925Y-301409D01*
X759962Y-301335D01*
X759981Y-301316D01*
X760092Y-301075D01*
X760184Y-300835D01*
X760240Y-300613D01*
X760296Y-300390D01*
X760314Y-300205D01*
X760333Y-300057D01*
Y-299705D01*
X760296Y-299483D01*
X760203Y-299094D01*
X760073Y-298761D01*
X759944Y-298465D01*
X759796Y-298242D01*
X759666Y-298076D01*
X759574Y-297983D01*
X759555Y-297946D01*
X759537D01*
X759222Y-297687D01*
X758888Y-297502D01*
X758537Y-297372D01*
X758185Y-297279D01*
X757888Y-297224D01*
X757759Y-297205D01*
X757648D01*
X757555Y-297187D01*
X757481D01*
X757444D01*
X757426D01*
X757166D01*
X756926Y-297224D01*
X756463Y-297316D01*
X756074Y-297446D01*
X755759Y-297576D01*
X755500Y-297724D01*
X755296Y-297854D01*
X755241Y-297909D01*
X755185Y-297946D01*
X755166Y-297965D01*
X755148Y-297983D01*
X755000Y-298131D01*
X754870Y-298279D01*
X754648Y-298613D01*
X754500Y-298927D01*
X754407Y-299242D01*
X754333Y-299501D01*
X754315Y-299724D01*
X754296Y-299798D01*
Y-299909D01*
X754315Y-300261D01*
X754389Y-300575D01*
X754481Y-300853D01*
X754593Y-301075D01*
X754704Y-301279D01*
X754796Y-301427D01*
X754870Y-301501D01*
X754889Y-301538D01*
X755148Y-301761D01*
X755426Y-301946D01*
X755741Y-302094D01*
X756018Y-302205D01*
X756296Y-302279D01*
X756500Y-302334D01*
X756592Y-302353D01*
X756648Y-302372D01*
X756685D01*
X756703D01*
X756574Y-304020D01*
X756277Y-303983D01*
X756000Y-303927D01*
X755481Y-303760D01*
X755037Y-303557D01*
X754833Y-303445D01*
X754667Y-303334D01*
X754500Y-303242D01*
X754352Y-303131D01*
X754241Y-303038D01*
X754148Y-302945D01*
X754074Y-302871D01*
X754000Y-302834D01*
X753981Y-302797D01*
X753963Y-302779D01*
X753796Y-302557D01*
X753648Y-302334D01*
X753519Y-302094D01*
X753408Y-301853D01*
X753241Y-301390D01*
X753130Y-300927D01*
X753074Y-300724D01*
X753056Y-300520D01*
X753037Y-300353D01*
X753019Y-300205D01*
X753000Y-300075D01*
Y-299909D01*
X753019Y-299520D01*
X753074Y-299150D01*
X753148Y-298798D01*
X753241Y-298483D01*
X753370Y-298187D01*
X753500Y-297909D01*
X753630Y-297650D01*
X753778Y-297428D01*
X753926Y-297224D01*
X754055Y-297039D01*
X754204Y-296891D01*
X754315Y-296761D01*
X754407Y-296668D01*
X754481Y-296594D01*
X754537Y-296557D01*
X754556Y-296539D01*
X754796Y-296354D01*
X755055Y-296206D01*
X755296Y-296057D01*
X755555Y-295946D01*
X756055Y-295761D01*
X756537Y-295650D01*
X756740Y-295613D01*
X756944Y-295576D01*
X757111Y-295557D01*
X757259Y-295539D01*
X757389Y-295520D01*
X757481D01*
X757537D01*
X757555D01*
X757888Y-295539D01*
D02*
G37*
G36*
X757296Y-305575D02*
X757685Y-305649D01*
X758037Y-305760D01*
X758333Y-305871D01*
X758574Y-305982D01*
X758759Y-306093D01*
X758870Y-306167D01*
X758888Y-306186D01*
X758907D01*
X759203Y-306445D01*
X759462Y-306723D01*
X759666Y-307019D01*
X759851Y-307297D01*
X759981Y-307556D01*
X760073Y-307778D01*
X760110Y-307852D01*
X760129Y-307908D01*
X760147Y-307945D01*
Y-307964D01*
X760296Y-307630D01*
X760462Y-307353D01*
X760629Y-307112D01*
X760796Y-306908D01*
X760944Y-306760D01*
X761055Y-306649D01*
X761129Y-306575D01*
X761166Y-306556D01*
X761425Y-306390D01*
X761684Y-306278D01*
X761944Y-306186D01*
X762203Y-306130D01*
X762406Y-306093D01*
X762573Y-306075D01*
X762684D01*
X762703D01*
X762721D01*
X762980Y-306093D01*
X763221Y-306112D01*
X763684Y-306241D01*
X764091Y-306408D01*
X764443Y-306593D01*
X764721Y-306779D01*
X764832Y-306871D01*
X764943Y-306945D01*
X765017Y-307019D01*
X765073Y-307075D01*
X765091Y-307093D01*
X765110Y-307112D01*
X765277Y-307316D01*
X765443Y-307519D01*
X765573Y-307741D01*
X765684Y-307964D01*
X765851Y-308408D01*
X765962Y-308852D01*
X766017Y-309037D01*
X766036Y-309223D01*
X766054Y-309389D01*
X766073Y-309538D01*
X766091Y-309649D01*
Y-309815D01*
X766073Y-310112D01*
X766054Y-310408D01*
X765943Y-310926D01*
X765869Y-311167D01*
X765795Y-311389D01*
X765703Y-311593D01*
X765610Y-311778D01*
X765517Y-311926D01*
X765425Y-312074D01*
X765351Y-312204D01*
X765277Y-312296D01*
X765221Y-312370D01*
X765165Y-312426D01*
X765147Y-312463D01*
X765128Y-312482D01*
X764943Y-312648D01*
X764758Y-312815D01*
X764555Y-312945D01*
X764351Y-313056D01*
X763962Y-313241D01*
X763592Y-313352D01*
X763277Y-313426D01*
X763129Y-313444D01*
X763018Y-313463D01*
X762906Y-313482D01*
X762832D01*
X762795D01*
X762777D01*
X762444Y-313463D01*
X762129Y-313407D01*
X761851Y-313333D01*
X761610Y-313241D01*
X761425Y-313167D01*
X761277Y-313093D01*
X761203Y-313037D01*
X761166Y-313019D01*
X760944Y-312815D01*
X760740Y-312593D01*
X760555Y-312352D01*
X760407Y-312111D01*
X760296Y-311889D01*
X760222Y-311722D01*
X760184Y-311648D01*
X760166Y-311593D01*
X760147Y-311574D01*
Y-311556D01*
X760018Y-311982D01*
X759851Y-312334D01*
X759648Y-312648D01*
X759462Y-312908D01*
X759277Y-313111D01*
X759129Y-313259D01*
X759036Y-313333D01*
X759018Y-313370D01*
X758999D01*
X758666Y-313574D01*
X758314Y-313741D01*
X757981Y-313852D01*
X757648Y-313926D01*
X757352Y-313963D01*
X757222Y-313981D01*
X757111D01*
X757037Y-314000D01*
X756963D01*
X756926D01*
X756907D01*
X756611Y-313981D01*
X756315Y-313944D01*
X756037Y-313889D01*
X755759Y-313815D01*
X755296Y-313630D01*
X755074Y-313537D01*
X754889Y-313426D01*
X754704Y-313315D01*
X754556Y-313222D01*
X754426Y-313111D01*
X754315Y-313037D01*
X754222Y-312963D01*
X754167Y-312908D01*
X754130Y-312870D01*
X754111Y-312852D01*
X753907Y-312630D01*
X753741Y-312389D01*
X753593Y-312130D01*
X753463Y-311870D01*
X753370Y-311630D01*
X753278Y-311371D01*
X753148Y-310871D01*
X753093Y-310648D01*
X753056Y-310445D01*
X753037Y-310260D01*
X753019Y-310093D01*
X753000Y-309963D01*
Y-309778D01*
X753019Y-309426D01*
X753056Y-309112D01*
X753111Y-308797D01*
X753167Y-308500D01*
X753259Y-308241D01*
X753352Y-307982D01*
X753445Y-307741D01*
X753556Y-307538D01*
X753667Y-307353D01*
X753759Y-307186D01*
X753852Y-307056D01*
X753944Y-306927D01*
X754000Y-306834D01*
X754055Y-306779D01*
X754093Y-306741D01*
X754111Y-306723D01*
X754333Y-306519D01*
X754556Y-306334D01*
X754778Y-306186D01*
X755018Y-306056D01*
X755241Y-305927D01*
X755481Y-305834D01*
X755907Y-305704D01*
X756111Y-305649D01*
X756296Y-305612D01*
X756463Y-305593D01*
X756592Y-305575D01*
X756703Y-305556D01*
X756796D01*
X756852D01*
X756870D01*
X757296Y-305575D01*
D02*
G37*
%LPC*%
G36*
X42081Y-11799D02*
X40309D01*
X40131Y-11809D01*
X39841D01*
X39728Y-11818D01*
X39541D01*
X39475Y-11827D01*
X39381D01*
X39353Y-11837D01*
X39316D01*
X39147Y-11865D01*
X38997Y-11912D01*
X38866Y-11968D01*
X38763Y-12024D01*
X38688Y-12080D01*
X38632Y-12127D01*
X38594Y-12165D01*
X38585Y-12174D01*
X38500Y-12287D01*
X38435Y-12408D01*
X38397Y-12530D01*
X38360Y-12643D01*
X38341Y-12746D01*
X38332Y-12821D01*
Y-12877D01*
Y-12887D01*
Y-12896D01*
X38341Y-13065D01*
X38379Y-13214D01*
X38425Y-13346D01*
X38472Y-13449D01*
X38528Y-13542D01*
X38575Y-13599D01*
X38613Y-13646D01*
X38622Y-13655D01*
X38735Y-13749D01*
X38866Y-13824D01*
X38988Y-13889D01*
X39119Y-13927D01*
X39232Y-13955D01*
X39316Y-13983D01*
X39353D01*
X39381Y-13992D01*
X39466D01*
X39541Y-14002D01*
X39634D01*
X39738Y-14011D01*
X39972D01*
X40216Y-14021D01*
X42081D01*
Y-11799D01*
D02*
G37*
G36*
Y-15623D02*
X40281D01*
X40066Y-15633D01*
X39869D01*
X39691Y-15642D01*
X39531Y-15651D01*
X39391Y-15670D01*
X39269Y-15680D01*
X39166Y-15689D01*
X39072Y-15708D01*
X38997Y-15717D01*
X38932Y-15726D01*
X38885Y-15745D01*
X38847Y-15754D01*
X38819D01*
X38800Y-15764D01*
X38660Y-15820D01*
X38538Y-15895D01*
X38435Y-15961D01*
X38341Y-16036D01*
X38275Y-16101D01*
X38229Y-16157D01*
X38201Y-16195D01*
X38191Y-16204D01*
X38116Y-16326D01*
X38069Y-16448D01*
X38032Y-16570D01*
X38004Y-16682D01*
X37985Y-16786D01*
X37975Y-16860D01*
Y-16917D01*
Y-16926D01*
Y-16935D01*
X37985Y-17113D01*
X38022Y-17273D01*
X38060Y-17413D01*
X38116Y-17535D01*
X38163Y-17629D01*
X38210Y-17695D01*
X38247Y-17732D01*
X38257Y-17751D01*
X38369Y-17854D01*
X38482Y-17938D01*
X38594Y-18004D01*
X38707Y-18051D01*
X38810Y-18088D01*
X38885Y-18107D01*
X38941Y-18126D01*
X38960D01*
X39025Y-18135D01*
X39100Y-18145D01*
X39185Y-18154D01*
X39288D01*
X39503Y-18173D01*
X39728D01*
X39944Y-18182D01*
X42081D01*
Y-15623D01*
D02*
G37*
G36*
X454822Y-10196D02*
D01*
Y-19803D01*
X451092Y-10196D01*
X449021D01*
X445178Y-19803D01*
D01*
X447296D01*
X448130Y-17620D01*
X451973D01*
X452770Y-19803D01*
X454822D01*
Y-10196D01*
D02*
G37*
%LPD*%
G36*
X451382Y-15998D02*
X448749D01*
X450080Y-12437D01*
X451382Y-15998D01*
D02*
G37*
%LPC*%
G36*
X204015Y-480201D02*
X200187D01*
X200076Y-480215D01*
X199813Y-480229D01*
X199522Y-480243D01*
X199216Y-480285D01*
X198925Y-480326D01*
X198662Y-480396D01*
X198648D01*
X198620Y-480410D01*
X198578Y-480423D01*
X198523Y-480437D01*
X198357Y-480507D01*
X198162Y-480604D01*
X197941Y-480728D01*
X197691Y-480881D01*
X197455Y-481061D01*
X197219Y-481283D01*
X197206D01*
X197192Y-481311D01*
X197122Y-481394D01*
X197011Y-481533D01*
X196887Y-481713D01*
X196734Y-481935D01*
X196581Y-482199D01*
X196429Y-482504D01*
X196304Y-482836D01*
Y-482850D01*
X196290Y-482878D01*
X196276Y-482934D01*
X196249Y-483003D01*
X196235Y-483086D01*
X196207Y-483197D01*
X196179Y-483322D01*
X196138Y-483461D01*
X196110Y-483613D01*
X196082Y-483793D01*
X196054Y-483974D01*
X196041Y-484182D01*
X195999Y-484612D01*
X195985Y-485097D01*
Y-484612D01*
Y-485097D01*
Y-485291D01*
X195999Y-485402D01*
Y-485513D01*
X196013Y-485652D01*
X196027Y-485804D01*
X196054Y-486123D01*
X196110Y-486456D01*
X196193Y-486803D01*
X196290Y-487136D01*
Y-487150D01*
X196304Y-487177D01*
X196332Y-487233D01*
X196360Y-487316D01*
X196387Y-487399D01*
X196443Y-487496D01*
X196554Y-487746D01*
X196692Y-488009D01*
X196873Y-488301D01*
X197081Y-488578D01*
X197316Y-488842D01*
X197344Y-488869D01*
X197414Y-488925D01*
X197525Y-489008D01*
X197677Y-489119D01*
X197871Y-489244D01*
X198093Y-489369D01*
X198370Y-489493D01*
X198676Y-489604D01*
X198689D01*
X198703Y-489618D01*
X198745D01*
X198787Y-489632D01*
X198939Y-489660D01*
X199133Y-489701D01*
X199369Y-489743D01*
X199660Y-489771D01*
X200007Y-489785D01*
X200381Y-489798D01*
X195985D01*
D01*
X204015D01*
Y-480201D01*
D02*
G37*
%LPD*%
G36*
X202073Y-488176D02*
X200368D01*
X200187Y-488162D01*
X199993D01*
X199799Y-488134D01*
X199619Y-488120D01*
X199466Y-488093D01*
X199438D01*
X199383Y-488065D01*
X199300Y-488037D01*
X199189Y-487995D01*
X199064Y-487940D01*
X198939Y-487871D01*
X198814Y-487788D01*
X198689Y-487690D01*
X198676Y-487677D01*
X198634Y-487635D01*
X198578Y-487566D01*
X198509Y-487468D01*
X198440Y-487344D01*
X198343Y-487191D01*
X198273Y-486997D01*
X198190Y-486775D01*
Y-486761D01*
X198176Y-486747D01*
Y-486706D01*
X198162Y-486650D01*
X198135Y-486595D01*
X198121Y-486512D01*
X198079Y-486304D01*
X198051Y-486054D01*
X198010Y-485763D01*
X197996Y-485402D01*
X197982Y-485014D01*
Y-485000D01*
Y-484958D01*
Y-484903D01*
Y-484833D01*
Y-484737D01*
X197996Y-484626D01*
X198010Y-484390D01*
X198038Y-484112D01*
X198065Y-483821D01*
X198121Y-483558D01*
X198190Y-483308D01*
Y-483294D01*
X198204Y-483280D01*
X198232Y-483211D01*
X198273Y-483100D01*
X198329Y-482961D01*
X198412Y-482823D01*
X198509Y-482670D01*
X198620Y-482518D01*
X198745Y-482379D01*
X198759Y-482365D01*
X198800Y-482323D01*
X198884Y-482268D01*
X198981Y-482199D01*
X199119Y-482115D01*
X199272Y-482046D01*
X199438Y-481977D01*
X199632Y-481921D01*
X199646D01*
X199716Y-481907D01*
X199827Y-481893D01*
X199979Y-481866D01*
X200076D01*
X200201Y-481852D01*
X200326D01*
X200465Y-481838D01*
X200631D01*
X200811Y-481824D01*
X202073D01*
Y-488176D01*
D02*
G37*
%LPC*%
G36*
X251092Y-10196D02*
X249021D01*
X245178Y-19803D01*
X247296D01*
X248130Y-17620D01*
X251973D01*
X252770Y-19803D01*
X254822D01*
X251092Y-10196D01*
D02*
G37*
%LPD*%
G36*
X251383Y-15998D02*
X248749D01*
X250080Y-12437D01*
X251383Y-15998D01*
D02*
G37*
%LPC*%
G36*
X552081Y-11799D02*
X550309D01*
X550131Y-11809D01*
X549841D01*
X549728Y-11818D01*
X549541D01*
X549475Y-11827D01*
X549381D01*
X549353Y-11837D01*
X549316D01*
X549147Y-11865D01*
X548997Y-11912D01*
X548866Y-11968D01*
X548763Y-12024D01*
X548688Y-12080D01*
X548632Y-12127D01*
X548594Y-12165D01*
X548585Y-12174D01*
X548500Y-12287D01*
X548435Y-12408D01*
X548397Y-12530D01*
X548360Y-12643D01*
X548341Y-12746D01*
X548332Y-12821D01*
Y-12877D01*
Y-12887D01*
Y-12896D01*
X548341Y-13065D01*
X548379Y-13214D01*
X548425Y-13346D01*
X548472Y-13449D01*
X548529Y-13542D01*
X548575Y-13599D01*
X548613Y-13646D01*
X548622Y-13655D01*
X548735Y-13749D01*
X548866Y-13824D01*
X548988Y-13889D01*
X549119Y-13927D01*
X549231Y-13955D01*
X549316Y-13983D01*
X549353D01*
X549381Y-13992D01*
X549466D01*
X549541Y-14002D01*
X549635D01*
X549738Y-14011D01*
X549972D01*
X550216Y-14021D01*
X552081D01*
Y-11799D01*
D02*
G37*
G36*
Y-15623D02*
X550281D01*
X550066Y-15633D01*
X549869D01*
X549691Y-15642D01*
X549531Y-15651D01*
X549391Y-15670D01*
X549269Y-15680D01*
X549166Y-15689D01*
X549072Y-15708D01*
X548997Y-15717D01*
X548932Y-15726D01*
X548885Y-15745D01*
X548847Y-15754D01*
X548819D01*
X548800Y-15764D01*
X548660Y-15820D01*
X548538Y-15895D01*
X548435Y-15961D01*
X548341Y-16036D01*
X548275Y-16101D01*
X548229Y-16157D01*
X548200Y-16195D01*
X548191Y-16204D01*
X548116Y-16326D01*
X548069Y-16448D01*
X548032Y-16570D01*
X548004Y-16682D01*
X547985Y-16786D01*
X547976Y-16860D01*
Y-16917D01*
Y-16926D01*
Y-16935D01*
X547985Y-17113D01*
X548022Y-17273D01*
X548060Y-17413D01*
X548116Y-17535D01*
X548163Y-17629D01*
X548210Y-17695D01*
X548247Y-17732D01*
X548257Y-17751D01*
X548369Y-17854D01*
X548482Y-17938D01*
X548594Y-18004D01*
X548707Y-18051D01*
X548810Y-18088D01*
X548885Y-18107D01*
X548941Y-18126D01*
X548960D01*
X549025Y-18135D01*
X549100Y-18145D01*
X549185Y-18154D01*
X549288D01*
X549503Y-18173D01*
X549728D01*
X549944Y-18182D01*
X552081D01*
Y-15623D01*
D02*
G37*
G36*
X352081Y-11799D02*
X350309D01*
X350131Y-11809D01*
X349841D01*
X349728Y-11818D01*
X349541D01*
X349475Y-11827D01*
X349381D01*
X349353Y-11837D01*
X349316D01*
X349147Y-11865D01*
X348997Y-11912D01*
X348866Y-11968D01*
X348763Y-12024D01*
X348688Y-12080D01*
X348632Y-12127D01*
X348594Y-12165D01*
X348585Y-12174D01*
X348500Y-12287D01*
X348435Y-12408D01*
X348397Y-12530D01*
X348360Y-12643D01*
X348341Y-12746D01*
X348332Y-12821D01*
Y-12877D01*
Y-12887D01*
Y-12896D01*
X348341Y-13065D01*
X348379Y-13214D01*
X348425Y-13346D01*
X348472Y-13449D01*
X348529Y-13542D01*
X348575Y-13599D01*
X348613Y-13646D01*
X348622Y-13655D01*
X348735Y-13749D01*
X348866Y-13824D01*
X348988Y-13889D01*
X349119Y-13927D01*
X349231Y-13955D01*
X349316Y-13983D01*
X349353D01*
X349381Y-13992D01*
X349466D01*
X349541Y-14002D01*
X349635D01*
X349738Y-14011D01*
X349972D01*
X350216Y-14021D01*
X352081D01*
Y-11799D01*
D02*
G37*
G36*
Y-15623D02*
X350281D01*
X350066Y-15633D01*
X349869D01*
X349691Y-15642D01*
X349531Y-15651D01*
X349391Y-15670D01*
X349269Y-15680D01*
X349166Y-15689D01*
X349072Y-15708D01*
X348997Y-15717D01*
X348932Y-15726D01*
X348885Y-15745D01*
X348847Y-15754D01*
X348819D01*
X348800Y-15764D01*
X348660Y-15820D01*
X348538Y-15895D01*
X348435Y-15961D01*
X348341Y-16036D01*
X348275Y-16101D01*
X348229Y-16157D01*
X348200Y-16195D01*
X348191Y-16204D01*
X348116Y-16326D01*
X348069Y-16448D01*
X348032Y-16570D01*
X348004Y-16682D01*
X347985Y-16786D01*
X347976Y-16860D01*
Y-16917D01*
Y-16926D01*
Y-16935D01*
X347985Y-17113D01*
X348022Y-17273D01*
X348060Y-17413D01*
X348116Y-17535D01*
X348163Y-17629D01*
X348210Y-17695D01*
X348247Y-17732D01*
X348257Y-17751D01*
X348369Y-17854D01*
X348482Y-17938D01*
X348594Y-18004D01*
X348707Y-18051D01*
X348810Y-18088D01*
X348885Y-18107D01*
X348941Y-18126D01*
X348960D01*
X349025Y-18135D01*
X349100Y-18145D01*
X349185Y-18154D01*
X349288D01*
X349503Y-18173D01*
X349728D01*
X349944Y-18182D01*
X352081D01*
Y-15623D01*
D02*
G37*
G36*
X101092Y-10196D02*
X99021D01*
X95178Y-19803D01*
X97296D01*
X98130Y-17620D01*
X101973D01*
X102770Y-19803D01*
X104822D01*
X101092Y-10196D01*
D02*
G37*
%LPD*%
G36*
X101382Y-15998D02*
X98749D01*
X100080Y-12437D01*
X101382Y-15998D01*
D02*
G37*
%LPC*%
G36*
X762822Y-10196D02*
D01*
Y-19803D01*
X759092Y-10196D01*
X757021D01*
X753178Y-19803D01*
D01*
X755296D01*
X756130Y-17620D01*
X759973D01*
X760770Y-19803D01*
X762822D01*
Y-10196D01*
D02*
G37*
%LPD*%
G36*
X759382Y-15998D02*
X756749D01*
X758080Y-12437D01*
X759382Y-15998D01*
D02*
G37*
%LPC*%
G36*
X554015Y-480201D02*
X550187D01*
X550076Y-480215D01*
X549813Y-480229D01*
X549521Y-480243D01*
X549216Y-480285D01*
X548925Y-480326D01*
X548662Y-480396D01*
X548648D01*
X548620Y-480410D01*
X548578Y-480423D01*
X548523Y-480437D01*
X548357Y-480507D01*
X548162Y-480604D01*
X547940Y-480728D01*
X547691Y-480881D01*
X547455Y-481061D01*
X547219Y-481283D01*
X547206D01*
X547192Y-481311D01*
X547122Y-481394D01*
X547011Y-481533D01*
X546886Y-481713D01*
X546734Y-481935D01*
X546581Y-482199D01*
X546429Y-482504D01*
X546304Y-482836D01*
Y-482850D01*
X546290Y-482878D01*
X546276Y-482934D01*
X546249Y-483003D01*
X546235Y-483086D01*
X546207Y-483197D01*
X546179Y-483322D01*
X546138Y-483461D01*
X546110Y-483613D01*
X546082Y-483793D01*
X546054Y-483974D01*
X546041Y-484182D01*
X545999Y-484612D01*
X545985Y-485097D01*
Y-485014D01*
Y-485291D01*
X545999Y-485402D01*
Y-485513D01*
X546013Y-485652D01*
X546027Y-485804D01*
X546054Y-486123D01*
X546110Y-486456D01*
X546193Y-486803D01*
X546290Y-487136D01*
Y-487150D01*
X546304Y-487177D01*
X546332Y-487233D01*
X546359Y-487316D01*
X546387Y-487399D01*
X546443Y-487496D01*
X546554Y-487746D01*
X546692Y-488009D01*
X546873Y-488301D01*
X547081Y-488578D01*
X547317Y-488842D01*
X547344Y-488869D01*
X547413Y-488925D01*
X547524Y-489008D01*
X547677Y-489119D01*
X547871Y-489244D01*
X548093Y-489369D01*
X548371Y-489493D01*
X548676Y-489604D01*
X548689D01*
X548703Y-489618D01*
X548745D01*
X548787Y-489632D01*
X548939Y-489660D01*
X549133Y-489701D01*
X549369Y-489743D01*
X549660Y-489771D01*
X550007Y-489785D01*
X550381Y-489798D01*
X545985D01*
Y-485291D01*
Y-489798D01*
D01*
X554015D01*
Y-480201D01*
D02*
G37*
%LPD*%
G36*
X552073Y-488176D02*
X550368D01*
X550187Y-488162D01*
X549993D01*
X549799Y-488134D01*
X549619Y-488120D01*
X549466Y-488093D01*
X549438D01*
X549383Y-488065D01*
X549300Y-488037D01*
X549189Y-487995D01*
X549064Y-487940D01*
X548939Y-487871D01*
X548814Y-487788D01*
X548689Y-487690D01*
X548676Y-487677D01*
X548634Y-487635D01*
X548578Y-487566D01*
X548509Y-487468D01*
X548440Y-487344D01*
X548343Y-487191D01*
X548273Y-486997D01*
X548190Y-486775D01*
Y-486761D01*
X548176Y-486747D01*
Y-486706D01*
X548162Y-486650D01*
X548135Y-486595D01*
X548121Y-486512D01*
X548079Y-486304D01*
X548051Y-486054D01*
X548010Y-485763D01*
X547996Y-485402D01*
X547982Y-485014D01*
Y-485000D01*
Y-484958D01*
Y-484903D01*
Y-484833D01*
Y-484737D01*
X547996Y-484626D01*
X548010Y-484390D01*
X548038Y-484112D01*
X548065Y-483821D01*
X548121Y-483558D01*
X548190Y-483308D01*
Y-483294D01*
X548204Y-483280D01*
X548232Y-483211D01*
X548273Y-483100D01*
X548329Y-482961D01*
X548412Y-482823D01*
X548509Y-482670D01*
X548620Y-482518D01*
X548745Y-482379D01*
X548759Y-482365D01*
X548800Y-482323D01*
X548884Y-482268D01*
X548981Y-482199D01*
X549119Y-482115D01*
X549272Y-482046D01*
X549438Y-481977D01*
X549632Y-481921D01*
X549646D01*
X549716Y-481907D01*
X549827Y-481893D01*
X549979Y-481866D01*
X550076D01*
X550201Y-481852D01*
X550326D01*
X550465Y-481838D01*
X550631D01*
X550811Y-481824D01*
X552073D01*
Y-488176D01*
D02*
G37*
%LPC*%
G36*
X202081Y-11799D02*
X200309D01*
X200131Y-11809D01*
X199841D01*
X199728Y-11818D01*
X199541D01*
X199475Y-11827D01*
X199381D01*
X199353Y-11837D01*
X199316D01*
X199147Y-11865D01*
X198997Y-11912D01*
X198866Y-11968D01*
X198763Y-12024D01*
X198688Y-12080D01*
X198632Y-12127D01*
X198594Y-12165D01*
X198585Y-12174D01*
X198500Y-12287D01*
X198435Y-12408D01*
X198397Y-12530D01*
X198360Y-12643D01*
X198341Y-12746D01*
X198332Y-12821D01*
Y-12877D01*
Y-12887D01*
Y-12896D01*
X198341Y-13065D01*
X198379Y-13214D01*
X198425Y-13346D01*
X198472Y-13449D01*
X198528Y-13542D01*
X198575Y-13599D01*
X198613Y-13646D01*
X198622Y-13655D01*
X198735Y-13749D01*
X198866Y-13824D01*
X198988Y-13889D01*
X199119Y-13927D01*
X199231Y-13955D01*
X199316Y-13983D01*
X199353D01*
X199381Y-13992D01*
X199466D01*
X199541Y-14002D01*
X199634D01*
X199738Y-14011D01*
X199972D01*
X200216Y-14021D01*
X202081D01*
Y-11799D01*
D02*
G37*
G36*
Y-15623D02*
X200281D01*
X200066Y-15633D01*
X199869D01*
X199691Y-15642D01*
X199531Y-15651D01*
X199391Y-15670D01*
X199269Y-15680D01*
X199166Y-15689D01*
X199072Y-15708D01*
X198997Y-15717D01*
X198932Y-15726D01*
X198885Y-15745D01*
X198847Y-15754D01*
X198819D01*
X198800Y-15764D01*
X198660Y-15820D01*
X198538Y-15895D01*
X198435Y-15961D01*
X198341Y-16036D01*
X198275Y-16101D01*
X198229Y-16157D01*
X198200Y-16195D01*
X198191Y-16204D01*
X198116Y-16326D01*
X198069Y-16448D01*
X198032Y-16570D01*
X198004Y-16682D01*
X197985Y-16786D01*
X197976Y-16860D01*
Y-16917D01*
Y-16926D01*
Y-16935D01*
X197985Y-17113D01*
X198022Y-17273D01*
X198060Y-17413D01*
X198116Y-17535D01*
X198163Y-17629D01*
X198210Y-17695D01*
X198247Y-17732D01*
X198257Y-17751D01*
X198369Y-17854D01*
X198482Y-17938D01*
X198594Y-18004D01*
X198707Y-18051D01*
X198810Y-18088D01*
X198885Y-18107D01*
X198941Y-18126D01*
X198960D01*
X199025Y-18135D01*
X199100Y-18145D01*
X199185Y-18154D01*
X199288D01*
X199503Y-18173D01*
X199728D01*
X199944Y-18182D01*
X202081D01*
Y-15623D01*
D02*
G37*
G36*
X604822Y-10196D02*
D01*
Y-19803D01*
X601092Y-10196D01*
X599021D01*
X595178Y-19803D01*
D01*
X597296D01*
X598130Y-17620D01*
X601973D01*
X602770Y-19803D01*
X604822D01*
Y-10196D01*
D02*
G37*
%LPD*%
G36*
X601382Y-15998D02*
X598749D01*
X600080Y-12437D01*
X601382Y-15998D01*
D02*
G37*
%LPC*%
G36*
X704015Y-480201D02*
X695985D01*
X700187D01*
X700076Y-480215D01*
X699813Y-480229D01*
X699521Y-480243D01*
X699216Y-480285D01*
X698925Y-480326D01*
X698662Y-480396D01*
X698648D01*
X698620Y-480410D01*
X698578Y-480423D01*
X698523Y-480437D01*
X698357Y-480507D01*
X698162Y-480604D01*
X697941Y-480728D01*
X697691Y-480881D01*
X697455Y-481061D01*
X697219Y-481283D01*
X697206D01*
X697192Y-481311D01*
X697122Y-481394D01*
X697011Y-481533D01*
X696887Y-481713D01*
X696734Y-481935D01*
X696581Y-482199D01*
X696429Y-482504D01*
X696304Y-482836D01*
Y-482850D01*
X696290Y-482878D01*
X696276Y-482934D01*
X696249Y-483003D01*
X696235Y-483086D01*
X696207Y-483197D01*
X696179Y-483322D01*
X696138Y-483461D01*
X696110Y-483613D01*
X696082Y-483793D01*
X696054Y-483974D01*
X696041Y-484182D01*
X695999Y-484612D01*
X695985Y-485097D01*
Y-485014D01*
Y-485291D01*
X695999Y-485402D01*
Y-485513D01*
X696013Y-485652D01*
X696027Y-485804D01*
X696054Y-486123D01*
X696110Y-486456D01*
X696193Y-486803D01*
X696290Y-487136D01*
Y-487150D01*
X696304Y-487177D01*
X696332Y-487233D01*
X696359Y-487316D01*
X696387Y-487399D01*
X696443Y-487496D01*
X696554Y-487746D01*
X696692Y-488009D01*
X696873Y-488301D01*
X697081Y-488578D01*
X697317Y-488842D01*
X697344Y-488869D01*
X697413Y-488925D01*
X697524Y-489008D01*
X697677Y-489119D01*
X697871Y-489244D01*
X698093Y-489369D01*
X698371Y-489493D01*
X698676Y-489604D01*
X698689D01*
X698703Y-489618D01*
X698745D01*
X698786Y-489632D01*
X698939Y-489660D01*
X699133Y-489701D01*
X699369Y-489743D01*
X699660Y-489771D01*
X700007Y-489785D01*
X700381Y-489798D01*
X704015D01*
Y-480201D01*
D02*
G37*
%LPD*%
G36*
X702073Y-488176D02*
X700368D01*
X700187Y-488162D01*
X699993D01*
X699799Y-488134D01*
X699619Y-488120D01*
X699466Y-488093D01*
X699438D01*
X699383Y-488065D01*
X699300Y-488037D01*
X699189Y-487995D01*
X699064Y-487940D01*
X698939Y-487871D01*
X698814Y-487788D01*
X698689Y-487690D01*
X698676Y-487677D01*
X698634Y-487635D01*
X698578Y-487566D01*
X698509Y-487468D01*
X698440Y-487344D01*
X698343Y-487191D01*
X698273Y-486997D01*
X698190Y-486775D01*
Y-486761D01*
X698176Y-486747D01*
Y-486706D01*
X698162Y-486650D01*
X698135Y-486595D01*
X698121Y-486512D01*
X698079Y-486304D01*
X698052Y-486054D01*
X698010Y-485763D01*
X697996Y-485402D01*
X697982Y-485014D01*
Y-485000D01*
Y-484958D01*
Y-484903D01*
Y-484833D01*
Y-484737D01*
X697996Y-484626D01*
X698010Y-484390D01*
X698038Y-484112D01*
X698065Y-483821D01*
X698121Y-483558D01*
X698190Y-483308D01*
Y-483294D01*
X698204Y-483280D01*
X698232Y-483211D01*
X698273Y-483100D01*
X698329Y-482961D01*
X698412Y-482823D01*
X698509Y-482670D01*
X698620Y-482518D01*
X698745Y-482379D01*
X698759Y-482365D01*
X698800Y-482323D01*
X698884Y-482268D01*
X698981Y-482199D01*
X699119Y-482115D01*
X699272Y-482046D01*
X699438Y-481977D01*
X699632Y-481921D01*
X699646D01*
X699716Y-481907D01*
X699827Y-481893D01*
X699979Y-481866D01*
X700076D01*
X700201Y-481852D01*
X700326D01*
X700465Y-481838D01*
X700631D01*
X700811Y-481824D01*
X702073D01*
Y-488176D01*
D02*
G37*
%LPC*%
G36*
X354015Y-480201D02*
X345985D01*
X350187D01*
X350076Y-480215D01*
X349813Y-480229D01*
X349521Y-480243D01*
X349216Y-480285D01*
X348925Y-480326D01*
X348662Y-480396D01*
X348648D01*
X348620Y-480410D01*
X348578Y-480423D01*
X348523Y-480437D01*
X348357Y-480507D01*
X348162Y-480604D01*
X347940Y-480728D01*
X347691Y-480881D01*
X347455Y-481061D01*
X347219Y-481283D01*
X347206D01*
X347192Y-481311D01*
X347122Y-481394D01*
X347011Y-481533D01*
X346886Y-481713D01*
X346734Y-481935D01*
X346581Y-482199D01*
X346429Y-482504D01*
X346304Y-482836D01*
Y-482850D01*
X346290Y-482878D01*
X346276Y-482934D01*
X346249Y-483003D01*
X346235Y-483086D01*
X346207Y-483197D01*
X346179Y-483322D01*
X346138Y-483461D01*
X346110Y-483613D01*
X346082Y-483793D01*
X346054Y-483974D01*
X346040Y-484182D01*
X345999Y-484612D01*
X345985Y-485097D01*
Y-485014D01*
Y-485291D01*
X345999Y-485402D01*
Y-485513D01*
X346013Y-485652D01*
X346027Y-485804D01*
X346054Y-486123D01*
X346110Y-486456D01*
X346193Y-486803D01*
X346290Y-487136D01*
Y-487150D01*
X346304Y-487177D01*
X346332Y-487233D01*
X346359Y-487316D01*
X346387Y-487399D01*
X346443Y-487496D01*
X346554Y-487746D01*
X346692Y-488009D01*
X346873Y-488301D01*
X347081Y-488578D01*
X347316Y-488842D01*
X347344Y-488869D01*
X347413Y-488925D01*
X347524Y-489008D01*
X347677Y-489119D01*
X347871Y-489244D01*
X348093Y-489369D01*
X348370Y-489493D01*
X348675Y-489604D01*
X348689D01*
X348703Y-489618D01*
X348745D01*
X348787Y-489632D01*
X348939Y-489660D01*
X349133Y-489701D01*
X349369Y-489743D01*
X349660Y-489771D01*
X350007Y-489785D01*
X350381Y-489798D01*
X354015D01*
Y-480201D01*
D02*
G37*
%LPD*%
G36*
X352073Y-488176D02*
X350368D01*
X350187Y-488162D01*
X349993D01*
X349799Y-488134D01*
X349619Y-488120D01*
X349466Y-488093D01*
X349438D01*
X349383Y-488065D01*
X349300Y-488037D01*
X349189Y-487995D01*
X349064Y-487940D01*
X348939Y-487871D01*
X348814Y-487788D01*
X348689Y-487690D01*
X348675Y-487677D01*
X348634Y-487635D01*
X348578Y-487566D01*
X348509Y-487468D01*
X348440Y-487344D01*
X348343Y-487191D01*
X348273Y-486997D01*
X348190Y-486775D01*
Y-486761D01*
X348176Y-486747D01*
Y-486706D01*
X348162Y-486650D01*
X348135Y-486595D01*
X348121Y-486512D01*
X348079Y-486304D01*
X348051Y-486054D01*
X348010Y-485763D01*
X347996Y-485402D01*
X347982Y-485014D01*
Y-485000D01*
Y-484958D01*
Y-484903D01*
Y-484833D01*
Y-484737D01*
X347996Y-484626D01*
X348010Y-484390D01*
X348038Y-484112D01*
X348065Y-483821D01*
X348121Y-483558D01*
X348190Y-483308D01*
Y-483294D01*
X348204Y-483280D01*
X348232Y-483211D01*
X348273Y-483100D01*
X348329Y-482961D01*
X348412Y-482823D01*
X348509Y-482670D01*
X348620Y-482518D01*
X348745Y-482379D01*
X348759Y-482365D01*
X348800Y-482323D01*
X348884Y-482268D01*
X348981Y-482199D01*
X349119Y-482115D01*
X349272Y-482046D01*
X349438Y-481977D01*
X349632Y-481921D01*
X349646D01*
X349716Y-481907D01*
X349827Y-481893D01*
X349979Y-481866D01*
X350076D01*
X350201Y-481852D01*
X350326D01*
X350465Y-481838D01*
X350631D01*
X350811Y-481824D01*
X352073D01*
Y-488176D01*
D02*
G37*
%LPC*%
G36*
X702081Y-11799D02*
X700309D01*
X700131Y-11809D01*
X699841D01*
X699728Y-11818D01*
X699541D01*
X699475Y-11827D01*
X699381D01*
X699353Y-11837D01*
X699316D01*
X699147Y-11865D01*
X698997Y-11912D01*
X698866Y-11968D01*
X698763Y-12024D01*
X698688Y-12080D01*
X698632Y-12127D01*
X698594Y-12165D01*
X698585Y-12174D01*
X698500Y-12287D01*
X698435Y-12408D01*
X698397Y-12530D01*
X698360Y-12643D01*
X698341Y-12746D01*
X698332Y-12821D01*
Y-12877D01*
Y-12887D01*
Y-12896D01*
X698341Y-13065D01*
X698379Y-13214D01*
X698426Y-13346D01*
X698472Y-13449D01*
X698529Y-13542D01*
X698575Y-13599D01*
X698613Y-13646D01*
X698622Y-13655D01*
X698735Y-13749D01*
X698866Y-13824D01*
X698988Y-13889D01*
X699119Y-13927D01*
X699231Y-13955D01*
X699316Y-13983D01*
X699353D01*
X699381Y-13992D01*
X699466D01*
X699541Y-14002D01*
X699634D01*
X699738Y-14011D01*
X699972D01*
X700216Y-14021D01*
X702081D01*
Y-11799D01*
D02*
G37*
G36*
Y-15623D02*
X700281D01*
X700066Y-15633D01*
X699869D01*
X699691Y-15642D01*
X699531Y-15651D01*
X699391Y-15670D01*
X699269Y-15680D01*
X699166Y-15689D01*
X699072Y-15708D01*
X698997Y-15717D01*
X698932Y-15726D01*
X698885Y-15745D01*
X698847Y-15754D01*
X698819D01*
X698800Y-15764D01*
X698660Y-15820D01*
X698538Y-15895D01*
X698435Y-15961D01*
X698341Y-16036D01*
X698276Y-16101D01*
X698229Y-16157D01*
X698201Y-16195D01*
X698191Y-16204D01*
X698116Y-16326D01*
X698069Y-16448D01*
X698032Y-16570D01*
X698004Y-16682D01*
X697985Y-16786D01*
X697976Y-16860D01*
Y-16917D01*
Y-16926D01*
Y-16935D01*
X697985Y-17113D01*
X698022Y-17273D01*
X698060Y-17413D01*
X698116Y-17535D01*
X698163Y-17629D01*
X698210Y-17695D01*
X698247Y-17732D01*
X698257Y-17751D01*
X698369Y-17854D01*
X698482Y-17938D01*
X698594Y-18004D01*
X698707Y-18051D01*
X698810Y-18088D01*
X698885Y-18107D01*
X698941Y-18126D01*
X698960D01*
X699025Y-18135D01*
X699100Y-18145D01*
X699185Y-18154D01*
X699288D01*
X699503Y-18173D01*
X699728D01*
X699944Y-18182D01*
X702081D01*
Y-15623D01*
D02*
G37*
G36*
X46015Y-480201D02*
X37985D01*
X42187D01*
X42076Y-480215D01*
X41813Y-480229D01*
X41522Y-480243D01*
X41217Y-480285D01*
X40925Y-480326D01*
X40662Y-480396D01*
X40648D01*
X40620Y-480410D01*
X40579Y-480423D01*
X40523Y-480437D01*
X40357Y-480507D01*
X40163Y-480604D01*
X39941Y-480728D01*
X39691Y-480881D01*
X39455Y-481061D01*
X39220Y-481283D01*
X39206D01*
X39192Y-481311D01*
X39122Y-481394D01*
X39011Y-481533D01*
X38887Y-481713D01*
X38734Y-481935D01*
X38582Y-482199D01*
X38429Y-482504D01*
X38304Y-482836D01*
Y-482850D01*
X38290Y-482878D01*
X38276Y-482934D01*
X38249Y-483003D01*
X38235Y-483086D01*
X38207Y-483197D01*
X38179Y-483322D01*
X38138Y-483461D01*
X38110Y-483613D01*
X38082Y-483793D01*
X38054Y-483974D01*
X38041Y-484182D01*
X37999Y-484612D01*
X37985Y-485097D01*
Y-484612D01*
Y-485097D01*
Y-485291D01*
X37999Y-485402D01*
Y-485513D01*
X38013Y-485652D01*
X38027Y-485804D01*
X38054Y-486123D01*
X38110Y-486456D01*
X38193Y-486803D01*
X38290Y-487136D01*
Y-487150D01*
X38304Y-487177D01*
X38332Y-487233D01*
X38360Y-487316D01*
X38387Y-487399D01*
X38443Y-487496D01*
X38554Y-487746D01*
X38693Y-488009D01*
X38873Y-488301D01*
X39081Y-488578D01*
X39316Y-488842D01*
X39344Y-488869D01*
X39414Y-488925D01*
X39525Y-489008D01*
X39677Y-489119D01*
X39871Y-489244D01*
X40093Y-489369D01*
X40370Y-489493D01*
X40676Y-489604D01*
X40690D01*
X40703Y-489618D01*
X40745D01*
X40787Y-489632D01*
X40939Y-489660D01*
X41133Y-489701D01*
X41369Y-489743D01*
X41660Y-489771D01*
X42007Y-489785D01*
X42381Y-489798D01*
X46015D01*
Y-480201D01*
D02*
G37*
%LPD*%
G36*
X44073Y-488176D02*
X42368D01*
X42187Y-488162D01*
X41993D01*
X41799Y-488134D01*
X41619Y-488120D01*
X41466Y-488093D01*
X41438D01*
X41383Y-488065D01*
X41300Y-488037D01*
X41189Y-487995D01*
X41064Y-487940D01*
X40939Y-487871D01*
X40814Y-487788D01*
X40690Y-487690D01*
X40676Y-487677D01*
X40634Y-487635D01*
X40579Y-487566D01*
X40509Y-487468D01*
X40440Y-487344D01*
X40343Y-487191D01*
X40273Y-486997D01*
X40190Y-486775D01*
Y-486761D01*
X40176Y-486747D01*
Y-486706D01*
X40163Y-486650D01*
X40135Y-486595D01*
X40121Y-486512D01*
X40079Y-486304D01*
X40052Y-486054D01*
X40010Y-485763D01*
X39996Y-485402D01*
X39982Y-485014D01*
Y-485000D01*
Y-484958D01*
Y-484903D01*
Y-484833D01*
Y-484737D01*
X39996Y-484626D01*
X40010Y-484390D01*
X40038Y-484112D01*
X40065Y-483821D01*
X40121Y-483558D01*
X40190Y-483308D01*
Y-483294D01*
X40204Y-483280D01*
X40232Y-483211D01*
X40273Y-483100D01*
X40329Y-482961D01*
X40412Y-482823D01*
X40509Y-482670D01*
X40620Y-482518D01*
X40745Y-482379D01*
X40759Y-482365D01*
X40800Y-482323D01*
X40884Y-482268D01*
X40981Y-482199D01*
X41119Y-482115D01*
X41272Y-482046D01*
X41438Y-481977D01*
X41633Y-481921D01*
X41646D01*
X41716Y-481907D01*
X41827Y-481893D01*
X41979Y-481866D01*
X42076D01*
X42201Y-481852D01*
X42326D01*
X42465Y-481838D01*
X42631D01*
X42811Y-481824D01*
X44073D01*
Y-488176D01*
D02*
G37*
%LPC*%
G36*
X762888Y-307686D02*
X762777D01*
X762758D01*
X762740D01*
X762444Y-307704D01*
X762166Y-307778D01*
X761925Y-307871D01*
X761721Y-307982D01*
X761555Y-308093D01*
X761444Y-308186D01*
X761351Y-308260D01*
X761333Y-308278D01*
X761147Y-308500D01*
X760999Y-308760D01*
X760907Y-309000D01*
X760833Y-309241D01*
X760796Y-309463D01*
X760777Y-309630D01*
X760759Y-309741D01*
Y-309778D01*
X760777Y-310112D01*
X760851Y-310408D01*
X760944Y-310667D01*
X761055Y-310889D01*
X761147Y-311056D01*
X761240Y-311185D01*
X761314Y-311278D01*
X761333Y-311297D01*
X761555Y-311482D01*
X761814Y-311630D01*
X762055Y-311722D01*
X762295Y-311796D01*
X762499Y-311833D01*
X762666Y-311852D01*
X762777Y-311870D01*
X762795D01*
X762814D01*
X763110Y-311852D01*
X763369Y-311778D01*
X763610Y-311685D01*
X763814Y-311574D01*
X763980Y-311482D01*
X764110Y-311389D01*
X764184Y-311315D01*
X764203Y-311297D01*
X764406Y-311056D01*
X764555Y-310815D01*
X764647Y-310556D01*
X764721Y-310315D01*
X764758Y-310093D01*
X764795Y-309926D01*
Y-309778D01*
X764777Y-309463D01*
X764703Y-309167D01*
X764610Y-308926D01*
X764499Y-308704D01*
X764388Y-308538D01*
X764295Y-308408D01*
X764221Y-308315D01*
X764203Y-308297D01*
X763962Y-308093D01*
X763721Y-307945D01*
X763481Y-307834D01*
X763258Y-307760D01*
X763055Y-307723D01*
X762888Y-307686D01*
D02*
G37*
G36*
X756963Y-307167D02*
X756907D01*
X756870D01*
X756852D01*
X756463Y-307204D01*
X756092Y-307278D01*
X755778Y-307408D01*
X755518Y-307538D01*
X755315Y-307667D01*
X755148Y-307797D01*
X755055Y-307871D01*
X755018Y-307908D01*
X754778Y-308204D01*
X754593Y-308500D01*
X754481Y-308815D01*
X754389Y-309112D01*
X754333Y-309371D01*
X754315Y-309593D01*
X754296Y-309667D01*
Y-309778D01*
X754315Y-310037D01*
X754352Y-310297D01*
X754407Y-310537D01*
X754463Y-310741D01*
X754519Y-310908D01*
X754574Y-311037D01*
X754611Y-311111D01*
X754630Y-311148D01*
X754778Y-311371D01*
X754926Y-311556D01*
X755092Y-311722D01*
X755259Y-311852D01*
X755389Y-311963D01*
X755500Y-312037D01*
X755592Y-312074D01*
X755611Y-312093D01*
X755852Y-312185D01*
X756074Y-312259D01*
X756296Y-312315D01*
X756500Y-312352D01*
X756666Y-312370D01*
X756796Y-312389D01*
X756870D01*
X756907D01*
X757296Y-312352D01*
X757648Y-312278D01*
X757962Y-312167D01*
X758240Y-312019D01*
X758444Y-311889D01*
X758611Y-311778D01*
X758703Y-311704D01*
X758740Y-311667D01*
X758981Y-311389D01*
X759166Y-311074D01*
X759296Y-310778D01*
X759388Y-310482D01*
X759444Y-310223D01*
X759462Y-310019D01*
X759481Y-309945D01*
Y-309834D01*
X759444Y-309426D01*
X759370Y-309056D01*
X759240Y-308723D01*
X759111Y-308445D01*
X758962Y-308223D01*
X758833Y-308056D01*
X758759Y-307964D01*
X758722Y-307927D01*
X758426Y-307667D01*
X758111Y-307482D01*
X757796Y-307353D01*
X757518Y-307260D01*
X757240Y-307204D01*
X757037Y-307186D01*
X756963Y-307167D01*
D02*
G37*
%LPD*%
D10*
X781000Y-256000D02*
G03*
X784000Y-259000I3000J0D01*
G01*
X788000D02*
G03*
X791000Y-256000I0J3000D01*
G01*
Y-265000D02*
G03*
X789000Y-263000I-2000J0D01*
G01*
X788000Y-271000D02*
G03*
X791000Y-268000I0J3000D01*
G01*
X781000Y-268000D02*
G03*
X784000Y-271000I3000J0D01*
G01*
Y-263000D02*
G03*
X781000Y-266000I0J-3000D01*
G01*
X785000Y-203000D02*
G03*
X782000Y-200000I-3000J0D01*
G01*
X785000Y-207000D02*
G03*
X786000Y-208000I1000J0D01*
G01*
X788000Y-200000D02*
G03*
X785000Y-203000I0J-3000D01*
G01*
X791000D02*
G03*
X788000Y-200000I-3000J0D01*
G01*
X791000Y-242000D02*
G03*
X788000Y-239000I-3000J0D01*
G01*
D02*
G03*
X785000Y-242000I0J-3000D01*
G01*
X783000Y-239000D02*
G03*
X781000Y-241000I0J-2000D01*
G01*
X785000Y-241000D02*
G03*
X783000Y-239000I-2000J0D01*
G01*
X789000Y-302000D02*
G03*
X787000Y-304000I0J-2000D01*
G01*
X791000Y-304000D02*
G03*
X789000Y-302000I-2000J0D01*
G01*
X787000Y-305000D02*
G03*
X784000Y-302000I-3000J0D01*
G01*
D02*
G03*
X781000Y-305000I0J-3000D01*
G01*
X784000Y-275000D02*
G03*
X781000Y-278000I0J-3000D01*
G01*
X791000Y-278000D02*
G03*
X788000Y-275000I-3000J0D01*
G01*
X788000Y-220000D02*
G03*
X791000Y-217000I0J3000D01*
G01*
Y-215000D02*
G03*
X788000Y-212000I-3000J0D01*
G01*
X791000Y-191000D02*
G03*
X788000Y-188000I-3000J0D01*
G01*
X784000Y-188000D02*
G03*
X781000Y-191000I0J-3000D01*
G01*
X790000Y-293000D02*
G03*
X790000Y-293000I-4000J0D01*
G01*
Y-229000D02*
G03*
X790000Y-229000I-4000J0D01*
G01*
X791000Y-293000D02*
G03*
X791000Y-293000I-5000J0D01*
G01*
Y-229000D02*
G03*
X791000Y-229000I-5000J0D01*
G01*
X781000Y-256000D02*
Y-251000D01*
X784000Y-259000D02*
X788000D01*
X791000Y-268000D02*
Y-265000D01*
X784000Y-263000D02*
X785000D01*
Y-265000D02*
Y-263000D01*
X781000Y-268000D02*
Y-266000D01*
X784000Y-271000D02*
X788000D01*
X781000Y-200000D02*
X782000D01*
X791000Y-208000D02*
Y-203000D01*
X785000Y-207000D02*
Y-203000D01*
X781000Y-247000D02*
X791000D01*
Y-242000D01*
X785000Y-247000D02*
Y-242000D01*
X781000Y-247000D02*
Y-241000D01*
X785000Y-259000D02*
Y-254000D01*
X787000Y-310000D02*
Y-305000D01*
X781000Y-310000D02*
Y-305000D01*
Y-310000D02*
X791000D01*
Y-304000D01*
X781000Y-283000D02*
X791000D01*
X781000D02*
Y-278000D01*
X784000Y-275000D02*
X788012D01*
X788000Y-275000D02*
X788012D01*
X791000Y-283000D02*
Y-278000D01*
X781000Y-220000D02*
X788000D01*
X781000Y-208000D02*
X791000D01*
X785000Y-220000D02*
Y-212000D01*
X781000D02*
X788000D01*
X791000Y-217000D02*
Y-215000D01*
Y-256000D02*
Y-251000D01*
Y-196000D02*
Y-191000D01*
X788000Y-188000D02*
X788012D01*
X784000Y-188000D02*
X788012D01*
X781000Y-196000D02*
Y-191000D01*
Y-196000D02*
X791000D01*
X777000Y-314000D02*
Y-302000D01*
X783000Y-296000D01*
X789000Y-226000D02*
X789000D01*
X795000Y-220000D01*
Y-184000D01*
X781000Y-298000D02*
X786000D01*
X781000D02*
Y-293000D01*
X791000Y-229016D02*
Y-224000D01*
X786000D02*
X791000D01*
D11*
X788012Y-275000D02*
D03*
Y-188000D02*
D03*
D13*
X5000Y-490000D02*
G03*
X10000Y-495000I5000J0D01*
G01*
X10000Y-425000D02*
G03*
X5000Y-430000I0J-5000D01*
G01*
X75000D02*
G03*
X70000Y-425000I-5000J0D01*
G01*
X80000D02*
G03*
X75000Y-430000I0J-5000D01*
G01*
X125000D02*
G03*
X120000Y-425000I-5000J0D01*
G01*
X130000D02*
G03*
X125000Y-430000I0J-5000D01*
G01*
X175000D02*
G03*
X170000Y-425000I-5000J0D01*
G01*
X180000D02*
G03*
X175000Y-430000I0J-5000D01*
G01*
X375000D02*
G03*
X370000Y-425000I-5000J0D01*
G01*
X380000D02*
G03*
X375000Y-430000I0J-5000D01*
G01*
X425000D02*
G03*
X420000Y-425000I-5000J0D01*
G01*
X480000D02*
G03*
X475000Y-430000I0J-5000D01*
G01*
X525000D02*
G03*
X520000Y-425000I-5000J0D01*
G01*
X530000D02*
G03*
X525000Y-430000I0J-5000D01*
G01*
X575000D02*
G03*
X570000Y-425000I-5000J0D01*
G01*
X580000D02*
G03*
X575000Y-430000I0J-5000D01*
G01*
X625000D02*
G03*
X620000Y-425000I-5000J0D01*
G01*
X630000D02*
G03*
X625000Y-430000I0J-5000D01*
G01*
X675000D02*
G03*
X670000Y-425000I-5000J0D01*
G01*
X680000D02*
G03*
X675000Y-430000I0J-5000D01*
G01*
X725000D02*
G03*
X720000Y-425000I-5000J0D01*
G01*
X325000Y-430000D02*
G03*
X320000Y-425000I-5000J0D01*
G01*
X280000D02*
G03*
X275000Y-430000I0J-5000D01*
G01*
D02*
G03*
X270000Y-425000I-5000J0D01*
G01*
X230000D02*
G03*
X225000Y-430000I0J-5000D01*
G01*
D02*
G03*
X220000Y-425000I-5000J0D01*
G01*
X792500Y-495000D02*
G03*
X795000Y-492500I0J2500D01*
G01*
X795000Y-430000D02*
G03*
X790000Y-425000I-5000J0D01*
G01*
X730000D02*
G03*
X725000Y-430000I0J-5000D01*
G01*
X475000D02*
G03*
X470000Y-425000I-5000J0D01*
G01*
X430000D02*
G03*
X425000Y-430000I0J-5000D01*
G01*
X375000D02*
G03*
X370000Y-425000I-5000J0D01*
G01*
X330000D02*
G03*
X325000Y-430000I0J-5000D01*
G01*
X470000Y-75000D02*
G03*
X475000Y-70000I0J5000D01*
G01*
X425000D02*
G03*
X430000Y-75000I5000J0D01*
G01*
X370000D02*
G03*
X375000Y-70000I0J5000D01*
G01*
X325000D02*
G03*
X330000Y-75000I5000J0D01*
G01*
X70000D02*
G03*
X75000Y-70000I0J5000D01*
G01*
X5000D02*
G03*
X10000Y-75000I5000J0D01*
G01*
X7500Y-5000D02*
G03*
X5000Y-7500I0J-2500D01*
G01*
X575000Y-70000D02*
G03*
X580000Y-75000I5000J0D01*
G01*
X570000D02*
G03*
X575000Y-70000I0J5000D01*
G01*
X525000D02*
G03*
X530000Y-75000I5000J0D01*
G01*
X520000D02*
G03*
X525000Y-70000I0J5000D01*
G01*
X475000D02*
G03*
X480000Y-75000I5000J0D01*
G01*
X75000Y-70000D02*
G03*
X80000Y-75000I5000J0D01*
G01*
X120000D02*
G03*
X125000Y-70000I0J5000D01*
G01*
D02*
G03*
X130000Y-75000I5000J0D01*
G01*
X170000D02*
G03*
X175000Y-70000I0J5000D01*
G01*
D02*
G03*
X180000Y-75000I5000J0D01*
G01*
X220000D02*
G03*
X225000Y-70000I0J5000D01*
G01*
D02*
G03*
X230000Y-75000I5000J0D01*
G01*
X270000D02*
G03*
X275000Y-70000I0J5000D01*
G01*
D02*
G03*
X280000Y-75000I5000J0D01*
G01*
X320000D02*
G03*
X325000Y-70000I0J5000D01*
G01*
X375000D02*
G03*
X380000Y-75000I5000J0D01*
G01*
X420000D02*
G03*
X425000Y-70000I0J5000D01*
G01*
D02*
G03*
X430000Y-75000I5000J0D01*
G01*
X620000D02*
G03*
X625000Y-70000I0J5000D01*
G01*
D02*
G03*
X630000Y-75000I5000J0D01*
G01*
X670000D02*
G03*
X675000Y-70000I0J5000D01*
G01*
D02*
G03*
X680000Y-75000I5000J0D01*
G01*
X720000D02*
G03*
X725000Y-70000I0J5000D01*
G01*
D02*
G03*
X730000Y-75000I5000J0D01*
G01*
X790000D02*
G03*
X795000Y-70000I0J5000D01*
G01*
Y-10000D02*
G03*
X790000Y-5000I-5000J0D01*
G01*
X5000Y-475000D02*
X25000D01*
X10000Y-495000D02*
X25000D01*
X5000Y-490000D02*
Y-430000D01*
X10000Y-425000D02*
X70000D01*
X80000D02*
X120000D01*
X130000D02*
X170000D01*
X180000D02*
X220000D01*
X380000D02*
X420000D01*
X480000D02*
X520000D01*
X530000D02*
X570000D01*
X680000D02*
X720000D01*
X25000Y-495000D02*
X125000D01*
X75000D02*
Y-430000D01*
X125000Y-495000D02*
Y-485000D01*
Y-430000D01*
X25000Y-475000D02*
X125000D01*
X175000Y-495000D02*
Y-430000D01*
Y-495000D02*
X275000D01*
X225000D02*
Y-430000D01*
X275000Y-495000D02*
Y-485000D01*
X175000Y-495000D02*
Y-485000D01*
X275000D02*
Y-430000D01*
X175000Y-475000D02*
X275000D01*
X325000Y-495000D02*
Y-430000D01*
Y-495000D02*
Y-485000D01*
X375000D02*
Y-430000D01*
X475000Y-485000D02*
Y-430000D01*
X525000Y-475000D02*
X625000D01*
Y-485000D02*
Y-430000D01*
X125000Y-495000D02*
Y-485000D01*
X175000Y-495000D02*
Y-485000D01*
X275000Y-495000D02*
Y-485000D01*
X325000Y-495000D02*
Y-485000D01*
X375000Y-495000D02*
Y-485000D01*
Y-495000D02*
Y-485000D01*
X475000Y-495000D02*
Y-485000D01*
Y-495000D02*
Y-485000D01*
X625000Y-495000D02*
Y-485000D01*
X675000Y-495000D02*
Y-485000D01*
X725000Y-495000D02*
Y-485000D01*
Y-495000D02*
Y-430000D01*
X575000Y-495000D02*
Y-430000D01*
X525000Y-495000D02*
X625000D01*
X525000D02*
Y-430000D01*
X675000Y-495000D02*
Y-430000D01*
Y-495000D02*
Y-430000D01*
X688500Y-425000D02*
X700000D01*
X550000Y-425000D02*
X561500D01*
X644750Y-425000D02*
X670000Y-425000D01*
X630000D02*
X644750Y-425000D01*
X595000Y-425000D02*
X620000Y-425000D01*
X580000D02*
X595000Y-425000D01*
X230000Y-425000D02*
X245000Y-425000D01*
Y-425000D02*
X270000Y-425000D01*
X280000D02*
X294750Y-425000D01*
Y-425000D02*
X320000Y-425000D01*
X725000Y-495000D02*
X792500D01*
X725000D02*
Y-430000D01*
X730000Y-425000D02*
X790000D01*
X795000Y-492500D02*
Y-430000D01*
X430000Y-425000D02*
X445000Y-425000D01*
Y-425000D02*
X470000Y-425000D01*
X425000Y-495000D02*
Y-430000D01*
X475000Y-495000D02*
Y-485000D01*
Y-430000D01*
X350000Y-425000D02*
X361500D01*
X325000Y-495000D02*
Y-430000D01*
X375000Y-495000D02*
Y-430000D01*
X325000Y-495000D02*
Y-485000D01*
X330000Y-425000D02*
X370000D01*
X425000Y-495000D02*
X475000D01*
X325000D02*
X375000D01*
X675000D02*
X728000D01*
X72000Y-5000D02*
X125000D01*
X425000D02*
X475000D01*
X325000D02*
X375000D01*
X430000Y-75000D02*
X470000D01*
X475000Y-15000D02*
Y-5000D01*
X425000Y-70000D02*
Y-5000D01*
X475000Y-70000D02*
Y-5000D01*
X438500Y-75000D02*
X450000D01*
X325000Y-70000D02*
Y-15000D01*
Y-5000D01*
X375000Y-70000D02*
Y-5000D01*
X330000Y-75000D02*
X355000Y-75000D01*
Y-75000D02*
X370000Y-75000D01*
X5000Y-70000D02*
Y-7500D01*
X10000Y-75000D02*
X70000D01*
X75000Y-70000D02*
Y-5000D01*
X7500D02*
X75000D01*
X480000Y-75000D02*
X505250Y-75000D01*
Y-75000D02*
X520000Y-75000D01*
X530000D02*
X555000Y-75000D01*
Y-75000D02*
X570000Y-75000D01*
X205000Y-75000D02*
X220000Y-75000D01*
X180000D02*
X205000Y-75000D01*
X155250Y-75000D02*
X170000Y-75000D01*
X130000D02*
X155250Y-75000D01*
X238500Y-75000D02*
X250000D01*
X100000Y-75000D02*
X111500D01*
X125000Y-70000D02*
Y-5000D01*
Y-70000D02*
Y-5000D01*
X275000Y-70000D02*
Y-5000D01*
X175000D02*
X275000D01*
X225000Y-70000D02*
Y-5000D01*
X75000Y-70000D02*
Y-5000D01*
Y-15000D02*
Y-5000D01*
X125000Y-15000D02*
Y-5000D01*
X175000Y-15000D02*
Y-5000D01*
X325000Y-15000D02*
Y-5000D01*
Y-15000D02*
Y-5000D01*
X425000Y-15000D02*
Y-5000D01*
Y-15000D02*
Y-5000D01*
X475000Y-15000D02*
Y-5000D01*
X525000Y-15000D02*
Y-5000D01*
X625000Y-15000D02*
Y-5000D01*
X675000Y-15000D02*
Y-5000D01*
X175000Y-70000D02*
Y-15000D01*
Y-25000D02*
X275000D01*
X325000Y-70000D02*
Y-15000D01*
X425000Y-70000D02*
Y-15000D01*
X475000D02*
Y-5000D01*
Y-70000D02*
Y-5000D01*
X525000Y-25000D02*
X625000D01*
X525000Y-70000D02*
Y-15000D01*
X625000D02*
Y-5000D01*
X525000Y-15000D02*
Y-5000D01*
X575000Y-70000D02*
Y-5000D01*
X525000D02*
X625000D01*
Y-70000D02*
Y-5000D01*
X675000Y-25000D02*
X775000D01*
X675000Y-70000D02*
Y-15000D01*
Y-5000D01*
X725000Y-70000D02*
Y-5000D01*
X675000D02*
X775000D01*
X80000Y-75000D02*
X120000D01*
X230000D02*
X270000D01*
X280000D02*
X320000D01*
X380000D02*
X420000D01*
X580000D02*
X620000D01*
X630000D02*
X670000D01*
X680000D02*
X720000D01*
X730000D02*
X790000D01*
X795000Y-70000D02*
Y-10000D01*
X775000Y-5000D02*
X790000D01*
X775000Y-25000D02*
X795000D01*
D19*
X7375Y-476250D02*
D03*
X792625Y-23750D02*
D03*
D20*
X8500Y-489500D02*
D03*
X791500Y-10500D02*
D03*
D21*
X8875Y-489500D02*
D03*
X791125Y-10500D02*
D03*
D22*
X7750Y-482875D02*
D03*
X792250Y-17125D02*
D03*
D23*
X8125Y-491000D02*
D03*
X791875Y-9000D02*
D03*
M02*
