M48
;Layer_Color=9474304
;FILE_FORMAT=4:4
METRIC,LZ
;TYPE=PLATED
T01F00S00C0.8000
T02F00S00C0.9000
T03F00S00C2.0000
%
T01
X0045Y-0054
X005
X00475Y-0049
X00525
Y-0044
X00475
Y-0039
X00525
X00575
Y-0044
X00625
X00675
Y-0039
X00625
Y-0034
X00675
Y-0029
X00625
X00575
X00525
X00475
Y-0034
X00525
X00575
X006Y-0024
X005
X0045
X00575Y-0049
X00625
X00675
X006Y-0054
X00425Y-0049
X00375
X00325
Y-0044
Y-0039
Y-0034
Y-0029
X00375
X00425
X0035Y-0024
X003
X0025
X002
X0015
X001
X0005
X00075Y-0029
X00125
X00175
X00225
X00275
Y-0034
Y-0039
Y-0044
X00225
X00175
X00125
Y-0039
X00175
X00225
Y-0034
X00175
X00125
X00075
Y-0039
Y-0044
Y-0049
X00125
X00175
X00225
X00275
X003Y-0054
X0035
X001
X0005
X00025Y-0049
X-00025
X-00075
Y-0044
X-00125
X-00175
Y-0049
X-00225
X-00275
Y-0044
X-00225
Y-0039
X-00175
X-00125
Y-0034
X-00175
X-00225
X-00275
Y-0039
Y-0029
X-00225
X-00175
X-00125
X-00075
Y-0034
Y-0039
X-00025Y-0029
X00025
X-0005Y-0024
X-001
X-002
Y-0054
X-001
X-0005
X-00125Y-0049
X-001Y-0015
X-0005
X-00075Y-001
X-00125
X-00175
X-00225
X-00275
Y-0005
X-00225
X-00175
X-00125
X-00075
Y0
X-00125
X-00175
X-00225
X-00275
Y0005
X-00225
X-00175
X-00125
X-00075
Y001
X-00025
X00025
X-0005Y0015
X-001
X-00125Y001
X-00175
X-00225
X-00275
X-002Y0015
Y-0015
X-00025Y-001
X00025
X00075
Y-0005
X00125
X00175
X00225
X00275
Y0
X00225
X00175
X00125
X00075
Y0005
Y001
X00125
X00175
X00225
X00275
Y0005
X00225
X00175
X00125
X001Y0015
X0005
X003
X0035
X00375Y001
X00425
X00325
Y0005
Y0
Y-0005
Y-001
X00375
X00425
X0035Y-0015
X003
X0025
X002
X0015
X001
X0005
X00125Y-001
X00175
X00225
X00275
X00475
X00525
Y-0005
X00475
Y0
X00525
Y0005
X00475
Y001
X00525
X00575
Y0005
X00625
Y0
X00575
Y-0005
Y-001
X00625
X00675
Y-0005
Y0
Y0005
Y001
X00625
X006Y0015
X005
X0045
Y-0015
X005
X006
X00625Y-0005
T02
X003619Y-004281
X003873Y-004281
X004127Y-004281
X004381
Y-003519
X004127Y-003519
X003873Y-003519
X003619
X000381
X000127Y-003519
X-000127Y-003519
X-000381
Y-004281
X-000127Y-004281
X000127Y-004281
X000381
Y-000381
X000127
X-000127Y-000381
X-000381Y-000381
Y000381
X-000127
X000127Y000381
X000381Y000381
X003619
X003873
X004127Y000381
X004381Y000381
Y-000381
X004127
X003873Y-000381
X003619Y-000381
T03
X0055Y-00565
X0067Y-0054
Y-0024
X0055Y-002225
X004
X004Y-00565
X0025
X002
X0015
X0
X-0015
X-0027Y-0054
Y-0024
X-0015Y-002225
X-0Y-002225
Y-001675
X-0015Y-001675
X-0027Y-0015
Y0015
X-0015Y00175
X0
X0015
X002
X0025
X004
X004Y-001675
X0055
X0067Y-0015
Y0015
X0055Y00175
M30
