G04*
G04 #@! TF.GenerationSoftware,Altium Limited,Altium Designer,24.6.1 (21)*
G04*
G04 Layer_Color=32768*
%FSLAX44Y44*%
%MOMM*%
G71*
G04*
G04 #@! TF.SameCoordinates,801A7B55-1520-438C-8D58-620F3B385FE8*
G04*
G04*
G04 #@! TF.FilePolarity,Positive*
G04*
G01*
G75*
%ADD28C,0.0500*%
%ADD29C,0.1000*%
D28*
X52500Y-438500D02*
X52500Y-341500D01*
X-52500Y-438500D02*
X-52500Y-341500D01*
X52500D01*
X-52500Y-438500D02*
X52500D01*
X452500D02*
X452500Y-341500D01*
X347500Y-438500D02*
X347500Y-341500D01*
X452500D01*
X347500Y-438500D02*
X452500D01*
Y-48500D02*
X452500Y48500D01*
X347500Y-48500D02*
X347500Y48500D01*
X452500D01*
X347500Y-48500D02*
X452500D01*
X-52500D02*
X52500D01*
X-52500Y48500D02*
X52500D01*
X-52500Y-48500D02*
X-52500Y48500D01*
X52500Y-48500D02*
X52500Y48500D01*
D29*
X-5000Y-390000D02*
X5000D01*
X0Y-395000D02*
Y-385000D01*
X395000Y-390000D02*
X405000D01*
X400000Y-395000D02*
Y-385000D01*
X395000Y0D02*
X405000D01*
X400000Y-5000D02*
Y5000D01*
X0Y-5000D02*
Y5000D01*
X-5000Y0D02*
X5000D01*
M02*
