G04*
G04 #@! TF.GenerationSoftware,Altium Limited,Altium Designer,24.6.1 (21)*
G04*
G04 Layer_Physical_Order=1*
G04 Layer_Color=255*
%FSLAX44Y44*%
%MOMM*%
G71*
G04*
G04 #@! TF.SameCoordinates,9B16286B-4A24-460F-9477-999D6B2B2959*
G04*
G04*
G04 #@! TF.FilePolarity,Positive*
G04*
G01*
G75*
%ADD17C,0.8000*%
%ADD18C,0.4500*%
G04:AMPARAMS|DCode=19|XSize=4mm|YSize=4mm|CornerRadius=0.5mm|HoleSize=0mm|Usage=FLASHONLY|Rotation=180.000|XOffset=0mm|YOffset=0mm|HoleType=Round|Shape=RoundedRectangle|*
%AMROUNDEDRECTD19*
21,1,4.0000,3.0000,0,0,180.0*
21,1,3.0000,4.0000,0,0,180.0*
1,1,1.0000,-1.5000,1.5000*
1,1,1.0000,1.5000,1.5000*
1,1,1.0000,1.5000,-1.5000*
1,1,1.0000,-1.5000,-1.5000*
%
%ADD19ROUNDEDRECTD19*%
%ADD20C,1.5000*%
%ADD21C,4.0000*%
D17*
X324200Y-199200D02*
X362000D01*
X275000Y-150000D02*
X324200Y-199200D01*
X348800Y-173800D02*
X362000D01*
X275000Y-100000D02*
X348800Y-173800D01*
X299600Y-224600D02*
X362000D01*
X275000Y-200000D02*
X299600Y-224600D01*
X275000Y-250000D02*
X362000D01*
X438200D02*
X525200D01*
X500600Y-224600D02*
X525200Y-200000D01*
X438200Y-224600D02*
X500600D01*
X451400Y-173800D02*
X525200Y-100000D01*
X438200Y-173800D02*
X451400D01*
X476000Y-199200D02*
X525200Y-150000D01*
X438200Y-199200D02*
X476000D01*
X275000Y-300000D02*
X299600Y-275400D01*
X362000D01*
X275000Y-400000D02*
X348800Y-326200D01*
X362000D01*
X275000Y-350000D02*
X324200Y-300800D01*
X362000D01*
X500600Y-275400D02*
X525200Y-300000D01*
X438200Y-275400D02*
X500600D01*
X451400Y-326200D02*
X525200Y-400000D01*
X438200Y-326200D02*
X451400D01*
X476000Y-300800D02*
X525200Y-350000D01*
X438200Y-300800D02*
X476000D01*
D18*
X600000Y-450000D02*
X625000Y-425000D01*
X575000D02*
X600000Y-450000D01*
X250000D02*
X275000Y-425000D01*
X225000D02*
X250000Y-450000D01*
X125000Y-425000D02*
X225000D01*
X100000Y-450000D02*
X125000Y-425000D01*
X450000Y-450000D02*
X475000Y-425000D01*
X725000D02*
X750000Y-450000D01*
X625000Y-425000D02*
X725000D01*
X475000D02*
X575000D01*
X425000D02*
X450000Y-450000D01*
X275000Y-425000D02*
X425000D01*
X375000Y-75000D02*
X525000D01*
X350000Y-50000D02*
X375000Y-75000D01*
X225000D02*
X325000D01*
X75000D02*
X175000D01*
X50000Y-50000D02*
X75000Y-75000D01*
X325000D02*
X350000Y-50000D01*
X675000Y-75000D02*
X700000Y-50000D01*
X575000Y-75000D02*
X675000D01*
X550000Y-50000D02*
X575000Y-75000D01*
X525000D02*
X550000Y-50000D01*
X200000D02*
X225000Y-75000D01*
X175000D02*
X200000Y-50000D01*
D19*
X425000Y-400000D02*
D03*
Y-100000D02*
D03*
X375000D02*
D03*
Y-400000D02*
D03*
X775000Y-300000D02*
D03*
Y-250000D02*
D03*
Y-200000D02*
D03*
X275000Y-350000D02*
D03*
X225000D02*
D03*
Y-150000D02*
D03*
Y-200000D02*
D03*
Y-250000D02*
D03*
X275000D02*
D03*
Y-200000D02*
D03*
Y-150000D02*
D03*
X225000Y-300000D02*
D03*
X275000D02*
D03*
X525000Y-350000D02*
D03*
Y-300000D02*
D03*
Y-250000D02*
D03*
Y-200000D02*
D03*
Y-150000D02*
D03*
X50000Y-450000D02*
D03*
X100000D02*
D03*
X150000D02*
D03*
X200000D02*
D03*
X250000D02*
D03*
X300000D02*
D03*
X400000D02*
D03*
X500000D02*
D03*
X550000D02*
D03*
X600000D02*
D03*
X650000D02*
D03*
X700000D02*
D03*
X750000D02*
D03*
X450000D02*
D03*
X350000D02*
D03*
X450000Y-50000D02*
D03*
X350000D02*
D03*
X775000Y-400000D02*
D03*
X725000D02*
D03*
X525000D02*
D03*
X675000D02*
D03*
X275000D02*
D03*
X225000D02*
D03*
X175000D02*
D03*
X125000D02*
D03*
X75000D02*
D03*
X25000D02*
D03*
X625000D02*
D03*
X575000D02*
D03*
X775000Y-350000D02*
D03*
X725000D02*
D03*
X675000D02*
D03*
X175000D02*
D03*
X125000D02*
D03*
X75000D02*
D03*
X25000D02*
D03*
X625000D02*
D03*
X575000D02*
D03*
X50000Y-50000D02*
D03*
X625000Y-150000D02*
D03*
X575000D02*
D03*
X625000Y-200000D02*
D03*
X575000D02*
D03*
X625000Y-250000D02*
D03*
X575000D02*
D03*
X175000Y-150000D02*
D03*
Y-200000D02*
D03*
Y-250000D02*
D03*
X575000Y-300000D02*
D03*
X625000D02*
D03*
X25000D02*
D03*
X75000D02*
D03*
X125000D02*
D03*
X25000Y-250000D02*
D03*
X75000D02*
D03*
X125000D02*
D03*
X25000Y-200000D02*
D03*
X75000D02*
D03*
X125000D02*
D03*
X25000Y-150000D02*
D03*
X75000D02*
D03*
X125000D02*
D03*
X100000Y-50000D02*
D03*
X150000D02*
D03*
X200000D02*
D03*
X250000D02*
D03*
X300000D02*
D03*
X400000D02*
D03*
X500000D02*
D03*
X550000D02*
D03*
X600000D02*
D03*
X650000D02*
D03*
X700000D02*
D03*
X750000D02*
D03*
X275000Y-100000D02*
D03*
X225000D02*
D03*
X175000D02*
D03*
X125000D02*
D03*
X75000D02*
D03*
X25000D02*
D03*
X175000Y-300000D02*
D03*
X675000D02*
D03*
Y-100000D02*
D03*
X625000D02*
D03*
X575000D02*
D03*
X525000D02*
D03*
X675000Y-150000D02*
D03*
Y-200000D02*
D03*
Y-250000D02*
D03*
X725000Y-200000D02*
D03*
Y-150000D02*
D03*
X775000D02*
D03*
X725000Y-100000D02*
D03*
X775000D02*
D03*
X725000Y-250000D02*
D03*
Y-300000D02*
D03*
D20*
X438300Y-326100D02*
D03*
Y-300700D02*
D03*
X438300Y-275300D02*
D03*
X362000Y-326200D02*
D03*
Y-300800D02*
D03*
X362000Y-275400D02*
D03*
X362000Y-173800D02*
D03*
X362000Y-199200D02*
D03*
X362000Y-224600D02*
D03*
Y-250000D02*
D03*
X438200Y-173800D02*
D03*
Y-199200D02*
D03*
X438200Y-224600D02*
D03*
X438200Y-250000D02*
D03*
D21*
X30000Y-450000D02*
D03*
X650000Y-475000D02*
D03*
X150000D02*
D03*
X300000D02*
D03*
X500000D02*
D03*
X400000D02*
D03*
X770000Y-450000D02*
D03*
X30000Y-50000D02*
D03*
X400000Y-25000D02*
D03*
X300000D02*
D03*
X500000D02*
D03*
X650000D02*
D03*
X150000D02*
D03*
X770000Y-50000D02*
D03*
M02*
