M48
;Layer_Color=9474304
;FILE_FORMAT=4:4
METRIC,LZ
;TYPE=PLATED
T01F00S00C0.8000
T02F00S00C0.9000
T03F00S00C2.0000
%
T01
X007Y-0045
X006
X0055
X0045
X0035
X0025
X002
X001
X00075Y-004
X00125
X00175
X00225
Y-0035
Y-003
Y-0025
Y-002
Y-0015
X00175
Y-002
Y-0025
X00125
Y-003
Y-0035
X00175
Y-003
X00075
Y-0035
X00025
Y-004
Y-003
Y-0025
X00075
Y-002
X00025
Y-0015
X00075
X00125
Y-002
Y-001
X00175
X00225
X002Y-0005
X001
X00075Y-001
X00025
X00275
Y-0015
Y-002
Y-0025
Y-003
Y-0035
Y-004
X00375
X00425
X00525
Y-0035
Y-003
Y-0025
Y-002
Y-0015
X00575
X00625
Y-002
X00575
Y-0025
X00625
Y-003
Y-0035
Y-004
X00575
Y-0035
Y-003
Y-001
X00625
X006Y-0005
X0055
X00525Y-001
X00425
X00375
X0035Y-0005
X0025
X0045
X007
X00725Y-001
X00675
Y-0015
X00725
Y-002
X00675
Y-0025
X00725
X00775
Y-003
Y-0035
Y-004
X00725
X00675
Y-0035
X00725
Y-003
X00675
X00775Y-002
Y-0015
Y-001
T02
X00362Y-003262
Y-003008
X00362Y-002754
X00362Y-0025
Y-002246
X00362Y-001992
X00362Y-001738
X004382
Y-001992
X004382Y-002246
X004382Y-0025
X004383Y-002753
X004383Y-003007
Y-003261
T03
X0065Y-00475
X0077Y-0045
X005Y-00475
X004
X003
X0015
X0003Y-0045
X0003Y-0005
X0015Y-00025
X003
X004
X005
X0065
X0077Y-0005
M30
